<svg xmlns="http://www.w3.org/2000/svg" width="1600" height="966" viewBox="0 0 1600 966"><g fill="none" fill-rule="evenodd"><path fill="#FFF" d="M959.139599,0 C942.810147,66.4716779 877.604314,116.40614 799.955074,116.40614 C722.329578,116.40614 657.087188,66.4540898 640.763926,0 L959.139599,0 Z"/><ellipse cx="139.135" cy="824.756" fill="#FFF" rx="126.732" ry="126.739"/><path fill="#777878" d="M36.8092023,824.356102 L45.5113778,824.356102 L45.5113778,825.15635 L36.8092023,825.15635 L36.8092023,824.356102 Z M1527.1818,962.698977 L1527.1818,823.955978 L1594.69867,823.955978 L1594.69867,823.15573 L1527.1818,823.15573 L1527.1818,609.089387 L1596.29907,609.089387 L1596.29907,608.289139 L1527.1818,608.289139 L1527.1818,383.919603 L1594.69867,383.919603 L1594.69867,383.119355 L1527.1818,383.119355 L1527.1818,261.281596 L1594.29857,233.973132 L1594.29857,233.172884 L1527.1818,260.481348 L1527.1818,158.249664 L1593.39835,158.249664 L1593.39835,157.449416 L1527.1818,157.449416 L1527.1818,4.60142606 L1526.3816,4.60142606 L1526.3816,157.049292 L864.416104,157.049292 L864.416104,113.535187 L863.615904,113.535187 L863.615904,157.049292 L809.402351,157.049292 L851.612903,116.83621 L850.812703,116.436086 L808.202051,157.049292 L411.102776,157.049292 L475.71893,0.900279012 L474.91873,0.500155007 L409.902476,157.449416 L137.834459,157.449416 L137.834459,5.80179808 L137.034259,5.80179808 L137.034259,157.349385 L7.00175044,157.349385 L7.00175044,158.149633 L137.034259,158.149633 L137.034259,382.919293 L7.00175044,382.919293 L7.00175044,383.719541 L137.034259,383.719541 L137.034259,608.089077 L37.2093023,608.089077 L6.20155039,542.46874 L5.40135034,542.868864 L36.4091023,608.289139 L8.30207552,608.289139 L8.30207552,609.089387 L36.9092273,609.089387 L118.429607,782.543144 L119.229807,782.14302 L37.6094024,609.089387 L137.034259,609.089387 L137.034259,699.31735 L137.834459,699.31735 L137.834459,609.089387 L225.656414,609.089387 L153.23831,787.14457 L154.03851,787.544694 L226.856714,609.489511 L356.089022,609.489511 L179.244811,786.744446 L180.045011,787.544694 L357.689422,609.489511 L675.268817,609.489511 L177.244311,813.15263 L177.644411,813.952878 L677.769442,609.38948 L864.016004,609.38948 L864.416104,823.455823 L267.066767,823.455823 L267.066767,824.256071 L864.916229,824.256071 L864.916229,957.597396 L865.716429,957.597396 L865.716429,824.256071 L1526.88172,824.256071 L1526.3816,962.698977 L1527.1818,962.698977 Z M1526.3816,260.881472 L1227.90698,383.019324 L864.816204,383.019324 L864.416104,158.249664 L1526.3816,158.249664 L1526.3816,260.881472 Z M1526.3816,383.119355 L1230.4076,383.119355 L1526.3816,261.781751 L1526.3816,383.119355 Z M1526.3816,608.289139 L865.216304,608.289139 L865.216304,532.46564 L1228.70718,383.819572 L1526.3816,383.919603 L1526.3816,608.289139 Z M1526.3816,823.15573 L865.216304,823.15573 L864.816204,609.089387 L1526.3816,609.089387 L1526.3816,823.15573 Z M409.802451,158.249664 L317.87947,383.019324 L137.834459,383.019324 L137.834459,158.249664 L409.802451,158.249664 Z M807.301825,158.249664 L582.445611,383.019324 L318.779695,383.019324 L410.702676,158.249664 L807.301825,158.249664 Z M863.515879,158.249664 L863.915979,383.019324 L583.745936,383.019324 L808.502126,158.249664 L863.515879,158.249664 Z M317.47937,383.919603 L226.056514,608.289139 L137.834459,608.289139 L137.834459,383.919603 L317.47937,383.919603 Z M318.779695,383.919603 L581.645411,383.919603 L357.289322,608.289139 L226.856714,608.289139 L318.779695,383.919603 Z M864.016004,383.919603 L864.016004,532.165547 L677.269317,608.789294 L358.489622,608.789294 L582.945736,383.919603 L864.016004,383.919603 Z M864.816204,383.919603 L1226.10653,383.919603 L865.216304,531.665392 L864.816204,383.919603 Z M679.769942,608.289139 L864.016004,532.965795 L864.416104,608.289139 L679.769942,608.289139 Z M4.50112528,964.299473 L3.70092523,963.499225 L96.024006,864.168441 L96.8242061,864.968689 L4.50112528,964.299473 Z M84.0210053,847.16317 L83.6209052,846.362922 L7.00175044,876.172161 L7.40185046,876.972409 L84.0210053,847.16317 Z M6.20155039,792.946368 L81.9204801,818.654335 L81.5203801,819.454583 L5.80145036,793.746616 L6.20155039,792.946368 Z M181.345336,846.362922 L493.523381,960.198202 L493.123281,960.99845 L180.945236,847.16317 L181.345336,846.362922 Z M3.30082521,704.719024 L2.50062516,705.519273 L97.7244311,798.248011 L98.5246312,797.447763 L3.30082521,704.719024 Z M176.744186,865.768937 L175.943986,866.569185 L281.070268,965.099721 L281.870468,964.299473 C281.570393,964.299473 176.744186,865.768937 176.744186,865.768937 Z M157.339335,882.374083 L183.445861,962.298853 L184.246062,961.898729 L158.139535,881.973959 L157.339335,882.374083 Z M115.528882,874.07151 L77.4193548,963.099101 L78.2195549,963.499225 L116.329082,874.471634 L115.528882,874.07151 Z M137.834459,739.129689 L137.834459,830.257931 L137.034259,830.257931 L137.034259,739.129689 L137.834459,739.129689 Z M189.147287,823.555854 L240.860215,823.555854 L240.860215,824.356102 L185.046262,824.356102 L189.147287,823.555854 Z" opacity=".403"/><path fill="#777878" d="M176.344086,869.970239 C176.344086,869.570115 176.744186,869.169991 176.744186,869.169991 C176.744186,867.969619 176.344086,866.669216 175.943986,865.868968 C172.243061,863.768317 169.342336,862.167821 165.541385,860.467294 C162.64066,862.567945 158.939735,864.568565 154.738685,866.269092 C156.83921,871.670766 156.43911,873.671386 158.83971,879.07306 C158.83971,879.473184 159.23981,879.473184 159.63991,879.873308 C164.64116,878.172781 169.142286,875.772037 173.343336,872.871138 C174.243561,871.570735 175.143786,870.770487 176.344086,869.970239 Z M20.7051763,817.754056 C20.3050763,817.754056 19.5048762,817.754056 19.5048762,817.754056 C19.5048762,816.553684 19.9049762,815.253281 19.5048762,814.052909 C19.9049762,814.052909 19.9049762,814.052909 20.3050763,814.052909 L20.7051763,814.453033 C20.7051763,814.453033 20.7051763,814.853157 21.1052763,814.853157 C24.8062016,815.653405 29.8074519,815.253281 33.5083771,816.053529 C33.5083771,816.453653 33.5083771,816.853777 33.9084771,817.754056 C33.9084771,818.954428 30.6076519,819.454583 28.1070268,820.254831 C27.3068267,820.654955 26.0065016,820.654955 26.0065016,820.654955 C24.8062016,821.055079 28.5071268,821.855327 31.0077519,822.355482 C31.807952,822.355482 33.1082771,822.355482 33.5083771,822.755606 C34.7086772,823.555854 33.9084771,825.256381 32.308077,825.256381 C29.4073518,825.256381 23.6059015,826.056629 22.4056014,826.456753 L22.4056014,826.856877 C19.1047762,828.957528 20.3050763,822.355482 20.7051763,822.355482 C21.1052763,822.355482 21.5053763,822.755606 21.9054764,822.755606 L22.3055764,823.15573 C22.3055764,823.15573 22.3055764,823.555854 22.7056764,823.955978 C24.8062016,823.555854 26.8067017,823.955978 28.9072268,823.555854 C29.3073268,823.555854 31.0077519,823.15573 31.0077519,823.15573 C30.2075519,823.15573 29.3073268,822.755606 28.5071268,822.755606 C26.0065016,821.955358 21.5053763,821.555234 21.0052513,820.254831 C21.0052513,819.854707 21.4053513,819.854707 23.1057764,819.454583 C24.8062016,819.054459 26.4066017,818.254211 28.1070268,817.754056 C31.0077519,816.953808 30.2075519,817.353932 27.3068267,817.353932 C24.0060015,816.953808 22.8057014,816.953808 21.1052763,816.553684 C21.1052763,816.953808 21.1052763,817.353932 20.7051763,817.754056 Z M149.037259,927.488064 C147.336834,927.08794 130.832708,927.488064 129.132283,927.488064 C128.732183,927.488064 123.330833,927.08794 123.730933,927.488064 C123.730933,928.288312 124.131033,929.188592 124.131033,930.388964 L124.131033,944.893459 C97.2243061,941.99256 72.8182046,930.388964 54.2135534,912.583445 C57.1142786,909.282422 61.7154289,904.680996 65.4163541,900.979849 C79.91998,915.484344 98.1245311,923.286762 109.327332,927.08794 C122.130533,931.189212 125.931483,929.98884 109.327332,924.987289 C98.5246312,921.286142 81.6204051,913.783817 67.5168792,898.879198 C68.3170793,898.07895 69.2173043,897.178671 69.6174044,896.378423 C74.2185546,900.979849 78.7196799,904.680996 84.1210303,908.382143 C89.1222806,912.08329 94.9237309,914.984189 100.725181,917.484964 C106.526632,919.985739 112.728182,922.08639 118.929732,923.286762 C125.131283,924.487134 131.332833,925.387413 137.534384,925.387413 C137.934484,925.787537 138.334584,925.787537 138.734684,925.387413 C145.736434,925.387413 151.937984,924.587165 158.139535,923.286762 C164.341085,921.986359 170.542636,919.985739 176.344086,917.484964 C187.146787,912.883538 197.449362,906.681616 206.151538,899.279322 C206.551638,899.679446 206.951738,899.679446 206.551638,899.679446 C209.852463,902.980469 216.054014,909.182391 220.655164,914.183941 C215.253813,919.185491 209.452363,923.686886 203.250813,927.888188 C202.850713,927.488064 202.450613,926.687816 202.050513,925.787537 C201.650413,924.887258 196.249062,915.884468 195.848962,914.984189 C195.048762,913.783817 192.548137,912.883538 194.648662,915.784437 C196.749187,919.08546 199.649912,924.08701 202.050513,928.188281 C188.847212,936.490855 174.343586,941.892529 158.139535,944.293273 C157.339335,940.592126 156.43911,937.291103 156.03901,933.089801 C156.03901,932.289553 156.03901,931.389274 156.03901,930.589026 C156.03901,930.188902 154.338585,930.589026 153.938485,930.589026 C152.23806,930.98915 155.138785,930.589026 153.538385,930.98915 C153.538385,930.98915 153.538385,931.789398 153.538385,932.189522 C153.538385,932.589646 154.338585,932.98977 153.938485,933.890049 L155.138785,944.693397 C153.43836,945.093521 151.837959,945.093521 150.137534,945.093521 C149.737434,940.091971 149.737434,934.790328 149.337334,930.589026 C149.037259,929.98884 149.437359,929.188592 149.437359,928.688436 C149.437359,928.288312 149.437359,927.488064 149.037259,927.488064 Z M124.231058,949.794978 C98.5246312,946.894079 71.6179045,932.789708 52.6131533,914.584065 C52.6131533,914.584065 52.6131533,914.183941 53.0132533,914.183941 L53.4133533,913.783817 C72.4181045,931.98946 96.8242061,943.99318 124.231058,946.894079 L124.231058,949.794978 Z M150.237559,947.294203 C151.937984,947.294203 153.538385,946.894079 155.23881,946.493955 L155.63891,948.99473 C153.63841,949.394854 151.937984,949.794978 150.237559,949.794978 L150.237559,947.294203 Z M138.334584,934.490235 C137.934484,934.490235 137.534384,934.490235 137.134284,934.490235 C136.334084,934.490235 136.334084,934.490235 135.933983,934.890359 C135.533883,935.290483 135.133783,935.690607 135.133783,936.590886 C135.133783,936.99101 135.133783,937.391134 135.533883,937.791258 C135.933983,938.191382 135.533883,938.591506 135.933983,938.99163 C136.334084,939.391754 136.734184,939.391754 137.634409,939.791878 C138.034509,940.192002 138.834709,940.192002 139.334834,940.592126 C139.734934,940.99225 140.135034,941.392374 140.535134,941.792498 C140.935234,942.192622 140.935234,942.99287 140.935234,943.893149 C140.935234,944.793428 140.935234,945.093521 140.535134,945.593676 C140.135034,945.9938 140.135034,946.393924 139.734934,946.794048 C139.334834,947.194172 138.934734,947.194172 138.034509,947.594296 C137.634409,947.594296 136.834209,947.99442 135.933983,947.99442 C135.033758,947.99442 134.233558,947.99442 133.433358,947.99442 C133.033258,947.99442 133.033258,948.394544 132.633158,948.394544 C132.233058,948.394544 131.432858,948.394544 130.932733,947.99442 C130.932733,947.99442 130.932733,946.794048 130.932733,946.293893 C130.932733,945.893769 131.332833,945.093521 131.332833,944.593366 C132.133033,939.99194 133.433358,944.593366 133.833458,945.793738 C133.833458,945.793738 134.233558,945.793738 134.633658,946.193862 C135.033758,946.193862 135.433858,946.193862 135.433858,946.193862 C135.833958,946.193862 135.833958,946.193862 136.234059,945.793738 C138.734684,944.093211 135.433858,941.692467 134.133533,941.192312 C133.733433,940.792188 132.933233,940.392064 132.433108,940.392064 C132.033008,939.99194 131.632908,939.591816 131.232808,939.191692 C130.832708,938.791568 130.832708,937.99132 130.832708,937.091041 C130.832708,935.890669 131.232808,934.590266 132.033008,933.790018 C132.833208,932.98977 134.533633,932.589646 136.134034,932.589646 C136.534134,932.589646 136.934234,932.589646 137.334334,932.589646 C137.734434,932.589646 137.734434,932.189522 138.134534,932.189522 C138.534634,932.189522 139.334834,932.189522 139.834959,932.589646 C140.235059,932.589646 140.235059,933.389894 140.235059,933.790018 C140.235059,934.190142 140.635159,936.690917 140.635159,937.091041 C140.635159,937.491165 139.834959,939.591816 138.934734,937.891289 C139.534884,936.99101 139.534884,935.790638 139.134784,934.890359 C139.134784,934.890359 138.734684,934.490235 138.334584,934.490235 Z M130.832708,929.98884 C130.832708,929.98884 142.435609,929.188592 143.235809,929.588716 C144.036009,929.98884 143.635909,930.388964 144.036009,931.689367 C144.436109,932.889739 144.836209,946.593986 144.836209,950.295133 C139.434859,950.695257 134.433608,950.695257 129.132283,950.295133 C128.732183,948.594606 129.132283,930.789088 129.132283,929.98884 L130.832708,929.98884 Z M257.464366,832.258551 C256.664166,832.258551 255.763941,832.258551 255.363841,831.858427 C254.963741,831.858427 254.963741,831.058179 255.363841,831.058179 C256.164041,830.658055 257.464366,831.058179 257.864466,830.257931 C258.664666,829.057559 258.264566,827.357032 257.864466,826.15666 C257.464366,824.456133 254.963741,826.15666 253.263316,825.756536 C252.463116,825.756536 252.063016,827.857187 252.063016,828.657435 C252.463116,829.057559 253.263316,829.057559 253.763441,829.457683 C253.763441,829.457683 253.763441,829.857807 253.763441,830.257931 C252.963241,830.658055 252.063016,830.257931 251.262816,830.257931 C250.462616,830.257931 249.562391,830.257931 248.762191,830.257931 C248.362091,830.257931 248.762191,829.857807 248.762191,829.457683 C249.162291,829.057559 250.462616,829.057559 250.462616,828.657435 C250.862716,827.857187 250.462616,826.15666 249.662416,825.756536 C248.862216,825.356412 248.462116,825.756536 247.16179,825.756536 C246.36159,825.756536 245.461365,825.356412 244.661165,825.756536 C244.261065,826.15666 244.661165,826.956908 244.661165,827.857187 C244.661165,828.757466 244.261065,829.557714 244.661165,830.357962 C245.061265,831.15821 246.76169,830.758086 247.56189,831.558334 C247.96199,831.558334 247.56189,832.358582 247.56189,832.358582 C246.76169,833.15883 244.661165,831.958458 244.661165,831.958458 C244.261065,831.958458 243.860965,832.358582 243.460865,831.958458 C243.060765,827.857187 243.460865,825.356412 243.060765,821.15511 C243.060765,820.754986 244.261065,820.754986 244.261065,820.754986 C244.661165,820.754986 244.661165,821.15511 244.661165,821.555234 C244.661165,821.955358 244.661165,822.355482 245.061265,822.355482 C249.162291,822.755606 253.363341,822.355482 257.464366,822.355482 C257.864466,822.355482 257.864466,822.355482 257.864466,821.955358 C257.864466,821.555234 257.864466,821.15511 258.264566,821.15511 C258.664666,821.15511 259.464866,821.555234 259.464866,821.555234 C259.964991,825.256381 260.865216,828.15728 259.964991,831.858427 C259.964991,832.658675 257.864466,832.258551 257.464366,832.258551 Z M238.859715,823.955978 C238.859715,820.254831 238.459615,812.352382 237.659415,807.850987 C236.459115,801.649065 236.459115,801.649065 236.459115,801.649065 C236.459115,801.649065 237.259315,799.948538 238.55964,806.650615 C238.95974,808.751266 239.35984,812.052289 239.75994,814.953188 C240.56014,814.953188 240.96024,815.353312 241.860465,815.353312 C242.76069,815.353312 243.060765,815.353312 243.96099,815.353312 C244.36109,814.15294 243.96099,811.652165 243.56089,809.551514 C243.16079,806.250491 243.56089,803.749716 243.96099,803.349592 C244.36109,802.549344 244.76119,805.850367 245.16129,809.551514 C245.56139,811.252041 245.96149,813.652785 246.36159,815.353312 L248.462116,815.353312 L248.462116,814.15294 C248.062016,810.851917 248.462116,808.351142 248.862216,807.951018 C249.662416,807.15077 250.062516,810.851917 250.962741,814.553064 C250.962741,814.953188 250.962741,814.953188 250.962741,815.353312 L255.563891,815.353312 C253.063266,788.444973 242.76069,763.637284 225.756439,744.931487 C221.655414,748.632634 217.054264,752.833936 213.353338,755.734835 C213.353338,755.334711 213.353338,756.134959 212.953238,756.535083 C227.056764,773.140229 231.557889,789.645345 231.557889,789.645345 C231.557889,789.645345 210.852713,727.926217 139.234809,727.526093 C67.6169042,727.125969 48.612153,779.24212 48.612153,779.24212 C48.612153,779.24212 50.7126782,771.339671 57.3143286,761.836726 L56.9142286,761.836726 C56.5141285,761.036478 56.1140285,760.136199 55.7139285,759.736075 C52.0130033,755.634804 48.712178,753.934277 44.9112278,750.23313 C31.207802,766.338121 22.5056264,786.244291 19.2048012,808.15108 C24.2060515,808.551204 29.6074019,808.951328 33.7084271,809.351452 C34.1085271,808.15108 34.5086272,805.650305 34.9087272,803.14953 C35.3088272,799.848507 36.1090273,797.347732 36.6091523,796.947608 C37.4093523,796.14736 37.0092523,799.448383 37.0092523,803.14953 C37.0092523,804.850057 37.0092523,806.850677 37.0092523,808.551204 C37.4093523,808.551204 37.8094524,808.551204 37.8094524,808.951328 C38.2095524,810.651855 37.8094524,827.957218 37.8094524,829.257621 C37.8094524,829.657745 37.8094524,833.358892 37.8094524,833.358892 C37.0092523,833.358892 36.1090273,832.958768 35.3088272,832.958768 C31.607902,832.558644 26.6066517,833.358892 22.5056264,833.759016 L22.5056264,834.959388 C22.1055264,841.561434 25.4063516,857.766457 25.4063516,859.767077 C25.4063516,861.767697 25.8064516,862.267852 25.0062516,860.967449 C24.2060515,859.767077 22.9057264,858.866798 21.7054264,848.563604 C20.9052263,842.761806 20.5051263,837.360132 20.0050013,833.658985 C19.6049012,833.658985 18.8047012,833.658985 18.3045761,833.658985 C20.0050013,861.767697 30.7076769,887.875788 48.9122281,907.381833 C52.2130533,904.08081 57.2143036,899.979539 60.9152288,896.178361 C60.1150288,895.378113 59.2148037,894.07771 58.4146037,893.277462 C46.0115029,876.672316 41.8104526,868.06965 39.4098525,859.366953 C36.5091273,848.16348 36.9092273,839.960938 41.5103776,857.666426 C43.6109027,865.968999 48.112028,875.07182 61.0152538,891.176811 C61.8154539,891.977059 62.7156789,893.277462 63.1157789,894.07771 C63.915979,893.277462 64.316079,892.877338 64.8162041,891.977059 L64.8162041,891.576935 C62.7156789,889.07616 60.7151788,886.575385 59.0147537,884.174641 C55.7139285,879.573215 53.2133033,875.07182 50.7126782,870.07027 C48.212053,865.06872 46.2115529,860.167201 44.9112278,854.765527 C43.2108027,849.363852 42.4106027,843.962178 41.6104026,838.16038 C41.6104026,837.360132 41.6104026,836.459853 41.2103026,835.659605 C41.2103026,834.859357 41.2103026,833.959078 41.2103026,833.15883 C41.2103026,832.358582 41.2103026,831.458303 41.2103026,830.257931 C41.2103026,829.457683 41.2103026,828.557404 41.2103026,827.357032 C41.2103026,826.956908 41.2103026,826.556784 41.2103026,826.15666 C40.8102026,826.15666 40.4101025,825.756536 40.4101025,825.356412 C40.0100025,824.956288 40.4101025,824.556164 40.8102026,824.15604 L41.0102526,824.15604 L41.4103526,824.15604 C41.8104526,818.754366 42.2105526,813.352692 43.5108777,808.051049 C44.7111778,801.849127 46.8117029,795.647205 49.3123281,789.845407 C51.8129532,784.043609 54.7136784,778.24181 58.4146037,773.24026 C62.1155289,767.838586 65.9164791,763.337191 70.4176044,758.735765 C79.51988,750.033068 89.8224556,740.930247 101.425356,736.428852 C107.226807,733.928077 115.928982,733.127829 122.130533,731.927457 C127.131783,730.727085 130.432608,730.22693 135.833958,730.22693 L135.833958,729.526713 L136.634159,729.526713 C136.634159,729.526713 137.434359,729.526713 137.434359,730.326961 L137.834459,730.326961 C163.540885,730.326961 189.147287,739.829906 206.951738,758.035548 C211.552888,762.536943 214.353588,768.338741 217.754439,773.340291 C221.055264,778.741965 224.356089,784.14364 226.856714,789.945438 C229.357339,795.747236 231.457864,801.949158 232.658165,808.15108 C233.458365,812.652475 234.35859,817.654025 234.75869,822.655575 C237.659415,822.655575 239.35984,823.455823 236.459115,824.356102 L236.459115,824.756226 L234.75869,825.15635 C234.75869,825.956598 234.75869,827.257001 234.75869,828.057249 C234.75869,834.659295 233.95849,841.261341 232.658165,847.963418 C231.457864,854.16534 230.957739,862.467914 228.057014,867.869588 C223.455864,878.172781 217.254314,887.275602 209.452363,895.178051 L209.852463,895.578175 C213.553388,898.879198 219.354839,904.680996 223.955989,908.782267 C241.36034,889.776377 252.563141,864.868658 254.563641,837.960318 C251.262816,837.960318 247.56189,837.960318 244.16104,837.560194 C243.76094,840.461093 242.96074,847.863387 241.260315,852.864937 C240.060015,859.466984 239.15979,857.866488 239.15979,857.866488 C239.15979,857.866488 239.15979,857.866488 240.36009,851.664565 C241.16029,846.663015 241.56039,840.461093 241.56039,837.560194 C241.16029,837.560194 240.76019,837.560194 240.36009,837.560194 C239.95999,841.661465 239.15979,847.863387 237.859465,853.265061 C236.659165,858.266612 234.15854,866.06903 231.257814,873.171231 C228.757189,878.973029 225.856464,883.974579 223.855964,886.875478 C219.254814,893.477524 219.254814,892.677276 220.555139,890.576625 C221.755439,888.07585 229.257314,874.871758 233.35834,861.967759 C237.659415,852.964968 238.859715,843.462023 239.259815,837.660225 C238.859715,836.459853 238.859715,828.957528 238.859715,823.955978 Z M258.364591,814.853157 C260.065016,814.853157 261.265316,814.853157 262.465616,814.853157 C262.865716,814.853157 263.265816,814.853157 263.665916,814.853157 C263.665916,814.052909 263.665916,812.752506 263.265816,811.952258 C261.565391,794.14674 263.665916,804.449933 258.264566,787.944818 C257.064266,783.843547 255.763941,780.042369 254.163541,776.341221 C252.563141,772.640074 250.862716,768.838896 248.762191,765.137749 C243.36084,755.23468 237.55939,746.531983 230.957739,740.730185 C231.357839,741.130309 229.757439,740.730185 229.257314,741.130309 C228.457114,741.930557 227.556889,742.330681 226.756689,743.23096 C244.661165,762.336881 255.863966,787.544694 258.364591,814.853157 Z M258.364591,837.660225 C255.863966,865.368813 243.860965,890.276532 226.056514,909.282422 C226.856714,910.08267 227.256814,910.482794 228.157039,910.982949 C228.557139,910.982949 228.957239,911.383073 229.357339,911.383073 C247.96199,892.377183 258.364591,866.269092 261.665416,840.161 C261.665416,839.760876 262.065516,838.860597 262.065516,837.660225 C260.865216,837.660225 259.564891,837.660225 258.364591,837.660225 Z M242.56064,821.15511 C242.56064,821.15511 242.16054,821.15511 242.56064,821.955358 C242.96074,822.755606 242.96074,832.758706 243.76094,833.15883 C244.56114,833.558954 261.165291,833.959078 261.965491,833.959078 C262.765691,833.959078 262.765691,821.955358 262.765691,820.754986 C262.765691,819.554614 262.365591,819.554614 261.065266,819.554614 C259.564891,819.054459 242.56064,819.454583 242.16054,819.454583 L242.56064,821.15511 Z M127.931983,707.2198 C98.5246312,709.320451 72.4181045,722.124419 53.0132533,741.530433 C51.8129532,742.730805 50.9127282,743.631084 49.7124281,744.831456 C53.4133533,748.532603 56.3140785,751.833626 60.1150288,756.034928 C60.1150288,756.034928 60.9152288,756.034928 61.3153288,756.435052 C61.3153288,756.435052 61.3153288,756.435052 61.3153288,756.835176 C72.8182046,742.430712 93.5233808,725.825566 128.732183,723.324791 C128.732183,718.323241 128.332083,712.521443 127.931983,707.2198 Z M127.931983,702.718404 C127.931983,702.31828 127.931983,702.31828 127.931983,701.918156 C121.330333,702.718404 114.728682,704.418931 102.725681,708.120079 C94.0235059,711.020978 94.8237059,708.920327 79.91998,717.2229 C72.9182296,720.924047 70.8177044,722.22445 58.8147037,732.527643 C55.1137784,735.428542 51.8129532,738.729565 48.512128,742.430712 C48.512128,742.830836 48.512128,743.23096 48.512128,743.631084 L48.9122281,744.031208 C49.7124281,742.830836 51.0127532,741.930557 52.2130533,740.730185 C72.0180045,720.924047 98.5246312,706.419552 127.931983,703.918776 C127.931983,703.518652 127.931983,703.118528 127.931983,702.718404 Z M151.937984,703.918776 L151.937984,703.518652 C151.937984,703.518652 163.540885,705.219179 171.842961,707.2198 C176.444111,708.420172 184.246062,711.321071 191.247812,714.722125 C196.649162,717.2229 201.650413,720.523923 204.051013,722.624574 C204.851213,723.424822 205.751438,723.824946 206.551638,724.725225 C212.753188,728.826496 218.154539,733.427922 223.555889,738.829596 C223.955989,738.429472 224.756189,737.629224 225.256314,737.129069 C225.656414,736.728945 226.056514,735.928697 226.056514,735.028418 C206.651663,717.623024 182.145536,706.019428 156.139035,703.518652 L151.937984,702.718404 L151.937984,703.918776 Z M150.737684,722.924667 C151.137784,722.924667 151.137784,723.324791 151.537884,723.724915 C178.444611,726.625814 197.049262,738.629534 209.452363,751.433502 C209.852463,751.033378 210.252563,751.033378 210.252563,750.633254 C213.553388,747.332231 218.154539,743.130929 221.455364,739.429782 C202.850713,721.724295 178.444611,710.520823 151.537884,707.619924 C151.137784,713.021598 151.137784,718.823396 150.737684,722.924667 Z M146.236559,705.119148 C146.636659,705.119148 146.236559,705.519273 146.236559,705.919397 C146.236559,706.319521 145.836459,706.319521 145.436359,706.319521 C145.036259,706.319521 144.636159,706.319521 144.636159,706.719645 C144.236059,710.420792 145.436359,715.422342 145.036259,719.123489 C145.036259,719.523613 143.835959,719.523613 143.335834,719.123489 C139.634909,714.622094 139.234809,712.921567 136.734184,708.320141 C137.134284,711.621164 137.134284,714.121939 137.534384,717.422962 C137.934484,717.422962 138.334584,717.823086 138.334584,717.823086 C138.334584,717.823086 138.734684,718.623334 138.334584,718.623334 C136.634159,719.023458 135.433858,719.023458 133.733433,718.623334 C133.333333,718.623334 133.733433,718.22321 133.733433,717.823086 C133.733433,717.422962 134.133533,717.422962 134.533633,717.422962 C134.933733,717.422962 134.933733,717.422962 134.933733,717.422962 C135.333833,714.121939 135.333833,709.920637 134.933733,706.619614 C134.933733,706.21949 134.533633,706.21949 134.133533,706.21949 C133.733433,706.21949 133.733433,706.21949 133.333333,705.819366 C133.333333,705.819366 132.933233,705.019117 133.333333,705.019117 C134.533633,704.618993 136.234059,704.218869 137.434359,705.019117 C139.934984,707.119769 140.335084,710.020668 142.035509,712.521443 C142.435609,712.921567 142.435609,713.721815 142.835709,714.22197 C142.835709,713.821846 142.835709,713.021598 142.835709,712.521443 C142.835709,710.420792 142.835709,708.420172 142.835709,706.319521 C142.835709,705.919397 142.835709,705.919397 142.435609,705.919397 C142.035509,706.019428 142.035509,705.519273 141.635409,705.119148 C143.335834,704.719024 144.536134,704.719024 146.236559,705.119148 Z M132.933233,722.524543 L134.633658,722.524543 C134.633658,722.524543 138.334584,722.924667 141.635409,722.924667 C142.435609,722.924667 143.335834,722.924667 144.136034,722.924667 C144.936234,722.924667 145.336334,722.924667 145.836459,722.924667 C146.636659,722.524543 146.236559,722.124419 146.636659,721.22414 C147.036759,720.423892 147.436859,703.818745 147.436859,703.018497 C147.436859,702.218249 135.033758,702.218249 133.733433,702.218249 C132.433108,702.218249 132.533133,702.618373 132.533133,703.918776 C132.433108,705.119148 132.933233,722.124419 132.933233,722.524543 Z M15.403851,834.359202 C15.403851,834.359202 15.0037509,834.359202 14.6036509,834.359202 C14.6036509,840.161 15.0037509,845.562674 15.803951,848.863697 C16.604151,852.964968 17.5043761,856.766147 18.7046762,860.867418 C19.9049762,864.968689 22.0055014,868.769867 23.7059265,872.471014 C25.4063516,876.572285 26.2065516,879.873308 28.2070518,883.674486 C29.9074769,887.375633 32.308077,890.676656 34.4086022,893.977679 C36.5091273,897.278702 38.9097274,900.179601 41.4103526,903.480624 C43.5108777,905.981399 45.5113778,908.482174 47.611903,910.482794 C48.012003,910.08267 48.012003,910.08267 48.412103,909.682546 C30.2075519,888.576005 18.2045511,862.868038 16.604151,834.359202 C16.204051,834.359202 15.803951,834.359202 15.403851,834.359202 Z M17.8044511,807.450863 C19.0047512,797.547794 21.5053763,787.944818 25.3063266,778.841996 C29.8074519,768.038648 36.9092273,757.735455 44.8112028,748.632634 C44.4111028,748.23251 44.4111028,748.23251 44.0110028,748.23251 C41.5103776,751.533533 39.5098775,754.834556 37.0092523,758.535703 C33.7084271,763.037098 32.508127,761.436602 25.0062516,778.441872 C23.3058265,782.14302 21.3053263,782.943268 20.0050013,786.744446 C17.0042511,793.346492 16.604151,800.348662 16.104026,807.450863 L17.8044511,807.450863 Z M35.6089022,827.657125 C35.6089022,827.657125 36.0090023,814.853157 36.0090023,813.952878 C35.6089022,813.15263 35.2088022,813.552754 34.3085771,813.15263 C33.5083771,812.752506 16.9042261,811.952258 16.104026,811.952258 C15.703926,811.952258 15.703926,812.352382 15.303826,812.752506 C15.303826,813.15263 15.303826,813.552754 15.303826,814.453033 L15.303826,814.853157 C15.303826,816.053529 15.703926,828.957528 17.0042511,828.957528 C17.8044511,829.357652 35.2088022,829.357652 35.6089022,829.357652 L35.6089022,827.657125 Z M60.4151038,838.460473 C60.8152038,840.161 60.8152038,840.561124 59.2148037,841.361372 C57.5143786,842.16162 59.2148037,841.761496 57.5143786,842.16162 C57.1142786,842.16162 55.0137534,842.961868 54.2135534,842.561744 C53.8134534,842.561744 51.3128282,838.860597 55.0137534,838.860597 C57.9144786,838.460473 57.1142786,838.460473 59.2148037,838.460473 C59.6149037,838.460473 60.4151038,838.460473 60.4151038,838.460473 Z M63.315829,853.365092 C64.116029,855.06562 64.116029,855.465744 62.5156289,856.265992 C60.8152038,857.06624 63.315829,856.666116 61.7154289,857.06624 C61.3153288,857.06624 59.6149037,858.266612 58.4146037,858.266612 C58.0145036,858.266612 54.7136784,855.365713 58.4146037,854.16534 C61.7154289,853.365092 60.0150038,853.765216 62.1155289,853.365092 C62.5156289,853.365092 63.315829,852.964968 63.315829,853.365092 Z M69.9174794,863.768317 C70.7176794,864.968689 70.7176794,865.868968 69.5173793,866.669216 C67.8169542,867.869588 68.7171793,867.06934 67.0167542,867.869588 C66.6166542,867.869588 64.9162291,869.570115 64.116029,869.570115 C63.715929,869.570115 60.0150038,867.06934 63.715929,865.468844 C66.2165541,864.968689 66.6166542,864.968689 68.7171793,864.168441 C69.1172793,864.168441 69.9174794,863.768317 69.9174794,863.768317 Z M74.9187297,876.972409 C75.3188297,876.972409 76.1190298,876.172161 76.1190298,876.572285 C77.3193298,877.772657 77.3193298,878.272812 76.5191298,879.473184 C75.3188297,881.173711 77.3193298,879.473184 75.7189297,880.673556 C75.3188297,880.673556 74.0185046,882.774207 73.2183046,882.774207 C72.8182046,882.774207 68.6171543,881.07368 72.0180045,879.07306 C74.1185296,877.772657 73.3183296,878.172781 74.9187297,876.972409 Z M84.0210053,882.774207 C85.2213053,883.574455 85.7214304,884.474734 84.8212053,885.675106 C84.0210053,887.375633 84.4211053,886.475354 83.1207802,887.775757 C82.7206802,888.175881 81.4203551,889.876408 80.620155,890.276532 C80.220055,890.276532 76.0190048,889.07616 78.9197299,886.575385 C81.1202801,885.274982 81.5203801,884.874858 82.8207052,883.574455 C83.2208052,883.574455 83.6209052,882.774207 84.0210053,882.774207 Z M92.3230808,893.477524 C92.3230808,893.0774 93.1232808,892.677276 93.5233808,892.677276 C95.223806,893.477524 95.223806,893.877648 94.7236809,895.578175 C93.9234809,897.278702 94.7236809,895.578175 93.9234809,896.778547 C93.9234809,897.178671 92.7231808,899.279322 91.8229557,899.679446 C91.4228557,900.07957 87.2218055,899.279322 89.7224306,896.378423 C91.1227807,893.977679 91.1227807,894.777927 92.3230808,893.477524 Z M102.725681,899.379353 C102.725681,898.979229 103.525881,898.178981 103.525881,898.579105 C105.226307,898.979229 105.626407,899.379353 105.226307,901.07988 C104.826207,902.780407 105.226307,901.480004 104.426107,903.180531 C104.426107,903.580655 103.625906,905.681306 102.725681,906.08143 C102.325581,906.481554 98.1245311,906.481554 100.225056,903.180531 C101.425356,900.579725 101.425356,900.979849 102.725681,899.379353 Z M112.628157,902.680376 C114.328582,903.0805 114.728682,903.480624 114.328582,905.181151 C113.928482,907.281802 114.728682,905.181151 113.928482,906.881678 C113.928482,907.281802 113.528382,909.382453 112.728182,910.182701 C112.328082,910.582825 108.127032,910.982949 109.827457,907.681926 C111.327832,904.680996 110.927732,905.981399 111.827957,903.880748 C111.827957,903.480624 112.228057,902.680376 112.628157,902.680376 Z M123.730933,905.581275 C125.431358,905.581275 125.831458,905.981399 125.831458,907.681926 C125.831458,909.782577 126.631658,908.08205 126.231558,909.782577 C126.231558,910.182701 126.231558,912.283352 125.431358,913.0836 C125.031258,913.483724 120.830208,914.784127 122.130533,910.982949 C122.930733,908.382143 122.130533,908.382143 122.930733,906.781647 C122.930733,906.381523 123.330833,905.581275 123.730933,905.581275 Z M149.037259,906.381523 C150.737684,905.981399 151.137784,906.381523 151.937984,907.581895 C152.338085,909.282422 151.937984,907.982019 151.937984,910.08267 C151.937984,910.482794 152.738185,912.583445 152.338085,913.383693 C152.338085,913.783817 148.637159,916.284592 148.637159,912.183321 C148.237059,909.682546 148.637159,909.682546 148.637159,907.581895 C148.637159,907.181771 148.637159,906.381523 149.037259,906.381523 Z M158.139535,905.181151 C159.83996,904.380903 160.24006,904.781027 161.04026,906.381523 C161.84046,907.982019 162.24056,908.882298 162.740685,910.982949 C162.740685,911.383073 162.740685,910.982949 162.740685,911.783197 C162.740685,912.183321 159.43986,915.08422 158.63966,911.383073 C158.139535,907.982019 158.539635,907.982019 158.139535,906.381523 C158.139535,905.981399 158.139535,905.181151 158.139535,905.181151 Z M167.64191,901.480004 C168.842211,900.679756 169.742436,900.679756 170.542636,902.280252 C171.742936,903.980779 171.342836,903.0805 171.742936,904.781027 C171.742936,905.181151 172.943236,906.881678 172.943236,908.08205 C172.943236,908.482174 170.042511,911.783197 168.842211,908.08205 C168.442111,905.08112 168.042011,904.680996 167.64191,902.680376 C167.64191,902.280252 167.24181,901.480004 167.64191,901.480004 Z M178.844711,898.479074 C178.844711,898.07895 178.444611,897.278702 178.444611,897.278702 C179.644911,896.478454 180.545136,896.478454 181.345336,897.678826 C182.545636,898.879198 181.345336,898.07895 182.145536,899.379353 C182.145536,899.779477 182.945736,899.779477 182.945736,900.579725 C182.945736,900.979849 180.445111,904.680996 178.844711,900.979849 C178.444611,898.479074 179.644911,900.179601 178.844711,898.479074 Z M189.247312,892.277152 C190.447612,893.477524 189.647412,892.277152 190.447612,893.977679 C190.447612,894.377803 192.148037,895.678206 192.548137,896.878578 C192.548137,897.278702 190.847712,901.480004 188.847212,897.678826 C187.546887,895.178051 187.946987,895.178051 186.746687,893.477524 C185.546387,891.376873 187.946987,890.576625 189.247312,892.277152 Z M197.049262,885.274982 C197.849462,884.07461 198.749687,883.574455 199.949987,884.874858 C201.650413,886.07523 199.949987,884.874858 201.150288,886.07523 C201.550388,886.475354 202.850713,886.475354 203.250813,887.275602 C203.250813,887.675726 202.050513,891.877028 199.549887,888.976129 C199.549887,888.175881 196.649162,885.274982 197.049262,885.274982 Z M207.051763,881.973959 C209.952488,884.874858 209.952488,879.473184 209.952488,879.07306 C209.552388,878.272812 208.252063,877.872688 207.851963,877.872688 C206.651663,876.672316 208.252063,877.872688 206.651663,877.07244 C204.551138,876.172161 203.250813,877.372533 204.551138,879.07306 C205.751438,880.273432 204.951238,880.273432 207.051763,881.973959 Z M211.152788,867.06934 C209.052263,865.868968 210.752688,864.168441 212.853213,864.568565 C214.553638,864.968689 212.453113,864.568565 214.053513,865.368813 C214.453613,865.368813 216.554139,866.169061 216.954239,867.06934 C217.354339,867.469464 217.354339,871.670766 214.053513,869.570115 C211.952988,867.869588 212.753188,868.269712 211.152788,867.06934 Z M217.354339,853.765216 C219.454864,854.16534 217.754439,853.365092 219.454864,853.765216 C219.854964,853.765216 221.955489,854.16534 222.755689,854.965589 C223.155789,855.365713 223.555889,859.567015 220.255064,857.866488 C217.354339,856.666116 217.754439,857.06624 216.154039,856.265992 C214.053513,855.06562 215.353838,853.365092 217.354339,853.765216 Z M217.754439,846.362922 C217.754439,844.662395 218.154539,844.262271 219.854964,844.262271 C221.955489,844.262271 219.854964,843.862147 221.555389,844.262271 C221.955489,844.262271 224.056014,844.262271 224.856214,845.062519 C225.256314,845.462643 226.556639,849.663945 222.355589,848.363542 C220.255064,847.563294 221.055264,847.563294 218.954739,847.16317 C218.554639,847.16317 217.754439,846.763046 217.754439,846.362922 Z M220.655164,836.759946 C220.255064,836.759946 219.454864,836.359822 219.454864,836.359822 C219.454864,834.659295 219.854964,834.259171 221.555389,833.859047 C223.655914,833.859047 221.955489,833.458923 223.655914,833.859047 C224.056014,833.859047 226.156539,833.859047 226.956739,834.259171 C227.356839,834.659295 229.057264,838.360442 225.256314,837.560194 C222.355589,836.759946 222.755689,836.759946 220.655164,836.759946 Z M220.255064,818.654335 C219.854964,816.953808 220.255064,816.553684 221.455364,816.15356 C223.155789,815.753436 221.055264,816.15356 222.655664,815.753436 C223.055764,815.753436 225.156289,814.953188 225.956489,815.353312 C226.356589,815.353312 228.857214,819.054459 224.756189,819.054459 C222.355589,819.054459 223.555889,818.554304 221.455364,819.054459 C221.055264,819.054459 220.255064,819.054459 220.255064,818.654335 Z M219.454864,806.15046 C221.155289,805.350212 218.654664,805.750336 220.655164,805.350212 C221.055264,805.350212 223.155789,804.549964 223.955989,804.549964 C224.356089,804.549964 227.256814,807.850987 223.555889,808.651235 C220.655164,808.651235 221.955489,808.651235 219.854964,809.051359 C217.354339,809.451483 217.754439,806.950708 219.454864,806.15046 Z M215.353838,796.247391 C217.054264,795.047019 215.353838,795.847267 217.454364,795.447143 C217.854464,795.447143 219.554889,794.246771 220.755189,794.246771 C221.155289,794.246771 224.456114,797.14767 220.755189,798.348042 C217.754439,798.748166 217.754439,798.348042 216.154039,799.14829 C213.653413,799.948538 213.653413,797.447763 215.353838,796.247391 Z M211.952988,789.645345 C211.552888,789.645345 210.752688,790.045469 210.752688,790.045469 C209.952488,788.845097 209.952488,787.944818 211.152788,787.14457 C212.853213,785.944198 211.152788,786.744446 212.853213,785.944198 C213.253313,785.944198 214.953738,784.243671 215.753938,784.243671 C216.154039,784.243671 219.854964,786.744446 216.154039,788.344942 C213.653413,789.245221 214.053513,788.745066 211.952988,789.645345 Z M204.151038,778.441872 C202.050513,779.642244 201.250313,777.641624 202.450613,775.941097 C203.650913,774.24057 202.050513,776.341221 203.650913,775.540973 C204.051013,775.540973 205.351338,773.440322 206.151538,773.440322 C206.551638,773.440322 210.752688,775.140849 207.351838,777.141469 C205.351338,778.441872 205.751438,777.2415 204.151038,778.441872 Z M196.649162,768.538803 C194.948737,770.23933 193.748437,768.138679 194.548637,766.438152 C195.348837,764.737625 194.148537,766.038028 195.748937,764.737625 C196.149037,764.337501 197.449362,762.636974 198.249562,762.23685 C198.649662,762.23685 202.850713,763.037098 199.949987,765.937997 C197.449362,767.638524 197.849462,767.2384 196.649162,768.538803 Z M192.048012,759.035858 C194.548637,756.134959 190.347587,755.334711 189.947487,755.734835 C189.147287,756.134959 188.247062,758.23561 187.846962,758.635734 C186.646662,759.836106 187.446862,759.035858 186.646662,761.136509 C185.846462,762.737005 187.146787,764.737625 188.747187,762.737005 C189.947487,761.036478 190.447612,761.036478 192.048012,759.035858 Z M181.745436,756.034928 C179.644911,758.935827 178.844711,756.034928 179.244811,754.334401 C179.644911,752.633874 178.444611,755.134649 179.244811,753.534153 C179.244811,753.134029 180.045011,751.033378 180.945236,750.633254 C181.345336,750.23313 185.546387,750.633254 183.445861,753.934277 C182.145536,756.034928 182.945736,754.434432 181.745436,756.034928 Z M163.940985,748.632634 C163.940985,746.531983 163.540885,748.632634 163.940985,746.932107 C163.940985,746.531983 164.341085,744.431332 165.141285,743.631084 C165.541385,743.23096 169.742436,742.430712 168.042011,746.131859 C166.84171,749.032758 166.84171,748.23251 166.44161,749.833006 C165.64141,751.933657 163.540885,750.633254 163.940985,748.632634 Z M150.737684,746.531983 C150.737684,744.531363 149.937484,745.731735 150.337584,744.031208 C150.337584,743.631084 150.337584,741.530433 150.737684,740.730185 C151.137784,740.330061 155.338835,739.029658 154.03851,742.830836 C154.03851,745.731735 154.43861,745.731735 153.63841,747.332231 C152.83821,749.833006 150.737684,748.532603 150.737684,746.531983 Z M127.931983,744.931487 C127.531883,743.23096 127.131783,746.131859 127.131783,744.531363 C127.131783,744.131239 126.331583,742.030588 126.731683,741.23034 C126.731683,740.830216 130.432608,738.329441 130.432608,742.030588 C130.432608,744.931487 130.832708,743.23096 130.832708,744.931487 C130.832708,747.432262 128.732183,747.032138 127.931983,744.931487 Z M113.028257,750.23313 C112.228057,748.532603 112.228057,750.23313 111.827957,748.532603 C111.827957,748.132479 110.627657,746.031828 110.627657,745.23158 C110.627657,744.831456 113.528382,741.530433 114.728682,745.631704 C114.728682,746.031828 116.429107,750.133099 115.128782,749.732975 C114.728682,749.833006 113.428357,751.933657 113.028257,750.23313 Z M103.925981,754.334401 C102.725681,755.134649 101.825456,755.134649 101.025256,753.934277 C99.8249562,752.23375 100.625156,755.634804 99.8249562,753.934277 C99.8249562,753.534153 98.1245311,751.833626 98.1245311,751.033378 C98.1245311,750.633254 100.625156,746.932107 102.225556,750.633254 C102.725681,753.134029 102.725681,751.133409 103.525881,753.134029 C103.525881,753.534153 103.925981,754.334401 103.925981,754.334401 Z M90.2225556,762.636974 C89.0222556,763.837346 88.5221305,763.837346 87.3218305,763.037098 C85.6214054,761.836726 85.6214054,762.23685 84.8212053,760.536323 C84.8212053,760.136199 84.0210053,760.936447 84.0210053,760.136199 C84.0210053,759.736075 85.7214304,755.634804 87.7219305,758.935827 C89.4223556,761.436602 89.0222556,759.836106 89.8224556,761.436602 C89.8224556,761.836726 90.6226557,762.636974 90.2225556,762.636974 Z M77.8194549,775.040818 C77.0192548,776.741345 76.6191548,776.741345 74.9187297,775.841066 C73.2183046,775.040818 74.5186297,776.641314 73.2183046,775.440942 C72.8182046,775.440942 71.1177794,774.24057 70.7176794,773.340291 C70.7176794,772.940167 71.1177794,768.838896 74.0185046,771.23964 C76.2190548,773.440322 75.7189297,772.640074 77.0192548,773.840446 C77.4193548,773.840446 77.8194549,774.640694 77.8194549,775.040818 Z M68.7171793,787.14457 C69.1172793,787.14457 69.9174794,787.944818 69.5173793,787.944818 C69.1172793,789.645345 68.3170793,790.045469 67.0167542,789.14519 C65.3163291,788.745066 67.0167542,789.945438 65.3163291,789.14519 C64.9162291,789.14519 62.8157039,788.344942 62.4156039,787.444663 C62.0155039,787.044539 62.0155039,782.943268 65.3163291,784.943888 C67.9169792,787.14457 67.1167792,785.844167 68.7171793,787.14457 Z M62.5156289,800.748786 C62.1155289,802.849437 62.9157289,803.649685 61.3153288,803.649685 C59.2148037,803.649685 60.5151288,803.649685 58.8147037,802.849437 C58.4146037,802.849437 56.3140785,802.449313 55.5138785,802.049189 C55.1137784,801.649065 54.3135784,797.547794 58.0145036,798.748166 C60.8152038,799.548414 60.8152038,799.948538 62.5156289,800.748786 Z M61.6154039,814.052909 C61.6154039,815.753436 61.2153038,816.15356 59.5148787,816.15356 C57.4143536,816.15356 56.6141535,816.15356 55.0137534,815.753436 C54.6136534,815.753436 54.6136534,816.15356 53.8134534,815.353312 C53.4133533,814.953188 52.1130283,810.851917 55.9139785,812.052289 C58.4146037,813.252661 58.4146037,812.752506 60.4151038,813.652785 C60.8152038,813.652785 61.6154039,814.052909 61.6154039,814.052909 Z M158.539635,948.194482 C174.243561,944.893459 189.547387,939.091661 203.250813,930.789088 L202.050513,928.688436 C189.147287,937.391134 174.243561,943.192932 158.139535,946.093831 C158.139535,946.894079 158.539635,947.794358 158.539635,948.194482 Z M245.461365,795.047019 C245.461365,795.047019 246.261565,802.049189 246.661665,803.749716 C246.661665,805.450243 248.362091,805.850367 248.362091,803.749716 C248.362091,801.649065 246.661665,795.047019 246.261565,794.246771 C245.96149,793.346492 245.461365,793.346492 245.461365,795.047019 Z M184.246062,917.584995 C191.247812,914.684096 191.247812,914.684096 191.247812,914.684096 C191.247812,914.684096 192.948237,915.08422 185.846462,917.985119 C178.844711,920.886018 164.341085,926.687816 164.341085,926.687816 L163.540885,924.587165 C163.540885,924.587165 177.644411,920.485894 184.246062,917.584995 Z M204.951238,929.98884 C211.552888,925.887568 217.754439,921.686266 223.555889,917.184871 C222.755689,916.384623 221.855464,915.484344 221.055264,914.684096 C215.653913,919.585615 209.452363,924.187041 203.250813,928.288312 C203.650913,929.088561 204.051013,929.088561 204.951238,929.98884 Z M206.651663,936.190762 C204.951238,937.391134 202.950738,938.691537 201.250313,939.491785 C144.936234,969.701147 90.7226807,959.397954 47.211803,915.484344 C44.3110778,912.583445 41.4103526,909.682546 38.9097274,906.381523 C36.4091023,903.0805 33.9084771,899.779477 31.407852,896.478454 C28.9072268,893.177431 26.9067267,889.476284 24.8062016,885.675106 C22.7056764,882.374083 21.1052763,878.272812 19.4048512,874.471634 C18.2045511,870.370363 16.504126,866.569185 15.303826,862.467914 C14.1035259,858.366643 12.8032008,854.16534 12.0030008,850.064069 C9.50237559,837.260101 9.10227557,824.356102 10.3025756,811.15201 C11.1027757,802.449313 13.2033008,794.14674 15.703926,786.344322 C16.9042261,782.243051 18.6046512,778.041748 20.3050763,774.340601 C22.0055014,770.639454 23.6059015,766.838276 25.7064266,763.137129 C27.8069517,759.435982 29.8074519,755.634804 32.308077,752.333781 C34.4086022,749.032758 37.3093273,745.731735 39.8099525,742.430712 C42.7106777,739.529813 46.0115029,735.428542 48.9122281,732.527643 C51.8129532,729.626744 54.3135784,727.526093 57.6144036,725.025318 C60.9152288,722.524543 64.616154,719.623644 68.0170043,717.122869 C71.3178295,715.022218 74.6186547,713.421722 78.3195799,711.321071 C82.0205051,709.22042 86.2215554,707.619924 89.9224806,705.919397 C93.6234059,704.218869 97.8244561,703.018497 101.925481,701.818125 C116.429107,697.716854 139.134784,695.616203 154.03851,697.31673 C194.148537,701.418001 223.555889,718.823396 247.16179,753.634184 C249.662416,756.935207 251.762941,760.636354 253.763441,764.437532 C255.863966,767.738555 257.464366,771.939857 259.164791,775.641004 C264.966242,788.845097 267.466867,797.947918 268.667167,812.452413 C269.067267,816.953808 269.067267,821.15511 269.067267,825.656505 C269.067267,830.1579 268.667167,834.359202 268.267067,838.860597 C265.366342,863.268162 250.062516,899.279322 232.258065,916.684716 C229.357339,919.585615 226.456614,922.486514 223.155789,924.987289 C219.854964,927.488064 216.554139,929.088561 213.253313,931.589336 C211.552888,932.489615 210.752688,932.889739 210.352588,933.289863 C212.853213,932.089491 209.152288,934.490235 206.651663,936.190762 Z M142.435609,753.134029 C142.835709,755.23468 143.235809,757.2353 143.635909,759.335951 L139.134784,734.528263 C139.534884,737.829286 140.835209,744.831456 142.435609,753.134029 Z M137.434359,735.728635 L137.034259,735.728635 C137.034259,737.429162 137.034259,739.029658 137.434359,741.130309 C137.834459,753.134029 138.234559,773.040198 138.634659,790.845717 C139.034759,799.14829 139.034759,806.550584 139.434859,812.752506 C139.434859,813.952878 143.135784,821.055079 144.036009,821.055079 C144.836209,820.654955 146.936734,818.954428 148.637159,817.353932 C149.037259,816.553684 151.537884,812.352382 151.537884,809.051359 C151.137784,804.950088 149.037259,793.746616 148.637159,792.946368 C148.637159,792.14612 146.136534,778.041748 146.136534,776.341221 L146.136534,775.140849 C144.936234,767.638524 143.235809,760.23623 142.035509,753.634184 C139.934984,745.331611 138.634659,737.829286 137.834459,734.528263 L137.434359,735.728635 Z M120.530133,736.22879 C114.328582,737.429162 108.527132,739.129689 103.125781,741.630464 C97.7244311,744.131239 92.3230808,747.032138 87.4218555,750.333161 C82.5206302,753.634184 77.9194799,757.335331 73.7184296,761.936757 C69.6174044,766.038028 65.8164541,771.039578 62.1155289,776.041128 C58.8147037,781.042679 55.9139785,786.344322 53.4133533,792.14612 C50.9127282,797.947918 49.3123281,803.749716 48.012003,809.951638 C47.211803,814.953188 46.3115779,819.454583 45.9114779,824.456133 C55.8139535,822.755606 66.2165541,821.555234 76.1190298,819.954738 C76.9192298,819.554614 78.2195549,819.15449 79.0197549,818.754366 L79.419855,818.354242 C80.620155,810.051669 83.5208802,802.649375 88.1220305,795.547174 C97.6244061,781.842927 112.128032,772.339981 129.532383,770.339361 C131.632908,760.036168 133.633408,748.432572 134.933733,738.029348 L134.933733,736.328821 L134.533633,736.328821 L135.833958,734.528263 C130.432608,734.528263 125.531383,734.928387 120.530133,736.22879 Z M48.512128,846.663015 C49.7124281,852.864937 51.4128532,858.666736 53.9134784,864.468534 C56.4141035,870.270332 58.9147287,875.672006 62.6156539,880.573525 C65.9164791,885.575075 69.6174044,890.476594 73.8184546,894.677896 C77.9194799,898.779167 82.5206302,902.980469 87.5218805,906.281492 C92.5231308,909.582515 97.8244561,912.483414 103.225806,914.984189 C108.627157,917.484964 114.428607,919.08546 120.630158,920.385863 C126.031508,921.586235 130.932733,922.08639 136.334084,922.486514 C136.334084,922.08639 136.334084,921.286142 135.933983,920.385863 C135.533883,920.385863 135.533883,919.985739 135.933983,919.585615 C135.933983,918.785367 135.933983,917.484964 135.533883,916.684716 C135.533883,914.183941 135.133783,912.08329 134.733683,910.882918 C134.333583,909.682546 132.633158,898.07895 131.032758,884.774827 C127.331833,884.374703 122.730683,883.0743 118.629657,881.873928 C118.629657,882.274052 118.229557,881.873928 116.929232,881.473804 C114.828707,880.673556 112.828207,879.773277 111.127782,878.973029 C94.1235309,870.270332 83.0207552,853.265061 80.9202301,833.859047 C70.6176544,832.15852 62.3155789,830.558024 52.8132033,828.457373 C49.7124281,828.15728 47.611903,828.15728 46.8117029,827.657125 C46.8117029,834.659295 47.211803,840.461093 48.512128,846.663015 Z M156.539135,919.985739 C162.740685,918.785367 168.542136,917.08484 173.943486,914.584065 C195.848962,905.08112 213.653413,887.675726 223.155789,864.868658 C225.656414,859.06686 227.256814,853.265061 228.557139,847.063139 C229.857464,840.861217 230.657664,834.659295 230.657664,828.057249 C230.657664,827.257001 230.657664,826.356722 230.657664,825.556474 C225.656414,826.356722 212.053013,829.257621 197.549387,832.15852 C197.949487,832.558644 198.349587,832.958768 198.749687,832.558644 C198.349587,837.16007 197.549387,841.661465 195.848962,846.262891 C196.249062,845.862767 195.848962,847.063139 195.048762,848.363542 C190.947737,858.666736 184.246062,867.769557 174.743686,874.07151 C166.84171,879.473184 154.83871,883.574455 144.936234,884.374703 C144.136034,888.475974 143.235809,892.277152 142.435609,896.378423 C141.135284,906.781647 139.534884,918.785367 139.134784,921.686266 C144.936234,921.686266 151.137784,921.286142 156.539135,919.985739 Z M230.557639,824.356102 L187.946987,827.657125 C179.644911,828.057249 171.342836,828.057249 163.540885,828.057249 C159.43986,828.457373 154.83871,828.857497 151.537884,828.857497 L147.836959,831.358272 C147.836959,831.758396 148.237059,832.558644 148.637159,833.058799 C149.037259,834.759326 151.137784,838.860597 151.937984,840.961248 C155.63891,840.161 197.049262,831.058179 219.454864,826.856877 C224.356089,825.656505 228.557139,825.256381 230.557639,824.756226 L230.557639,824.356102 Z M228.457114,809.851607 C227.256814,803.649685 225.556389,797.847887 223.055764,792.046089 C220.555139,786.244291 218.054514,780.842617 214.753688,775.941097 C197.749437,750.23313 169.242311,734.928387 139.034759,734.128139 C140.735184,743.631084 144.036009,758.135579 145.236309,769.339051 C156.03901,770.539423 169.242311,775.941097 179.144786,784.243671 C183.745936,787.944818 187.446862,793.746616 190.347587,798.348042 C193.648412,804.14984 195.748937,811.552134 196.949237,818.254211 C207.851963,819.854707 221.055264,821.055079 230.157539,821.855327 C229.757439,817.754056 229.357339,813.952878 228.457114,809.851607 Z M51.0127532,824.856257 L56.0140035,824.056009 C78.8197049,820.754986 101.125281,817.453963 123.930983,813.752816 C125.131283,814.15294 126.431608,814.553064 127.231808,815.853467 C128.432108,817.053839 129.332333,818.354242 130.532633,819.954738 C131.332833,821.655265 132.633158,822.855637 133.433358,823.655885 C133.433358,824.056009 133.833458,824.056009 133.833458,824.456133 C133.833458,825.256381 132.133033,826.15666 132.133033,826.15666 C132.133033,826.15666 105.626407,826.556784 101.125281,826.556784 C89.9224806,826.556784 80.020005,826.556784 72.5181295,826.556784 L52.2130533,826.056629 L51.0127532,824.856257 Z M124.231058,852.564844 C125.031258,853.365092 125.931483,854.265371 126.331583,854.665496 L127.131783,861.267542 C127.131783,861.667666 126.731683,861.667666 126.731683,861.667666 C126.331583,862.06779 125.531383,862.06779 124.631158,862.06779 C120.530133,860.367263 117.229307,858.366643 113.828457,855.465744 C116.729182,854.665496 119.229807,853.365092 122.130533,852.16472 C122.930733,852.16472 123.830958,852.16472 124.231058,852.564844 Z M148.237059,784.643795 L148.237059,785.043919 L148.237059,785.444043 L148.637159,787.14457 C150.337584,787.544694 151.537884,787.944818 153.23831,788.845097 C155.338835,783.043299 155.338835,782.643175 156.939235,776.841376 C157.339335,776.041128 156.139035,774.740725 154.83871,774.340601 C152.338085,773.540353 149.437359,773.140229 146.136534,772.640074 L146.536634,775.540973 C146.936734,777.641624 147.336834,780.542524 148.237059,784.643795 Z M164.84121,800.848817 C164.84121,800.848817 154.938735,811.15201 155.338835,812.052289 C155.338835,812.852537 156.539135,813.252661 157.43936,813.252661 C158.63966,813.252661 159.539885,813.652785 160.740185,813.652785 C161.140285,813.252661 161.540385,812.852537 161.940485,811.952258 C164.44111,806.950708 168.142036,799.948538 171.042761,793.746616 C167.24181,797.847887 163.540885,801.649065 159.83996,805.350212 L164.84121,800.848817 Z M162.740685,842.16162 C162.740685,840.961248 163.140785,840.060969 163.940985,839.660845 C163.940985,839.660845 164.341085,839.660845 164.741185,839.260721 L176.744186,836.759946 C175.043761,842.16162 172.143036,847.063139 168.842211,851.264441 C168.042011,850.464193 167.64191,849.16379 166.741685,848.363542 L166.04151,847.963418 C166.04151,847.963418 162.740685,843.361992 162.740685,842.16162 Z M154.43861,845.862767 C156.939235,847.563294 161.84046,852.464813 163.140785,852.864937 C163.540885,852.864937 163.940985,853.265061 164.84121,854.065309 C168.142036,857.366333 171.042761,859.466984 171.842961,860.667356 C175.143786,863.968379 167.24181,858.166581 150.737684,848.263511 C151.137784,846.763046 151.537884,845.862767 151.537884,845.062519 C152.338085,844.662395 153.23831,844.662395 154.43861,845.862767 Z M126.231558,844.262271 C126.631658,846.362922 134.533633,905.981399 135.333833,908.882298 C135.733933,910.08267 135.733933,912.583445 136.134034,915.08422 C136.534134,916.784747 136.534134,917.985119 136.534134,919.185491 L138.634659,854.16534 C138.634659,852.464813 138.234559,839.260721 138.234559,838.060349 C138.234559,836.359822 137.034259,832.658675 137.034259,832.258551 C136.634159,831.858427 135.833958,832.258551 134.533633,832.258551 C134.133533,832.258551 134.133533,832.658675 133.333333,832.658675 C130.832708,835.559574 128.332083,838.060349 125.431358,840.561124 C126.231558,842.261651 126.231558,843.862147 126.231558,844.262271 Z M127.931983,866.169061 C125.831458,865.768937 124.231058,864.968689 122.130533,864.06841 C122.530633,864.468534 122.530633,864.468534 122.530633,864.468534 C122.130533,865.268782 121.330333,865.668906 120.830208,866.569185 C118.329582,871.570735 117.929482,872.771107 115.828957,877.372533 C120.430108,879.473184 125.031258,880.673556 130.032508,881.07368 C129.232308,876.07213 128.832208,870.770487 127.931983,866.169061 Z M119.629907,840.561124 C118.829707,840.561124 118.429607,840.161 117.929482,840.161 L117.929482,839.760876 C112.128032,847.16317 106.326582,853.865247 100.125031,861.267542 C106.426607,857.966519 116.329082,847.963418 123.330833,841.761496 C122.130533,841.361372 120.430108,840.961248 119.629907,840.561124 Z M151.937984,804.049809 C154.83871,801.949158 157.739435,800.348662 160.64016,797.847887 C161.04026,797.047639 160.64016,796.14736 160.24006,795.347112 C156.939235,793.346492 153.138285,792.046089 149.437359,790.845717 C150.237559,795.847267 151.137784,800.348662 151.937984,804.049809 Z M175.943986,863.768317 C177.144286,864.568565 178.844711,865.868968 180.045011,865.868968 C180.445111,865.868968 180.445111,865.868968 180.845211,865.868968 C181.645411,865.06872 182.045511,864.668596 182.545636,863.768317 C182.145536,862.968069 181.745436,861.267542 182.545636,861.667666 C182.945736,862.06779 183.345836,862.06779 183.745936,862.06779 C186.246562,858.766767 188.747187,855.06562 190.347587,851.264441 C185.746437,848.763666 181.245311,847.563294 176.644161,845.062519 C174.543636,848.763666 172.543136,852.464813 169.642411,854.965589 C172.643161,858.766767 174.243561,861.267542 175.943986,863.768317 Z M108.027007,801.649065 C105.126282,795.847267 101.825456,790.045469 100.625156,787.544694 C100.225056,787.544694 100.225056,787.14457 100.225056,787.14457 C98.1245311,788.845097 96.524131,790.845717 94.8237059,792.946368 C99.4248562,796.247391 101.025256,798.748166 105.626407,802.049189 C105.526382,802.449313 106.426607,802.449313 106.826707,802.849437 C107.226807,802.449313 107.626907,802.049189 108.027007,801.649065 Z M104.326082,804.14984 C99.3248312,800.848817 97.3243311,798.748166 92.7231808,795.447143 C87.7219305,802.049189 84.4211053,809.951638 83.2208052,818.254211 L93.5233808,816.553684 C95.623906,816.15356 98.1245311,816.15356 100.125031,815.753436 C101.425356,811.952258 103.125781,808.251111 105.126282,805.350212 C104.726182,804.950088 104.326082,804.14984 104.326082,804.14984 Z M128.332083,788.344942 C129.132283,782.943268 129.532383,778.041748 130.432608,772.23995 C125.831458,773.040198 121.330333,773.940477 117.629407,775.540973 C117.629407,775.941097 117.229307,776.741345 117.229307,776.741345 C119.729932,782.543144 119.729932,782.543144 122.230558,788.344942 C122.930733,789.245221 123.330833,789.645345 123.330833,790.045469 C125.031258,789.645345 126.631658,788.845097 128.332083,788.344942 Z M121.330333,791.245841 C121.330333,790.845717 120.930233,790.045469 120.930233,789.545314 C118.429607,784.14364 118.029507,783.743516 115.128782,777.941717 C114.728682,777.541593 114.328582,777.141469 113.428357,777.141469 C109.327332,779.24212 105.526382,781.642865 101.825456,785.043919 C105.126282,787.14457 110.927732,790.845717 115.928982,794.14674 C117.629407,793.346492 119.229807,792.046089 121.330333,791.245841 Z M160.64016,775.540973 C161.04026,775.941097 159.83996,775.941097 159.43986,776.741345 C157.339335,782.543144 157.339335,782.943268 154.83871,788.745066 C158.139535,790.845717 161.04026,793.246461 164.341085,795.347112 C168.942236,792.046089 173.443361,789.14519 178.044511,785.844167 C173.043261,781.742896 166.04151,778.441872 160.64016,775.540973 Z M179.244811,812.752506 C179.644911,813.552754 179.644911,814.453033 180.045011,815.253281 C185.846462,816.053529 189.147287,816.953808 194.548637,817.754056 C194.148537,814.052909 192.848212,810.751886 192.048012,807.450863 L181.645411,811.952258 C180.045011,811.952258 180.045011,812.352382 179.644911,812.752506 L179.244811,812.752506 Z M178.444611,810.751886 C179.244811,810.351762 179.644911,810.351762 180.545136,809.951638 C185.546387,807.450863 186.746687,807.050739 191.347837,804.950088 C188.447112,798.348042 184.746187,792.546244 178.944736,787.544694 C177.244311,790.845717 174.343586,795.847267 171.542886,800.748786 C171.942986,801.14891 172.743186,801.549034 173.643411,802.849437 C174.243561,804.549964 176.344086,807.050739 178.444611,810.751886 Z M180.945236,843.462023 C185.946487,846.362922 187.146787,846.362922 191.747937,848.463573 C193.848462,843.462023 195.048762,838.560504 195.448862,833.15883 C189.647412,834.359202 185.946487,835.259481 180.145036,836.459853 C180.045011,838.460473 179.644911,840.161 178.844711,841.761496 C179.644911,842.16162 180.545136,842.961868 180.945236,843.462023 Z M152.338085,867.469464 C152.338085,867.06934 152.338085,867.06934 152.338085,867.06934 C150.637659,867.469464 148.637159,867.869588 146.936734,868.269712 C146.136534,873.671386 145.236309,877.772657 144.436109,883.174331 C148.237059,882.374083 152.338085,881.473804 156.03901,880.673556 C153.938485,874.871758 154.83871,872.771107 152.338085,867.469464 Z M120.830208,863.768317 C117.129282,862.06779 113.828457,860.06717 110.927732,857.566395 C105.926482,860.06717 101.825456,861.667666 96.424106,864.168441 C101.425356,869.570115 106.726682,873.671386 113.428357,876.572285 C115.928982,871.970859 115.928982,871.170611 118.829707,866.269092 C120.030008,865.768937 119.629907,865.368813 120.030008,864.968689 C120.030008,864.568565 120.430108,863.768317 120.830208,863.768317 Z M98.9247312,842.961868 C93.1232808,845.062519 92.7231808,845.462643 87.3218305,847.563294 C89.4223556,853.365092 92.3230808,859.166891 96.424106,863.668286 C99.7249312,859.567015 102.225556,855.765837 105.526382,851.664565 L106.326582,851.264441 C104.326082,848.763666 102.225556,845.862767 100.625156,842.561744 C100.225056,842.561744 99.4248562,842.561744 98.9247312,842.961868 Z M86.5216304,844.662395 C91.9229807,842.561744 92.3230808,842.561744 97.7244311,840.961248 C98.5246312,841.361372 98.9247312,840.561124 99.4248562,840.561124 C99.0247562,839.360752 98.2245561,837.660225 97.7244311,836.459853 C92.7231808,835.659605 89.0222556,834.759326 84.0210053,833.558954 C84.4211053,837.260101 85.3213303,840.961248 86.5216304,844.662395 Z M113.428357,811.952258 C113.028257,813.15263 112.228057,814.052909 111.727932,814.052909 C108.827207,814.453033 105.526382,814.853157 102.625656,815.253281 C103.925981,811.15201 106.426607,807.450863 109.327332,803.649685 C111.027757,806.550584 112.628157,809.851607 113.428357,811.952258 Z M125.931483,811.552134 C125.531383,811.552134 125.131283,811.552134 124.231058,811.15201 L103.525881,789.645345 C109.727432,793.746616 121.730433,801.248941 126.731683,804.950088 C126.331583,807.450863 125.931483,809.451483 125.931483,811.552134 Z M127.931983,791.345872 C127.531883,794.246771 127.531883,797.14767 127.531883,800.048569 C126.731683,800.848817 125.831458,801.248941 125.031258,800.848817 C123.330833,799.548414 120.930233,797.847887 118.029507,795.847267 C120.930233,793.746616 123.830958,792.14612 127.931983,791.345872 Z M108.027007,849.263821 C110.927732,845.562674 113.428357,842.261651 116.329082,838.460473 C111.327832,837.660225 106.826707,836.759946 101.825456,835.959698 C103.125781,840.961248 105.126282,845.462643 108.027007,849.263821 Z M175.943986,814.853157 C174.243561,810.751886 172.243061,806.550584 169.342336,803.249561 C167.64191,806.550584 166.04151,809.451483 164.741185,811.552134 C164.341085,812.352382 165.141285,813.252661 166.04151,813.652785 C169.342336,814.052909 173.043261,814.453033 175.943986,814.853157 Z M150.637659,850.564224 C149.837459,855.165651 148.937234,859.667046 148.137034,864.268472 C153.538385,863.0681 158.539635,860.567325 163.04076,857.266302 C162.24056,857.466364 162.740685,857.466364 162.24056,857.966519 C158.939735,855.465744 153.938485,852.964968 150.637659,850.564224 Z"/><path fill="#FFF" fill-rule="nonzero" d="M8.70217554,9.10282112 L9.10227557,957.297303 L1590.59765,957.297303 L1590.59765,9.10282112 L965.04126,9.10282112 C940.635159,79.9247701 871.917979,125.038752 798.19955,125.038752 C753.088272,125.038752 710.377594,107.233233 678.569642,77.824119 C658.664666,59.2183528 643.36084,36.0111605 634.15854,9.10282112 L8.70217554,9.10282112 Z M640.060015,1.20037202 L641.260315,4.10127106 C649.962491,31.0096104 665.266317,54.2168027 685.171293,72.022321 C715.378845,100.131032 755.588897,116.736179 798.99975,116.736179 C856.114029,116.736179 907.026757,89.8278392 937.634409,45.5141056 C946.736684,32.3100134 953.738435,17.4053942 959.139785,0.800248011 L1597.89947,1.60049602 L1597.89947,965.099721 L0.80020005,965.099721 L0.80020005,1.70052702 L5.40135034,1.20037202 L640.060015,1.20037202 Z"/><path fill="#777878" d="M640.860215,0 L642.060515,3.30102304 C647.461865,19.4060143 655.263816,34.8107885 665.266317,48.4150047 C675.568892,62.1192518 688.072018,74.523096 702.075519,84.4261651 C716.179045,94.3292343 731.482871,102.231683 748.487122,107.633357 C764.591148,112.634908 781.995499,115.535807 800.20005,115.535807 C818.004501,115.535807 835.408852,112.634908 851.912978,107.633357 C868.917229,102.231683 884.221055,94.4292653 898.324581,84.4261651 C912.428107,74.423065 924.831208,62.0192208 935.133783,48.4150047 C945.036259,34.7107575 952.938235,19.4060143 958.339585,3.30102304 L959.539885,0 L1600,0 L1600,966 L0,966 L0,0 L5.00125031,0 L640.860215,0 Z M561.84046,8.30257311 L561.84046,1.70052702 L485.621405,1.70052702 L485.621405,8.30257311 L561.84046,8.30257311 Z M641.660415,25.7079673 C646.661665,36.1111915 652.463116,46.0142606 659.464866,55.1170817 C668.167042,66.7206779 678.469617,77.023871 689.672418,86.1266922 L693.773443,81.1251421 C682.570643,72.022321 672.268067,61.7191278 663.965991,50.1155317 C657.464366,41.4128346 652.063016,32.3100134 647.461865,22.8070683 L641.660415,25.7079673 Z M409.402351,1.70052702 L333.183296,1.70052702 L333.183296,8.30257311 L409.402351,8.30257311 L409.402351,1.70052702 Z M257.064266,1.70052702 L180.845211,1.70052702 L180.845211,8.30257311 L257.064266,8.30257311 L257.064266,1.70052702 Z M104.726182,1.70052702 L30.2075519,1.70052702 L30.2075519,8.30257311 L104.726182,8.30257311 L104.726182,1.70052702 Z M1.70042511,55.9173298 L1.70042511,132.140953 L8.30207552,132.140953 L8.30207552,55.9173298 C8.30207552,55.9173298 1.70042511,55.9173298 1.70042511,55.9173298 Z M1.70042511,282.488168 L8.30207552,282.488168 L8.30207552,206.264545 L1.70042511,206.264545 L1.70042511,282.488168 Z M1.70042511,358.61176 L1.70042511,434.835383 L8.30207552,434.835383 L8.30207552,358.61176 L1.70042511,358.61176 Z M1.70042511,510.958975 L1.70042511,587.182598 L8.30207552,587.182598 L8.30207552,510.958975 L1.70042511,510.958975 Z M1.70042511,739.529813 L8.30207552,739.529813 L8.30207552,663.30619 L1.70042511,663.30619 L1.70042511,739.529813 Z M1.70042511,891.877028 L8.30207552,891.877028 L8.30207552,815.653405 L1.70042511,815.653405 L1.70042511,891.877028 Z M8.70217554,964.299473 L85.7214304,964.299473 L85.7214304,957.697427 L8.70217554,957.697427 C8.70217554,957.697427 8.70217554,964.299473 8.70217554,964.299473 Z M161.84046,964.299473 L238.059515,964.299473 L238.059515,957.697427 L161.84046,957.697427 L161.84046,964.299473 Z M390.897724,964.299473 L390.897724,957.697427 L314.67867,957.697427 L314.67867,964.299473 L390.897724,964.299473 Z M466.616654,964.299473 L542.835709,964.299473 L542.835709,957.697427 L466.616654,957.697427 L466.616654,964.299473 Z M618.954739,964.299473 L695.173793,964.299473 L695.173793,957.697427 L618.954739,957.697427 L618.954739,964.299473 Z M847.411853,964.299473 L847.411853,957.697427 L771.192798,957.697427 L771.192798,964.299473 L847.411853,964.299473 Z M923.630908,964.299473 L999.849962,964.299473 L999.849962,957.697427 L923.630908,957.697427 L923.630908,964.299473 Z M1075.86897,964.299473 L1152.08802,964.299473 L1152.08802,957.697427 L1075.86897,957.697427 L1075.86897,964.299473 Z M1227.90698,964.299473 L1304.12603,964.299473 L1304.12603,957.697427 L1227.90698,957.697427 L1227.90698,964.299473 Z M1380.24506,964.299473 L1456.46412,964.299473 L1456.46412,957.697427 L1380.24506,957.697427 L1380.24506,964.299473 Z M1597.09927,964.299473 L1597.09927,957.697427 L1590.49762,957.697427 L1532.58315,957.697427 L1532.48312,964.299473 L1597.09927,964.299473 Z M1597.49937,869.970239 L1597.49937,793.746616 L1590.89772,793.746616 L1590.89772,869.970239 L1597.49937,869.970239 Z M1597.49937,641.29937 L1590.89772,641.29937 L1590.89772,717.522993 L1597.49937,717.522993 L1597.49937,641.29937 Z M1597.49937,565.175778 L1597.49937,488.952155 L1590.89772,488.952155 L1590.89772,565.175778 L1597.49937,565.175778 Z M1597.49937,336.60494 L1590.89772,336.60494 L1590.89772,412.828563 L1597.49937,412.828563 L1597.49937,336.60494 Z M1597.49937,184.257725 L1590.89772,184.257725 L1590.89772,260.481348 L1597.49937,260.481348 L1597.49937,184.257725 Z M1597.49937,110.134132 L1597.49937,33.9105095 L1590.89772,33.9105095 L1590.89772,110.134132 L1597.49937,110.134132 Z M1469.66742,1.70052702 L1469.66742,8.30257311 C1495.37384,8.30257311 1520.58015,8.30257311 1545.88647,8.30257311 L1545.88647,1.70052702 L1469.66742,1.70052702 Z M1393.94849,1.70052702 L1317.72943,1.70052702 L1317.72943,8.30257311 L1393.94849,8.30257311 L1393.94849,1.70052702 Z M1241.6104,1.70052702 L1165.39135,1.70052702 L1165.39135,8.30257311 L1241.6104,8.30257311 L1241.6104,1.70052702 Z M1012.95324,1.70052702 L1012.95324,8.30257311 L1089.17229,8.30257311 L1089.17229,1.70052702 L1012.95324,1.70052702 Z M935.133783,49.7154077 C925.631408,62.5193758 914.428607,73.722848 901.625406,83.6259171 L905.726432,89.0275912 C918.529632,79.1245221 930.132533,67.9210499 939.634909,55.1170817 C945.436359,47.2146326 950.837709,39.0120905 954.938735,30.3093934 L949.237309,26.9083394 C945.136284,34.8107885 940.535134,42.6132066 935.133783,49.7154077 Z M799.79995,117.536427 C786.096524,117.536427 773.293323,115.8359 760.490123,113.035032 L758.789697,119.236954 C771.992998,122.137853 785.296324,123.738349 799.39985,123.738349 C811.802951,123.738349 823.805951,122.537977 835.808952,120.037202 L834.608652,113.83528 C823.405851,116.336055 811.802951,117.536427 799.79995,117.536427 Z M9.90247562,9.90306913 L9.90247562,955.9969 L1589.29732,955.9969 L1589.29732,9.90306913 L965.44136,9.90306913 C959.63991,26.5082154 951.337834,41.8129586 941.035259,55.8172987 C930.232558,69.9216699 917.429357,82.3255141 902.925731,93.1288623 C888.022006,103.532086 871.417854,111.734629 854.113528,117.536427 C837.109277,122.938101 818.504626,125.839 799.499875,125.839 C780.495124,125.839 762.290573,122.938101 744.886222,117.536427 C727.08177,111.734629 710.577644,103.432055 696.074019,93.1288623 C681.570393,82.7256381 668.767192,70.3217939 657.964491,55.9173298 C647.461865,41.8129586 639.15979,26.5082154 633.858465,9.90306913 L9.90247562,9.90306913 Z"/></g></svg>