<?xml version="1.0" encoding="utf-8"?>
<!-- Generator: Adobe Illustrator 25.4.2, SVG Export Plug-In . SVG Version: 6.00 Build 0)  -->
<svg version="1.1" id="Layer_1" xmlns="http://www.w3.org/2000/svg" xmlns:xlink="http://www.w3.org/1999/xlink" x="0px" y="0px"
	 viewBox="0 0 1210.3 254.4" style="enable-background:new 0 0 1210.3 254.4;" xml:space="preserve">
<style type="text/css">
	.st0{fill-rule:evenodd;clip-rule:evenodd;fill:#777878;}
</style>
<g id="header">
	<path id="strip" class="st0" d="M304,221.3h-31.5h-2.9v2.1h2.9h28.2c1.2,0,2.9,0,3.7-0.4c0,1.2,0,2.5,0.4,3.7h-11.6
		c-9.1,0-40.2,0-55.9,0.4c-12.4,0-14.1,0.4-15.3,0.4c-6.2,0.4,69.6,1.2,71.2,1.2h12c0.4,1.2,0.8,2.5,1.7,3.7h-21.1h-4.6v2.1
		c2.9,0,4.6,0,4.6,0h22.4c1.2,2.1,2.9,3.7,4.6,5.8H290c-13.2,0-57.6,0-79.9,0.4c-17.8,0-19.9,0.4-22.4,0.4
		c-8.7,0.4,99.8,1.2,101.9,1.2H314h0.4c1.7,1.7,3.3,2.9,5,4.1h-21.1h-2.5v2.1h2.5h24c2.1,1.2,4.1,2.5,6.2,3.3H4.1l33.5-29.4
		L4.1,193.1H304v2.5h-10.8c-12,0-52.2,0-72.1,0.4c-16.1,0-18.2,0.4-19.9,0.4c-7.9,0.4,90.3,1.2,92.4,1.2h10.8v4.6H256h-4.6v2.1
		c2.9,0,4.6,0,4.6,0h48v4.1h-19c-13.2,0-57.6,0-79.9,0.4c-17.8,0-19.9,0.4-22.4,0.4c-8.7,0.4,99.8,1.2,101.9,1.2h19v5h-12.4
		c-9.5,0-42.7,0-59.2,0.4c-13.2,0-14.9,0.4-16.6,0.4c-6.6,0.4,75,1.2,76.6,1.2h12.4L304,221.3L304,221.3L304,221.3z M1209.1,190.6
		H907.5v-60.9v-0.8c-22.4-36-67.9-68.8-122.2-91.9C730.7,13.3,666.9-1.2,608.5,0.1C547.6,1.3,483.8,13.3,427.9,37
		c-50.1,21.1-94,51.8-123.4,92l-0.4,0.8v60.9H0.8l-0.8,2l34,29.4L0,251.9l0.8,2.1h331.4v-63.4H331v-0.4c-1.7-0.4-5.4-3.3-9.5-8.3
		c17.8-24.9,50.5-48.5,89.5-68.3c59.6-30.7,133.8-51.8,191.4-53c2.1,0,4.1,0,6.2,0c72.9,0,139.6,18.2,191,46.8
		c37.3,20.7,66.7,46.8,84.9,75.4c-3.3,4.1-5.8,6.2-5.4,6.2v1.7h-0.8v55.9c0,0.4-2.1,0.4,0,1.2l0,0v6.6h331.4l0.8-2.1l-34-29.4
		l34-29.4L1209.1,190.6L1209.1,190.6z M905,190.6L905,190.6l-0.4-3.7l0.4-0.8V190.6L905,190.6z M905,193.1L905,193.1l0.4,2.5H905
		V193.1z M907.5,193.1h298.2l-33.6,29.4l33.6,29.4H880.2v-3.3c0.4,0,0.8,0,1.7,0h21.5h2.1v-2.1h-2.1h-19c2.5-1.2,4.6-2.5,7-4.1h19.9
		c2.1,0,97.8-0.8,89.9-1.2c-2.1,0-3.7-0.4-19.5-0.4c-19.5-0.4-58.4-0.4-70.4-0.4h-17.4c2.1-1.7,4.1-3.7,5.8-5.8H915
		c0.4,0,1.7,0,4.1,0v-2.1H915h-14.1c0.8-1.2,1.7-2.5,2.5-3.7h4.6c1.2,0,68.3-0.8,62.5-1.2c-1.2,0-2.9-0.4-13.7-0.4
		c-13.7-0.4-41-0.4-48.9-0.4h-3.7c0.4-0.8,0.8-1.7,0.8-2.9h2.9v-0.4h18.2h2.5v-2.1h-2.5H908v-4.1h1.7c1.7,0,73.3-0.8,67.5-1.2
		c-1.7,0-2.9-0.4-14.5-0.4c-14.5-0.4-43.9-0.4-52.6-0.4h-1.7v-5.4h7.5c2.1,0,97.8-0.8,89.9-1.2c-2.1,0-3.7-0.4-19.5-0.4
		c-19.5-0.4-58.8-0.4-70.4-0.4h-7.5v-4.1h32.7c0.4,0,1.7,0,4.1,0v-2.1h-4.1h-32.7v-4.6c1.7,0,88.2-0.8,81.2-1.2
		c-1.7,0-3.7-0.4-17.8-0.4c-17.8-0.4-53-0.4-63.4-0.4L907.5,193.1L907.5,193.1z M905,217.1c0,0.4,0,0.4,0,0.8V217.1L905,217.1z
		 M905,219.6c0,0.4,0,0.8,0,1.2v0.4V219.6L905,219.6L905,219.6z M886.8,179.4c0.8-0.8,1.2-1.7,2.1-2.9
		c-18.6-26.1-44.7-51.4-68.3-64.6v-0.8c24.8,13.7,51.8,36.9,70,62.5c0.8-1.7,2.1-2.9,2.9-5c-20.3-27.3-54.7-53-80.4-67.9l2.5,0.8
		c26.1,14.9,59.2,38.1,79.1,65c0.4-0.8,0.8-2.1,1.7-2.9c-5.4-7.9-11.6-15.7-17.8-21.9v-2.1c6.2,6.2,12.8,14.5,18.6,22.8
		c0.4-1.2,1.2-2.5,1.7-3.7c-17-24.9-45.6-49.3-70-65v-2.1c24.8,15.7,53.8,39.3,70.8,64.6c0.4-1.2,0.8-2.1,1.2-3.3
		c-10.4-16.1-26.1-33.1-41.4-45.6l0.4-0.8c17.4,12.4,31.9,27.8,41.8,43.9c0.4-1.2,0.8-2.5,0.8-3.7c-17-26.9-47.6-54.3-73.7-71.2
		v-0.8c26.5,17.4,57.2,41.4,74.6,68.8c0.4-1.2,0.4-2.5,0.4-3.3C886,112,854.1,85.5,827.2,67.3l0.4-0.8c24.8,15.3,58,43.1,76.6,71.2
		c0.4-2.5,0.4-5,0.4-7.5c-22.4-35.2-67.1-67.1-121-90.3C729,16.2,665.6,2.2,608.1,3c-60.5,0.8-124.3,13.3-179.8,36.9
		c-49.3,20.7-92.8,50.5-121.8,90.3v7.5c18.2-28.2,50.1-52.6,75-68.3l0.4,0.8c-27.3,18.2-58,41.8-75.4,70.4v2.9c0,0.4,0,0.8,0,1.2
		c17-27.8,46.8-49.3,73.7-67.1v0.8c-26.9,17.8-56.3,42.7-73.3,70c0.4,1.2,0.4,2.9,0.8,4.1c9.9-16.6,23.2-29.4,41.4-43.1l0.4,0.8
		c-16.1,13.2-31.1,28.6-41.4,45.2c0.4,1.2,0.4,2.1,0.8,3.3c16.6-25.7,45.1-47.2,70.8-63.8V97c-25.7,16.6-53.9,38.9-70,64.6
		c0.4,1.2,0.8,2.5,1.2,3.7c5.4-7.9,11.6-15.3,18.6-22.4v2.1c-6.6,7-12.8,14.5-18.2,21.9c0.4,0.8,0.8,2.1,1.2,2.9
		c20.3-27.8,53.4-49.7,80.8-65l2.5-0.8c-26.9,15.3-61.7,39.8-81.2,67.9c0.4,1.2,1.2,2.1,1.7,3.3c19.9-26.9,53.4-50.1,79.5-65v0.8
		c-25.7,14.1-58,39.3-78.3,66.7c0.4,0.8,0.8,1.2,1.2,2.1c18.2-24.9,51-48.9,89.9-68.8C468.9,80.4,543,59.3,601.4,57.7
		c2.1,0,4.1,0,6.2,0c73.3,0,140.4,18.6,191.8,47.2C837.9,125.6,867.8,151.3,886.8,179.4L886.8,179.4z M905,129.7v8.3l0.4,0.4
		L905,129.7L905,129.7z M905,141.3v4.6l0.4,0.4L905,141.3L905,141.3z M905,150.4v5.4l0.4,0.4L905,150.4L905,150.4z M905,159.5v5
		l0.4,0.4v-5L905,159.5L905,159.5z M905,168.7v5.8l0.4,0.4v-5.8L905,168.7z M905,178.2v4.6l0.4,0.4L905,178.2L905,178.2L905,178.2
		L905,178.2z M905,197.2L905,197.2l0.4,0.8L905,197.2L905,197.2z M905,203.9v4.1h0.4v-3.7L905,203.9L905,203.9z M905,210.1v5.4h0.4
		L905,210.1L905,210.1z M910.8,248.2c22.8,0,88.6-0.8,82-1.2c-2.1,0-3.7-0.4-19.5-0.4c-16.6-0.4-46.4-0.4-62.5-0.4V248.2
		L910.8,248.2z M942.3,234.1c28.2-0.4,66.7-0.8,61.7-0.8c-2.1,0-3.7-0.4-19.5-0.4c-10.8,0-27.3-0.4-42.2-0.4V234.1L942.3,234.1z
		 M934.9,223.3c26.5,0,102.7-0.8,94.8-1.2c-2.1,0-4.6-0.4-22.4-0.4c-19-0.4-53.8-0.4-72.5-0.4L934.9,223.3L934.9,223.3z M956,203.4
		c28.2-0.4,57.2-0.8,51.8-0.8c-2.1,0-3.7-0.4-19.5-0.4c-10.8,0-17.8-0.4-32.3-0.4V203.4L956,203.4z M289.5,248.2
		c-26.1,0-100.6-0.8-93.2-1.2c2.1,0,4.6-0.4,22.4-0.4c18.6-0.4,52.6-0.4,71.2-0.4v2.1L289.5,248.2L289.5,248.2z M253.5,234.1
		c-31.9-0.4-75.8-0.8-70-0.8c2.1,0,4.6-0.4,22.4-0.4c12,0,31.1-0.4,47.6-0.4C253.5,232.4,253.5,234.1,253.5,234.1z M262.2,223.3
		c-29.8,0-116.4-0.8-107.7-1.2c2.5,0,5-0.4,25.7-0.4c21.5-0.4,60.9-0.4,82.4-0.4v2.1L262.2,223.3L262.2,223.3z M238.2,203.4
		c-31.9-0.4-64.6-0.8-58.8-0.8c2.1,0,4.6-0.4,22.4-0.4c12,0,19.9-0.4,36.9-0.4L238.2,203.4L238.2,203.4z M843.3,92.9v1.7
		c-5-3.3-9.9-7.5-14.9-10.4l-0.4-0.8C832.6,86.2,838.4,89.5,843.3,92.9L843.3,92.9z M873.6,134.7v2.1c-9.1-9.1-19.5-17-29.8-24.4
		v-1.2C853.7,117.7,864,126,873.6,134.7L873.6,134.7z M366.2,95.8v1.7c5-3.3,9.9-7.5,14.9-10.4l0.4-0.8
		C376.9,89.1,370.7,92.4,366.2,95.8z M335.9,137.6v2.1c9.1-9.1,19.5-17,29.8-24.4V114C355.4,120.6,345,128.9,335.9,137.6
		L335.9,137.6z"/>
	<path id="txt" class="st0" d="M475.5,68.8L461,74.6l-0.4-1.2c1.7-0.8,2.9-1.2,3.3-2.1c0.8-0.8,0.8-2.1,0-3.7l-9.1-22.8
		c-0.8-1.7-1.7-2.5-2.5-2.5s-2.1,0-3.7,0.8c-2.5,0.8-4.1,1.7-5,2.5c-1.7,1.2-2.1,2.9-1.2,5l7.5,18.6c1.2,2.9,1.7,5,1.7,6.6
		c0,2.5-1.2,4.1-3.7,5c-1.2,0.4-2.5,0.8-3.7,0.4s-2.1-1.2-2.9-2.5c-0.4-0.8-0.4-1.2,0-2.1c0-0.8,0.4-1.2,1.2-1.7
		c0.8-0.4,1.2-0.4,2.1,0c0.8,0.4,1.2,1.2,1.7,2.1c0.8,1.7,1.2,2.5,2.1,2.1c0.4,0,0.4-0.4,0.8-0.8c1.2-1.7,1.2-4.1,0-7l-7.9-19.9
		c-0.8-1.7-1.7-2.9-3.3-2.9c-1.2,0-2.5,0.4-4.6,1.2l-0.4-1.2l30.2-12.4l0.4,1.2c-1.7,0.8-2.5,1.2-2.9,1.7c-0.8,0.8-0.8,2.1,0,3.3
		l9.1,23.2c0.4,1.7,1.7,2.5,2.5,2.5s1.7,0,3.3-0.8L475.5,68.8L475.5,68.8z M466,67.6L466,67.6l-9.1-23.2c-0.4-1.2-0.8-2.1-1.2-2.5
		c-0.4-0.4-1.2-0.4-2.5,0l-0.8,0.4c1.2,0,2.1,1.2,2.9,2.9l9.1,22.8c0.4,0.8,0.4,1.7,0.8,2.1c0,0.8-0.4,1.2-0.8,2.1l0.8-0.4
		C466.4,71.3,466.8,69.7,466,67.6L466,67.6z M441.5,46.5L441.5,46.5l-4.1,1.7c1.2,0,2.5,0.4,3.3,1.7
		C440.3,48.5,440.7,47.3,441.5,46.5z M446.1,80.8L446.1,80.8c-1.7-0.8-2.5-1.7-2.9-2.5s0-1.2,0.4-1.2s0.4,0,0.8,0
		c-0.8-0.8-1.2-1.2-2.1-0.8c-0.4,0-0.8,0.4-0.8,1.2c0,0.4,0,1.2,0,1.7C442.4,80,443.6,80.8,446.1,80.8L446.1,80.8L446.1,80.8z
		 M500,50.6L500,50.6c0.8,2.9,0.8,5.8-0.4,8.7s-3.3,4.6-6.2,5.4c-2.9,0.8-5.8,0.4-8.3-0.8c-2.5-1.7-4.1-3.7-5-7
		c-0.8-2.9-0.8-5.8,0.8-8.7c1.2-2.9,3.3-4.6,6.6-5.4c2.9-0.8,5.4-0.4,8.3,0.8C497,45.2,498.7,47.3,500,50.6L500,50.6z M496.6,51.8
		L496.6,51.8c-1.7-5-4.1-7.9-7.5-8.7l0,0c1.7,0.8,3.3,2.1,4.1,4.1c0.8,1.2,1.2,3.3,2.1,5.8c0.8,3.3,0.8,5.8,0,8.3
		C497.5,59.3,497.9,56.4,496.6,51.8L496.6,51.8z M494.6,53.1L494.6,53.1c-0.8-2.5-1.7-4.6-2.9-6.2c-1.7-2.5-3.3-3.3-5-2.9
		c-2.9,0.8-3.7,4.1-2.1,9.5c0.8,2.5,1.7,4.6,2.9,6.6c1.7,2.5,3.3,3.3,5.4,2.9c1.2-0.4,2.1-1.2,2.5-3.3
		C495.8,58.5,495.4,56,494.6,53.1L494.6,53.1z M489.6,63.9L489.6,63.9L489.6,63.9c-2.1-0.4-3.7-1.2-5-2.9c-1.7-1.2-2.5-3.3-3.3-5.4
		c-0.8-2.1-0.8-4.1-0.4-5.8c0.4-1.2,1.2-2.9,2.5-5l0,0c-1.7,1.2-2.9,2.9-3.7,5c-0.4,2.1-0.4,4.6,0,6.6c0.8,2.1,1.7,4.1,3.7,5.4
		C485.9,63.9,487.5,64.3,489.6,63.9L489.6,63.9z M537.6,58.9L537.6,58.9l-1.7,0.4c-2.1-3.3-4.6-4.6-7.9-3.7l-17.4,3.7l-0.4-1.2
		c1.7-0.4,2.5-1.7,2.1-3.3l-2.9-13.7c-0.4-1.7-1.2-2.5-3.3-2.1l-0.4-1.2l10.8-2.1l0.4,1.2c-1.2,0.4-1.7,0.4-2.1,0.8
		c-0.4,0.4-0.4,1.2-0.4,2.5l2.5,13.2c0.4,1.2,0.8,2.1,1.2,2.1s1.2,0,2.5,0l2.9-0.4c1.7-0.4,2.5-1.2,2.1-3.3l-2.9-13.7
		c-0.4-1.7-1.2-2.5-3.3-2.1l-0.4-1.2l10.8-2.1l0.4,1.2c-1.2,0.4-1.7,0.4-2.1,0.8c-0.4,0.4-0.4,1.2-0.4,2.5l2.5,13.2
		c0.4,1.2,0.8,2.1,1.2,2.1s1.2,0,2.5,0L537.6,58.9L537.6,58.9z M528.5,51.4L528.5,51.4l-2.9-13.7c-0.4-1.7-1.2-2.5-2.9-2.1
		c0.8,0.4,1.2,0.8,1.2,2.1l2.9,14.5c0,0.8,0,1.7-0.4,2.5C528.1,54.3,528.9,53.1,528.5,51.4L528.5,51.4z M535.6,57.2L535.6,57.2
		l-1.2-2.9l-2.5,0.4l0,0C533.1,55.2,534.3,56,535.6,57.2L535.6,57.2z M514.9,54.3L514.9,54.3L512,40.7c-0.4-1.7-1.2-2.5-2.9-2.1
		c0.8,0.4,1.2,0.8,1.2,2.1l2.9,14.5c0,0.8,0,1.7-0.4,2.5C514.5,56.8,515.3,56,514.9,54.3L514.9,54.3z M571.2,49L571.2,49l-10.8,1.2
		V49c1.7-0.4,2.5-1.2,2.5-2.9l-1.7-11.6l-7.5,12.8c0,1.2,0.4,2.1,0.8,2.1c0.4,0,1.2,0.4,2.5,0v1.2l-10.8,1.2v-1.2
		c1.7-0.4,2.5-1.2,2.5-2.9L547.2,34c-0.4-1.7-1.2-2.5-2.9-2.1v-1.2l10.8-1.2v1.2c-1.2,0-2.1,0.4-2.1,0.8c-0.4,0.4-0.4,1.2-0.4,2.5
		l1.7,11.6l7.5-12.8c0-0.8-0.4-1.7-0.8-2.1c-0.4-0.4-1.2-0.4-2.1-0.4v-1.2l10.8-1.2v1.2c-1.2,0-2.1,0.4-2.1,0.8
		c-0.4,0.4-0.4,1.2-0.4,2.5l1.7,13.2c0,1.2,0.4,2.1,0.8,2.1c0.4,0,1.2,0.4,2.5,0L571.2,49L571.2,49z M564.6,45.6L564.6,45.6
		L562.9,32c-0.4-1.7-1.2-2.5-2.9-2.5c0.8,0.4,1.2,1.2,1.2,2.1l1.7,14.5c0,0.8,0,1.7-0.8,2.5C564.2,48.5,564.6,47.7,564.6,45.6
		L564.6,45.6z M550.5,47.7L550.5,47.7L548.8,34c-0.4-1.7-1.2-2.5-2.9-2.5c0.8,0.4,1.2,1.2,1.2,2.1l1.7,14.5c0,0.8,0,1.7-0.8,2.5
		C550.1,50.6,550.5,49.4,550.5,47.7L550.5,47.7z M602.7,46.9L602.7,46.9l-11.6,0.4V46c2.1,0,2.9-1.2,2.9-2.9l-0.4-6.6h-1.2l-2.5,6.6
		c-0.8,1.7-1.2,2.9-2.1,3.3c-0.8,0.8-2.1,1.2-3.3,1.2h-3.7v-1.2c0.8,0,1.2-0.4,2.1-1.2s1.2-2.1,2.5-4.1c0.8-1.7,1.2-3.3,2.1-4.6
		c-3.3-0.4-5-2.1-5-5c0-3.7,2.5-5.8,7.9-6.2l12-0.8v1.2c-1.2,0-1.7,0.4-2.1,0.4c-0.4,0.4-0.8,1.2-0.8,2.5l0.8,13.7
		c0,1.7,1.2,2.5,3.3,2.5L602.7,46.9L602.7,46.9z M593.6,35.3L593.6,35.3l-0.4-8.7h-2.9c-1.2,0-2.1,0.4-2.5,1.2
		c-0.4,0.8-0.4,1.7-0.4,3.3c0,2.9,1.2,4.1,3.7,4.1L593.6,35.3L593.6,35.3z M596,43.2L596,43.2l-0.8-13.7c0-1.7-0.4-2.5-1.7-2.5
		l0.8,16.1c0,1.2-0.4,2.1-1.2,2.9h0.4c0.8,0,1.7-0.4,2.1-0.8C596,44.8,596.5,44,596,43.2L596,43.2z M586.1,35.7L586.1,35.7
		L586.1,35.7c-1.2-1.2-1.7-2.5-2.1-4.1c0-2.1,0.4-3.3,1.7-4.1l0,0c-0.8,0-1.7,0.4-2.1,1.7c-0.4,0.8-0.8,2.1-0.8,2.9
		C582.4,34,583.6,35.3,586.1,35.7L586.1,35.7z M589,36.5L589,36.5h-1.7L584,44c-0.4,1.2-1.2,2.1-2.1,2.5h0.4c1.7,0,2.5-0.8,2.9-2.1
		L589,36.5L589,36.5z M673.9,33.2L673.9,33.2c-0.4,5.4-2.5,9.5-6.6,12.4c-3.7,2.9-7.9,3.7-13.2,3.3l-18.6-1.7V46
		c1.7,0,2.9,0,3.7-0.4s1.2-1.7,1.7-3.3l2.1-24.9c0-1.2-0.4-2.1-1.2-2.9c-0.8-0.4-1.7-0.8-3.3-0.8v-1.2l19.5,1.7
		c5,0.4,8.7,2.5,12,6.2C673.1,23.7,674.3,28.2,673.9,33.2L673.9,33.2z M669.8,33.2L669.8,33.2c0.4-3.7,0-6.6-0.8-9.5
		c-1.2-3.3-2.9-5.8-5.8-7c-0.8-0.4-1.7-0.4-2.5-0.8c5.8,2.9,8.3,8.7,7.5,17.4c-0.8,7.9-4.1,12.4-10.4,14.5c3.7,0,6.6-1.7,8.7-4.6
		C668.1,40.7,669.4,37.3,669.8,33.2L669.8,33.2z M667.3,32.8L667.3,32.8c0.4-4.1,0-7.5-1.7-10.4c-1.7-3.3-4.1-5.4-7.5-6.6
		c-1.2-0.4-2.9-0.8-4.6-0.8s-3.3,0-3.7,1.2c-0.4,0.8-0.8,2.1-0.8,3.7l-2.1,22c0,2.1,0,3.7,0.4,4.1s2.1,1.2,4.1,1.2
		c3.3,0.4,6.2-0.4,8.7-1.7c2.5-1.2,4.1-3.3,5-5.4C666.5,38.2,666.9,35.7,667.3,32.8L667.3,32.8z M643.7,42.7L643.7,42.7l2.1-23.2
		c0-2.1,0-3.3,0-4.1c-0.4-0.8-1.2-1.2-2.5-1.2c0.8,0.8,1.7,2.1,1.2,3.7l-2.1,24.9c0,2.1-0.8,3.3-2.1,3.7c1.2,0,2.1,0,2.5-0.8
		C642.8,44.8,643.3,44,643.7,42.7L643.7,42.7z M720.7,43.2L720.7,43.2c-1.2,5-3.7,9.1-7.9,11.2s-8.3,2.9-13.2,1.7L681.4,52l0.4-1.2
		c1.7,0.4,2.9,0.4,3.7,0s1.7-1.2,2.1-2.9l5.4-24.4c0.4-1.2,0-2.1-0.8-2.9c-0.4-0.4-1.7-0.8-2.9-1.2l0.4-1.2l19,4.1
		c5,1.2,8.7,3.7,11.2,7.5C720.7,33.2,721.5,37.8,720.7,43.2L720.7,43.2z M716.2,42.3L716.2,42.3c0.8-3.7,0.8-6.6,0.4-9.5
		c-0.8-3.3-2.1-6.2-5-7.9c-0.4-0.4-1.2-0.8-2.5-1.2c5.4,3.7,7,9.9,5.4,18.2c-1.7,7.5-5.8,12-12,13.2c3.7,0.4,6.6-0.8,9.1-3.3
		C713.7,49.4,715.3,46,716.2,42.3L716.2,42.3z M713.7,41.5L713.7,41.5c0.8-4.1,0.8-7.5,0-10.8c-1.2-3.3-3.3-5.8-6.6-7.5
		c-1.2-0.4-2.5-1.2-4.1-1.2c-1.7-0.4-3.3,0-3.7,0.8c-0.4,0.4-1.2,1.7-1.7,3.7L693,48.1c-0.4,2.1-0.4,3.7,0,4.6s1.7,1.2,3.7,1.7
		c3.3,0.8,6.2,0.4,8.7-0.8s4.1-2.5,5.8-4.6C712.4,46.9,713.3,44.4,713.7,41.5L713.7,41.5z M689.2,48.5L689.2,48.5l5-22.8
		c0.4-1.7,0.4-3.3,0.4-4.1s-0.8-1.2-2.5-1.7c0.8,0.8,1.2,2.1,0.8,3.7L687.5,48c-0.4,2.1-1.2,3.3-2.5,3.3c1.2,0.4,2.1,0,2.9-0.4
		C688.4,50.6,688.8,49.8,689.2,48.5L689.2,48.5z M765.9,58.1L765.9,58.1c-1.7,5-4.6,8.7-9.1,10.4c-4.1,1.7-8.7,2.1-13.7,0.4
		L725.3,63l0.4-1.2c1.7,0.4,2.9,0.8,3.7,0.4c0.8-0.4,1.7-1.2,2.1-2.9l7.9-24c0.4-1.2,0-2.1-0.8-2.9c-0.4-0.4-1.7-1.2-2.9-1.7
		l0.4-1.2l18.6,6.2c4.6,1.7,8.3,4.6,10.4,8.7S767.5,53.1,765.9,58.1L765.9,58.1z M761.7,56.8L761.7,56.8c1.2-3.3,1.7-6.6,1.2-9.5
		c-0.4-3.3-1.7-6.2-4.1-8.3c-0.4-0.4-1.2-0.8-2.1-1.2c5,4.1,6.2,10.4,3.3,18.6c-2.5,7.5-7,11.2-13.2,12c3.3,0.8,6.6,0,9.5-2.5
		C758.4,63.9,760.5,60.5,761.7,56.8L761.7,56.8z M759.2,56L759.2,56c1.2-3.7,1.7-7.5,0.8-10.4c-0.8-3.7-2.5-6.2-5.8-8.3
		c-1.2-0.8-2.5-1.2-4.1-1.7c-1.7-0.4-2.9-0.4-4.1,0c-0.8,0.4-1.2,1.7-1.7,3.7L737.7,60c-0.8,2.1-0.8,3.7-0.4,4.1
		c0.4,0.8,1.7,1.2,3.7,2.1c3.3,1.2,6.2,1.2,8.7,0.4c2.5-0.8,4.6-2.1,6.2-4.1C757.2,61,758.4,58.9,759.2,56L759.2,56z M734,60.1
		L734,60.1l7-22c0.4-1.7,0.8-3.3,0.8-4.1s-0.8-1.7-2.1-2.1c0.8,0.8,0.8,2.1,0.4,4.1l-7.9,23.6c-0.8,2.1-1.7,2.9-2.9,3.3
		c1.2,0.4,2.1,0.4,2.9,0C733.2,62.2,733.6,61.4,734,60.1L734,60.1z M788.2,53.1L788.2,53.1c-0.4,0.8-0.8,1.7-2.1,2.1
		c-0.8,0.4-1.7,0.4-2.5,0s-1.2-0.8-1.7-2.1c-0.4-0.8-0.4-1.7,0-2.5s0.8-1.7,1.7-2.1c0.8-0.4,1.7-0.4,2.5,0s1.2,0.8,1.7,2.1
		C788.7,51,788.7,52.3,788.2,53.1L788.2,53.1z M778.3,82.5L778.3,82.5l-9.9-4.6l0.4-1.2c0.8,0.4,1.7,0.4,2.1,0.4s0.8-0.8,1.2-1.7
		l4.6-10.4c0.8-1.7,0.4-2.9-1.2-4.1l0.4-0.8l7.5,0.4c0,0,0.4,0,0.8,0.4l-7,16.6c-0.4,1.2-0.4,2.1-0.4,2.5s0.8,0.8,2.1,1.2
		L778.3,82.5L778.3,82.5z M784.5,54.3L784.5,54.3c-0.4-1.2-0.8-2.5-0.4-3.3c0.4-0.8,1.2-1.7,2.5-1.7c-1.7-0.8-2.9-0.4-3.7,1.2
		C782,52.3,782.8,53.5,784.5,54.3L784.5,54.3z M774.6,76.3L774.6,76.3l4.6-10.8c0.8-2.1,0.4-3.3-1.2-4.1c-0.4,0-0.4,0-0.8-0.4
		c0.8,1.2,0.8,2.5,0.4,4.1L773,75.9c-0.4,0.8-0.8,1.7-1.7,1.7C772.5,78.4,773.7,77.9,774.6,76.3L774.6,76.3z"/>
</g>
</svg>
