<?xml version="1.0" encoding="utf-8"?>
<!-- Generator: Adobe Illustrator 25.4.2, SVG Export Plug-In . SVG Version: 6.00 Build 0)  -->
<svg version="1.1" id="Layer_1" xmlns="http://www.w3.org/2000/svg" xmlns:xlink="http://www.w3.org/1999/xlink" x="0px" y="0px"
	 viewBox="0 0 1120 379" style="enable-background:new 0 0 1120 379;" xml:space="preserve">
<style type="text/css">
	.st0{fill-rule:evenodd;clip-rule:evenodd;fill:#FEFEFE;}
	.st1{fill-rule:evenodd;clip-rule:evenodd;fill:#777878;}
</style>
<g id="Layer_x0020_1">
	<path class="st0" d="M3.7,296.7c6.8,6.2,13.5,12.4,20.3,18.6c-1.3,20.6-2.6,41.3-3.9,61.9c38.2-66.6,137.4-129.7,217.3-132.3
		l-23.6-83.3C134.7,182.7,48.5,225.6,3.7,296.7z"/>
	<path class="st1" d="M213.5,118.1l5.9,104.6c23.2-20.6,160.3-134.5,343.2-132.6C744.6,92,878,201.8,901.6,222.5l1.1-107.8
		C893,105.7,782.3,6.8,561.4,6.8v0C345.2,8.9,224.4,108.7,213.5,118.1z M215.1,227.6l-6.3-111.5l0.8-0.7
		c0.4-0.3,123.4-110.9,351.7-113.2l0,0c232.9,0,344.7,109.6,345,109.9l0.7,0.7l-1.2,119.8l-3.7-3.5
		c-0.4-0.4-140.7-132.4-339.7-134.5c-199-2.1-343.2,134.1-343.6,134.5l-3.5,3.3L215.1,227.6z"/>
	<path class="st1" d="M212.3,118.2c0,0,3.4,20.3,14.6,27c11.3,6.8,14.6,6.8,14.6,6.8l0,0.4l1.7-0.4l-1.8,94.3l-0.5,0.1l0,0.8
		c-1.4,0.1-2.8,0-4.2-0.1c-23,3.9-59.3,10.8-98.2,29c-40.5,19-83.8,50.3-118.2,103.5l-4.1-1.4l6.1-61.9L1,296.5l1-1.6
		c26.1-40,62-70.1,103.3-93c33.2-18.4,69.8-32.1,107.5-42.4L212.3,118.2z M227.5,244.1c-3.3-1.7-6.2-3.9-8.4-6.1
		c-15.9,2.7-38,8.7-52.7,13.8c-0.6-0.9-0.7-1.5-1.3-2.4c16.9-6.4,33.8-11,51.3-14.3c-1.6-2-2.5-3.8-2.5-4.8l0-3.2
		c-34,6.5-71.9,20.8-101.2,37.8c0,0-5.5,1.7-0.7-1c29.6-17.2,67.1-33.3,101.8-40.6l-0.1-8.2c-34.2,7.7-59.3,18.1-59.3,18.1
		s-6.1,1.2-0.7-1.2c10.8-4.6,33.7-14,59.9-21.2l-0.1-5.9c-47.1,10.1-87,31.3-87,31.3s-4.5,1.8,0-0.7c13.7-7.7,50-26.2,86.9-34.7
		l-0.1-5.5c-43.1,9.5-81.6,28.4-81.6,28.4s-5.3,1.5-0.7-1c12.9-6.9,47.4-22.8,82.2-31.2l-0.1-4.6c-2.9,0.5-5.9,1-9,1.6
		c-0.7-1.1-0.2-3.1-0.9-4.2c3.4-0.8,6.7-1.5,9.8-2.1l-0.1-8.1c-55,11.4-105.4,35.9-148.3,72.8c0,0-4,2.7-0.2-0.8
		c40-37.1,94.9-64.8,148.4-75.8l-0.1-6c-37,10.2-72.9,23.6-105.4,41.6c-40.2,22.3-75.2,51.5-100.7,90l20.3,18.6l-5.4,55.2
		c34-49.5,75.9-79.3,115-97.7C171.6,255.6,204.4,248.3,227.5,244.1z M158.9,251.9c-30.1,12.1-54.5,27-65.4,34.8
		c-4.6,3.2,0.5,0.9,0.5,0.9s26.1-18.6,65.5-33.1C159,253.5,159.3,252.8,158.9,251.9L158.9,251.9z M196.8,186
		c0.5,1.1,0.1,2.8,0.5,3.9c-33.9,7.4-74.1,25.3-102.9,44.7c0,0-4.2,2.3,0.1-0.7C124.4,213.8,161.5,194.6,196.8,186L196.8,186z"/>
	<path class="st1" d="M212.3,122.3c6.8-5.4,14-10.8,21.6-16.2c22-15.7,48-28.3,75.4-40.7l0.7,0.2c-27.2,12.3-52.3,27.6-74.2,43.1
		c-8.6,5.7-16.4,11.4-23.5,17V122.3z M212.3,134.4c2.1-1.7,4.2-3.4,6.4-5.1c21.1-16.8,46.4-30.8,73.1-44.6l0.7,0.2
		c-26.5,13.7-50.8,30.3-71.7,46.9c-2.9,2.3-5.7,4.6-8.4,6.8V134.4z M212.3,151.4c10.6-8.9,22.7-18.3,36-27.6c1-0.7,2.1-1.4,3.1-2.2
		l1.8,2.7c-1,0.7-2,1.4-3,2.1c-14.1,9.9-26.9,19.8-37.9,29.2V151.4z M268,114.6l-1.2-2.6c17.5-10.2,23.4-12.4,43.4-21.2l0.7,0.3
		C290.9,99.9,285.3,103.6,268,114.6L268,114.6z M212.3,166.3c24.2-19.2,52.6-35.7,82.4-52.1l0.9,0.3c-30.8,16.8-58.9,36.9-83.3,57.3
		V166.3z M223.4,179.7l-1.6-2.9c8-6.5,16.6-13.2,25.9-19.8c23-15.9,40-23.5,60.9-33.2l0.7,0.2c-26.9,12.1-37.7,20.4-59.6,35.6
		C240.3,166.3,231.5,173.1,223.4,179.7L223.4,179.7z M212.3,199.6c9.5-8.2,20.2-16.8,31.8-25.4c22.4-16.5,49.3-30.3,77.6-43.8
		l0.7,0.2c-28.1,13.4-53.9,29.7-76.2,46.1c-12.5,9.2-23.9,18.5-34,27.3V199.6z M237.4,199.2l-1.5-3.1c12.1-9.9,26.3-20.7,42.5-31.4
		c23-15.2,62.9-32.7,91.5-44.5l0.7,0.3c-28.4,11.7-67.4,31.8-90.2,46.9C264,178.2,249.6,189.1,237.4,199.2L237.4,199.2z"/>
	<path class="st1" d="M364.3,109.2l-21.1,9.8l-0.8-1.8c2.4-1.1,3.9-2.1,4.5-3c0.9-1.2,0.8-2.9-0.2-5.1L332.3,78
		c-1-2.1-2.3-3.3-3.9-3.4c-1.1-0.1-2.9,0.5-5.3,1.6c-3.6,1.7-6,3-7.2,4c-2.3,2.1-2.8,4.5-1.6,7.2l11.7,25.2c1.8,3.8,2.6,6.8,2.7,9.1
		c0,3.3-1.7,5.8-5,7.3c-2,0.9-3.8,1.2-5.6,0.9c-1.9-0.3-3.3-1.5-4.2-3.4c-0.4-0.9-0.5-1.9-0.3-2.9c0.2-1,0.8-1.8,1.7-2.2
		c1-0.5,2-0.5,3.1,0c1.1,0.5,1.9,1.3,2.5,2.6c1.1,2.3,2.2,3.1,3.4,2.6c0.3-0.2,0.7-0.5,1.1-1.1c1.6-2.5,1.5-5.8-0.5-9.9l-12.6-27.1
		c-1.1-2.4-2.9-3.7-5.2-3.6c-1.5,0-3.7,0.7-6.6,2l-0.8-1.8l43.8-20.3l0.8,1.8c-2.2,1-3.7,2-4.4,2.9c-1,1.3-1,2.9-0.1,5l14.7,31.6
		c1,2.1,2.2,3.1,3.8,3.1c1.1,0.1,2.7-0.4,5-1.5L364.3,109.2L364.3,109.2z M349.9,108l-14.7-31.6c-0.8-1.6-1.4-2.7-2.1-3.1
		c-0.9-0.7-2.1-0.7-3.6,0l-0.9,0.4c1.8,0,3.4,1.3,4.5,3.8l14.5,31.3c0.6,1.3,1,2.4,1,3.1c0.1,0.9-0.3,1.9-1,2.9l1-0.5
		C351,113.3,351.3,111.2,349.9,108L349.9,108z M313.3,80.8l-6.3,2.9c2.1-0.1,3.7,0.5,4.7,1.8C311.6,83.9,312.1,82.3,313.3,80.8
		L313.3,80.8z M321.5,128.6c-2.4-0.8-3.9-1.8-4.4-2.9c-0.4-1-0.2-1.7,0.7-2.1c0.4-0.2,0.9-0.3,1.4-0.2c-1.1-1.1-2.2-1.5-3.1-1
		c-0.7,0.3-1.1,0.8-1.3,1.6c-0.2,0.7-0.1,1.5,0.2,2.1c1,2.1,3.2,3,6.5,2.7L321.5,128.6L321.5,128.6z M399.3,81.1
		c1.5,4.3,1.3,8.3-0.5,12.3c-1.8,3.9-4.8,6.6-9.1,8.1c-4.3,1.5-8.4,1.3-12.2-0.5c-3.8-1.8-6.4-4.9-7.9-9.3
		c-1.5-4.3-1.3-8.4,0.6-12.3c1.9-3.9,5-6.7,9.2-8.1c4.2-1.4,8.2-1.2,12,0.7C395.3,73.8,397.9,76.8,399.3,81.1L399.3,81.1z
		 M394.7,83.5c-2.4-7-6.3-10.9-11.5-11.6l0,0.1c2.6,1.1,4.7,2.9,6.3,5.4c1.1,1.6,2.2,4.2,3.4,7.7c1.5,4.3,1.7,8.1,0.6,11.5
		C396.4,93.7,396.7,89.3,394.7,83.5L394.7,83.5z M391.8,85.2c-1.2-3.5-2.6-6.3-4.3-8.5c-2.4-3.3-5-4.5-7.7-3.6
		c-4.4,1.5-5.3,6.1-2.7,13.8c1.2,3.5,2.7,6.4,4.5,8.8c2.6,3.4,5.3,4.7,8.1,3.7c1.7-0.6,2.8-2.1,3.3-4.5
		C393.6,92.4,393.2,89.2,391.8,85.2L391.8,85.2z M385.2,100.9l0-0.1c-2.9-0.4-5.4-1.6-7.6-3.5c-2.2-1.9-3.8-4.2-4.8-7
		c-1-3-1.3-5.7-0.7-8.1c0.4-1.9,1.6-4.3,3.6-7.4l0-0.1c-2.6,1.9-4.3,4.4-5.1,7.5c-0.8,3.1-0.6,6.2,0.5,9.4c1.1,3.1,2.9,5.5,5.5,7.4
		C379.2,100.8,382.1,101.5,385.2,100.9L385.2,100.9z M454.6,90.4l-2.2,0.5c-3.2-4.2-7-5.8-11.5-4.7l-25.7,6.3l-0.5-1.9
		c2.5-0.7,3.5-2.2,2.9-4.5l-4.5-18.6c-0.6-2.4-2.1-3.3-4.7-2.7l-0.5-1.9l15.8-3.9l0.5,1.9c-1.6,0.4-2.6,0.9-3.1,1.4
		c-0.6,0.7-0.7,1.8-0.3,3.4l4.4,18.2c0.4,1.6,1,2.6,1.9,2.9c0.7,0.3,1.8,0.2,3.4-0.2l4.1-1c2.5-0.6,3.5-2.1,2.9-4.5l-4.5-18.6
		c-0.6-2.4-2.1-3.3-4.7-2.7L428,58l15.8-3.9l0.5,1.9c-1.6,0.4-2.7,0.9-3.1,1.4c-0.6,0.7-0.7,1.8-0.3,3.4l4.4,18.2
		c0.4,1.7,1.1,2.7,2,3c0.6,0.2,1.8,0.1,3.7-0.3L454.6,90.4L454.6,90.4z M441,80.4l-4.5-18.6c-0.6-2.4-2.1-3.3-4.5-2.7
		c1.1,0.4,1.7,1.3,2.1,2.6l4.8,19.8c0.3,1.4,0.1,2.5-0.6,3.3C440.7,84.2,441.6,82.8,441,80.4L441,80.4z M451.7,88.3l-2-4.2L446,85
		l0,0.1C447.9,85.4,449.8,86.5,451.7,88.3L451.7,88.3L451.7,88.3z M421.1,85.2l-4.5-18.6c-0.6-2.4-2.1-3.3-4.5-2.7
		c1.1,0.4,1.8,1.3,2.1,2.6l4.8,19.8c0.3,1.4,0.1,2.5-0.6,3.3C420.8,89.1,421.7,87.6,421.1,85.2L421.1,85.2z M499.8,76.4l-16.1,2.3
		l-0.3-1.9c2.6-0.4,3.7-1.8,3.3-4.2l-2.3-16.3l-10.7,18c0.2,1.7,0.7,2.7,1.5,3c0.6,0.3,1.7,0.4,3.5,0.2l0.3,1.9l-16.1,2.3l-0.3-1.9
		c2.6-0.5,3.7-1.9,3.3-4.2l-2.7-19c-0.3-2.3-1.8-3.4-4.4-3.1l-0.3-1.9l16.1-2.3l0.3,1.9c-1.7,0.3-2.8,0.7-3.3,1.1
		c-0.6,0.6-0.8,1.7-0.6,3.4l2.3,16l10.7-18.1c-0.2-1.4-0.6-2.3-1.3-2.7c-0.7-0.4-1.7-0.6-3.1-0.4l-0.3-1.9l16.1-2.3l0.3,1.9
		c-1.7,0.3-2.8,0.7-3.3,1.1c-0.6,0.6-0.8,1.7-0.6,3.4l2.7,18.6c0.2,1.7,0.7,2.7,1.5,3c0.6,0.3,1.7,0.4,3.5,0.2L499.8,76.4
		L499.8,76.4z M490,72.1l-2.7-19c-0.4-2.4-1.7-3.5-4.2-3.1c1,0.5,1.6,1.5,1.8,2.8l2.9,20.2c0.2,1.4-0.1,2.5-0.9,3.2
		C489.4,76,490.4,74.6,490,72.1L490,72.1z M469.1,75.1l-2.7-19c-0.4-2.4-1.7-3.5-4.2-3.1c1,0.5,1.6,1.5,1.8,2.8l2.9,20.2
		c0.2,1.4-0.1,2.5-0.9,3.2C468.5,79,469.5,77.6,469.1,75.1L469.1,75.1z M542.3,73.7l-17.1,1.1l-0.1-1.9c3.1-0.2,4.5-1.5,4.4-4
		l-0.6-9.4l-1.9,0.1l-3.9,9.1c-1,2.3-1.9,3.9-2.8,4.8c-1.2,1.1-2.9,1.8-5.1,1.9l-5.7,0.4l-0.1-1.9c1-0.1,2-0.6,2.9-1.6
		c0.9-1,2-3,3.4-6c0.9-2.2,1.9-4.4,2.8-6.6c-4.7-0.6-7.2-2.8-7.5-6.6c-0.3-5.2,3.6-8.1,11.7-8.6l17.7-1.1l0.1,1.9
		c-1.6,0.1-2.7,0.4-3.3,0.8c-0.7,0.6-1,1.7-0.9,3.3l1.2,18.9c0.2,2.5,1.8,3.6,4.8,3.4L542.3,73.7L542.3,73.7z M528.7,58l-0.8-12
		l-4.5,0.3c-1.9,0.1-3.2,0.7-3.9,1.8c-0.6,0.9-0.8,2.4-0.7,4.4c0.3,4,2.1,5.9,5.6,5.7L528.7,58L528.7,58z M532.5,68.7l-1.2-19.1
		c-0.2-2.5-0.9-3.7-2.3-3.6l1.4,22.8c0.1,1.8-0.6,3-2,3.8l0.7,0c1.4-0.1,2.3-0.4,2.8-1C532.4,71,532.6,70.1,532.5,68.7L532.5,68.7z
		 M517.2,58.5l0-0.1c-1.8-1.4-2.8-3.2-2.9-5.5c-0.2-2.6,0.6-4.6,2.2-5.9l0-0.1c-1.3,0.1-2.4,0.8-3.3,2.2c-0.9,1.4-1.3,2.7-1.2,4.1
		C512.2,56.1,513.9,57.9,517.2,58.5L517.2,58.5z M522,59.8l-2.4,0l-4.8,10.3c-0.7,1.5-1.6,2.7-2.8,3.6l0.7,0
		c2.1-0.1,3.6-1.2,4.5-3.2L522,59.8L522,59.8z M651.9,56c-0.8,7.3-4.1,13-9.8,16.9c-5.5,3.7-12,5.1-19.4,4.3l-27.4-3l0.2-1.9
		c2.6,0.3,4.3,0.2,5.3-0.3c1.3-0.6,2.1-2.1,2.4-4.5l3.8-34.9c0.2-1.8-0.5-3.1-1.9-4c-0.9-0.6-2.5-1-4.6-1.3l0.2-1.9l28.6,3.1
		c7.3,0.8,13.1,3.8,17.4,8.9C650.9,42.5,652.7,48.7,651.9,56L651.9,56z M645.3,55.7c0.6-5.1,0.2-9.5-1.1-13.4
		c-1.5-4.7-4.3-8.1-8.3-9.9c-0.9-0.4-2.2-0.9-3.7-1.3c8.4,4.4,12,12.6,10.7,24.6c-1.2,10.8-6.4,17.5-15.6,20.2
		c5.3,0.2,9.6-1.9,12.9-6.2C643,66,644.7,61.3,645.3,55.7L645.3,55.7z M641.9,55.2c0.6-5.6,0-10.5-2-14.7c-2.2-4.7-5.8-7.8-10.9-9.5
		c-1.8-0.6-4-1.1-6.5-1.3c-2.7-0.3-4.6,0.2-5.6,1.4c-0.8,0.9-1.3,2.7-1.6,5.4L612,67c-0.3,3.1-0.1,5.2,0.7,6c0.8,0.9,2.8,1.5,6,1.8
		c5,0.5,9.2-0.2,12.8-2.1c3.4-1.9,5.9-4.3,7.6-7.4C640.5,62.7,641.4,59.3,641.9,55.2L641.9,55.2z M606.5,68.1l3.5-32.3
		c0.3-2.6,0.2-4.5-0.2-5.6c-0.4-1.1-1.7-1.8-3.7-2.1c1.5,1,2.2,2.7,1.9,5.3l-3.7,34.4c-0.3,2.8-1.3,4.6-3,5.2c1.8,0.2,3.1-0.1,4-1
		C605.8,71.2,606.3,69.9,606.5,68.1L606.5,68.1z M721.6,71.7c-1.7,7.2-5.7,12.3-11.9,15.5c-5.9,3-12.5,3.6-19.8,1.8l-26.8-6.5
		l0.5-1.9c2.5,0.6,4.3,0.7,5.3,0.4c1.4-0.4,2.4-1.8,2.9-4.2l8.2-34.1c0.4-1.8,0-3.2-1.4-4.2c-0.8-0.7-2.3-1.3-4.4-1.9l0.5-1.9
		l28,6.8c7.1,1.7,12.5,5.4,16.2,11.1C722.4,58.2,723.3,64.6,721.6,71.7L721.6,71.7z M715.1,70.5c1.2-5,1.4-9.4,0.7-13.4
		c-0.9-4.9-3.2-8.5-7-10.9c-0.9-0.5-2-1.1-3.5-1.8c7.8,5.5,10.3,14.1,7.5,25.8c-2.5,10.5-8.6,16.5-18,18c5.2,0.8,9.8-0.7,13.6-4.5
		C711.5,80.4,713.8,76,715.1,70.5L715.1,70.5z M711.8,69.6c1.3-5.5,1.3-10.4-0.1-14.8c-1.6-4.9-4.8-8.5-9.6-10.8
		c-1.8-0.9-3.9-1.6-6.3-2.2c-2.7-0.6-4.6-0.4-5.8,0.7c-0.9,0.8-1.6,2.5-2.3,5.2l-7.2,29.7c-0.7,3.1-0.8,5.1-0.1,6.1
		c0.7,1,2.6,1.8,5.7,2.6c4.9,1.2,9.2,1,12.9-0.5c3.6-1.4,6.4-3.5,8.5-6.3C709.4,76.9,710.8,73.6,711.8,69.6L711.8,69.6z M675,77.8
		l7.6-31.6c0.6-2.6,0.8-4.4,0.5-5.6c-0.3-1.2-1.4-2-3.4-2.5c1.4,1.1,1.8,3,1.2,5.5l-8.1,33.7c-0.7,2.8-1.9,4.3-3.7,4.8
		c1.8,0.4,3.1,0.3,4.1-0.5C674,80.9,674.6,79.6,675,77.8L675,77.8z M788.6,96.1c-2.6,6.9-7.2,11.6-13.7,13.9
		c-6.2,2.2-12.9,2-19.9-0.6l-25.8-9.7l0.7-1.8c2.4,0.9,4.2,1.3,5.2,1c1.4-0.3,2.6-1.5,3.4-3.8l12.3-32.9c0.6-1.7,0.3-3.1-0.9-4.4
		c-0.7-0.8-2.1-1.6-4.1-2.4l0.7-1.8l27,10.1c6.9,2.6,11.8,6.9,14.7,12.9C791,82.7,791.2,89.2,788.6,96.1L788.6,96.1z M782.3,94.1
		c1.8-4.8,2.6-9.2,2.3-13.2c-0.3-5-2.1-8.9-5.6-11.7c-0.8-0.6-1.9-1.4-3.3-2.2c7.1,6.4,8.5,15.2,4.3,26.5
		c-3.8,10.1-10.5,15.4-20.1,15.7c5.1,1.5,9.8,0.5,14-2.8C777.6,103.5,780.4,99.4,782.3,94.1L782.3,94.1z M779.1,92.8
		c2-5.3,2.6-10.2,1.7-14.7c-1-5.1-3.7-9-8.2-11.9c-1.6-1.1-3.6-2-6-2.9c-2.6-1-4.5-1-5.8,0c-1,0.7-1.9,2.3-2.9,4.9l-10.7,28.7
		c-1.1,3-1.4,5-0.8,6c0.5,1,2.3,2.1,5.3,3.3c4.7,1.8,9,2.1,12.9,1.1c3.7-1,6.8-2.7,9.2-5.3C775.9,99.7,777.7,96.7,779.1,92.8
		L779.1,92.8z M741.6,96.5L753,66.1c0.9-2.5,1.3-4.3,1.2-5.5c-0.1-1.2-1.2-2.2-3.1-2.9c1.2,1.3,1.4,3.2,0.5,5.6l-12.2,32.4
		c-1,2.7-2.4,4.1-4.2,4.3c1.7,0.6,3.1,0.6,4.1,0C740.2,99.4,741,98.2,741.6,96.5L741.6,96.5z M821.8,92.3c-0.6,1.2-1.6,2-2.9,2.4
		c-1.3,0.4-2.6,0.3-3.8-0.3c-1.2-0.6-2-1.6-2.4-2.9c-0.4-1.3-0.3-2.5,0.3-3.7c0.6-1.2,1.5-2,2.8-2.4c1.3-0.4,2.5-0.3,3.7,0.3
		c1.2,0.6,2,1.6,2.5,2.8C822.5,89.8,822.4,91.1,821.8,92.3L821.8,92.3z M805.5,132.5l0.9-1.7c-1.5-0.9-2.4-1.6-2.7-2.2
		c-0.4-0.7-0.2-1.8,0.5-3.3l11.5-22.5c-0.8-0.4-1.2-0.6-1.2-0.6l-11-1.5l-0.5,1c1.9,2,2.4,4,1.3,6l-7.3,14.2c-0.6,1.2-1.3,2-2.1,2.1
		c-0.8,0.2-1.8,0-3.1-0.6l-0.9,1.7L805.5,132.5L805.5,132.5z M816.2,93.7c-0.7-1.8-0.8-3.3-0.2-4.4c0.7-1.3,1.9-2.1,3.7-2.3
		c-2.6-1.3-4.4-0.9-5.5,1.3C813,90.5,813.7,92.3,816.2,93.7L816.2,93.7z M800.1,123.4c-1.1,2.2-2.8,2.7-5,1.6c1.1-0.2,2-0.9,2.6-2.1
		l7.5-14.7c1-2,0.9-4-0.3-5.8c0.3,0.1,0.6,0.2,1,0.4c2.5,1.3,3,3.3,1.6,6L800.1,123.4z"/>
	<path class="st1" d="M903.8,121.9c-1.8-1.4-3.7-2.8-5.6-4.2c-22-16.3-48-29.7-75.4-42.8l-0.7,0.2c27.2,13,52.3,29,74.2,45.2
		c2.6,1.8,5.1,3.6,7.5,5.3V121.9z M903.8,133.8c-19-14.2-40.7-26.7-63.4-39.1l-0.7,0.2c23.3,12.7,45,27.6,64.1,42.8V133.8z
		 M903.8,150.3c-6.3-5-13-10.1-20-15.2c-1-0.8-2.1-1.5-3.1-2.2l-1.8,2.7c1,0.7,2,1.4,3,2.2c7.7,5.6,15,11.2,21.9,16.8V150.3z
		 M864.1,125.3l1.2-2.5c-17.5-10.7-23.4-13.1-43.4-22.4l-0.7,0.2C841.2,110,846.8,113.9,864.1,125.3L864.1,125.3z M903.8,166.2
		c-20.3-14.9-42.9-28.5-66.4-42l-0.9,0.2c24.3,13.9,46.9,29.9,67.3,46.3V166.2z M903.8,183.4c-6.1-5-12.6-10.1-19.4-15.1
		c-23-16.5-40-24.6-60.9-34.9l-0.7,0.2c26.9,12.8,37.7,21.5,59.6,37.2c7.5,5.6,14.7,11.2,21.4,16.7V183.4z M903.8,198.2
		c-5-4.2-10.3-8.4-15.8-12.6c-22.4-17.2-49.3-31.7-77.6-46l-0.7,0.2c28.1,14.2,53.9,31.2,76.2,48.3c6.3,4.8,12.3,9.6,18,14.4V198.2z
		 M894.7,210.8l1.5-3.1c-12.1-10.3-26.3-21.4-42.5-32.6c-23-15.8-62.9-34.4-91.5-47l-0.7,0.2c28.4,12.5,67.4,33.7,90.2,49.4
		C868.1,189,882.5,200.4,894.7,210.8L894.7,210.8z"/>
	<path class="st1" d="M906.1,111.5c0,0-3.4,20.3-14.6,27c-11.3,6.8-14.6,6.8-14.6,6.8l0,0.4l-1.7-0.4l1.8,94.3l0.5,0.1l0,0.8
		c1.4,0.1,2.8,0,4.2-0.1c23,3.9,59.3,10.8,98.2,29c40.5,19,83.8,50.3,118.2,103.5l4.1-1.4l-6.1-61.9l21.4-19.7l-1-1.6
		c-26.1-40-62-70.1-103.3-93c-33.2-18.4-69.8-32.1-107.5-42.4L906.1,111.5z M890.9,237.4c3.3-1.7,6.2-3.9,8.4-6.1
		c15.9,2.7,38,8.7,52.7,13.8c0.6-0.9,0.7-1.5,1.3-2.4c-16.9-6.4-33.8-11-51.3-14.3c1.6-2,2.5-3.8,2.5-4.8l0-3.2
		c34,6.5,71.9,20.8,101.2,37.8c0,0,5.5,1.7,0.7-1c-29.6-17.2-67.1-33.3-101.8-40.6l0.1-8.2c34.2,7.7,59.3,18.1,59.3,18.1
		s6.1,1.2,0.7-1.2c-10.8-4.6-33.7-14-59.9-21.2l0.1-5.9c47.1,10.1,87,31.3,87,31.3s4.5,1.8,0-0.7c-13.7-7.7-50-26.2-86.9-34.7
		l0.1-5.5c43.1,9.5,81.6,28.4,81.6,28.4s5.3,1.5,0.7-1c-12.9-6.9-47.4-22.8-82.2-31.2l0.1-4.6c2.9,0.5,5.9,1,9,1.6
		c0.7-1.1,0.2-3.1,0.9-4.2c-3.4-0.8-6.7-1.5-9.8-2.1l0.1-8.1c55,11.4,105.4,35.9,148.3,72.8c0,0,4,2.7,0.2-0.8
		c-40-37.1-94.9-64.8-148.4-75.8l0.1-6c37,10.2,72.9,23.6,105.4,41.6c40.2,22.3,75.2,51.5,100.7,90l-20.3,18.6l5.4,55.2
		c-34-49.5-75.9-79.3-115-97.7C946.8,248.9,914.1,241.6,890.9,237.4z M959.5,245.1c30.1,12.1,54.5,27,65.4,34.8
		c4.6,3.2-0.5,0.9-0.5,0.9s-26.1-18.6-65.5-33.1C959.4,246.8,959.1,246,959.5,245.1L959.5,245.1z M921.6,179.2
		c-0.5,1.1-0.1,2.8-0.5,3.9c33.9,7.4,74.1,25.3,102.9,44.7c0,0,4.2,2.3-0.1-0.7C994,207,956.9,187.8,921.6,179.2L921.6,179.2z"/>
</g>
</svg>
