<svg width="221" height="105" viewBox="0 0 221 105" xmlns="http://www.w3.org/2000/svg"><path d="M116.241701,6.20322876 C117.161701,6.48322876 118.057701,6.73922876 118.936101,6.98322876 L122.371005,7.9236732 C124.61859,8.54589543 126.801701,9.19656209 129.041701,10.1032288 C129.593701,10.3192288 130.209061,10.5957088 130.879314,10.9214368 L131.567551,11.2631648 C131.685202,11.3227168 131.804299,11.3835328 131.924804,11.4455608 L132.664406,11.8318568 L133.435899,12.2447448 L134.237401,12.6817288 L135.491807,13.3769248 L140.048703,15.9370848 L141.503974,16.7455368 L142.490891,17.2870648 L143.991666,18.0969568 C144.159583,18.1865248 144.327848,18.2759008 144.496423,18.3650328 L145.511276,18.8964808 C145.680933,18.9844288 145.850821,19.0720288 146.020901,19.1592288 L147.043371,19.6772128 L148.068568,20.1831008 L149.09461,20.6743968 C149.778501,20.9965088 150.461701,21.3072288 151.141701,21.6032288 C152.534558,22.2103716 153.88915,22.9195553 155.219143,23.6487827 L157.589514,24.9653279 C159.155987,25.833841 160.698844,26.6603716 162.241701,27.3032288 L163.082294,27.1751493 L164.737874,26.8928789 L165.180476,26.8204299 L165.629201,26.7532288 C165.705094,26.7425145 165.781688,26.7320553 165.859207,26.7218694 L166.337205,26.6641799 L166.84811,26.6139248 C167.025087,26.5985094 167.209335,26.5844788 167.402638,26.5719788 L168.011503,26.5392164 C168.224705,26.5299234 168.448748,26.5223067 168.685419,26.5165123 L169.4351,26.5047411 C169.566956,26.503739 169.702415,26.5032288 169.841701,26.5032288 L171.866701,26.5188538 L175.916701,26.5876038 C176.591701,26.5969788 177.266701,26.6032288 177.941701,26.6032288 L178.931463,25.600827 L179.223443,25.3136704 C180.46523,24.1184537 181.459348,23.5561699 184.441701,23.4032288 L186.247188,23.3387366 L188.299588,23.2807068 L190.552812,23.2323097 L191.740329,23.2127141 L192.960768,23.1967155 L194.840552,23.1803289 L196.762003,23.1742647 L198.705676,23.1798602 L200.004201,23.1907288 L201.2982,23.2077701 L203.218107,23.2457731 L204.475583,23.2799803 L205.708368,23.3217473 L206.9107,23.3714704 L208.076818,23.4295459 C208.267833,23.4399432 208.457099,23.450705 208.644496,23.4618396 L209.74549,23.5331867 C211.719342,23.6724331 213.437997,23.8587843 214.741701,24.1032288 L214.241701,31.8032288 L213.85487,31.57113 C213.82085,31.5480847 213.814632,31.5382082 213.822557,31.5297948 L213.87511,31.4972388 C213.948422,31.4413632 214.026886,31.2773028 213.641701,30.6032288 L212.641701,29.1032288 L212.545405,28.9995251 C212.486145,28.925451 212.441701,28.8365621 212.441701,28.7032288 C212.116701,28.0532288 211.821041,27.1391663 211.618292,26.3742502 L211.505,25.923 L211.507384,25.9865383 C211.506798,26.4707394 211.404916,26.9813195 211.262516,27.5562644 L210.941701,28.8032288 C210.841701,29.3365621 210.875034,29.525451 210.912071,29.6032288 L210.933701,29.6384288 L210.954201,29.6657288 C210.955868,29.6707288 210.95509,29.675951 210.950831,29.6832621 L210.926571,29.7133288 L210.733701,29.9168288 L210.496201,30.1829288 L210.274164,30.4436621 C210.232479,30.493451 210.188368,30.5465621 210.141701,30.6032288 C210.091701,30.5668651 210.045627,30.5362866 210.003121,30.5107137 L209.885953,30.4482325 C209.796641,30.4073798 209.727402,30.3929404 209.672662,30.392735 L209.613576,30.3985413 L209.566267,30.4133351 L209.473587,30.464873 C209.454534,30.472885 209.438827,30.470772 209.42089,30.4463542 L209.397937,30.4055672 L209.354809,30.2940075 L208.741701,28.3032288 C208.666701,28.0594788 208.581154,27.8086975 208.490334,27.558136 L208.303224,27.0594543 L208.111427,26.5742493 L207.601662,25.3283997 L207.484865,25.0260071 C207.468654,24.9817444 207.454201,24.9407288 207.441701,24.9032288 L208.441701,29.5032288 L205.641701,31.3032288 C205.598844,31.3032288 205.537619,31.3399635 205.481643,31.381946 L205.383683,31.4635786 L205.341701,31.5032288 C205.241701,31.5032288 205.141701,31.6032288 205.041701,31.7032288 L204.141701,29.9032288 L204.101208,30.3191036 L204.075189,30.6606809 L204.06049,30.9347436 L204.052773,31.2340858 L204.052381,31.4769654 C204.050973,31.5311459 204.045447,31.5455603 204.02657,31.5400782 L203.920645,31.483812 C203.783601,31.4202983 203.505387,31.3566163 202.941701,31.6032288 C202.641701,31.4668651 202.386329,31.4718238 202.181671,31.5065345 L202.052812,31.5328584 L201.841776,31.5825676 C201.647736,31.6183803 201.567972,31.56108 201.620823,31.0744256 L201.654699,30.8181048 L201.707808,30.4934644 C201.718285,30.4332563 201.72958,30.3698954 201.741701,30.3032288 L201.612614,30.5548273 C201.162306,31.4022836 200.693875,31.8945331 199.141701,31.8032288 L198.7852,31.7788758 C198.729562,31.7744166 198.67579,31.7697263 198.623847,31.7647586 L198.333857,31.7312526 C197.528017,31.618523 197.29158,31.3858808 197.414347,30.7630717 L197.447,30.618 L196.941701,32.3032288 L196.641701,32.6032288 L195.241701,31.5032288 L194.641701,33.0032288 C194.641701,33.1032288 194.441701,33.2032288 194.441701,33.4032288 L194.296717,33.2979215 L194.045094,33.1237451 L193.840528,32.9930275 L193.678137,32.899618 C193.654314,32.886817 193.632046,32.8753143 193.611229,32.8649817 L193.50294,32.8160021 L193.424612,32.7889541 L193.371364,32.7776873 L193.313245,32.7770676 C193.312623,32.7763655 193.312231,32.7752958 193.311969,32.7737305 L193.310028,32.7386046 L193.296813,32.6524719 L193.254389,32.4921128 L193.201077,32.3328882 L193.121584,32.1240514 C193.10586,32.0847416 193.088825,32.0430875 193.070369,31.9989507 L192.941701,31.7032288 C192.797951,33.2126038 192.49922,33.5337952 191.599941,33.6322021 L191.35143,33.6534546 L190.241701,33.7032288 L190.541701,36.4032288 L190.272117,35.9685569 L190.060548,35.6446419 L189.948467,35.4841351 L189.857273,35.3637108 L189.785006,35.2797121 L189.729708,35.2284818 C189.690152,35.1984276 189.666231,35.1986978 189.652842,35.2197687 L189.641505,35.2544287 L189.63832,35.3054004 L189.64857,35.4416505 L189.668606,35.6051287 C189.685093,35.7467528 189.692983,35.8775877 189.641701,35.9032288 L189.640146,36.1635246 L189.628291,36.6297478 L189.606066,37.0320492 L189.575022,37.380712 L189.53671,37.6860196 C189.529805,37.7338626 189.522662,37.7803275 189.515313,37.8256288 L189.469006,38.0851849 L189.419307,38.3270944 L189.284245,38.9527825 L189.230928,39.2423184 L189.197851,39.4549131 L189.167445,39.6877858 L189.140308,39.9448974 L189.117036,40.230209 L189.098227,40.5476817 L189.084478,40.9012765 L189.076387,41.2949545 L189.074551,41.7326767 L189.079567,42.2184041 L189.101245,43.0456701 L189.141701,44.0032288 L189.155588,44.2299044 L189.196937,44.7402724 L189.285527,45.6193874 L189.585425,48.274869 L189.659599,48.9883092 L189.719906,49.653174 C189.737098,49.8643441 189.751081,50.0638848 189.760956,50.2482628 L189.774,50.592 L189.941701,47.0032288 C190.113129,47.2032288 190.219252,47.2807798 190.292721,47.3175145 L190.405798,47.3607495 C190.450242,47.3793436 190.483802,47.4115432 190.539131,47.5389808 L190.642532,47.81177 L190.741701,48.1032288 C190.975034,48.7643399 191.011763,49.425451 191.028326,50.0689181 L191.041701,50.6157288 C191.066701,51.4282288 191.141701,52.2032288 191.641701,52.9032288 C192.010122,52.0084919 191.963031,50.8367468 191.850332,49.6504222 L191.705996,48.2366301 C191.651396,47.6586304 191.615385,47.1032288 191.641701,46.6032288 L192.241701,44.3032288 L192.376886,44.474988 L192.541469,44.6744672 C192.659756,44.8247565 192.766701,44.9948954 192.941701,45.4032288 C192.986701,45.5382288 193.016513,45.6479163 193.037973,45.7436819 L193.071779,45.9200256 L193.111623,46.1864319 L193.145429,46.3627756 C193.159735,46.4266194 193.177754,46.4966506 193.20151,46.5762444 L193.301527,46.896669 L193.396798,47.2263702 L193.464847,47.4878497 L193.512013,47.6907288 L193.580185,48.0046865 C193.595054,48.0609547 193.610797,48.1006049 193.63587,48.1364649 L193.681533,48.1890159 L193.747532,48.2455028 L194.13095,48.5347885 L194.341701,48.7032288 C194.508368,48.5127526 194.641021,48.4810065 194.745059,48.4986612 L194.804092,48.5143075 L194.960365,48.5866714 C194.994508,48.5974829 195.0201,48.5906559 195.038305,48.5425752 L195.054092,48.4798687 L195.065214,48.3844119 L195.073717,48.1683405 L195.071147,47.7166398 L195.041701,46.6032288 C195.041701,46.2432288 194.993701,45.8192288 194.929701,45.3632288 L194.772201,44.2967288 C194.719701,43.9322288 194.671701,43.5632288 194.641701,43.2032288 L195.294274,43.4326801 L195.672181,43.5769914 L195.877764,43.6670789 C196.286271,43.8603863 196.46323,44.0503573 196.57346,44.410486 L196.620198,44.5894132 L196.66106,44.7962953 L196.719215,45.1673257 L196.837776,45.9791828 L196.941701,46.6032288 C197.341701,48.5032288 197.641701,50.2032288 197.741701,52.1032288 L200.641701,43.1032288 C200.641701,43.0532288 200.666701,43.0032288 200.704201,42.9407288 L200.792164,42.7953584 C200.808368,42.7671176 200.825034,42.7365621 200.841701,42.7032288 C201.254201,43.7157288 201.497951,44.7422913 201.699513,45.7407288 L201.986037,47.2120178 C202.208888,48.3317444 202.460451,49.3844788 202.941701,50.3032288 C203.057086,50.1416903 203.167145,50.0919862 203.263276,50.0717768 L203.403895,50.0521194 L203.471832,50.0340949 L203.510382,50.0100798 L203.543001,49.971323 L203.569229,49.9134168 L203.588606,49.8319532 C203.591239,49.8161679 203.593567,49.7992175 203.595581,49.7810099 L203.603817,49.6559454 L203.60405,49.4963036 L203.588387,49.1823665 L203.552127,48.7658363 L203.469054,48.0251606 C203.460388,47.9537566 203.451274,47.87981 203.441701,47.8032288 C203.241701,46.6032288 203.041701,45.3032288 202.941701,44.1032288 L204.541701,46.6032288 L204.241701,43.2032288 C204.295034,42.7232288 204.348368,42.5561176 204.416871,42.4439991 L204.566797,42.2352584 C204.590145,42.1992288 204.615034,42.1565621 204.641701,42.1032288 L206.641701,50.4032288 C206.708368,49.6698954 206.652812,48.8365621 206.582442,47.9921176 L206.504354,47.0631292 L206.462975,46.4793176 C206.393701,45.3232288 206.421701,44.2498954 206.841701,43.5032288 C208.219826,44.0282288 208.564357,44.7685608 208.779689,46.0633728 L208.838478,46.4486999 L209.019533,47.8033142 L209.097072,48.3269226 C209.111232,48.4173889 209.126076,48.5094788 209.141701,48.6032288 L209.220545,49.0320584 L209.374501,49.9336288 L209.53059,50.8735991 C209.797256,52.4587843 210.108368,54.1032288 210.641701,55.3032288 L209.641701,45.1032288 C209.975034,45.4032288 210.108368,45.4032288 210.171331,45.3550806 L210.199474,45.3255567 L210.232588,45.2741891 C210.239341,45.2671684 210.24612,45.2667844 210.255553,45.278146 L210.278738,45.3180436 L210.337015,45.4564858 L210.741701,46.5032288 L211.941701,49.2032288 C212.766701,50.1782288 213.029201,51.0969788 213.151076,52.5922913 L213.187071,53.112951 L213.216122,53.6815274 L213.241701,54.3032288 L213.54046,58.1696266 C213.651875,59.6226067 213.918955,56.2671407 214.341701,48.1032288 L214.777356,49.5918142 L214.786941,49.6155922 L214.790291,49.6149686 L214.79474,49.4911625 L214.804453,49.4344557 C214.833529,49.3281172 214.928896,49.2861556 215.241701,49.7032288 L215.541701,44.1032288 L218.241701,50.2032288 C220.290481,55.7520092 220.73605,65.2359474 220.44933,72.123108 L220.393167,73.2771075 C220.361661,73.8401696 220.325141,74.381411 220.284155,74.8967184 L220.176837,76.2312965 L219.864607,80.6177979 L219.783063,81.7019702 L219.694319,82.8123528 L219.597093,83.9426828 L219.490102,85.0866974 L219.372066,86.2381336 C218.876118,90.8503716 218.084287,95.4904226 216.627314,98.354588 L216.441701,98.7032288 C216.141701,99.238943 215.919762,99.75629 215.731606,100.253302 L215.553071,100.743462 L215.224208,101.681363 C214.784558,102.893025 214.270272,103.946086 212.841701,104.803229 L215.141701,98.4032288 C213.980987,99.3318002 213.466956,100.411264 213.069174,101.451466 L212.719557,102.394961 C212.401012,103.239453 212.048844,104.013943 211.341701,104.603229 C211.389527,103.264098 211.574593,102.519675 211.820323,101.822987 L211.959914,101.444422 L212.18582,100.851178 C212.367221,100.363531 212.559092,99.7945331 212.741701,99.0032288 C211.441701,100.403229 211.041701,102.403229 210.941701,104.503229 C209.608368,104.569895 208.008368,104.503229 206.271331,104.388414 L205.094427,104.305672 L201.405446,104.02794 C199.318518,103.880046 197.204664,103.766192 195.241701,103.803229 L193.498074,103.852765 L191.864807,103.908997 L187.171659,104.099037 L185.975247,104.143101 L184.52138,104.182085 L183.852638,104.190729 L183.221277,104.190733 C182.914764,104.188399 182.621871,104.182429 182.342001,104.172229 L181.799448,104.146013 C178.208242,103.925925 176.975142,102.841803 176.576995,99.3773848 L176.524513,98.8532288 L176.482892,98.2940328 C176.476801,98.1978548 176.471118,98.1001728 176.465822,98.0009648 L176.438501,97.3872288 C176.434661,97.2818288 176.431163,97.1748588 176.427985,97.0662968 L176.412578,96.3956448 L176.403788,95.6857288 L176.40069,94.5449248 L176.421963,91.5102288 L176.441701,89.0032288 L176.166314,89.022868 L174.873031,89.1328721 L173.335986,89.2690109 L172.502311,89.3368055 L171.639202,89.3990434 L170.757165,89.4516946 C167.945161,89.59899 165.006407,89.5414641 163.441701,88.7032288 C160.283806,86.9348077 159.519263,85.4855002 159.30897,83.1460338 L159.278738,82.7476732 L159.256878,82.331584 L159.235645,81.6714878 L159.195566,79.3930799 L159.17933,78.818056 L159.156329,78.2153507 C159.151827,78.1125239 159.146964,78.0084919 159.141701,77.9032288 C157.238129,78.5996573 155.959686,79.7703206 154.74591,81.0449152 L153.627543,82.2401958 C152.589277,83.3431522 151.473844,84.438943 149.941701,85.3032288 C140.983923,90.2010065 130.946343,89.7413028 121.461585,87.5373028 L120.482442,87.3032288 L119.507644,87.0575991 L118.537594,86.8013028 L117.572694,86.5352288 L116.613343,86.2602658 L115.659945,85.9773028 L114.712901,85.6872288 L113.772612,85.3909325 L112.839481,85.0893028 L111.913908,84.7832288 L110.540601,84.3177288 L109.18656,83.8472288 L106.976322,83.0600991 L106.162707,82.7675652 L105.44375,82.5177348 C105.328117,82.4784588 105.214533,82.4403552 105.102925,82.403411 L104.456433,82.1955529 C101.648812,81.3218535 100.177846,81.2742234 98.6313294,81.7948793 L98.2858415,81.9198303 L97.9344225,82.0628617 C97.8751671,82.088172 97.8155211,82.1142095 97.7554127,82.1409611 L97.3886397,82.3099343 L97.0073259,82.4954163 L94.7621091,83.6484547 L93.9365112,84.0600339 C93.8399471,84.1072785 93.7417009,84.1550145 93.6417009,84.2032288 C89.4718524,86.2024712 84.812579,86.6029255 80.0366346,86.616042 L78.9325922,86.6127445 L77.8254256,86.5990038 L76.6778767,86.5773213 L75.5292009,86.5516663 C73.4229509,86.5032288 71.3167009,86.4532288 69.2417009,86.5032288 L68.2867481,86.5251011 C68.1870569,86.5265647 68.0893764,86.5276489 67.993579,86.5282967 L67.4403717,86.5264908 C65.2209933,86.4933432 64.0191203,86.116132 61.8417009,84.5032288 C58.5617009,82.1032288 57.4577009,79.1272288 57.0449009,75.0632288 L56.9822463,74.3757336 L56.9308642,73.6675635 C56.923155,73.5477829 56.9158518,73.427119 56.9089229,73.3055607 L56.8715851,72.5653906 L56.8417009,71.8032288 C50.8417009,71.1032288 47.3417009,68.2032288 46.4417009,62.5032288 C46.2417009,61.4032288 46.3417009,60.4032288 46.5417009,59.3032288 L47.474,57.437 L47.5417009,57.0032288 L47.652,56.892 L47.6575388,56.8045191 C47.7292946,55.7053423 47.9222629,55.2100241 48.1726476,54.6806039 L48.329258,54.3537559 L48.4965862,53.9881013 C48.6396414,53.6587137 48.7906712,53.2570045 48.9417009,52.7032288 C48.5217009,52.3632288 48.0537009,52.0392288 47.5641009,51.7184288 L46.0569009,50.7528288 C44.5377009,49.7712288 43.0617009,48.7032288 42.3417009,47.2032288 C41.4417009,45.3032288 40.7417009,38.9032288 41.1417009,36.5032288 C41.3962464,35.1668651 41.7722794,34.6404188 42.3213403,34.0477066 L42.8355401,33.5030034 C42.9752847,33.3525526 43.1236506,33.1875638 43.2811449,32.9994158 L43.4417009,32.8032288 C43.6390693,32.5584919 43.853266,32.3062758 44.0809942,32.048598 L44.5535157,31.5265576 C44.7163856,31.3505152 44.8842928,31.172643 45.0562603,30.9935389 L45.583367,30.4531285 L46.1289749,29.9089129 L46.6872232,29.3644786 L47.2522509,28.8234121 L48.0996831,28.0259726 L50.6854099,25.6362656 L51.3132219,25.0465058 L51.6755233,24.6971437 L51.9859949,24.3870147 L52.2387759,24.1197053 C52.2757729,24.0789213 52.310122,24.0400709 52.3417009,24.0032288 C48.9817009,23.5104288 45.3607857,23.6197408 41.6947523,23.8096555 L38.9401393,23.959056 L37.2755755,24.043429 C34.2277137,24.1852662 31.2084702,24.2383057 28.3417009,23.9032288 C27.4417009,23.7907288 26.4854509,23.5657288 25.5415056,23.3231506 L24.1433855,22.9579651 C23.0764665,22.682135 22.0729509,22.4469788 21.2417009,22.4032288 C20.3240539,22.3326405 19.4562338,22.3492495 18.5722932,22.3871083 L17.2260486,22.4515902 C16.0039847,22.5084191 14.6946421,22.5444052 13.1417009,22.4032288 L12.4925884,22.3249288 L11.8368009,22.2388288 L11.1766634,22.1431288 C7.42795092,21.5702288 3.58170092,20.4482288 1.54170092,17.3032288 C0.341700921,15.5032288 -0.658299079,12.8032288 0.541700921,10.5032288 C2.02170092,7.54322876 4.99515547,6.93655107 8.42693188,6.97827128 L8.9872901,6.990451 L9.55470227,7.01238218 L10.1281875,7.04244919 L11.2894533,7.12052823 L13.6417009,7.30322876 C18.1417009,7.67822876 21.5729509,7.37822876 25.4542009,6.86729126 L27.4393572,6.59639282 L29.5417009,6.30322876 C34.5417009,5.60322876 39.6167009,5.40322876 44.7292009,5.26572876 L49.3395634,5.14704126 C52.9317009,5.04947876 56.5367009,4.91822876 60.1417009,4.60322876 C70.1417009,3.80322876 79.3417009,2.40322876 89.0417009,0.403228759 C94.1689736,-0.633134878 99.4450067,0.472650246 104.46409,2.08151576 L105.464361,2.40951095 C105.630461,2.46513289 105.796246,2.52119239 105.961701,2.57762876 L106.950341,2.9202836 L108.416847,3.4448504 L112.213812,4.83634311 L113.588087,5.32734957 L114.487291,5.63746107 C115.082031,5.83879901 115.667155,6.0286833 116.241701,6.20322876 Z M178.041701,27.9032288 L177.03321,27.7198001 L176.160949,27.5715761 L175.644652,27.4908224 L175.173194,27.4234712 L174.740291,27.368625 L174.33966,27.3253862 L173.965019,27.2928572 L173.610083,27.2701405 L173.268571,27.2563384 L172.934198,27.2505534 L172.600682,27.2518879 L172.088271,27.2652752 L170.726047,27.3339371 L169.492424,27.39823 L168.273765,27.4480426 L167.191591,27.4797436 L165.941701,27.5032288 C166.267788,28.046707 166.565519,28.3822458 166.849279,28.623883 L167.017973,28.7585094 L167.184004,28.8760733 L167.429568,29.0324009 L167.754109,29.2322078 L167.916701,29.3407288 C168.541701,29.7782288 169.191701,30.5032288 170.041701,32.9032288 C174.929701,46.5792288 172.543941,59.7144288 169.605483,69.834128 L169.26436,70.9882624 L168.920626,72.1147872 L168.576575,73.2128576 L168.234501,74.2816288 L167.730118,75.8280016 L166.781161,78.7058704 L166.490977,79.5983952 L166.217684,80.4561296 L165.963576,81.2782288 L165.730948,82.063848 C164.883311,85.0043888 164.559701,87.1222288 165.341701,88.2032288 C166.458942,87.706677 166.959775,86.3240373 167.298534,84.8444195 L167.406074,84.3487042 L167.74191,82.6508978 C167.774162,82.4976402 167.807218,82.3480563 167.841701,82.2032288 C167.919479,81.9143399 167.988615,81.6439695 168.051577,81.3881396 L168.224417,80.6602932 L168.446639,79.679892 L168.591701,79.0657288 C168.816701,78.1532288 169.091701,77.2532288 169.641701,76.0032288 C171.841701,71.3032288 178.041701,72.2032288 178.541701,78.2032288 L178.893263,78.4563538 L178.941701,78.5032288 L178.98106,78.5740742 C179.009048,78.6195553 179.041701,78.6603716 179.041701,78.6032288 C179.084558,78.5603716 179.109048,78.5726165 179.130914,78.6006049 L179.175812,78.665911 C179.192721,78.6869022 179.213129,78.7032288 179.241701,78.7032288 C179.066701,80.3657288 178.891701,81.7985413 178.649709,83.269635 L178.541701,83.9032288 L178.141701,87.7032288 C178.186145,87.6587843 178.210837,87.6933522 178.233333,87.7542576 L178.287654,87.9135168 C178.302195,87.9489078 178.319479,87.9810065 178.341701,88.0032288 C179.641701,87.1032288 180.066701,85.7032288 180.354201,84.0407288 L180.451163,83.4434511 L180.639653,82.1927794 C180.822324,81.016291 181.056407,79.7649935 181.541701,78.5032288 C181.441701,80.5032288 181.241701,82.1032288 180.841701,83.9032288 L180.762599,84.1618225 L180.504201,84.9282288 C180.419826,85.1907288 180.342482,85.4672913 180.28799,85.77901 L180.241701,86.1032288 L180.341701,87.7032288 C180.384558,87.7032288 180.409048,87.7583308 180.430914,87.8291763 L180.475812,87.9801967 C180.484267,88.004978 180.493596,88.0285932 180.504383,88.0495844 L180.541701,88.1032288 L180.841701,87.8032288 L182.041701,85.5032288 C182.101701,85.3832288 182.161701,85.2992288 182.221701,85.2296288 L182.341701,85.1032288 L181.841701,88.3032288 C182.441701,88.3032288 183.441701,88.1032288 183.741701,87.0032288 C183.801701,86.8832288 183.861701,86.7992288 183.921701,86.7296288 L184.041701,86.6032288 L184.031082,86.8124362 L184.007001,87.1698288 L183.981053,87.4541547 L183.904816,88.0599028 L183.904201,88.1282288 C183.906701,88.1582288 183.913701,88.1832288 183.926501,88.2088288 L183.960219,88.262488 L184.177286,88.5326214 L184.365319,88.790688 L184.441701,88.9032288 L184.741701,88.6032288 L185.741701,87.5032288 L185.801346,87.8144703 C185.831847,87.9983337 185.853576,88.1798319 185.867335,88.3594459 L186,88 L186.925,78.751 L186.041701,81.4032288 L186.272536,78.2929644 L186.915038,70.3917931 L187.027105,68.8986835 L187.067246,68.3153249 L187.139605,67.1483164 L187.217139,65.5932171 L187.266543,64.2311811 L187.289387,63.3690377 L187.307038,62.4637333 L187.322358,61.1761304 L187.328048,59.4113769 L187.318444,57.4406454 L187.286222,54.7533724 L187.241701,52.2032288 L187.183084,50.4403742 L187.116336,48.8793221 L187.05157,47.6377175 L187.000274,46.7823783 L186.941789,45.9087641 L186.87552,45.0201384 L186.800872,44.1197644 L186.717249,43.2109057 L186.624057,42.2968256 L186.5207,41.3807874 C186.502594,41.2281325 186.48404,41.075532 186.465025,40.9230538 L186.345305,40.0101974 C186.324398,39.8584808 186.303005,39.7070224 186.281114,39.5558905 L186.143693,38.6535585 C185.401792,34.0173633 184.157574,29.825451 182.041701,28.1032288 C180.93059,27.7921176 180.234294,27.7575497 179.706996,27.7976046 L179.456292,27.8229158 L178.804898,27.9173831 C178.565021,27.9464386 178.326886,27.9550806 178.041701,27.9032288 Z M145.471,75.315 L146.344721,75.4891584 L147.328475,75.6740032 L149.613241,76.0859392 L150.446308,76.2435456 C151.119248,76.3755669 151.737527,76.5110016 152.290242,76.6626496 L152.402,76.694 L152.54,76.701199 C155.030685,76.8000148 157.505171,76.2711071 160.570933,74.6082473 L160.941701,74.4032288 C162.227415,73.6175145 163.411089,71.4032288 164.274062,69.4367565 L164.523115,68.8559256 C164.562947,68.7609183 164.601923,68.6669496 164.640015,68.5742291 L164.958246,67.7791034 L165.141701,67.3032288 L162.467576,67.4429538 L161.031,67.521 L161.951866,67.3783363 L162.696584,67.2546136 L163.736623,67.0692017 L164.370514,66.9476342 L164.950343,66.8292397 L165.470551,66.7153388 L165.941701,66.6032288 C165.872256,66.3080899 165.845009,66.0852889 165.833795,65.9144181 L165.822089,65.5371882 C165.811466,65.3623514 165.76032,65.3136036 165.459341,65.2276822 L164.519594,64.9742357 L163.941701,64.8032288 C164.087155,64.7668651 164.20947,64.7404188 164.316457,64.7196826 L164.836968,64.6301258 C165.029304,64.5933114 165.223519,64.5395924 165.541701,64.4032288 L165.852675,64.2571382 C166.197805,64.0875909 166.283951,64.0102246 166.339369,63.9196897 L166.427983,63.7608419 C166.468861,63.6958214 166.53059,63.6143399 166.641701,63.5032288 C166.526918,63.1971418 166.558525,63.1252779 166.579694,63.1084055 L166.591163,63.1032616 L166.542931,63.0867847 L166.433328,63.0311157 L166.315261,62.9600108 L166.153566,62.8531589 L165.941701,62.7032288 L166.424771,62.5233746 L167.288576,62.2204163 L167.422117,62.1674274 C167.660557,62.065197 167.732317,61.9790259 167.730711,61.7932868 L167.724226,61.6915846 L167.697242,61.5008903 L167.627851,61.0545917 L167.585822,60.6920623 L167.563038,60.4042055 L167.547467,60.0756649 L167.541701,59.7032288 L167.097059,59.7264881 L166.546388,59.7626038 L166.489601,59.7608288 C166.470326,59.7579788 166.464045,59.7519788 166.467677,59.7419006 L166.487249,59.7160319 L166.583806,59.6250694 L166.64984,59.5566756 C166.672912,59.5310569 166.69674,59.5025256 166.720412,59.4708069 L166.790046,59.3658131 C166.935951,59.1164163 167.036701,58.7207288 166.841701,58.1032288 C167.041701,58.1186134 167.194364,58.1434654 167.313162,58.1705023 L167.467645,58.2117859 L167.697931,58.2934882 C167.760232,58.312059 167.799388,58.3068701 167.860869,58.2533426 L167.931477,58.1827918 L168.33365,57.723165 C168.367293,57.6854773 168.403239,57.6455365 168.441701,57.6032288 C167.841701,57.0532288 167.241701,56.9782288 166.541701,57.0407288 L166.182905,57.0818746 L165.404201,57.1954163 L164.978738,57.2490621 C164.686145,57.2810065 164.375034,57.3032288 164.041701,57.3032288 L165.10054,57.1715956 L165.502571,57.1145013 C165.568384,57.1044364 165.633576,57.0940488 165.698111,57.083266 L166.077152,57.0132491 C167.497716,56.722237 168.53261,56.145653 168.741701,54.4032288 C168.787155,53.7214106 168.687982,53.5354602 168.594443,53.4227629 L168.515837,53.3297032 C168.446866,53.2336007 168.418974,53.0941378 168.541701,52.6032288 C168.568974,52.575956 168.61856,52.4891792 168.67829,52.3733264 L169.141701,51.4032288 L169.041701,51.1032288 L169.441701,44.9032288 C171.091951,39.0267288 168.189825,34.4300781 163.3045,30.5655338 L162.773601,30.1542519 C162.594183,30.0180751 162.412352,29.8828072 162.228226,29.7484232 L161.669078,29.3478979 L161.096859,28.9525264 C161.000439,28.8870523 160.903504,28.8217867 160.806068,28.7567264 L160.215559,28.3688048 C160.116179,28.3045536 160.016327,28.2405016 159.916018,28.1766456 L159.3088,27.7958369 L158.69132,27.4195831 L158.06428,27.0477345 L157.107331,26.4978938 L156.459464,26.1364031 L155.804494,25.7787935 L155.143125,25.4249155 L154.140607,24.9007674 L153.466311,24.555563 L152.447694,24.0437237 L151.079837,23.3716241 L149.780764,22.7459464 L148.018813,21.910854 L144.047098,20.0458794 C141.449736,18.8189905 138.984826,17.6182288 136.841701,16.4032288 L134.553345,15.0781917 C132.406145,13.8396732 130.108368,12.5832288 127.541701,11.7032288 C124.986701,10.8282288 122.468451,10.1369788 119.961226,9.47941626 L116.741701,8.64072876 C113.524201,7.79697876 110.306701,6.90260376 107.034526,5.63866626 L105.941701,5.20322876 C99.9171395,2.75761472 96.1341294,2.19775015 91.7275298,2.3563555 L90.9428381,2.39156525 L90.1417009,2.4402658 L89.3206191,2.50103159 L88.4760937,2.5724371 L87.1576945,2.69637645 L82.7206774,3.14447384 L81.0417009,3.30322876 C78.1948044,3.56805634 75.3430374,3.89132864 72.4885498,4.22897699 L67.6694019,4.80456133 C59.6121407,5.76312297 51.5428567,6.6388614 43.5097744,6.44317461 L42.2417009,6.40322876 C38.052812,6.21063617 34.0262002,6.75988171 30.0055987,7.40357423 L27.2211451,7.85634058 C24.1241071,8.3584998 21.0092872,8.82814366 17.8055581,8.97060162 L16.7301031,9.00540256 L16.4859003,9.00504136 L16.0832788,8.99446782 L15.4666805,8.96503844 L12.3049314,8.76480416 L10.9333009,8.69890378 L9.99308825,8.67085297 L9.28241073,8.66159172 L8.57229334,8.66469199 L8.10154396,8.67463395 L7.63457009,8.69158131 C7.5571341,8.69502324 7.47991421,8.69878225 7.40293979,8.70287093 L6.9442741,8.73145993 C6.86839915,8.7369177 6.79282844,8.74273034 6.71759138,8.74891044 L6.27040779,8.79050132 C6.19662285,8.79820164 6.12323032,8.80629462 6.0502596,8.81479283 L5.61773203,8.87074585 C5.54656608,8.88091543 5.47588071,8.89151545 5.40570531,8.90255849 L4.99100766,8.97423389 C1.93019915,9.55318351 0.0211009209,11.0802788 1.94170092,14.7032288 C3.29927668,17.2244409 6.44344564,19.0874345 10.0976627,19.4715734 L10.4417009,19.5032288 L4.24170092,17.0032288 L5.44170092,15.6032288 C6.40420092,15.9094788 7.1178728,16.25401 7.8171892,16.6200745 L8.72685717,17.1012756 C9.24834155,17.3737366 9.81377123,17.6535217 10.5085955,17.9345276 L10.9417009,18.1032288 C11.6589423,18.3790908 12.163104,18.6625629 12.5864424,18.9326519 L13.3177762,19.4182601 L13.600666,19.5968324 C14.2711896,20.000375 15.0485975,20.306677 16.6417009,20.4032288 C15.5617009,19.0232288 13.7617009,18.0032288 11.9329009,17.1488288 L11.2014833,16.81544 L10.4768241,16.4969504 L9.42401132,16.041104 L8.75925612,15.7477664 C8.65162092,15.6993888 8.54570092,15.6512288 8.44170092,15.6032288 C9.33111269,15.7679346 10.5243584,16.2907305 11.7962434,16.9178256 L12.4376966,17.2388898 L14.8013864,18.4512502 L15.5776862,18.8364637 L16.0749303,19.072703 C16.2374609,19.1481296 16.3965692,19.2200055 16.5516405,19.2876378 L17.004129,19.4771118 C17.58966,19.7109226 18.1007653,19.8657548 18.4981072,19.8972754 L18.6417009,19.9032288 L19.0417009,19.8032288 L19.2496455,19.8268439 L20.2909721,19.9635786 L20.558319,19.99215 C20.5969487,19.9956486 20.6320799,19.9984183 20.6629108,20.0003133 L20.7417009,20.0032288 L21.2417009,18.7032288 L21.8414872,19.4141233 L22.0354522,19.6341518 C22.0662328,19.6680924 22.0963315,19.700715 22.1258857,19.732091 L22.2977766,19.9059562 C22.6328876,20.2260458 22.9291628,20.3871286 23.4240132,20.5123067 L23.6890854,20.5724736 L23.9938483,20.6300759 L24.5398385,20.7191508 L25.7417009,20.9032288 L23.8417009,18.5032288 C24.8109317,18.9878441 25.372766,19.4365128 25.8092476,19.8326439 L26.3417009,20.3282288 C26.8493932,20.7897672 27.3570855,21.1447968 28.5333259,21.3539912 L28.8417009,21.4032288 L26.9417009,19.0032288 C27.472004,19.3214106 27.8583217,19.6170947 28.1722377,19.8864633 L28.4252471,20.110817 L28.8649499,20.5187198 L29.0716784,20.7012002 C29.6592066,21.1971932 30.3022235,21.5122445 32.0260652,21.5916696 L32.3417009,21.6032288 L30.8417009,19.5032288 C31.1350343,19.6898954 31.4141454,19.9050065 31.6828268,20.1239102 L32.2713602,20.6124436 C32.7179083,20.9812139 33.1412268,21.3049769 33.5616417,21.4516139 L33.7417009,21.5032288 L42.9417009,21.6032288 C42.5042009,20.5407288 41.8323259,19.8688538 41.0725603,19.1969788 L40.3689958,18.5817444 C40.1292009,18.369635 39.8854509,18.1469788 39.6417009,17.9032288 L39.350783,17.6103333 L39.2466814,17.499054 C39.2336931,17.4842346 39.2225603,17.4709045 39.2127947,17.4585022 L39.1667009,17.3907288 L39.0412126,17.1418274 L38.9253923,16.9397278 C38.9006853,16.8985413 38.8729509,16.8532288 38.8417009,16.8032288 C39.6417009,17.2647672 40.318624,17.8399151 40.9540359,18.4267153 L41.8862162,19.3029101 C42.884441,20.2339752 43.8807428,21.0611942 45.2251215,21.3470669 L45.5417009,21.4032288 L43.6417009,18.6032288 L43.593596,18.5600801 L43.4816426,18.4667856 C43.407007,18.3991471 43.3417009,18.3175145 43.3417009,18.2032288 C43.3417009,18.0032288 43.2417009,17.9032288 43.1417009,17.8032288 C43.7485975,18.2170219 44.1880743,18.6612549 44.567196,19.0918425 L45.2334595,19.8724403 C45.9244595,20.6650599 46.6417009,21.2928839 48.2417009,21.4032288 C47.910122,20.5032288 47.5336677,20.0519822 47.1017097,19.645611 L46.8053983,19.376913 C46.3990416,19.0156941 45.9469641,18.6190182 45.4417009,17.9032288 C46.6759866,18.6918002 47.3107621,19.3393104 47.7490595,19.8497897 L48.2237534,20.4168101 C48.7405581,21.01229 49.1931295,21.3032288 50.9417009,21.3032288 C48.7817009,17.0632288 44.4457009,13.9752288 40.1353009,11.6808288 L39.3279384,11.2598413 L38.5244009,10.8569288 L37.7279134,10.4715663 L36.9417009,10.1032288 C43.2417009,11.6032288 47.7417009,14.6032288 52.0417009,18.6032288 C52.5017009,19.0232288 52.8177009,19.3912288 53.0553009,19.7136288 L53.2412881,19.9789535 L53.3980554,20.2228393 L53.6606514,20.649876 L53.7848403,20.8348183 C54.1640683,21.3624124 54.6445581,21.648943 56.3417009,21.8032288 C55.8153851,20.5927024 54.9012577,19.6868853 53.9346445,18.8233483 L53.0595752,18.0504951 C52.47882,17.5334227 51.9153851,17.0032288 51.4417009,16.4032288 C52.7871555,17.275956 53.8020315,18.1486833 54.7315582,18.9973685 L55.7542009,19.9407288 C56.8792009,20.9748197 58.0145315,21.9572577 59.6391558,22.8410856 L60.1417009,23.1032288 L60.2417009,22.1032288 C60.3417009,22.0032288 60.5417009,21.6032288 60.5417009,21.4032288 C60.5417009,21.3032288 60.6417009,21.2032288 60.7417009,21.1032288 L60.9236741,21.671441 L61.1939155,22.5460206 L61.2738828,22.7714573 C61.5292694,23.4396369 61.8292811,23.6893512 62.8618175,23.9685349 L63.2130339,24.0582002 L63.8417009,24.2032288 C62.9475833,21.4649935 61.4913549,19.9134364 60.0140015,18.5538419 L58.85314,17.5022314 L58.3995882,17.0795569 C57.8019085,16.5098032 57.2358186,15.9091111 56.7417009,15.2032288 C59.3237522,16.8109211 60.7428186,18.394879 61.8661181,19.9088509 L62.2120241,20.3845669 L63.1924519,21.7805615 L63.5203941,22.2344296 C64.0741796,22.9857403 64.6724702,23.7109211 65.4417009,24.4032288 L66.097,24.138 L66.0665352,24.1430045 C66.0601852,24.1425433 66.0583276,24.139641 66.0630254,24.1333619 L66.098847,24.1034593 L66.1863765,24.0476839 L66.3379902,23.9604226 L66.4417009,23.9032288 L68.0417009,22.9032288 L67.0417009,19.7032288 L66.8620013,19.1823366 C66.5670537,18.3648583 66.2766577,17.7795146 65.7177137,17.1076894 L65.5417009,16.9032288 L66.5417009,17.0032288 C66.5417009,15.0305015 65.8127753,14.2321544 64.7930157,13.4743031 L64.4941204,13.2578966 L63.8579293,12.8081874 L63.5251748,12.5631308 L63.1856751,12.2967702 C63.1286559,12.250275 63.0714502,12.2026472 63.0141054,12.1537644 L62.8417009,12.0032288 L66.0417009,14.0032288 C66.5417009,13.1032288 66.2417009,12.8032288 65.5417009,12.3032288 L66.2531792,12.3096643 L67.1250451,12.3301454 L67.2395737,12.3232698 C67.2837644,12.3159272 67.2976533,12.3020383 67.2917009,12.2782288 L67.2757037,12.2446795 L67.1535949,12.0739312 L67.1015757,11.9893291 C67.0928806,11.9739312 67.0842287,11.9578665 67.0757037,11.941108 L67.0267457,11.8320161 C66.9729664,11.6945256 66.9336051,11.5203948 66.9373655,11.3003646 L66.9417009,11.2032288 L67.7417009,10.9032288 C67.3995957,10.4242814 67.4085984,10.2262204 67.4564079,10.1288721 L67.4918686,10.075353 L67.5110259,10.0509908 L67.5186363,10.03109 C67.5184176,10.0215988 67.5113102,10.0123044 67.493476,10.0009926 L67.4039549,9.95879079 L66.3450542,9.56011752 L65.9417009,9.40322876 C65.9235191,9.38504694 65.878891,9.36686512 65.8174335,9.3474812 L65.4597325,9.24808225 C65.2339624,9.18384484 64.993166,9.10082455 64.8876063,8.98023853 L64.8417009,8.90322876 L68.8417009,9.70322876 L72.4417009,6.50322876 C72.2350024,7.48504694 72.7225736,7.85270336 73.5180562,8.15813869 L73.69,8.221 L73.5091881,8.16434539 C71.933549,7.67978847 71.5713321,7.82864888 71.4638517,8.09962758 L71.4392465,8.17993134 L71.3905626,8.47507042 C71.3874569,8.48848658 71.3839971,8.50168277 71.3800798,8.51460377 L71.3502573,8.58838585 C71.3317725,8.62318409 71.3073065,8.65451187 71.2740641,8.68087853 L71.2417009,8.70322876 L71.2402887,8.78558572 L71.2311233,8.93171363 L71.2073259,9.16416626 C71.1885759,9.39854126 71.2323259,9.52666626 71.6635759,9.78604126 L71.9973861,9.9731996 L72.6417009,10.3032288 C72.9292009,10.4532288 73.2198259,10.6110413 73.5133806,10.7735413 L75.3083025,11.7797913 C76.8307634,12.6235413 78.4167009,13.4282288 80.0417009,13.8032288 L80.0604354,13.3831821 L80.0835438,13.0339913 L80.1087515,12.7483957 L80.1850892,12.0967555 C80.1861899,12.0819283 80.1869043,12.0682382 80.187185,12.0555341 L80.183285,11.9899305 C80.1799973,11.9711997 80.1745957,11.9552024 80.1667009,11.9407288 L80.1351584,11.9006683 C80.1285284,11.8943499 80.1211804,11.8881099 80.113067,11.8817971 L80.0181005,11.8189289 L79.8741255,11.7276201 C79.8551212,11.714987 79.8350673,11.7013735 79.8139163,11.6866283 L79.6734658,11.5833662 C79.6477368,11.563489 79.620816,11.5421776 79.5926559,11.5192807 L79.4084453,11.3616629 C79.3751387,11.3318189 79.3404981,11.3000869 79.3044761,11.2663156 L79.0713882,11.0380061 C79.0296511,10.9954725 78.9864378,10.9505972 78.9417009,10.9032288 C79.3850343,11.0665621 79.6650343,11.2135621 79.8490306,11.3289843 L79.9848009,11.4198288 L80.1529639,11.5465843 C80.2218491,11.5966732 80.2524417,11.6021176 80.3120713,11.5476732 L80.410038,11.4434732 L80.5088306,11.3337843 L80.6454009,11.1894288 C80.6718343,11.1623621 80.7002343,11.1337621 80.7307972,11.1035843 L80.9417009,10.9032288 L81.1417009,10.7032288 L82.0417009,9.50322876 C82.6417009,8.40322876 83.8417009,7.90322876 85.9417009,7.70322876 C85.0696079,8.98229853 85.7862115,9.88954569 86.8730655,10.6411462 L87.1403954,10.8186526 L87.5598603,11.0751583 L88.1339733,11.4024452 L88.6975815,11.7177784 L88.9660887,11.8726226 L89.2207405,12.0264707 L89.3417009,12.1032288 L88.7417009,10.3032288 L89.0997024,10.4978944 L89.4775199,10.7136814 L89.7929969,10.8993689 L89.9167009,10.9657288 L90.0453636,11.0246506 L90.1997212,11.0837979 L90.5247963,11.1897051 L91.2417009,11.4032288 L91.1772083,11.2330214 L91.0784009,10.9476288 L91.0134602,10.7273028 L90.9747417,10.562088 L90.9546009,10.4420288 L90.9353602,10.2741028 C90.9320417,10.2594658 90.9273602,10.2465473 90.9200417,10.233688 L90.8889009,10.1936288 L90.8342935,10.1439695 L90.5449417,9.91248802 L90.2283083,9.65022135 L89.9417009,9.40322876 L90.493324,9.76100103 L90.8052287,9.9570039 L91.078797,10.1210398 L91.3194626,10.2548594 L91.5326589,10.3602137 C91.9016592,10.5283398 92.1595622,10.5617796 92.4570342,10.5090811 L92.6241213,10.4720856 L92.8044904,10.4197556 L93.6188224,10.1411185 L93.9261991,10.0414493 L94.2767419,9.93607492 C94.4013875,9.90019381 94.534133,9.86365363 94.6758841,9.82674618 L95.1290593,9.71521387 C95.2897269,9.6778637 95.4603056,9.64043806 95.6417009,9.60322876 C95.9946421,10.6620523 96.5205937,11.3056509 97.1584931,11.9411079 L97.554178,12.3246617 L97.9737994,12.7258015 C98.1891058,12.9340246 98.4122892,13.1561699 98.6417009,13.4032288 L99.4743484,13.0107733 L100.369547,12.5821039 L100.999065,12.2875858 C103.032373,11.3528858 105.437997,10.4328584 108.041701,10.5032288 L107.621657,10.6653137 L106.839577,10.9560852 L105.421315,11.4655579 C104.507839,11.7966125 103.614675,12.1417297 102.479323,12.6884094 L101.106132,13.3646992 C100.8036,13.5117565 100.510141,13.6521719 100.22501,13.7863191 L99.3938511,14.1703297 C98.5861798,14.5362827 97.8467301,14.8491836 97.1553307,15.119118 L96.4792009,15.3751038 C96.3689331,15.4155055 96.2598132,15.4548072 96.1517478,15.4930554 L95.5152637,15.7102771 C94.6814991,15.9840471 93.9032739,16.196374 93.1327746,16.3711645 L92.5556017,16.4955928 C92.3631955,16.5349719 92.1705252,16.5723785 91.9768435,16.6081862 L91.3920175,16.7111859 L90.7966412,16.8068332 L90.1862322,16.8973694 L89.5563078,16.9850357 L86.7518071,17.3518268 L85.1159197,17.5762756 L84.2238779,17.7066077 L83.2764609,17.8519999 L82.2691859,18.0146935 C82.0960695,18.0433754 81.9202723,18.0728716 81.7417009,18.1032288 C80.2417009,18.3810065 79.2355281,18.8439695 78.2259259,19.3549434 L77.3029321,19.8240792 C76.7747256,20.0877967 76.2083676,20.3532288 75.5417009,20.6032288 C73.0313561,21.568746 70.8006783,23.3499588 68.5796443,25.2718089 L66.6719646,26.9378058 C64.9138769,28.4676758 63.1141147,29.9652977 61.1417009,31.1032288 C75.1417009,33.7032288 68.1417009,41.4032288 55.2417009,42.3032288 C56.3932161,43.51535 57.0672289,43.7724666 58.0651419,43.7646752 L58.3750343,43.7550806 L58.709169,43.7337321 L59.9051119,43.6405691 L60.3843005,43.6136108 C60.4680554,43.6097485 60.5538221,43.6062591 60.6417009,43.6032288 L60.6647687,43.668336 L60.693,43.72 L60.5684548,43.8081572 L60.4417009,43.9032288 L62.6417009,44.7032288 L62.6885777,44.8328575 L62.7185076,44.9011536 C62.7319353,44.9266663 62.7417009,44.9344788 62.7417009,44.9032288 L62.7769009,44.9448288 C62.8057009,44.9832288 62.8417009,45.0432288 62.8417009,45.1032288 C65.4417009,44.2032288 67.8417009,42.6032288 68.5417009,40.0032288 C68.259348,41.6973464 67.3569258,42.7713948 66.2512877,43.8923393 L64.7417009,45.4032288 C65.1150343,45.3498954 65.4030343,45.2965621 65.6436268,45.2451251 L65.9737009,45.1696288 L66.5342935,45.0328584 C66.7179972,44.9913769 66.9111824,44.9546362 67.151775,44.9245325 L67.3417009,44.9032288 L71.1417009,44.2032288 C72.8072182,42.9721943 73.7386094,40.5875332 74.429511,38.1884065 L74.620794,37.5035322 L74.8015476,36.8237749 L75.1417009,35.5032288 C75.1417009,37.3232288 74.7361009,38.6024288 74.2482993,39.818896 L73.6673713,41.221872 C73.3964209,41.8889888 73.1377009,42.5912288 72.9417009,43.4032288 C74.5838062,42.8348077 75.3882383,40.710708 75.9092472,38.5425202 L76.0339155,38.0004295 L76.148699,37.4617504 L76.5474744,35.4461213 L76.641,35.004 L76.6594979,35.3622638 C76.7055607,36.6430103 76.5423382,37.5492461 76.2304128,38.6867973 L76.1417009,39.0032288 C76.1299362,39.0149935 76.1112511,39.0516717 76.0874367,39.1074014 L76.002397,39.3258829 L75.8406425,39.7909959 L75.6175609,40.482956 L75.4917111,40.9019057 L75.4477054,41.0676293 C75.443777,41.0852357 75.4417009,41.0973464 75.4417009,41.1032288 L75.4207231,41.4383991 L75.399212,41.6912584 L75.3505231,42.0871991 C75.3497231,42.0983251 75.3504343,42.1039991 75.353012,42.1060584 L75.3667009,42.1032288 L75.3937231,42.0897325 L75.436212,42.0765917 C75.5295898,42.0595621 75.7117009,42.0998954 76.0417009,42.5032288 L76.1627487,42.1971285 L76.302064,41.8220744 L76.4562128,41.3859033 L76.6217611,40.8964519 L76.7952745,40.3615572 L76.9733191,39.7890559 L77.1524607,39.1867849 L77.3292652,38.562581 L77.5002984,37.9242811 L77.6621263,37.279722 L77.8113148,36.6367406 C77.8821768,36.3169504 77.9470112,36.0006906 78.0038863,35.6923695 L78.066,35.338 L78.0415381,35.5153802 L77.9417009,36.1032288 L77.7222423,37.2558443 C77.6141617,37.8294042 77.5167976,38.4037885 77.4672454,39.0012544 L77.4417009,39.4032288 L77.5417009,40.2032288 L77.658299,40.4192781 C77.7021947,40.4933522 77.7417009,40.5476732 77.7417009,40.5032288 C77.7861454,40.4587843 77.8305898,40.4933522 77.8750343,40.5542576 L78.0083676,40.7633111 C78.0194787,40.7785374 78.0305898,40.7921176 78.0417009,40.8032288 C79.1417009,39.1032288 80.3417009,32.3032288 79.4417009,30.8032288 C80.1768361,31.3545801 80.2575519,32.792564 80.1203182,34.3606331 L80.0635437,34.9182387 C80.0528098,35.0116626 80.0414996,35.1052286 80.0297016,35.1987828 L79.9537733,35.7587339 L79.870406,36.3110091 L79.5816058,38.0768118 L79.5175345,38.5030767 L79.4694782,38.8810129 C79.4566023,38.9981155 79.4471063,39.1059315 79.4417009,39.2032288 C80.6229509,38.0219788 80.8998064,35.591803 80.9223009,33.2975555 L80.922368,32.6469513 C80.9214128,32.5395325 80.9200212,32.4327209 80.9182634,32.3266663 L80.8944506,31.3966461 L80.8417009,30.0032288 C81.7053373,31.5032288 81.7012051,32.6313279 81.5430533,33.6317036 L81.4732701,34.0256207 L81.3599968,34.5985483 L81.2935528,34.9735991 C81.1861454,35.6587843 81.1750343,36.3365621 81.5417009,37.1032288 L81.7737911,36.5038464 C81.8447992,36.3165348 81.909604,36.1410791 81.9686621,35.9755996 L82.1290528,35.5072098 C82.4411907,34.5490647 82.5298181,33.9329928 82.5203052,33.1427642 L82.5094026,32.7637974 L82.4873019,32.3488197 L82.3812028,30.7750357 L82.3417009,30.1032288 L83.6417009,31.0032288 L83.8417009,28.7032288 C84.8417009,31.4032288 84.0417009,35.2032288 83.0417009,37.0032288 C85.2885094,35.1074841 85.8098766,31.0919114 85.8172824,27.2756299 L85.8132352,26.5844728 L85.7994791,25.9008054 L85.7776323,25.2277253 L85.7493129,24.5683299 L85.6982375,23.611672 L85.6417009,22.7032288 C85.8604509,23.5563538 86.0361345,24.3819641 86.1786959,25.1745644 L86.2930117,25.8457237 L86.3924959,26.4999458 C86.407918,26.6075287 86.42278,26.7143738 86.4371111,26.8204651 L86.5169573,27.4478394 L86.5854509,28.0563538 L86.6439836,28.6452393 L86.7161501,29.490081 L86.8063372,30.7891113 L86.9059389,32.3585838 L86.9359896,32.7495735 L86.9876116,33.2853149 L87.0284197,33.6075256 L87.0759661,33.9008789 C87.2557939,34.8762177 87.5850084,35.3071701 88.3321016,35.045359 L88.4417009,35.0032288 C88.4705898,35.0032288 88.5662441,34.9364633 88.6852664,34.841508 L88.8759009,34.6827547 L89.0690392,34.5106482 L89.232133,34.3541204 C89.2778738,34.3077555 89.3131824,34.268809 89.3326343,34.2421028 L89.346,34.216 L89.8417009,35.5032288 C90.5617009,35.5832288 91.2177009,35.5992288 91.8033009,35.5960288 L92.3651972,35.588088 L93.1169306,35.5739547 C93.3488417,35.5719102 93.5618194,35.5743991 93.7550639,35.5870214 L93.9417009,35.6032288 C97.5685666,35.8718855 98.6692572,34.3812417 98.5465842,31.0707015 L98.5230926,30.6185062 C98.5180072,30.5413412 98.5123462,30.463276 98.5061241,30.3843102 L98.4621705,29.8997014 L98.4054335,29.3934436 L98.3365992,28.865505 L98.256354,28.3158536 L98.1160917,27.4505953 L97.9540149,26.5363036 L97.7724397,25.572871 L97.6417009,24.9032288 C98.2979509,26.1219788 98.7784197,27.7801819 98.8359148,29.7130432 L98.8465792,30.7214918 L98.8431839,31.5545819 L98.82851,32.2807468 L98.8043314,32.9070065 L98.7724219,33.440381 L98.7345555,33.8878903 L98.6925061,34.2565544 L98.6480474,34.5533934 L98.5880875,34.849584 L98.5312029,35.0472055 L98.518,35.081 C98.6416333,35.0381784 98.8705508,35.0789679 99.2695177,35.436752 L99.3417009,35.5032288 C100.601076,32.2094788 100.452736,26.944928 98.8966814,23.9825775 L98.742,23.704 L98.9527769,23.8880441 C100.366988,25.2134034 100.505569,27.2234116 100.411663,29.2395198 L100.37756,29.8438567 L100.272348,31.3295825 L100.238711,31.903139 C100.183567,33.0336543 100.213715,34.0564408 100.554477,34.8249319 L100.641701,35.0032288 C100.721701,34.9365621 100.795479,34.8783399 100.863597,34.8270806 L101.051538,34.6927102 L101.208901,34.5912288 L101.490697,34.4230806 C101.50499,34.4137843 101.518501,34.4045621 101.531301,34.3952288 L101.600131,34.3364139 C101.651316,34.2838214 101.688242,34.2191917 101.719705,34.1193769 L101.755401,33.9812288 L101.789231,33.8004139 L101.941701,32.7032288 C102.241701,30.2032288 101.841701,27.4032288 101.341701,25.2032288 C102.041701,26.6032288 102.241701,27.8032288 102.441701,29.6032288 C102.475743,29.9776968 102.496024,30.3072577 102.505625,30.5980758 L102.512402,31.0060162 C102.512248,31.1328243 102.509809,31.2507173 102.505471,31.3604656 L102.487144,31.6660472 C102.483268,31.713162 102.479013,31.7584333 102.474429,31.8019574 L102.443341,32.0429059 L102.406636,32.2465448 L102.366626,32.4174973 C102.359811,32.4435223 102.352954,32.4683781 102.346104,32.4921609 L102.267308,32.7322156 L102.219761,32.8669083 L102.197897,32.9437776 L102.186597,33.0157 C102.182224,33.0748584 102.191263,33.1336796 102.219735,33.2042035 L102.263613,33.2952199 L102.328458,33.4020941 L102.416581,33.5294493 L102.671908,33.8640958 L102.941701,34.2032288 C104.941701,32.4532288 104.719479,29.9393399 104.069016,27.7032288 L103.933745,27.2600189 L103.790243,26.8260683 L103.641701,26.4032288 C104.544927,26.9451642 104.734313,28.0785669 104.799353,29.2784193 L104.821332,29.7951793 L104.84831,30.5654858 C104.892377,31.5772142 104.999765,32.500003 105.541701,33.0032288 C106.661701,31.3232288 106.309701,28.9392288 105.765701,27.1312288 L105.626442,26.6919695 C105.602812,26.6210065 105.579034,26.5512288 105.555201,26.4827288 L105.412275,26.0878028 C105.38859,26.0247843 105.365034,25.9632288 105.341701,25.9032288 C105.997951,26.3719788 106.302638,27.6317444 106.420558,28.6113586 L106.441701,28.8032288 C106.475034,29.0365621 106.486145,29.3032288 106.489849,29.5735991 L106.493553,30.3661917 C106.497256,30.6143399 106.508368,30.8365621 106.541701,31.0032288 L106.597382,31.5218786 L106.643197,32.0828793 L106.652536,32.3120958 L106.652413,32.4003613 L106.65878,32.3712192 L106.676963,32.3232584 C106.720236,32.2387853 106.836145,32.1594788 107.141701,32.5032288 C108.382727,31.8827159 108.382727,30.6257797 108.057172,29.2888826 L107.961,28.9227099 C107.943855,28.86149 107.92621,28.8002095 107.90815,28.7389205 L107.795502,28.3715037 L107.677027,28.006393 L107.382433,27.1201677 L107.227404,26.6191815 L107.141701,26.3032288 C107.78876,27.0679346 108.020594,27.9710488 108.203578,28.9311547 L108.364966,29.8084394 C108.42096,30.1045314 108.48245,30.4035544 108.559328,30.7033102 L108.796534,31.5713145 L108.829688,31.6717956 C108.849574,31.7225319 108.866894,31.7452757 108.892845,31.7670865 L109.007789,31.8567788 C109.0622,31.9037828 109.136438,31.976913 109.241701,32.1032288 C109.30116,32.0762017 109.358867,32.0535575 109.414709,32.0344589 L109.576536,31.9869632 L109.726517,31.9557192 L109.86399,31.9357046 L110.098756,31.9092738 L110.194722,31.8928128 C110.386464,31.8493623 110.471441,31.7435205 110.41929,31.3454079 L110.385373,31.1400736 L110.331319,30.8882109 L110.256464,30.5847975 L110.160146,30.2248109 L110.041701,29.8032288 L109.962212,29.5467299 L109.814503,29.110817 L109.538921,28.3579996 C109.469725,28.1625826 109.3985,27.9482325 109.32119,27.684521 L109.242,27.405 L111.441701,32.1032288 C111.630572,31.7884434 111.75008,31.8006545 111.82206,31.8809681 L111.85674,31.9299735 L111.892806,32.0083853 L111.916934,32.074344 L111.874557,31.4383541 L111.841701,30.7032288 L111.818076,30.5664288 L111.725685,30.1055725 L111.671852,29.8088677 C111.602696,29.4009742 111.551853,28.9658456 111.613238,28.7664419 L111.641701,28.7032288 L113.041701,32.0032288 C113.479201,32.0157288 113.919826,32.0313538 114.360842,32.0518616 L115.242583,32.0999084 C117.884511,32.2667053 120.474875,32.6514709 122.423052,33.6338928 L122.741701,33.8032288 L119.341701,33.2032288 L119.841701,36.5032288 L121.140826,37.4303425 C121.255404,37.5111005 121.371074,37.59215 121.487474,37.6730538 L122.191701,38.1532288 C123.016701,38.7032288 123.841701,39.2032288 124.541701,39.5032288 C124.323519,40.0850469 124.383023,40.3495098 124.455751,40.4793369 L124.491992,40.5338768 L124.534416,40.5847158 C124.55018,40.6052796 124.549108,40.6156867 124.512071,40.6291547 L124.092543,40.7399875 L123.850914,40.8087189 L123.541701,40.9032288 L123.146008,40.7782186 C122.085351,40.4305784 121.247216,40.0528067 120.524456,39.687763 L120.002344,39.4170364 L119.047735,38.9059744 L118.595148,38.6736752 C117.396826,38.0802184 116.231407,37.7091111 114.241701,37.9032288 L113.55001,37.9970699 L112.963275,38.0662025 C112.243159,38.1431704 111.756278,38.1618293 111.316045,38.1524999 L110.991701,38.1407288 L109.741701,38.0579163 L109.020127,38.0239285 L108.433392,38.0088774 C108.327342,38.0070735 108.21692,38.0056613 108.101759,38.0047002 L107.741701,38.0032288 L108.541701,38.9032288 L108.632326,38.9782288 L108.851076,39.1282288 C108.885451,39.1532288 108.916701,39.1782288 108.941701,39.2032288 C109.061701,39.2632288 109.145701,39.3232288 109.215301,39.3832288 L109.341701,39.5032288 L112.924,40.856 L112.793869,40.8597523 L112.626639,40.8749568 L112.441701,40.9032288 L111.938095,40.9895548 L111.331558,41.0727254 C111.322843,41.0745285 111.319838,41.0762649 111.320984,41.0785355 L111.383079,41.1149743 C111.468239,41.1758642 111.565943,41.3365621 111.141701,41.8032288 C112.334294,42.825451 115.41358,44.210499 117.165193,44.598448 L117.266,44.619 L116.341701,44.5032288 L113.041701,43.4032288 L113.913138,44.674488 L115.778875,47.432584 L116.285671,48.1718214 L116.787648,48.8913056 L117.288544,49.5920902 C119.71296,52.9357226 122.23059,55.6610065 126.741701,58.3032288 C129.026995,59.6620523 133.143431,60.9064295 136.946823,61.7771729 L138.023135,62.0155659 C138.55518,62.1294551 139.076669,62.2352153 139.581351,62.332091 L140.566452,62.5137722 C141.365607,62.6549283 142.106498,62.7700057 142.760185,62.8555059 L143.277489,62.9201137 L143.520592,62.9452954 L143.729504,62.9597061 L143.908756,62.9641617 L144.062876,62.9594783 L144.196392,62.9464718 C144.217179,62.9436558 144.237296,62.940527 144.256838,62.9371024 L144.36794,62.9131413 L144.518604,62.8656738 L144.713421,62.785153 L144.934513,62.6909235 L145.066233,62.640708 L145.218109,62.5895134 L145.394668,62.5381555 C145.426403,62.5296276 145.459355,62.5211269 145.493619,62.5126704 L145.715695,62.4625977 L145.973776,62.4144018 L146.272391,62.3688987 L146.61607,62.3269043 L147.009339,62.2892346 L147.45673,62.2567056 L147.962769,62.2301334 L148.531986,62.2103338 C148.632371,62.2076436 148.735578,62.2052696 148.841701,62.2032288 C148.422346,62.7064546 148.530567,62.8227917 148.664882,62.8472286 L148.726901,62.8530559 L148.82626,62.8528209 C148.827569,62.8536668 148.827435,62.8549088 148.825629,62.8566811 L148.758078,62.8905773 L148.041701,63.2032288 C144.339479,64.865451 139.210096,64.18713 134.594491,62.9366762 L133.785701,62.7104288 L132.989948,62.4744628 C132.85854,62.4344452 132.727775,62.3941127 132.597701,62.3535102 L131.825948,62.1070159 L131.073158,61.8562021 L130.341701,61.6032288 C128.537256,60.9810065 127.216763,60.3297473 126.169432,59.7156984 L125.736686,59.455006 L125.333701,59.2000288 L124.77696,58.8308139 L123.636143,58.0514307 L123.334294,57.8550806 L123.036395,57.6725577 C122.44209,57.3221116 121.849366,57.0615816 121.125481,56.9326861 L120.941701,56.9032288 L120.541701,56.9032288 L118.730508,56.5001723 L117.602501,56.1832288 L117.341701,56.1032288 L117.896997,56.8495584 L118.436549,57.5541856 L118.962853,58.219568 C121.218405,61.0214112 123.171109,62.7870816 125.734917,64.4164704 L126.337829,64.7904736 L126.964933,65.162096 L127.618725,65.5337952 L128.301701,65.9080288 L129.016357,66.2872544 L129.765189,66.6739296 L130.550693,67.070512 L131.803169,67.6893376 C131.947541,67.7599488 132.093701,67.8312288 132.241701,67.9032288 C132.597256,68.0632288 132.968615,68.2232288 133.347347,68.3832288 L135.173097,69.1452288 L135.933633,69.4692288 C136.680777,69.7932288 137.379969,70.1172288 137.961225,70.4412288 L138.241701,70.6032288 L133.641701,70.3032288 C134.091701,70.8782288 134.666701,71.3782288 135.319826,71.8157288 L135.519,71.944 L135.878213,72.1180663 C136.351038,72.3443413 136.828313,72.5667663 137.311738,72.7832413 L138.041701,73.1032288 C138.609701,73.3432288 139.177061,73.5621088 139.741426,73.7626336 L139.955,73.836 L140.133465,73.890255 C140.501419,73.9983697 140.864312,74.0983859 141.217082,74.1916533 L142.697668,74.5715171 L143.956693,74.9049089 L145.473,75.315 L145.456203,75.3121312 C143.783925,74.9679328 141.992941,74.5320688 140.164101,73.9096288 L139.955,73.836 L139.801076,73.7907288 C138.355987,73.3496573 136.857007,72.7792492 135.604383,71.9994387 L135.519,71.944 L135.172101,71.7760288 C134.730877,71.5599346 134.292843,71.3413602 133.85658,71.1220564 L131.900572,70.1361737 C129.295749,68.8308551 126.678172,67.593817 123.741701,66.8032288 L131.541701,72.2032288 L131.84513,72.3607048 L132.366118,72.6360134 L132.690123,72.7976046 C132.788615,72.8439695 132.875034,72.8810065 132.941701,72.9032288 L133.655,73.315 L133.698645,73.3532288 L133.829201,73.4532288 C133.891701,73.5032288 133.941701,73.5532288 133.941701,73.6032288 C134.041701,73.7032288 134.141701,73.8032288 134.341701,73.9032288 C132.635451,73.3782288 130.374123,72.2024475 128.060158,70.8615784 L127.066701,70.2782288 L126.075588,69.6831604 L124.612538,68.7871704 L121.05912,66.580481 L120.297475,66.116333 C120.175978,66.0430725 120.057326,65.9719788 119.941701,65.9032288 C120.706918,67.2423592 121.975349,68.1926427 123.287538,69.0932016 L124.361591,69.8258062 C125.426767,70.5610737 126.437353,71.3249679 127.141701,72.3032288 C125.308368,71.875451 123.848491,71.1115621 122.442558,70.2854304 L120.914849,69.3726732 C120.53059,69.1448954 120.141701,68.9198954 119.741701,68.7032288 C119.741701,68.3532288 119.802445,68.1652122 119.862728,68.0457626 L119.91286,67.9579902 L119.954201,67.8907288 C119.999655,67.8089106 119.998829,67.7469271 119.860362,67.5653343 L119.729276,67.4045342 C119.702651,67.3732701 119.673519,67.3395924 119.641701,67.3032288 C117.777185,66.9741965 116.905072,66.3444358 116.101837,65.479913 L115.819698,65.1651468 L115.080162,64.2971665 C114.708298,63.866184 114.283636,63.400003 113.741701,62.9032288 C114.030987,63.7068002 114.351267,64.2107543 114.642767,64.5910977 L114.83218,64.8282789 L115.091701,65.1407288 C115.466701,65.6032288 115.691701,66.0032288 115.541701,67.0032288 L111.541701,63.0032288 C111.516701,63.0532288 111.479201,63.0907288 111.437013,63.1235413 L111.304201,63.2157288 C111.216701,63.2782288 111.141701,63.3532288 111.141701,63.5032288 L109.341701,67.8032288 L107.845955,66.3992393 L107.641701,66.2032288 C107.400053,65.9011693 107.295266,65.7359697 107.23639,65.6166824 L107.18945,65.5093307 L107.132221,65.3614829 C107.071536,65.2202496 106.957737,65.025901 106.575242,64.5628573 L106.441701,64.4032288 L106.041701,63.1032288 C103.782877,63.1973464 102.498448,63.7343706 100.687742,64.7143014 L100.341701,64.9032288 C100.252339,64.9500373 100.156278,65.0040889 100.05374,65.0648365 L99.72692,65.2666203 L99.3625826,65.5052977 L98.7486637,65.9253086 L96.7480126,67.3308084 L95.8743478,67.9333281 L95.2581356,68.3489836 L94.6164724,68.77199 C94.5074821,68.8429213 94.3974872,68.9140221 94.2865157,68.9852241 L93.6091898,69.4131023 L92.9097648,69.8401252 C90.7796819,71.1166285 88.3693605,72.3372713 85.8417009,73.1032288 C82.9667009,73.9365621 79.1889231,73.7455899 75.1449417,73.2970945 L73.9243977,73.155587 L72.6917009,73.0032288 L69.5818557,72.6050535 L68.3367024,72.4509483 L67.0965837,72.3066956 C64.0057634,71.9622131 60.9979509,71.7532288 58.3417009,72.0032288 C57.9417009,74.1032288 57.9417009,76.0032288 59.0417009,78.1032288 L59.6639665,79.2106506 L59.6812029,79.2301331 C59.6833269,79.2313293 59.6851702,79.2316345 59.686873,79.23125 L59.7194353,79.1989319 C59.7460955,79.1832092 59.8002703,79.1830383 59.9301103,79.2675049 L60.0610552,79.3622437 C60.086342,79.3820251 60.1134539,79.4039368 60.142531,79.4281799 L60.3417009,79.6032288 C60.2522892,79.1561699 60.1328982,78.7390904 60.0069823,78.3408213 L59.7225555,77.4717467 C59.4162801,76.5309074 59.1791664,75.6552802 59.3776884,74.6703538 L59.431,74.444 L59.4267227,74.4872161 L59.4244561,74.5532559 L59.4316388,74.7283599 L59.4549822,74.9568635 C59.4602555,74.999133 59.4662291,75.0434291 59.4729166,75.0896528 L59.5217153,75.3893312 C59.5313121,75.4428682 59.5416497,75.4981344 59.5527416,75.5550305 L59.6284528,75.9151743 L59.722915,76.3096785 L59.836776,76.7337834 L59.9706832,77.1827292 C60.7875118,79.788147 62.6010949,83.3608045 65.9417009,84.0032288 L65.8234568,83.7482117 L65.6083676,83.3029544 L65.4163237,82.9326857 C65.203155,82.5391379 65.0235939,82.2708099 64.8305898,82.0301149 L64.6607681,81.8282961 L64.2750343,81.4106362 L63.9194787,81.0313495 L63.6385459,80.7214374 L63.3148148,80.3499493 C63.1990397,80.2143399 63.0750343,80.0661917 62.9417009,79.9032288 L63.2417009,79.8032288 L63.4417009,79.7032288 L65.2417009,78.6032288 C65.6181715,80.2032288 65.9946421,81.3603222 67.1214485,82.5747329 L67.6376986,83.1130387 L67.7991353,83.2688264 C68.048698,83.4979809 68.209631,83.5813629 68.4148788,83.6192637 L68.5444088,83.6373489 L69.0606257,83.6742515 L69.2965114,83.6968148 L69.5749394,83.7325325 C69.6252438,83.7398492 69.6775866,83.7479145 69.7321009,83.7568288 L70.0863073,83.8213046 C70.4049662,83.8848614 70.7845581,83.9746573 71.2417009,84.1032288 L70.6417009,82.5032288 C70.6708676,82.2990621 70.7170481,82.2905551 70.7752802,82.3511671 L70.828029,82.4170959 L70.9167009,82.5407288 C71.0417009,82.7032288 71.1917009,82.8032288 71.3417009,82.2032288 C71.3417009,82.0698954 71.4750343,82.0698954 71.5935528,82.0847102 L71.7016461,82.1000738 C71.7170096,82.1019942 71.7305898,82.1032288 71.7417009,82.1032288 L71.4109205,81.452417 L71.1138374,80.847016 L70.873,80.336 C70.9256584,80.3954832 70.9865411,80.4550866 71.0585427,80.518024 L71.2182286,80.6492962 L71.4127101,80.7951723 L72.084913,81.2612473 L72.4417009,81.5032288 L72.3341878,81.035911 L72.1223504,80.1920898 L71.9243789,79.4421775 L71.6262906,78.3573679 L71.464,77.788 L71.7588755,78.6193204 L71.9307598,79.0867628 L72.1063753,79.5480549 L72.2849417,79.9982262 L72.4656783,80.4323063 L72.6478047,80.8453247 L72.8305405,81.232311 C73.2874912,82.1630945 73.7428373,82.8032288 74.1417009,82.8032288 L76.1417009,83.4032288 C76.1962464,83.2941378 76.310296,83.3635593 76.4351645,83.4654376 L76.6244958,83.6243407 C76.6656679,83.6569478 76.7053373,83.6850469 76.7417009,83.7032288 L77.0417009,83.5032288 L77.1950733,83.3410393 L77.458868,83.0490196 C77.8523934,82.5949791 78.0205562,82.2932495 78.0428514,81.9790593 L78.043,81.949 L78.1537337,82.5254303 L78.2136806,82.7973897 C78.2328025,82.8774241 78.2511931,82.9472522 78.26924,83.0081116 L78.3227369,83.1650209 C78.4025978,83.3637381 78.4833447,83.4058975 78.6002884,83.4042663 L78.834765,83.3803366 L78.9554619,83.3740459 C79.1068259,83.3728538 79.2967009,83.3982288 79.5417009,83.5032288 C79.7055307,83.245782 79.8529277,83.1964836 79.973636,83.2245709 L80.0367685,83.2467798 L80.0942374,83.2796222 L80.1690128,83.338508 L80.2600812,83.4230124 L80.2836849,83.4382865 C80.2935469,83.4419013 80.3004528,83.4388933 80.3041948,83.4266099 L80.3073983,83.3888899 L80.2955743,83.2756173 L80.207484,82.7866216 L79.9417009,81.4032288 C79.915614,81.2858375 79.8725138,81.1463289 79.8166167,80.9871443 L79.6890092,80.6432633 L79.2698837,79.5824841 L79.0818669,79.0891333 L78.8934557,78.5628408 C78.6763274,77.9313047 78.4736973,77.2413729 78.3391284,76.5240556 L78.305,76.327 L78.3449417,76.5120251 C78.4395597,76.8983098 78.5846335,77.2959877 78.7465937,77.7081107 L79.0830828,78.5525208 C79.1961199,78.8410136 79.3067156,79.1368306 79.4049234,79.4408761 L80.2104509,82.1641663 L80.3087908,82.4763489 L80.3658148,82.6403806 L80.4182381,82.7731407 L80.4679705,82.8780579 L80.5169216,82.958561 C80.5579191,83.0164268 80.6000921,83.052433 80.6484139,83.0755089 L80.7096697,83.0975647 C80.720477,83.1003967 80.7316098,83.1028544 80.7431079,83.1050092 L80.8575285,83.1181521 L81.109572,83.1351379 L81.2374294,83.1502114 L81.3836027,83.1751589 L81.5500017,83.2134094 C81.6385759,83.2364319 81.7354509,83.2657288 81.8417009,83.3032288 L81.7225847,82.8332825 L81.614,82.442 L81.6346978,82.4858793 C81.8541181,82.9357654 82.2107477,83.1020858 83.0598939,83.2040729 L83.4021045,83.2397306 C83.4632187,83.2453137 83.5264303,83.2507525 83.591826,83.2561006 L84.2417009,83.3032288 L84.173,82.927 L84.1863889,82.9522779 C84.2296885,83.0241169 84.2886513,83.0522093 84.3944888,83.0693535 L84.5171071,83.0840631 L84.8838366,83.1207402 C84.922303,83.1254146 84.9629384,83.130696 85.0058874,83.1367361 L85.2924999,83.1832973 C85.4508435,83.2123455 85.63261,83.250956 85.8417009,83.3032288 L85.6889586,82.6166022 L85.68,82.587 L85.6996939,82.6245487 C85.92389,83.0438966 86.1247623,83.1180528 86.4093258,83.1433662 L86.7257499,83.1633746 C86.9214433,83.1776409 87.1539771,83.2073208 87.4417009,83.3032288 C87.3861454,82.9921176 87.3194787,82.7019942 87.2449931,82.4270971 L87.208,82.299 L87.2357368,82.3401288 C87.4976387,82.7042069 87.8856091,82.8360051 88.6821541,82.9262151 L89.0798302,82.9655918 L89.5417009,83.0032288 C89.4863163,82.7678441 89.4290145,82.5554654 89.370592,82.3597218 L89.2524884,81.9885269 L89.201,81.843 L89.2083676,81.8513769 C89.4639231,82.1143399 89.8417009,82.3365621 90.4417009,82.6032288 C90.4780646,82.075956 90.4516183,81.5916585 90.3839999,81.1329057 L90.368,81.044 L90.6583355,81.4917277 L90.825788,81.7578312 L90.8747281,81.8271658 L90.9117612,81.8645187 C90.9287115,81.8765118 90.9443702,81.8794639 90.9634976,81.8778034 L91.1100801,81.851562 C91.1247179,81.8499834 91.1406226,81.8487124 91.1579706,81.8479128 L91.2807882,81.8500859 C91.4237461,81.8605415 91.6313561,81.8997805 91.9417009,82.0032288 L92.3417009,81.1032288 C92.4407009,80.6082288 92.2456709,79.7429688 91.9183274,78.7661952 L91.7443782,78.2697135 C91.7137986,78.185817 91.6824872,78.1014456 91.6505378,78.0167491 L91.451933,77.5058653 C91.4178056,77.420467 91.3832273,77.3350429 91.3482916,77.2497429 L91.1351384,76.7406288 L90.8091554,75.9982612 L90.5942156,75.5280334 L90.491,75.309 L90.5490454,75.3382065 C90.8635969,75.4744343 91.1542638,75.2285101 91.3455008,74.9136717 L91.411,74.795 L91.5939735,74.9745775 C92.3812464,75.7980138 92.7074875,76.7344608 92.9900653,77.6394445 L93.1577114,78.1775034 C93.2704344,78.5321513 93.389527,78.8771418 93.5417009,79.2032288 L93.8929526,79.8451183 L93.9787208,79.9866478 C93.9917695,80.0065895 94.0043895,80.0249709 94.0168724,80.0421862 L94.0924554,80.1346417 L94.178738,80.2180436 L94.5330761,80.5111677 C94.5667009,80.5393399 94.602812,80.5698954 94.6417009,80.6032288 C94.7667009,80.4032288 94.8604509,80.3032288 94.9323259,80.2469788 L95.0086759,80.1968788 L95.0917009,80.1532288 C95.1292009,80.1282288 95.1542009,80.0907288 95.1760759,79.9844788 L95.2014259,79.8203788 L95.2273759,79.5686788 C95.2319509,79.5182288 95.2367009,79.4632288 95.2417009,79.4032288 L95.135,78.904 L95.3671079,79.49325 L95.405747,79.5771124 C95.4270286,79.6164336 95.4407653,79.6247367 95.4554202,79.6149558 L95.479149,79.5883383 L95.5312095,79.5187711 C95.6217313,79.4144279 95.8157269,79.2928391 96.3417009,79.5032288 C96.7053373,78.9577742 96.8026743,78.2745786 96.7255393,77.5399041 L96.71,77.424 L96.7616083,77.5411917 C96.9111454,77.8976732 97.0417009,78.2532288 97.1417009,78.6032288 L97.3904491,78.4856428 L97.8039236,78.281002 C97.9256822,78.2184333 98.0331115,78.1607496 98.1314221,78.1056713 L98.4042086,77.9459725 L98.653547,77.7882277 L99.206936,77.4238882 L99.5735145,77.1899375 L100.041701,76.9032288 L100.17,76.828 L100.159718,76.817847 C99.3887194,76.016469 99.2511796,75.6476359 99.1979071,75.2742365 L99.1566681,74.91553 C99.1238004,74.6585499 99.0588515,74.3489073 98.8338352,73.8847356 L98.7386919,73.6998699 L98.5735952,73.5004981 L98.39493,73.2628183 L98.2367468,73.0335251 L98.0676674,72.7654058 L97.9532649,72.5672746 L97.8405753,72.3551653 C97.8220821,72.3187217 97.8037696,72.2817503 97.7856923,72.2442784 L97.6804887,72.01366 C97.071451,70.596537 96.908914,68.6015894 99.7417009,67.3032288 L98.9417009,68.9032288 L99.01,68.962 L98.8698259,69.1876038 L98.8010759,69.3097538 C98.6597009,69.5902288 98.5817009,69.9932288 98.8417009,70.9032288 C98.9550761,71.2887042 99.1558578,71.6638965 99.3845878,72.0474593 L99.8958329,72.8889896 C100.47461,73.8726528 100.967737,74.9842694 100.523552,76.4910268 L100.473,76.646 L100.766859,76.4600014 L101.246151,76.1401288 L102.041701,75.6032288 L102.002,75.234 L103.741701,74.1032288 L104.14446,73.8878967 L104.321169,73.8029358 L104.450417,73.7484436 L104.712013,73.6532288 L104.85049,73.594635 L105.041701,73.5032288 C105.178286,73.4349361 105.306127,73.4074524 105.425223,73.3914152 L105.667043,73.3638692 L105.756276,73.3482803 C105.770791,73.3450651 105.785127,73.3414842 105.799286,73.337452 L105.882094,73.3071593 C106.083759,73.2144663 106.24527,72.9817215 106.366627,72.3200074 L106.413028,72.0317585 L106.455145,71.6936439 L106.49298,71.3015544 C106.498929,71.2314799 106.504699,71.1589853 106.510291,71.083985 L106.541701,70.6032288 L106.867376,70.6222985 L107.108604,70.6314085 L107.343414,70.6316176 L107.436141,70.6262653 L107.565464,70.6100891 L107.606663,70.6126091 L107.772078,70.6438304 L108.041701,70.7032288 L109.141701,71.1032288 L109.127164,71.0907288 L109.019859,71.0141015 L108.945792,70.9535986 C108.932746,70.9419862 108.919421,70.9295601 108.905925,70.9162465 L108.823767,70.8251222 C108.603831,70.550566 108.395547,70.0109211 108.641701,68.9032288 L109.068904,69.0657409 L109.427066,69.2081128 L109.724565,69.335178 C110.30948,69.5973948 110.526226,69.7858645 110.75829,70.1218283 L110.926109,70.3807018 L111.206355,70.8273736 L111.389538,71.1050884 L111.612598,71.4255006 C111.653564,71.4827293 111.69654,71.5419384 111.741701,71.6032288 L111.693596,71.6408381 L111.581643,71.7003133 C111.507007,71.7399635 111.441701,71.788943 111.441701,71.9032288 L111.36288,71.9867505 L111.311976,72.0517118 L111.225934,72.1839545 L111.167803,72.2953168 C110.902677,72.858315 110.766091,74.027619 112.541701,75.8032288 C113.124054,76.3855817 113.42613,76.5755471 113.744693,76.7440796 L114.079743,76.9192068 C114.281147,77.0277962 114.518172,77.1679346 114.841701,77.4032288 C115.241701,77.7032288 115.454201,77.9469788 115.588576,78.1407288 L115.676418,78.2767639 L115.805226,78.494928 C115.923293,78.6783264 116.050148,78.7597717 116.554933,78.7603577 L116.840529,78.75401 L117.199367,78.7347717 L117.641701,78.7032288 L118.241701,79.3032288 L118.614244,79.5917981 L118.830552,79.773498 L118.853007,79.7999048 L118.841701,79.8032288 L119.333671,80.1234658 L119.464101,80.2000288 L119.566797,80.2531251 L119.836901,80.3856288 L120.078264,80.5133917 C120.127479,80.5401176 120.181701,80.5698954 120.241701,80.6032288 C120.463923,80.7365621 120.666392,80.8649572 120.858985,80.9906087 L121.692318,81.5449297 C122.062689,81.7896485 122.452812,82.0365621 122.941701,82.3032288 C124.741701,83.2032288 127.441701,84.1032288 129.641701,84.4032288 L128.996499,84.3995095 L128.445957,84.3884592 L127.977346,84.3702389 L127.577937,84.3450098 L127.235001,84.312933 C127.07553,84.2952096 126.932463,84.2749786 126.798641,84.2523308 L126.541201,84.2038397 L126.295684,84.1490647 L125.503384,83.9486485 L125.178272,83.8703497 L124.80144,83.7865727 L124.36016,83.6974787 C124.20091,83.6669124 124.028798,83.6354868 123.841701,83.6032288 C128.312123,86.4215386 143.171556,85.4620266 146.024432,82.4686098 L146.123,82.357 L146.289898,82.3579404 C147.427108,82.347706 148.403996,82.1802779 149.141701,81.8032288 L154.441701,77.6032288 C153.981701,77.2432288 153.333701,76.9672288 152.534501,76.7320288 L152.402,76.694 L152.241001,76.6863604 C150.469087,76.5810075 148.676713,76.1687629 146.64575,75.6314009 L145.471,75.315 Z M170.241701,78.2032288 C169.948223,80.7271418 170.688298,81.8385312 171.349734,82.3260435 L171.494973,82.4244306 L171.634911,82.5042017 L171.766836,82.5672801 C171.788004,82.5765089 171.808726,82.5851224 171.828945,82.5931605 L171.995795,82.6510518 L172.160153,82.6911315 L172.241701,82.7032288 L172.132668,82.4885968 L171.927435,82.1007596 L171.571717,81.4523829 C171.545278,81.4035946 171.519667,81.3558122 171.494904,81.3088072 L171.356673,81.0342759 C170.994787,80.2725017 170.889849,79.6032288 171.141701,77.9032288 L171.217067,77.4630188 C171.496095,75.9507874 171.819435,75.5286194 172.674513,75.1891663 L172.921266,75.0978821 L173.345641,74.9587128 L173.841701,74.8032288 C173.796246,74.9577742 173.749139,75.1040552 173.701506,75.2437246 L173.558155,75.6445511 L173.289034,76.3668651 C173.004511,77.1709974 172.859883,77.8941378 173.241701,79.1032288 L173.426062,79.141878 L173.742862,79.2177264 L173.99755,79.2892245 L174.2818,79.3819707 L174.474332,79.4486149 C174.63061,79.4989456 174.692542,79.4954412 174.789819,79.3940548 L174.861331,79.3114796 L175.069931,79.0477221 L175.224098,78.8607394 L175.422897,78.6331539 C175.460223,78.5916783 175.499765,78.54839 175.541701,78.5032288 L177.041701,76.8032288 L177.741,80.401 L177.758414,80.1136038 C178.06719,73.7565452 174.199933,73.0893467 171.881388,75.0969753 L171.675037,75.2867718 C171.439643,75.516602 171.223622,75.7754932 171.033804,76.0598483 L170.877678,76.3097334 C170.554001,76.864299 170.327426,77.5031442 170.241701,78.2032288 Z M84.644,79.171 L84.8480871,79.7889538 C85.0847513,80.509089 85.3133012,81.2211101 85.5073658,81.9209598 L85.68,82.587 L85.6570416,82.5411592 C85.6107521,82.4467747 85.5632187,82.3373343 85.5135406,82.2103435 L85.4110579,81.9322225 L85.3012546,81.6028661 L85.1825293,81.2178396 L85.0532806,80.7727085 L84.9119072,80.2630381 L84.8417009,80.0032288 L84.7216009,79.4829288 L84.644,79.171 Z M139.608911,81.3337808 C141.619527,81.8112331 143.813794,82.1474148 146.241701,82.2032288 L146.193237,82.2705213 L146.123,82.357 L145.944005,82.3563473 C144.218241,82.3258043 142.15997,81.9638103 140.023251,81.4392657 L139.608911,81.3337808 Z M88.457,79.66 L88.4932712,79.8113762 C88.6023291,80.2383221 88.7259522,80.5866152 88.8554014,80.9261691 L89.0528525,81.4376848 C89.0861251,81.5247581 89.1194888,81.61347 89.152807,81.7049129 L89.201,81.843 L89.1352676,81.7711806 C88.9067274,81.5034017 88.786983,81.1878675 88.6805792,80.7432644 L88.6017862,80.384341 L88.457,79.66 Z M79.96,75.716 L79.9691383,75.8065668 C80.0305766,76.3259738 80.1885947,77.0180538 80.3756544,77.7342226 L80.5698931,78.4529178 L81.0417009,80.1032288 L81.1013988,80.3559293 L81.2494085,81.0285641 L81.384,81.663 L80.8520281,79.9561829 C80.4522234,78.6528625 80.0883562,77.3136047 79.9729265,75.9259094 L79.96,75.716 Z M76.542,75.41 C76.5919252,75.6833072 76.6731192,76.0007876 76.7699521,76.3435854 L76.979839,77.0573506 L77.2036439,77.8051075 C77.3513117,78.3074934 77.4897342,78.8101928 77.5818631,79.2685105 L77.6972484,79.930742 L77.939,81.353 L77.8451008,81.0847038 L77.5973907,80.4192145 L77.5019985,80.1488983 L77.4024361,79.8496594 L77.3000476,79.5186901 L77.1961777,79.1531828 L77.0921706,78.7503297 C77.0748993,78.6799194 77.0576784,78.607836 77.0405357,78.5340211 L76.9388437,78.0698851 L76.8403756,77.5613841 C76.7761036,77.2069712 76.7148771,76.8211099 76.6584887,76.4000567 L76.5777588,75.7416149 L76.542,75.41 Z M89.736,78.777 L89.7667009,78.8657288 C89.9848827,79.4998197 90.1956265,80.1227536 90.3259045,80.7933584 L90.368,81.043 L90.3417009,81.0032288 C90.1317009,80.6532288 89.9707009,80.0092288 89.8587009,79.4485288 L89.7747009,78.9971288 L89.736,78.777 Z M85.6366407,76.1931541 L85.641,75.806 L85.7700118,76.8187824 C85.8952421,77.7569735 86.0275876,78.5265914 86.333189,79.6244408 L86.63,80.66 L86.372709,80.0019434 L86.207757,79.5516289 C85.8881411,78.6366126 85.6398986,77.6183941 85.6366407,76.1931541 Z M126.841701,77.2032288 C128.295189,77.4939264 129.807831,78.0212385 131.436127,78.6279461 L133.680685,79.4701362 C134.455023,79.7573477 135.257166,80.0464398 136.092076,80.3236099 L136.858349,80.571775 L135.953637,80.2961466 L135.058615,80.0138608 L133.743523,79.5841144 L132.474078,79.1552413 L127.849639,77.5389132 L127.312294,77.3568735 L126.841701,77.2032288 Z M69.233,76.033 L69.4166022,76.455963 L69.632,76.9741445 L69.8155817,77.4385908 L69.9706843,77.853018 L70.1006445,78.221142 L70.2087994,78.5466791 L70.3730403,79.0848562 L70.47,79.429 L70.3809196,79.2178794 C70.1521764,78.6678526 69.9512534,78.1372005 69.7538788,77.5786573 L69.4574444,76.7140159 L69.233,76.033 Z M83.543,75.41 L83.6896712,75.901065 L84.1002633,77.2392752 C84.2745009,77.8096288 84.4393009,78.3680288 84.6009009,78.9968288 L84.643,79.169 L84.6096949,79.0662641 C84.2908369,78.0994722 83.973181,77.1206593 83.7192366,76.1394421 L83.543,75.41 Z M91.9417009,71.8032288 C92.3417009,72.3175145 92.7417009,73.1256777 93.123042,73.9664941 L93.8116353,75.5175145 C93.8554764,75.6149635 93.8988438,75.7103716 93.9417009,75.8032288 L94.0625994,76.0786194 L94.4792009,77.0032288 C94.6667009,77.4282288 94.8417009,77.8532288 94.9417009,78.2032288 L94.9664164,78.2627645 L95.0232212,78.4473799 L95.0843955,78.6866152 L95.135,78.904 L94.8935283,78.3056039 L94.7331888,77.9199561 L94.6417009,77.7032288 L91.9417009,71.8032288 Z M88.9417009,74.9032288 L89.3,76.653023 L89.6451303,78.3238049 L89.736,78.777 L89.6573283,78.5474812 C89.2929406,77.4817412 88.9417009,76.3577742 88.9417009,74.9032288 Z M70.3417009,74.5032288 C70.3825303,74.5542654 70.4337786,74.6532294 70.4932125,74.7912936 L70.5882235,75.0266116 L70.7500979,75.4750762 L70.9301769,76.018265 L71.1228072,76.6338344 L71.3894011,77.5285675 L71.461,77.777 L70.5482114,75.0694648 L70.3846022,74.6135723 L70.3417009,74.5032288 Z M94.5417009,72.7032288 C95.4083676,73.8365621 96.452812,75.6810065 96.6972565,77.3180436 L96.71,77.423 L96.6061728,77.1845731 C96.4567607,76.853459 96.2943085,76.5228772 96.1280829,76.1965344 L95.3084136,74.6173061 C95.0022899,74.0134734 94.7428522,73.4513083 94.6042352,72.9604647 L94.5417009,72.7032288 Z M68.6417009,74.2032288 L69.232,76.031 L68.8465009,75.1600288 L68.7602194,74.9513769 L68.7023824,74.7889473 C68.6796268,74.7159695 68.6654046,74.6528584 68.6565157,74.5884139 L68.6449009,74.4544288 L68.6417009,74.2032288 Z M100.938788,72.0572115 L100.835,71.793 L101.322315,72.7575456 C101.683045,73.4916768 101.845141,73.9505088 101.981101,75.0540288 L102.002,75.234 L101.741701,75.4032288 C101.649393,74.3878441 101.36537,73.1807436 100.938788,72.0572115 Z M89.6982164,73.8185945 L89.6417009,73.6032288 L89.8293162,73.9584996 L89.9890989,74.2727081 L90.1710399,74.6398356 L90.491,75.309 C90.2235106,75.1515409 89.9455582,74.7159647 89.6982164,73.8185945 Z M90.9417009,74.4032288 C91.499893,73.7752627 91.64427,74.0236108 91.5489224,74.4264348 L91.511047,74.5579354 L91.4584525,74.6946544 L91.411,74.795 L91.3959624,74.7791965 C91.3268657,74.7148421 91.2546047,74.651285 91.1789657,74.588599 L90.9417009,74.4032288 Z M99.161,69.097 L99.2805266,69.2126052 C99.8271219,69.7745214 100.310147,70.580682 100.701998,71.4765103 L100.835,71.793 L99.161,69.097 Z M101.741701,50.6032288 L100.999615,50.786064 L100.19317,50.9964704 L98.8753465,51.356888 L97.4449009,51.7616288 L92.6709337,53.1355184 L90.9831025,53.61128 L89.8477617,53.9242144 L88.7110001,54.2300832 L87.5785393,54.5257376 L86.4561009,54.8080288 C86.2701809,54.8537888 86.0849169,54.8988608 85.9004281,54.9431792 L84.8037513,55.1995216 C81.7282609,55.8972288 78.9457009,56.3392288 77.0417009,56.2032288 C74.9417009,56.1032288 72.8167009,55.6782288 70.6917009,55.2032288 L68.3023943,54.662262 C66.9764665,54.3661194 65.6542009,54.0907288 64.3417009,53.9032288 C62.2854509,53.5969788 60.1526384,53.482135 58.0018816,53.4079651 L54.9674662,53.3148177 C53.5603234,53.2696282 52.1572621,53.2116107 50.7746091,53.0987827 L49.7417009,53.0032288 L48.6417009,55.9032288 L47.652,56.892 L47.6417009,57.1032288 L47.474,57.437 L47.4339009,57.7308288 C47.1636009,59.8099288 47.1967509,62.0046288 47.6561759,63.4551538 L47.7417009,63.7032288 L51.2417009,68.0032288 C51.2417009,67.9698954 51.252812,67.9810065 51.2713306,68.0143399 L51.3454046,68.1587843 C51.3750343,68.2143399 51.4083676,68.2698954 51.4417009,68.3032288 C51.7817009,68.3432288 52.0817009,68.3672288 52.3545009,68.3832288 L53.5510935,68.4335991 C53.9864713,68.4567102 54.3983824,68.5011547 54.8892268,68.6309325 L55.6183078,68.8438641 L57.1218337,69.3131086 L57.3404521,69.37726 L57.5268861,69.425451 L57.6856658,69.4570493 C57.9541805,69.4993835 58.1061102,69.4548765 58.2670694,69.3060008 L58.3565157,69.2143399 L58.4522831,69.1013456 L58.9026491,68.5287399 L59.026,68.378 L59.3417009,68.9032288 L60.3844634,68.9045538 L60.8370134,68.9188538 C61.2473259,68.9269788 61.4569509,68.8717288 62.0426009,68.3686288 L62.3417009,68.1032288 L62.5257948,68.4619691 C62.5411761,68.4904135 62.5551285,68.5155046 62.5679147,68.5376944 L62.6327346,68.6396335 C62.6602459,68.6768109 62.6819838,68.696012 62.7050338,68.7094396 L62.8210274,68.7612839 C62.8993186,68.8007357 63.0206483,68.8821761 63.2417009,69.1032288 C63.7181715,68.3620523 63.7882407,67.5297859 63.6652074,66.6435249 L63.638,66.473 L63.7617438,67.035882 L63.8583877,67.4285769 C63.874239,67.4891229 63.8899796,67.5472797 63.9056351,67.6031408 L63.9987528,67.9115091 C64.2454421,68.6643571 64.4835261,68.8774386 64.8184113,68.9340495 L64.9487366,68.9486927 L65.0893724,68.9531585 L65.5514149,68.9497943 C65.7261659,68.9523371 65.9213306,68.9643399 66.1417009,69.0032288 C65.2890693,66.3505972 64.4364378,63.1594614 64.3490489,59.6849025 L64.341,59.104 L64.4261555,59.3773462 C64.6054307,60.0051674 64.742797,60.7911709 64.861131,61.6313723 L64.9739682,62.4857884 L65.2339121,64.628262 L65.3423746,65.4271672 C65.4362991,66.0678591 65.5408365,66.6378714 65.6692255,67.0770279 L65.7417009,67.3032288 L67.0417009,69.2032288 C67.4268861,68.5217473 67.4872428,67.9456156 67.3866483,67.2875452 L67.3417009,67.0365621 C67.3330589,66.9939695 67.3238683,66.9509654 67.3141689,66.907504 L67.2501886,66.6408831 L67.0932841,66.0659402 L66.8626886,65.2464386 L66.7658893,64.8802292 L66.6693644,64.4887797 C66.6534065,64.4213129 66.63754,64.3527029 66.6218049,64.2829041 L66.5292924,63.8494793 C66.2734568,62.5789489 66.078738,60.9384139 66.1417009,58.7032288 C66.4917009,59.4032288 66.6667009,60.4282288 66.8042009,61.5407288 L67.0222222,63.4351903 C67.0836762,63.9402658 67.152812,64.4365621 67.2417009,64.9032288 L67.2882352,65.1497946 L67.3700033,65.6148529 L67.5860438,66.9701744 L67.6429723,67.2866216 C67.8872816,68.544938 68.2525117,69.0653909 69.9417009,69.4032288 C69.8104509,68.5501038 69.6457048,67.8022522 69.4704912,67.1000092 L69.3182817,66.5078644 L68.9364763,65.0704407 L68.7917009,64.4907288 C68.4167009,62.9282288 68.1417009,61.2032288 68.2417009,58.6032288 C68.5417009,59.4032288 68.6917009,60.3782288 68.8042009,61.4032288 L68.8940697,62.2911296 L68.9813146,63.1860276 C69.0117082,63.4835495 69.0442884,63.7793221 69.0816791,64.0704299 L69.2648821,65.3896699 L69.3438711,65.9155257 L69.4207476,66.3922003 L69.4958488,66.822182 L69.6059085,67.3850483 L69.7138689,67.8568517 L69.7852377,68.1249439 C69.7971155,68.1667025 69.8089896,68.207034 69.820867,68.2459901 L69.892226,68.4636376 L69.9639998,68.6507657 L70.0365252,68.8098624 C70.073032,68.8828176 70.109947,68.9461942 70.1474598,69.0013918 L70.2233385,69.1012962 C70.2361365,69.1162676 70.2490149,69.1304339 70.2619808,69.1438469 L70.3408823,69.2157006 C70.3542262,69.2263079 70.3676717,69.2362656 70.3812256,69.2456256 L70.463908,69.295027 L70.5495322,69.3325706 L70.6384351,69.3607444 L70.7309538,69.3820368 L71.143924,69.4481559 L71.2595752,69.4723642 L71.3808638,69.5046203 L71.5081268,69.5474124 C71.5515809,69.5637089 71.5960869,69.5821761 71.6417009,69.6032288 C71.5774152,69.2603716 71.5039458,68.9094788 71.4252286,68.5517801 L70.9214385,66.333759 C70.4176484,64.0537481 70.008319,61.6172867 70.543596,59.2900454 L70.641,58.904 L70.6562631,59.6943554 L70.6677559,61.3583004 L70.681386,62.1426642 L70.697464,62.6799607 L70.7210434,63.2243988 L70.7537601,63.772234 L70.7972501,64.3197221 C71.0278854,66.8680321 71.663884,69.2826879 73.453383,69.8512866 L73.6417009,69.9032288 C73.5890693,69.5216498 73.5000804,69.1089074 73.3895413,68.6727469 L73.247498,68.1386093 L73.0080809,67.3017562 L72.6695184,66.1350264 L72.5047422,65.5365281 C71.9164932,63.3289905 71.5417009,60.9979656 72.6417009,59.2032288 C72.4417009,61.8032288 72.4417009,63.3032288 72.9417009,65.7032288 L73.0182956,66.1543604 L73.2276384,67.5032288 C73.237187,67.5594788 73.2468707,67.6146485 73.2567729,67.6687637 L73.3194787,67.9810065 C73.5861454,69.1810065 74.0750343,69.8032288 75.9417009,70.2032288 C74.9833676,66.9448954 74.2087148,62.7681593 74.5858922,58.64117 L74.641,58.107 L75.187336,65.8885834 L75.2315887,66.541246 L75.2658221,66.9564736 L75.3076907,67.3545933 C75.5026325,68.9763524 75.9823382,70.125743 77.8209657,70.4670907 L78.0417009,70.5032288 C77.9507918,69.9395924 77.7970728,69.2933114 77.6130007,68.5944384 L77.420013,67.8791477 L76.8963466,65.9813544 C76.8612268,65.8512406 76.8263157,65.7206398 76.7917635,65.5896912 L76.5899604,64.8009386 C76.0697166,62.6924043 75.7183016,60.5660609 76.1511925,58.9917949 L76.2417009,58.7032288 L78.3417009,70.7032288 L82.5417009,70.7032288 C82.3590922,69.7901853 82.1152359,68.9383894 81.8545143,68.1052342 L81.3237343,66.4511535 C80.752854,64.6588053 80.2417009,62.8206201 80.2417009,60.5032288 L80.3879837,61.4759192 C80.40626,61.5913483 80.4252286,61.7089868 80.4449079,61.8285932 L80.5716572,62.5679153 C80.5942519,62.6944277 80.6175938,62.8224252 80.6417009,62.9516663 L80.7956732,63.7401047 C81.2860158,66.1386014 82.0361251,68.7835813 83.1522694,70.2669906 L83.3417009,70.5032288 L85.6417009,70.1032288 C85.4675074,69.5032288 85.222138,68.8957366 84.9440204,68.2764019 L84.6564101,67.6529585 L84.049851,66.37852 C83.1342926,64.4364099 82.2698504,62.3485646 82.4940724,59.9975257 L82.541,59.606 L82.6192044,60.2100875 C82.8246913,61.6408145 83.1982167,63.165643 83.645679,64.59637 L83.8417009,65.2032288 C84.1417009,66.2032288 84.4417009,67.2032288 84.8417009,68.0032288 L85.2381928,68.9065397 L85.5253605,69.5775574 L85.5699634,69.6718105 L85.6048965,69.7331298 C85.6310349,69.7720802 85.6510622,69.7826249 85.6748825,69.7795146 L85.7059215,69.7701719 L85.7676268,69.7439695 L85.824408,69.7266361 L85.8981415,69.7160189 C85.9259673,69.7142286 85.9572524,69.7145017 85.9926306,69.7177823 L86.1116785,69.7375904 C86.2221743,69.7631893 86.3622137,69.8134852 86.5417009,69.9032288 C86.6553373,69.7214106 86.7534778,69.6119064 86.8337745,69.5348028 L86.9910247,69.391527 C87.0714154,69.3102348 87.1013178,69.2301446 87.0711149,68.9877705 L87.0370428,68.7730071 L86.9417009,68.3032288 L85.4417009,64.3032288 C84.7828774,62.1385229 84.5669604,60.9482115 84.5438381,58.6480283 L84.5417009,58.2032288 L87.5417009,69.2032288 L87.8647215,69.0886755 L88.1550736,68.9937844 L88.3091343,68.9472548 L88.4357168,68.8996261 L88.6436346,68.8014376 L89.0417009,68.6032288 L89.1323259,68.5438538 L89.3510759,68.4626038 L89.4417009,68.4032288 L91.9417009,67.0032288 C91.9845581,66.9175145 92.0457826,66.8869022 92.109631,66.8720334 L92.2361616,66.8516253 C92.2763948,66.8440451 92.3131295,66.8318002 92.3417009,66.8032288 C92.2005245,66.0620523 92.0344345,65.5201838 91.861017,65.0281423 L91.5096228,64.0662045 C91.3050227,63.4921561 91.1064068,62.8502876 90.9417009,61.9032288 C91.2417009,62.4032288 91.3667009,62.7532288 91.4667009,63.1032288 L91.6167009,63.6469788 C91.6542009,63.7761454 91.6972565,63.9136454 91.7514231,64.0650343 L91.8417009,64.3032288 L93.1417009,66.5032288 C93.3321771,66.4079907 93.4791159,66.3490337 93.5921922,66.3104634 L93.7376193,66.265911 L93.8763948,66.2303425 C93.9417009,66.2116836 93.9580275,66.1941909 93.9580275,66.12422 L93.9459337,65.8984129 L93.9417009,65.7032288 C94.386939,64.9341811 94.225998,64.5255644 94.0490638,64.3115958 L93.9869134,64.2438899 L93.8501544,64.1215624 C93.8393389,64.1096536 93.8366745,64.1013769 93.8454046,64.0958214 L93.8790187,64.0880684 L93.9487844,64.085952 L94.7046855,64.1014579 L95.0417009,64.1032288 L95.1105547,64.418653 L95.1737988,64.6773112 L95.2346386,64.8841454 C95.356051,65.2492844 95.4822719,65.3331311 95.7287032,65.3135969 L95.8624706,65.2960384 L96.4160393,65.1894018 L96.6620031,65.1523425 C96.881554,65.1238899 97.1386706,65.1032288 97.4417009,65.1032288 L97.4526171,63.6020996 C97.4530657,63.443748 97.4526004,63.2882874 97.4505623,63.1357953 L97.445,62.903 L97.7364963,62.8783934 C98.4923231,62.786988 99.1516558,62.4940025 99.8282502,62.1597292 L100.415069,61.8668364 C101.210205,61.4728005 102.070338,61.084655 103.165273,60.9416695 L103.541701,60.9032288 C103.541701,59.3032288 103.441701,58.2032288 102.941701,56.5032288 C102.797701,56.0472288 102.658021,55.6747488 102.527154,55.370064 L102.399391,55.0873952 C102.378642,55.043856 102.358179,55.0020544 102.338024,54.9619176 L102.220946,54.740492 L102.112239,54.5555272 L101.967058,54.3388 L101.846328,54.1844536 L101.669547,53.9881464 C101.662477,53.9767728 101.661541,53.9685888 101.667301,53.9616288 L101.687915,53.9487584 L101.968901,53.8600288 L102.093771,53.8110624 L102.242488,53.7443936 L102.41605,53.656528 L102.615455,53.5439712 C102.686341,53.5019488 102.761701,53.4552288 102.841701,53.4032288 L103.183402,53.5939009 C104.03059,54.0822411 104.386145,54.4476732 104.741701,55.6032288 C104.908368,56.1698954 104.952812,56.5476732 104.971331,56.8587843 L104.995648,57.3496168 C105.024694,57.742231 105.113129,58.141324 105.541701,58.9032288 C105.841701,54.5032288 104.041701,52.2032288 101.741701,50.6032288 Z M58.1417009,66.9032288 L59.5417009,67.8032288 C59.4231824,67.9276732 59.3166035,68.044392 59.2201746,68.1536349 L59.026,68.378 L58.1417009,66.9032288 Z M161.031,67.521 L159.972742,67.6753754 L159.18672,67.7812395 L158.387014,67.8818991 L157.578169,67.9762741 L156.764736,68.0632844 L155.951261,68.1418496 L155.142292,68.2108898 L154.342379,68.2693246 L153.556068,68.3160739 L152.787909,68.3500576 L152.042448,68.3701955 C150.088862,68.4044753 148.425911,68.2795445 147.441701,67.9032288 C149.954201,67.9407288 152.213576,67.9079163 154.378029,67.8364319 L155.986043,67.776062 L157.573293,67.7041565 L159.947679,67.5811577 L161.031,67.521 Z M60.5417009,58.2032288 L60.5269375,58.6380539 L60.5097565,59.4268399 C60.4917009,61.0337843 60.6040466,62.0408831 60.9598079,63.6912946 L61.1417009,64.5032288 L62.3417009,68.1032288 L62.2290603,67.9687069 C60.7635134,66.1299788 59.2742009,60.8357288 60.5417009,58.2032288 Z M62.7417009,58.8032288 C62.8217009,59.2032288 62.8803676,59.6885621 62.9290787,60.2213028 L62.9961009,61.0512288 L63.1194787,62.8106362 C63.1750343,63.5476732 63.2417009,64.2698954 63.3417009,64.9032288 L63.4855967,65.6953412 L63.534,65.952 L63.4857066,65.7406397 C63.4218475,65.4835618 63.3484233,65.2232201 63.2701164,64.9604289 L62.8595706,63.6298315 L62.7017009,63.0912288 C62.3237009,61.7422876 62.0967701,60.3796128 62.6062007,59.1049945 L62.7417009,58.8032288 Z M96.3417009,59.6032288 C97.1542009,60.3532288 97.3807634,61.3766663 97.4364275,62.6247131 L97.445,62.903 L96.3417009,59.6032288 Z M93.6417009,38.5032288 C92.2417009,38.5570749 91.0446595,38.4369566 89.8476181,38.2833835 L88.2925885,38.0785588 C87.7635944,38.0115128 87.218624,37.9493826 86.6417009,37.9032288 L86.4206641,38.0347558 L86.0365168,38.270988 L85.185202,38.8178512 C85.1444432,38.8434429 85.1040225,38.8684804 85.0635642,38.893086 L84.8173583,39.036512 C84.52258,39.2000732 84.1891465,39.3544309 83.6882073,39.5414613 L83.2148039,39.7107513 C83.1280646,39.7406255 83.0371555,39.7714106 82.9417009,39.8032288 L82.308701,40.0337044 L81.9795815,40.1584871 L81.7132997,40.2661907 L81.5000273,40.3619713 L81.3299356,40.4509848 C81.2287507,40.5092171 81.1498007,40.5663753 81.0799809,40.629334 L80.9804609,40.7289815 L80.8848079,40.8424856 L80.5980938,41.2207038 L80.4385758,41.4233086 C80.4088991,41.4600211 80.3775406,41.4982776 80.3442957,41.5381856 L80.1205502,41.7983112 L79.8417009,42.1032288 C78.7417009,43.3032288 75.5417009,45.4032288 73.5417009,46.2032288 C73.1417009,48.3032288 73.1417009,50.8032288 73.8417009,53.0032288 L77.7417009,53.6032288 C77.7025705,53.2510548 77.6532321,52.8971796 77.5990117,52.541825 L77.3118826,50.7537507 C77.0333833,48.9554027 76.8547444,47.1293157 77.4417009,45.3032288 C77.7368229,46.0812775 77.7872095,46.9169111 77.7570127,47.7521935 L77.7335365,48.2074191 L77.6109672,49.7699951 L77.588823,50.1990515 C77.5418199,51.540528 77.7441399,52.7081068 79.0417009,53.4032288 C79.1259114,53.2558603 79.1879613,53.1705418 79.2343821,53.1174145 L79.2931078,53.0581347 L79.3479555,53.0107663 C79.3611207,52.996289 79.370087,52.9789249 79.3776099,52.9460776 L79.3915478,52.8560061 L79.4417009,52.3032288 L79.4180858,52.1100436 L79.2417009,51.0032288 L79.198165,50.6885604 L79.1085787,50.097489 L78.8570936,48.5752951 L78.7928717,48.1311624 C78.6326448,46.9060349 78.6738438,45.938943 79.3417009,44.6032288 L79.3500202,44.9834781 L79.3565724,45.7286993 L79.3451328,47.83683 C79.3432467,50.0689838 79.4692871,51.9239184 80.6417009,53.3032288 C80.944691,52.8866175 81.1329273,52.9720536 81.2335734,53.0597295 L81.2996166,53.1243087 C81.3113719,53.1349111 81.3190859,53.138293 81.3230684,53.1287503 L81.3262823,53.1040296 L81.3211172,53.0212394 L81.211591,52.0287816 L81.1202818,51.0889741 L81.0565913,50.5256237 L81.0151703,50.2078935 L80.8238343,48.9693542 L80.7887153,48.6876365 L80.770877,48.4909299 L80.7536151,48.1658448 L80.7490989,47.9193731 L80.7507051,47.6413172 L80.7588872,47.3250042 L80.7844825,46.7642049 L80.8458581,45.8202896 L80.9417009,44.6032288 C81.2652303,45.6385229 81.3375487,46.0876578 81.3482957,46.7633753 L81.3491913,47.1593045 L81.3278343,50.213977 L81.3331715,50.5134097 C81.3528519,51.1197942 81.4309628,51.4691983 81.6781247,51.922983 L81.8046058,52.1411496 L81.9575111,52.3820344 L82.2417009,52.8032288 C82.7339524,52.0080533 82.839079,51.2558918 82.8122502,50.3512951 L82.7934172,49.9537082 L82.7251322,49.0888621 L82.6647024,48.3658022 L82.6283964,47.8419111 L82.6004825,47.2805504 C82.5671375,46.4086976 82.5771803,45.3988458 82.698402,44.19907 L82.741,43.807 L83.6417009,52.5032288 C83.8689736,52.3214106 84.0445935,52.2945511 84.1791258,52.3216923 L84.2549992,52.3436495 C84.2668512,52.3481198 84.2783134,52.3529282 84.2893965,52.3579738 L84.3791915,52.4070605 L84.4700255,52.4641604 L84.5042009,52.4782288 C84.5297691,52.4839106 84.548235,52.4728052 84.5609193,52.4322929 L84.5734498,52.3687551 L84.5809372,52.2721408 L84.5838215,52.0545999 L84.5404268,50.4277172 L84.5306642,50.2829123 L84.5122381,50.1437824 L84.4862957,50.0071882 L84.3960836,49.6561939 L84.2839865,49.2523741 L84.2136795,48.9643202 L84.1679275,48.7466765 L84.1244094,48.504884 C84.1174062,48.4623984 84.1105439,48.4187758 84.1038464,48.3739508 L84.0658296,48.0900488 L84.0329143,47.7741496 L84.0062474,47.4231138 L83.9869762,47.0338022 L83.9762476,46.6030753 C83.9752351,46.5276618 83.9746263,46.4503919 83.9744452,46.3712001 L83.9786813,45.8724642 L83.9943277,45.3244646 C83.9979501,45.2288517 84.0020956,45.1310552 84.0067883,45.03101 L84.0417009,44.4032288 L85.0417009,52.2032288 C85.1597337,52.1048681 85.2709941,52.0452067 85.3747209,52.0117784 L85.4759082,51.9866327 C85.4923448,51.9837452 85.5085651,51.981471 85.5245656,51.9797523 L85.617902,51.9756454 C85.633009,51.9759181 85.6478891,51.9766309 85.6625388,51.9777262 L85.7476437,51.9884249 L85.8270495,52.0055312 L86.0842974,52.0826266 L86.1326698,52.0902167 C86.1927277,52.094143 86.234881,52.0708318 86.2573251,51.9907334 L86.2704346,51.9195504 C86.2719942,51.905758 86.2732388,51.890963 86.2741649,51.8751075 L86.2758707,51.7667874 L86.2697627,51.6302464 L86.2455797,51.3664609 L86.2191968,51.1472479 L86.1160935,50.4272691 L85.7417009,48.1032288 C85.5167009,46.8282288 85.5167009,45.8907288 85.5729509,44.7844788 L85.641,43.605 L86.7417009,51.7032288 C87.3267009,51.0532288 87.6159509,51.1109163 87.7261665,51.1965944 L87.748,51.216 L87.7051275,51.103233 L87.6636641,50.9639626 L87.615775,50.7698954 L87.5627659,50.5134282 L87.5059425,50.1869578 L87.4466102,49.782881 L87.3658545,49.1102496 L87.3057457,48.4955232 L87.2474801,47.7778464 L87.1923633,46.949616 L87.1417009,46.0032288 C87.5652303,46.7561699 87.6565798,47.3319485 87.686704,47.8973057 L87.7090528,48.5377291 C87.725784,48.973471 87.7652303,49.4385229 87.9417009,50.0032288 L88.0637445,50.3017836 L88.1540355,50.5065465 C88.2187618,50.6443442 88.2605896,50.7078492 88.3049617,50.7555797 L88.4711534,50.909966 L88.5760995,51.0238679 C88.5963722,51.0475194 88.6181715,51.073817 88.6417009,51.1032288 C88.7434866,50.9759966 88.7546194,50.6350826 88.711349,50.1612246 L88.67484,49.8265098 L88.6245984,49.4577202 L88.5630109,49.0601719 L88.334041,47.7481354 L88.0929567,46.3926142 C87.9977373,45.8331546 87.9143633,45.2921865 87.8627275,44.8140167 L87.8417009,44.6032288 L88.0267589,44.830302 L88.3540892,45.2167869 L88.4169483,45.2997457 C88.4263616,45.313224 88.4353373,45.3267068 88.4440163,45.3404618 L88.4936573,45.4284008 L88.5429422,45.5357264 L88.6310001,45.7611813 L88.9417009,46.6032288 C88.9594787,46.6387843 88.9772565,46.6901423 88.9950343,46.752246 L89.0483676,46.9657374 L89.1667009,47.5172913 L89.2167009,47.7204163 C89.2250343,47.750451 89.2333676,47.7782288 89.2417009,47.8032288 L89.3566046,48.2753473 L89.6065306,49.2036436 L89.6953009,49.5600288 C89.7817009,49.9312288 89.8617009,50.3632288 89.9417009,51.0032288 L102.241701,46.8032288 C102.241701,46.7698954 102.247256,46.7087843 102.256979,46.6291547 L102.297256,46.3439695 L102.354201,46.0032288 L102.419479,45.662488 C102.452812,45.5013769 102.486145,45.3610991 102.514791,45.2729047 L102.557813,45.167929 L102.863567,44.5175145 L103.031169,44.1846063 C103.080476,44.0920043 103.120272,44.0246573 103.141701,44.0032288 C103.78059,41.9587843 102.990852,40.5674263 101.972081,39.411905 L101.701908,39.1155401 L101.426076,38.8282288 L100.611956,38.0041547 L100.360815,37.7365964 C100.320327,37.6921176 100.28059,37.6476732 100.241701,37.6032288 C98.9972565,37.5587843 98.0886145,37.7118707 97.2260631,37.9044633 L96.2598594,38.1294633 C95.4997256,38.3044633 94.6917009,38.4643399 93.6417009,38.5032288 Z M61.3417009,29.0032288 C56.0404814,24.5471312 51.8017545,25.2854417 47.8999154,29.0866966 L47.529307,29.4579133 C47.467701,29.5213034 47.406174,29.5854483 47.3447232,29.6503392 L46.9769093,30.0485705 L46.6107844,30.4643001 C46.5498965,30.5350239 46.4890733,30.6064596 46.4283117,30.6785989 L46.0644589,31.1198088 L45.7019467,31.577494 L45.3406359,32.0512455 L44.9803872,32.540654 L44.6210613,33.0453105 C44.5612429,33.1306678 44.501457,33.2166434 44.4417009,33.3032288 C41.8417009,36.9032288 41.1417009,39.5032288 42.9417009,44.8032288 C43.6828774,47.0267582 46.5942961,48.639907 49.5535878,49.8660824 L50.187681,50.1229927 C50.2932275,50.164851 50.3986417,50.2062361 50.5038269,50.2471581 L51.131417,50.4872151 C51.2352995,50.5263256 51.3387597,50.5649935 51.4417009,50.6032288 C51.2967734,49.646707 51.0762315,48.7573981 50.8385211,47.8792912 L50.4763849,46.5635312 C50.0078635,44.8457618 49.5851792,43.0640983 49.6417009,40.8032288 L49.7466045,41.070603 L49.8328532,41.3136128 L49.9024351,41.5361415 L49.9573381,41.7420728 L49.9995503,41.9352901 L50.0310597,42.1196769 L50.0626048,42.3881955 L50.0812509,42.6586905 L50.1189381,43.4893503 L50.1476919,43.8792293 L50.1766758,44.1734184 L50.2158309,44.4995542 L50.2979832,45.0571532 L50.3712637,45.4801462 L50.4616734,45.9486782 C50.4782795,46.0307776 50.4956822,46.1149362 50.5139229,46.201235 L50.6337537,46.7453572 L50.7756838,47.3447273 L50.9417009,48.0032288 C51.0680167,48.0242814 51.1278505,48.111816 51.1557263,48.2145132 L51.1711804,48.2935772 L51.1790825,48.4495183 L51.177887,48.5704689 L51.1819692,48.6057947 C51.1868095,48.6221528 51.1966069,48.6230567 51.2156767,48.6020916 L51.2760518,48.5153096 L51.4241127,48.2567223 L51.9417009,47.3032288 L52.4417009,50.1032288 C52.5250343,50.1365621 52.5944787,50.1671176 52.6560528,50.1958214 L52.9792009,50.3532288 L53.1602194,50.4291547 C53.2629972,50.4680436 53.3886917,50.5090158 53.5576153,50.5551964 L53.7417009,50.6032288 L59.6417009,50.6032288 L59.4417009,47.6032288 L59.2210362,47.625074 L59.050951,47.630544 C59.0265205,47.6302469 59.0039741,47.6293843 58.9832,47.6280148 L58.941,47.623 L58.9316274,47.6412939 C58.8896248,47.7079584 58.8273812,47.7911177 58.7390055,47.8938534 L58.6417009,48.0032288 L58.0417009,49.2032288 L58.0290023,49.0218321 L58.0215522,48.8556562 L58.0167993,48.5633687 L58.0162453,48.3151693 C58.0118715,47.8553938 57.9655091,47.5929649 57.4740672,47.1247917 L57.3417009,47.0032288 L55.9417009,46.4032288 C54.9131295,45.9318002 54.4172111,45.588943 54.0918467,45.2880684 L53.9417009,45.1407288 L53.7477778,44.9275773 L53.5612344,44.7166398 L53.4242082,44.573236 C53.3023059,44.4519715 53.1576266,44.3254682 52.9639768,44.1874625 L52.8417009,44.1032288 L53.1417009,48.5032288 C52.4417009,47.0643399 52.3315157,46.154772 52.3347565,45.4510511 L52.3417009,45.1611163 L52.3639231,44.6342301 C52.377812,44.0056293 52.2875343,43.454189 51.5071523,42.5820503 L51.3417009,42.4032288 L51.6417009,46.4032288 C50.1417009,43.5032288 50.6417009,37.9032288 52.9417009,35.3032288 C53.7750343,34.4032288 54.8417009,33.7698954 55.9417009,33.2032288 L56.5438046,32.8995473 L57.4435792,32.4530409 C59.1265494,31.6070855 60.672004,30.7032288 61.3417009,29.0032288 Z M53.8417009,36.2032288 C51.6141499,38.3552696 51.7528421,39.6235328 52.976911,40.304017 L53.1847202,40.4092604 C53.2931795,40.4593527 53.408319,40.5056861 53.529456,40.5484183 L53.7795244,40.6291278 L54.0443724,40.7005148 L54.3227862,40.7628595 L54.6135519,40.8164426 C54.6629748,40.8246586 54.7128617,40.8325212 54.7631875,40.8400362 L55.0702054,40.8810028 L55.3865409,40.9139089 L55.7109801,40.9390352 L56.0423093,40.956662 L56.3793147,40.9670698 L56.7207826,40.9705393 L57.065499,40.9673507 L57.5860098,40.9506979 L57.9335377,40.9320917 L58.4525759,40.8936272 L58.7953289,40.8613564 L59.1340479,40.8241107 L59.467519,40.7821705 L59.955231,40.7110716 L60.4243079,40.6309879 L60.72465,40.5730748 L61.153565,40.4801202 L61.4233395,40.414503 L61.6787629,40.346295 L61.9186213,40.2757768 L62.1417009,40.2032288 L61.935,39.544 L62.2441898,39.9670214 C62.2759231,40.0112288 62.3083676,40.0565621 62.3417009,40.1032288 L63.0742453,39.7989047 L63.7215826,39.5218906 C64.6428844,39.1192051 65.3724702,38.7570749 66.3417009,38.2032288 L66.1807788,37.757197 L66.111,37.573 L66.5417009,38.0032288 L67.9417009,36.0032288 C65.9417009,31.1032288 57.5417009,32.6032288 53.8417009,36.2032288 Z M66.111,37.573 L64.695,36.157 L64.7162285,36.1717095 C64.8311645,36.2438222 64.9261273,36.2754486 65.0083298,36.2882279 L65.1013096,36.2959013 L65.2983433,36.2904581 C65.4438114,36.2962669 65.5739471,36.3680155 65.7884642,36.804845 L65.9032162,37.0550681 L66.0348016,37.3744475 L66.111,37.573 Z M74.2872428,8.42970338 L74.187,8.391 L74.278738,8.42174728 C74.8861454,8.62545098 75.5750343,8.86989543 76.2417009,9.30322876 C75.6926813,9.15682353 75.3981963,9.03721141 75.1866298,8.92477915 L75.021591,8.82970952 L74.797647,8.68769476 L74.6290701,8.58940867 C74.535922,8.5389719 74.4264827,8.48625143 74.2872428,8.42970338 Z" fill="#5F6568" fill-rule="evenodd"/></svg>