<svg xmlns="http://www.w3.org/2000/svg" viewBox="0 0 24 24"><path d="M12.1718507,22.3437015 C14.0038778,22.3437015 15.6991861,21.8856946 17.2577761,20.9696813 C18.8163662,20.0536681 20.0536681,18.8163662 20.9696813,17.2577761 C21.8856946,15.6991861 22.3437015,14.0038778 22.3437015,12.1718507 C22.3437015,10.3398237 21.8856946,8.64451541 20.9696813,7.08592537 C20.0536681,5.52733534 18.8163662,4.29003339 17.2577761,3.37402016 C15.6991861,2.45800693 14.0038778,2 12.1718507,2 C10.3398237,2 8.64451541,2.45800693 7.08592537,3.37402016 C5.52733534,4.29003339 4.29003339,5.52733534 3.37402016,7.08592537 C2.45800693,8.64451541 2,10.3398237 2,12.1718507 C2,14.0038778 2.45800693,15.6991861 3.37402016,17.2577761 C4.29003339,18.8163662 5.52733534,20.0536681 7.08592537,20.9696813 C8.64451541,21.8856946 10.3398237,22.3437015 12.1718507,22.3437015 Z M14.755829,8.56248435 L9.58787253,8.56248435 C9.86130959,7.19530032 10.2714649,6.06053719 10.8183384,5.1581956 C11.3105247,4.36522894 11.7616955,3.96874531 12.1718507,3.96874531 C12.582006,3.96874531 13.0331768,4.36522894 13.5253631,5.1581956 C14.0722366,6.06053719 14.4823919,7.19530032 14.755829,8.56248435 L14.755829,8.56248435 Z M19.5136301,8.56248435 L16.7655898,8.56248435 C16.4921527,7.05858148 16.0683258,5.75975687 15.4941085,4.66600927 C16.3691062,5.07616454 17.1552373,5.60936639 17.8525013,6.26561483 C18.5497652,6.92186327 19.1034748,7.68748665 19.5136301,8.56248435 L19.5136301,8.56248435 Z M7.5781117,8.56248435 L4.83007138,8.56248435 C5.24022665,7.68748665 5.79393627,6.92186327 6.49120023,6.26561483 C7.18846419,5.60936639 7.97459534,5.07616454 8.84959304,4.66600927 C8.27537566,5.75975687 7.85154876,7.05858148 7.5781117,8.56248435 L7.5781117,8.56248435 Z M7.33201854,13.8124718 L4.13280741,13.8124718 C4.02343247,13.2655983 3.96874531,12.7187242 3.96874531,12.1718507 C3.96874531,11.6249773 4.02343247,11.0781031 4.13280741,10.5312297 L4.13280741,10.5312297 L7.33201854,10.5312297 C7.27733138,11.1327909 7.24998748,11.6796644 7.24998748,12.1718507 C7.24998748,12.6640371 7.27733138,13.2109106 7.33201854,13.8124718 L7.33201854,13.8124718 Z M15.0429377,13.8124718 L9.30076384,13.8124718 C9.24607668,13.2109106 9.21873279,12.6640371 9.21873279,12.1718507 C9.21873279,11.6796644 9.24607668,11.1327909 9.30076384,10.5312297 L9.30076384,10.5312297 L15.0429377,10.5312297 C15.0976248,11.1327909 15.1249687,11.6728283 15.1249687,12.151343 C15.1249687,12.6298577 15.0976248,13.1835673 15.0429377,13.8124718 L15.0429377,13.8124718 Z M20.2108941,13.8124718 L17.011683,13.8124718 C17.0663701,13.2109106 17.093714,12.6640371 17.093714,12.1718507 C17.093714,11.6796644 17.0663701,11.1327909 17.011683,10.5312297 L17.011683,10.5312297 L20.2108941,10.5312297 C20.320269,11.0781031 20.3749562,11.6249773 20.3749562,12.1718507 C20.3749562,12.7187242 20.320269,13.2655983 20.2108941,13.8124718 L20.2108941,13.8124718 Z M8.84959304,19.6776922 C7.97459534,19.267537 7.18846419,18.7343351 6.49120023,18.0780867 C5.79393627,17.4218382 5.24022665,16.6562148 4.83007138,15.7812171 L4.83007138,15.7812171 L7.5781117,15.7812171 C7.85154876,17.28512 8.27537566,18.5839446 8.84959304,19.6776922 Z M12.1718507,20.3749562 C11.7616955,20.3749562 11.3105247,19.9784726 10.8183384,19.1855059 C10.2714649,18.2831643 9.86130959,17.1484012 9.58787253,15.7812171 L9.58787253,15.7812171 L14.755829,15.7812171 C14.4823919,17.1484012 14.0722366,18.2831643 13.5253631,19.1855059 C13.0331768,19.9784726 12.582006,20.3749562 12.1718507,20.3749562 Z M15.4941085,19.6776922 C16.0683258,18.5839446 16.4921527,17.28512 16.7655898,15.7812171 L16.7655898,15.7812171 L19.5136301,15.7812171 C19.1034748,16.6562148 18.5497652,17.4218382 17.8525013,18.0780867 C17.1552373,18.7343351 16.3691062,19.267537 15.4941085,19.6776922 Z"/></svg>