<svg xmlns="http://www.w3.org/2000/svg" viewBox="0 0 24 24"><path d="M14.9403988,21.7284686 C15.0634454,21.8378433 15.2343437,21.8651868 15.4530929,21.8104996 C17.5038693,21.1269073 19.1649981,19.889606 20.4364795,18.0985944 C21.7079608,16.3075829 22.3437015,14.2773143 22.3437015,12.0077886 C22.3437015,10.1484183 21.8788591,8.43943777 20.9491736,6.88084774 C20.046832,5.37694487 18.8026945,4.18749458 17.2167606,3.31249687 C15.6308267,2.43749917 13.9081745,2 12.0488042,2 C10.1620899,2 8.45310941,2.43749917 6.92186327,3.31249687 C5.39061712,4.18749458 4.18749458,5.39061712 3.31249687,6.92186327 C2.43749917,8.45310941 2,10.1484183 2,12.0077886 C2,14.2773143 2.6425768,16.3075829 3.92772978,18.0985944 C5.21288276,19.889606 6.89451937,21.1269073 8.97263963,21.8104996 C9.1913889,21.8651868 9.36228713,21.8378433 9.48533372,21.7284686 C9.6083803,21.6190936 9.66990359,21.4823754 9.66990359,21.3183133 L9.66990359,21.3183133 L9.62888806,18.8163662 L9.17771726,18.8573817 C8.82224915,18.9120688 8.4804533,18.9257411 8.15232908,18.8983972 C7.68748665,18.84371 7.29100301,18.7206635 6.96287879,18.5292575 C6.58006741,18.3105082 6.32030199,17.9960556 6.18358378,17.5859003 L6.18358378,17.5859003 L6.01952167,17.2577761 C5.91014672,17.011683 5.7734285,16.7929337 5.60936639,16.6015277 C5.41796039,16.3554345 5.22655502,16.1777008 5.03514901,16.0683258 L5.03514901,16.0683258 L4.83007138,15.9042637 C4.69335316,15.7948888 4.63182987,15.69235 4.64550151,15.5966473 C4.65917314,15.5009446 4.81639974,15.4530929 5.11718007,15.4530929 L5.11718007,15.4530929 L5.40428876,15.4941085 C5.62303803,15.5761395 5.82811566,15.6718422 6.01952167,15.7812171 C6.29295872,15.9726231 6.51170799,16.2187163 6.6757701,16.5194966 C7.05858148,17.203089 7.60545559,17.5722287 8.31639119,17.6269159 C8.75389036,17.681603 9.20506116,17.599572 9.66990359,17.3808227 C9.75193464,16.7792614 9.97068391,16.314419 10.326152,15.9862948 C9.34177937,15.8769198 8.60349988,15.7402016 8.11131355,15.5761395 C7.34569017,15.3027025 6.77147279,14.8788755 6.38866141,14.3046582 C5.95116225,13.6210658 5.73241298,12.6640371 5.73241298,11.4335713 C5.73241298,10.914041 5.8076079,10.483378 5.95799838,10.1415822 C6.10838885,9.7997863 6.34764588,9.42381043 6.6757701,9.01365515 C6.56639515,8.76756199 6.51170799,8.45310941 6.51170799,8.07029803 C6.45702083,7.46873675 6.55272352,6.8671761 6.79881668,6.26561483 C7.04490985,6.18358378 7.41404959,6.23827094 7.90623592,6.42967694 C8.26170403,6.56639515 8.65818704,6.75780116 9.09568621,7.00389432 L9.09568621,7.00389432 L9.62888806,7.37303406 C10.4491986,7.1269409 11.3036885,7.00389432 12.1923585,7.00389432 C13.0810285,7.00389432 13.9491901,7.1269409 14.7968445,7.37303406 L14.7968445,7.37303406 L15.3300463,7.00389432 C15.7675455,6.75780116 16.1503569,6.56639515 16.4784811,6.42967694 C16.9706674,6.23827094 17.3534788,6.18358378 17.6269159,6.26561483 C17.8456651,6.8671761 17.9413685,7.46873675 17.9140246,8.07029803 C17.8866807,8.45310941 17.8183219,8.78123362 17.7089469,9.05467068 C18.0917583,9.46482595 18.3515237,9.8066218 18.4882419,10.0800589 C18.6796479,10.4628702 18.7753506,10.914041 18.7753506,11.4335713 C18.7753506,12.6640371 18.5429291,13.6347381 18.0780867,14.3456737 C17.6679314,14.8925472 17.0800424,15.3027025 16.314419,15.5761395 C15.8222327,15.7402016 15.0702815,15.8769198 14.058565,15.9862948 C14.5234074,16.3691062 14.755829,16.9980113 14.755829,17.873009 L14.755829,17.873009 L14.755829,21.3183133 C14.755829,21.4823754 14.8173523,21.6190936 14.9403988,21.7284686 Z M6.92186327,17.5448848 C7.03123821,17.6542598 7.1269409,17.6679314 7.20897196,17.5859003 C7.23631585,17.5585564 7.24315135,17.5175409 7.22947972,17.4628538 C7.21580809,17.4081666 7.18846419,17.3603149 7.14744866,17.3192994 C7.10643314,17.2782839 7.05858148,17.25094 7.00389432,17.2372684 C6.94920716,17.2235967 6.90819163,17.2304322 6.88084774,17.2577761 C6.85350384,17.28512 6.83983221,17.3261355 6.83983221,17.3808227 C6.83983221,17.4355099 6.8671761,17.4901977 6.92186327,17.5448848 Z M7.81053307,18.0142849 L7.86522039,17.9960556 C7.91990755,17.9687117 7.95408758,17.9208607 7.96775921,17.8525013 C7.98143084,17.7841418 7.91990755,17.7294547 7.78318934,17.6884392 C7.64647112,17.6474236 7.56444007,17.681603 7.53709617,17.790978 C7.50975228,17.8183219 7.51658841,17.8525013 7.55760394,17.8935168 C7.59861946,17.9345323 7.64647112,17.9687117 7.70115828,17.9960556 C7.75584544,18.0233995 7.81053323,18.0233995 7.86522039,17.9960556 L7.81053307,18.0142849 Z M9.3827949,18.0370711 C9.51951311,17.982384 9.5810364,17.9140246 9.56736477,17.8319935 C9.55369314,17.7499624 9.47849759,17.7089469 9.34177937,17.7089469 C9.20506116,17.7362908 9.14353786,17.790978 9.1572095,17.873009 C9.17088113,17.9550401 9.19822503,18.0028917 9.23924055,18.0165634 C9.28025608,18.030235 9.32810774,18.0370711 9.3827949,18.0370711 Z M8.51406317,18.1413189 L8.58299212,18.13961 C8.73338259,18.1259383 8.80857752,18.064415 8.80857752,17.9550401 C8.80857752,17.9276962 8.78806975,17.9003529 8.74705423,17.873009 C8.7060387,17.8456651 8.64451541,17.8319935 8.56248435,17.8319935 C8.42576614,17.8319935 8.35740672,17.8866807 8.35740672,17.9960556 C8.35740672,18.1054306 8.43260164,18.1532816 8.58299212,18.13961 L8.51406317,18.1413189 Z"/></svg>