<svg xmlns="http://www.w3.org/2000/svg" viewBox="0 0 24 24"><path fill="#0088cc" d="M11.3124826,14.625008 C11.4583157,14.7083413 11.6041484,14.6875079 11.7499815,14.5625082 L11.7499815,14.5625082 L11.8749812,14.4375085 C12.1458141,14.1666756 12.3020637,13.8437599 12.3437301,13.4687608 C12.3645635,13.3020947 12.2916467,13.177095 12.1249806,13.0937617 C11.8541478,12.968762 11.6145653,12.8020959 11.4062323,12.5937629 C10.9062335,12.0729306 10.6562341,11.4479321 10.6562341,10.7187674 C10.6562341,9.98960259 10.9062335,9.37502056 11.4062323,8.87502176 L11.4062323,8.87502176 L13.7812267,6.53127734 C14.2812255,6.01044509 14.8958075,5.75002921 15.6249723,5.75002921 C16.3541371,5.75002921 16.9739276,6.00523709 17.4843429,6.51565238 C17.9947581,7.02606767 18.249966,7.64585818 18.249966,8.37502295 C18.249966,9.10418772 17.9895501,9.71876974 17.4687179,10.2187686 L17.4687179,10.2187686 L16.0624712,11.6562651 C15.958305,11.7604314 15.9166381,11.8750146 15.9374715,12.0000143 C16.0416378,12.3958469 16.0937212,12.7916789 16.0937212,13.1875115 C16.0937212,13.3541776 16.171846,13.4687608 16.3280956,13.5312607 C16.4843452,13.5937605 16.6249699,13.5625106 16.7499696,13.4375109 L16.7499696,13.4375109 L18.7187149,11.4687656 C19.2812136,10.9062669 19.6614212,10.2500185 19.8593372,9.50002027 C20.0572532,8.75002205 20.0572532,8.00002384 19.8593372,7.25002563 C19.6614212,6.50002742 19.2812136,5.84377898 18.7187149,5.28128032 C18.1562162,4.71878166 17.4999678,4.33857408 16.7499696,4.14065804 C15.9999714,3.94274201 15.2499732,3.94274201 14.499975,4.14065804 C13.7499768,4.33857408 13.0937283,4.71878166 12.5312297,5.28128032 L12.5312297,5.28128032 L11.2187328,6.59377719 C10.4270682,7.38544181 9.97915225,7.84377421 9.87498599,7.96877392 C9.41665359,8.53127258 9.1197793,9.16668757 8.98436312,9.87501937 C8.84894693,10.5833512 8.88540486,11.2864745 9.09373786,11.9843893 C9.30207085,12.6823042 9.666653,13.2916777 10.1874852,13.81251 C10.5208179,14.1458427 10.8958171,14.4166751 11.3124826,14.625008 Z M7.24999225,19.8593706 C7.99999046,20.0572866 8.74998868,20.0572866 9.49998689,19.8593706 C10.2499851,19.6614545 10.9062335,19.2812469 11.4687322,18.7187483 L11.4687322,18.7187483 L12.7812291,17.4062514 C13.5728937,16.6145868 14.0208096,16.1562544 14.1249759,16.0312547 C14.5833083,15.468756 14.8801826,14.833341 15.0155987,14.1250092 C15.1510149,13.4166774 15.114557,12.7135541 14.906224,12.0156393 C14.697891,11.3177244 14.3333089,10.7083509 13.8124766,10.1875186 C13.4791439,9.85418593 13.1041448,9.58335356 12.6874793,9.37502056 C12.5416461,9.29168727 12.3958135,9.31252071 12.2499803,9.43752041 L12.2499803,9.43752041 L12.1249806,9.56252012 C11.8541478,9.83335296 11.6978982,10.1562687 11.6562317,10.5312678 C11.6353983,10.6979339 11.7083151,10.8229336 11.8749812,10.9062669 C12.1458141,11.0312666 12.3853965,11.1979327 12.5937295,11.4062657 C13.0937283,11.927098 13.3437277,12.5520965 13.3437277,13.2812613 C13.3437277,14.010426 13.0937283,14.625008 12.5937295,15.1250069 L12.5937295,15.1250069 L10.2187352,17.4687513 C9.71873637,17.9895835 9.10415434,18.2499994 8.37498957,18.2499994 C7.6458248,18.2499994 7.02603429,17.9947915 6.515619,17.4843762 C6.00520371,16.9739609 5.74999583,16.3541704 5.74999583,15.6250057 C5.74999583,14.8958409 6.01041171,14.2812589 6.53124397,13.7812601 L6.53124397,13.7812601 L7.93749061,12.3437635 C8.04165687,12.2395972 8.08332376,12.125014 8.06249031,12.0000143 C7.95832405,11.6041818 7.90624069,11.2083497 7.90624069,10.8125171 C7.90624069,10.645851 7.82811587,10.5312678 7.67186625,10.468768 C7.51561662,10.4062681 7.37499195,10.437518 7.24999225,10.5625177 L7.24999225,10.5625177 L5.28124695,12.531263 C4.71874829,13.0937617 4.3385407,13.7500101 4.14062466,14.5000083 C3.94270863,15.2500066 3.94270863,16.0000048 4.14062466,16.750003 C4.3385407,17.5000012 4.71874829,18.1562496 5.28124695,18.7187483 C5.8437456,19.2812469 6.49999404,19.6614545 7.24999225,19.8593706 Z"/></svg>
