<svg xmlns="http://www.w3.org/2000/svg" viewBox="0 0 24 24"><path d="M9.2890625,20 C11.6848956,20 13.8072919,19.3974357 15.65625,18.1923077 C17.3489581,17.1153846 18.6640625,15.6666665 19.6015625,13.8461538 C20.5130206,12.1282049 20.96875,10.3461538 20.96875,8.5 C20.96875,8.26923077 20.9557294,8.1025643 20.9296875,8 C21.7369794,7.41025661 22.4270831,6.70512801 23,5.88461538 C22.21875,6.21794891 21.4375,6.43589724 20.65625,6.53846154 C21.5416669,6 22.140625,5.25641045 22.453125,4.30769231 C21.6458331,4.76923077 20.7734375,5.08974339 19.8359375,5.26923077 C19.4453125,4.88461538 18.9960938,4.57692308 18.4882812,4.34615385 C17.9804688,4.11538462 17.4270831,4 16.828125,4 C16.0989581,4 15.421875,4.17948738 14.796875,4.53846154 C14.171875,4.8974357 13.6770831,5.39102584 13.3125,6.01923077 C12.9479169,6.6474357 12.765625,7.32051262 12.765625,8.03846154 C12.765625,8.34615385 12.7916669,8.65384615 12.84375,8.96153846 C11.1770831,8.88461538 9.60807312,8.47435878 8.13671875,7.73076923 C6.66536438,6.98717968 5.421875,5.98717968 4.40625,4.73076923 C4.015625,5.37179507 3.8203125,6.04487199 3.8203125,6.75 C3.8203125,7.45512801 3.98958313,8.1025643 4.328125,8.69230769 C4.66666687,9.28205109 5.109375,9.76923077 5.65625,10.1538462 C5.00520813,10.1282049 4.39322937,9.94871814 3.8203125,9.61538462 L3.8203125,9.69230769 C3.8203125,10.6410258 4.1328125,11.4871797 4.7578125,12.2307692 C5.3828125,12.9743588 6.1640625,13.4487181 7.1015625,13.6538462 C6.73697937,13.7307692 6.37239563,13.7692308 6.0078125,13.7692308 C5.7734375,13.7692308 5.52604187,13.7564105 5.265625,13.7307692 C5.52604187,14.5256412 6.00130188,15.1858972 6.69140625,15.7115385 C7.38151062,16.2371797 8.18229187,16.5 9.09375,16.5 C7.58333313,17.6538462 5.87760437,18.2307692 3.9765625,18.2307692 C3.61197937,18.2307692 3.28645813,18.2179489 3,18.1923077 C4.90104187,19.3974357 6.99739563,20 9.2890625,20 Z"/></svg>