<svg xmlns="http://www.w3.org/2000/svg" width="1120" height="1920" viewBox="0 0 1120 1920"><g fill="none" fill-rule="evenodd"><path fill="#FFF" d="M793.42721,0 C769.50421,93.6493139 673.976263,164 560.218456,164 C446.495435,164 350.91393,93.6245346 327,0 L793.42721,0 Z"/><g fill="#878B8D" opacity=".4" transform="translate(8 4)"><path d="M20,1843.13876 L784.089317,-2.27373675e-13 L786,-2.27373675e-13 L21.5523304,1844 L20,1843.13876 L20,1843.13876 Z M43,1867.93146 C43.4789751,1868.28584 43.9554535,1868.64222 44.4260395,1869 L1052,856 L1049.51115,856 L43,1867.93146 L43,1867.93146 Z M1050,855 L1112,793 L1112,795.488799 L1052.49024,855 L1050,855 L1050,855 Z M63,1892.32741 C63.2040564,1892.8891 63.3930235,1893.4462 63.5732967,1894 L1112,1461.90812 L1112,1460 L63,1892.32741 Z"/><path d="M0,201 L1112,201 L1112,203 L0,203 L0,201 L0,201 Z M0,634 L1112,634 L1112,636 L0,636 L0,634 L0,634 Z M1,1068 L1112,1068 L1112,1070 L1,1070 L1,1068 L1,1068 Z M0,1501 L1112,1501 L1112,1503 L0,1503 L0,1501 Z"/><path d="M364,73 L364,1912 L362,1912 L362,73 L364,73 L364,73 Z M739,81 L739,1912 L737,1912 L737,81 L739,81 Z"/></g><path fill="#878B8D" d="M252,1913.74767 C252,1905.40628 251.564771,1897.19575 250.762824,1889.05233 C248.018127,1862.21161 243.502754,1844.6172 232.964487,1819.753 C229.885628,1812.51483 226.473408,1805.47723 222.759982,1798.6397 C219.049453,1791.80347 214.966912,1785.16921 210.616822,1778.73444 C166.625467,1713.82673 110.456298,1681.52358 35.4847095,1673.94878 C27.0390956,1673.10007 17.2724159,1672.83217 7,1673.09937 L7,1676.68399 L7,1680.14367 L7,1681.62632 C14.4722915,1681.68094 25.1473788,1681.96065 25.1473788,1683.1977 C25.1473788,1685.00797 24.1104399,1715.66761 23.6410561,1717.47788 C23.142111,1719.29035 23.776678,1720.29362 22.3365684,1720.93046 C22.237099,1720.97297 22.0531404,1721.00839 21.799773,1721.0343 C18.2797935,1720.86173 14.696597,1720.7638 11.0293109,1720.7638 C10.4442789,1720.7638 9.8637409,1720.7683 9.28579954,1720.7767 L7,1720.65996 L7,1720.81081 L7,1725.17203 L7,1728.01358 C8.33754427,1727.99357 9.67029483,1727.96766 11.0294108,1727.96766 C144.913168,1727.96766 185.191496,1844.75205 185.191496,1844.75205 C185.191496,1844.75205 176.381361,1813.18127 149.726849,1781.90381 C150.135113,1781.23936 150.287313,1780.31782 150.889922,1779.76632 C157.380103,1774.38193 165.802048,1766.4836 173.358329,1759.68359 C205.86436,1795.11079 225.826057,1842.447 230.344726,1893.45636 C227.025383,1893.5484 223.60737,1893.65013 220.235895,1893.73266 C220.121445,1893.20327 220.002502,1892.58754 219.884656,1891.86818 C218.746151,1885.03055 217.475718,1877.89301 216.072161,1879.73749 C215.568622,1880.40474 215.06718,1885.33336 215.701847,1891.3967 C215.804213,1892.39617 215.88241,1893.19156 215.929448,1893.8259 C214.473859,1893.85211 213.039442,1893.87342 211.635884,1893.88512 C211.520236,1891.28076 210.276868,1886.2582 209.781618,1882.38177 C208.877804,1875.51343 208.410917,1869.07975 207.272412,1870.92293 C206.871738,1871.59448 206.436409,1876.52 206.936653,1882.58474 C207.306966,1886.94595 207.76926,1891.58217 207.173442,1893.89222 C206.079078,1893.88392 205.017472,1893.86972 203.993416,1893.84511 C202.892761,1893.8214 201.777125,1893.52379 200.666982,1893.24368 C199.886307,1887.0772 198.938052,1880.73316 197.904808,1876.2507 C195.160111,1864.3551 193.788112,1867.10312 193.788112,1867.10312 C193.788112,1867.10312 193.788112,1867.10312 196.064724,1878.99872 C197.456696,1886.27611 198.209009,1897.77946 198.585115,1905.61526 C198.529788,1908.4347 198.461577,1912.15048 198.404952,1916 L204.760409,1916 C204.442926,1911.22203 204.251877,1906.42606 203.925206,1905.70529 C203.291837,1904.23185 204.260166,1904.02977 204.260166,1904.02977 L203.559386,1900.98155 C204.72955,1900.98155 237.1449,1900.0446 239.053195,1900.34591 C241.028102,1900.64802 241.996431,1900.51207 241.996431,1902.79051 C241.996431,1903.93754 242.11917,1910.08981 242.024694,1916 L243.76451,1916 L247.5,1916 L251.990812,1916 L252,1913.74767 Z M140.616668,1787.10094 C148.888685,1795.36596 154.548118,1806.17358 161.110669,1815.87747 C167.677819,1825.58176 173.334752,1835.95524 177.957509,1846.86534 C182.579766,1857.77415 186.159948,1869.25036 188.606284,1881.09607 C190.918462,1892.33413 192.182667,1903.93431 192.312627,1915.83536 C192.985717,1915.86034 193.568935,1915.91368 194,1916.00318 L192.313826,1916.00318 L189.236887,1916.00318 L189.117724,1917.33877 C188.433738,1917.1202 187.728958,1916.61404 187.002985,1916.00318 L188.718649,1916.00318 L186.764259,1919 L189.566284,1919 L189.385541,1918.37686 L185.876636,1919 L10.7102293,1919 L10.7006323,1918.88083 L10.7181268,1918.88083 L10.6156588,1919 L10.6131596,1918.88083 L9.18820453,1918.88083 L9.15611455,1919 L9.01115981,1918.88083 L6,1918.88083 L6,1911.6552 L6.05538271,1911.6552 L6.05538271,1736.45026 C6.4935459,1738.74532 6.72517358,1745.80072 7.20922244,1756.34822 C7.95319015,1772.33084 8.49841991,1795.35557 8.89869493,1818.99585 C9.65345927,1823.38739 11.0384268,1831.24534 11.7902921,1834.28331 C12.8636569,1838.59783 12.3263247,1889.89532 12.3263247,1892.07221 C12.3263247,1894.2453 16.2783907,1906.2942 18.087026,1906.12518 C18.922965,1906.04736 21.7225909,1903.61575 24.489227,1901.0235 C26.237881,1898.6736 27.9852355,1896.34807 29.7337895,1894.11664 C31.298301,1890.81555 33.2123034,1885.76341 32.8890043,1881.29656 L32.8511162,1880.82586 C32.4958271,1878.82838 32.1380388,1876.831 31.7885479,1874.83932 L18.0141488,1797.00951 L14.5710238,1778.93412 C11.4103107,1762.29929 8.81951965,1748.6426 7.69697015,1742.67525 L7.51492699,1742.67734 L7.0546707,1745.13383 L7.0546707,1742.68354 L7.0546707,1735.4707 L7.0546707,1735 L7.30379291,1735 C7.30379291,1735 7.78654218,1735 8.34716713,1735.4698 L9.71474013,1735.4676 C58.3066681,1735.4676 106.261995,1752.76762 140.616668,1787.10094 Z M181.934163,1911.74844 C164.006015,1910.24341 141.821922,1902.56003 121.311815,1899.84748 C119.875026,1891.32618 116.59108,1881.48844 112.629556,1872.79923 C110.97888,1867.87916 108.122709,1862.12576 109.060994,1865.62585 C108.39242,1864.39446 107.714242,1863.21064 107.032262,1862.08089 C102.105243,1853.91258 94.867676,1843.16466 86.3545866,1836.10122 C67.8165882,1820.67548 43.2303107,1810.81535 23.6168715,1808.4638 L17.784881,1777.77974 C14.686511,1761.52918 12.1463699,1748.14637 11,1742 C68.2809785,1742.28684 121.429763,1771.25928 153.540825,1819.56202 C159.77338,1828.90286 165.103465,1838.913 169.491963,1849.45974 C173.881663,1859.9704 177.26685,1871.05363 179.578197,1882.50235 C181.51109,1892.06476 182.670265,1901.92739 183,1912 C182.650257,1911.86628 182.295511,1911.77793 181.934163,1911.74844 Z M38.4995684,1682.43605 C87.9239391,1687.4285 134.358055,1709.57235 171,1742.05859 C170.691786,1743.04568 170.177896,1743.89892 169.650269,1744.4022 C168.488393,1745.52936 167.282117,1746.73709 166.042789,1748 C157.003035,1739.2133 147.190854,1731.1477 136.728397,1723.91398 C135.323414,1722.69953 133.318728,1721.05946 130.573173,1718.90347 C125.702971,1715.07229 116.56695,1708.99091 106.428835,1704.31823 C93.3564128,1698.33367 78.7503866,1692.82319 69.9445806,1690.90801 C55.9537881,1687.84118 37.692099,1684.64 34,1683.99927 L34.1209561,1682 L38.4995684,1682.43605 Z M216.46091,1798.9013 C220.065972,1805.53255 223.369974,1812.36413 226.342219,1819.36117 C229.314066,1826.36071 231.949574,1833.52649 234.220041,1840.86122 C244.002491,1872.27231 240.162838,1853.05115 243.56819,1886.5379 C243.785739,1888.67054 243.918681,1890.80988 244,1892.95751 C243.572674,1892.92092 243.130101,1892.86794 242.699487,1892.86794 C240.237979,1892.88214 237.55932,1892.93172 234.757686,1893 C229.938911,1841.45854 208.719219,1793.00152 176,1757.173 C177.957447,1755.43144 179.832179,1753.79864 181.569485,1752.34369 C181.842842,1752.11576 182.243161,1752.03209 182.662116,1752 C194.565649,1763.85583 206.039364,1779.71553 216.46091,1798.9013 Z M32.6770136,1721.78586 C32.4778614,1721.01974 31.9286964,1720.29737 32.0077187,1719.55497 C32.5436136,1711.40816 33.1106385,1700.69616 33.6561118,1691 C84.014967,1696.31296 129.332559,1717.1149 164,1750.46385 C157.105903,1757.59221 149.493422,1765.90787 143.025966,1771.75163 C142.497853,1772.23749 141.901694,1772.63466 141.281888,1773 C117.847087,1748.89378 83.0616108,1726.81726 32.6770136,1721.78586 Z M212.307107,1853.17346 C213.084024,1854.97661 216,1867.05928 216,1870.57004 C216,1874.08402 213.634529,1873.52387 213.312563,1870.57004 C212.987018,1867.6162 211.075627,1854.51838 211.075627,1854.51838 C210.751243,1851.56454 211.52816,1851.33513 212.307107,1853.17346 Z M22.7539148,1687.32446 C23.1888058,1687.39027 22.9550371,1688.2556 22.7539148,1688.65555 C22.4909621,1689.1514 21.8623686,1689.2863 21.3306264,1689.55095 C20.8005659,1689.81868 19.9052604,1689.68586 19.8727128,1690.15034 C19.4415812,1697.29976 21.3975022,1706.24595 20.4370026,1713.36261 C20.3051306,1714.32512 18.1513519,1714.09184 17.5193948,1713.36261 C11.4023311,1706.20952 10.1347565,1702.63704 7,1696.58721 L7,1687.81723 L7.0477826,1687.85565 C11.4876077,1691.51379 12.219285,1696.73363 15.4010327,1701.556 C15.9953968,1702.48704 16.4266274,1703.55051 16.9570836,1704.51669 C16.9900269,1704.54806 17.0906375,1704.54806 17.0906375,1704.51669 C17.0906375,1703.55041 16.9232499,1702.55484 16.9232499,1701.58906 C16.8907024,1697.7971 16.9900269,1693.94081 16.4921183,1690.1831 C16.4266274,1689.61935 16.1928587,1689.78563 15.696533,1689.51839 C15.2010976,1689.25116 14.5687448,1689.11834 14.3387354,1688.68702 C14.1063516,1688.2556 13.8758476,1687.39027 14.3061878,1687.32446 C17.0906375,1686.89185 19.9731255,1686.89185 22.7539148,1687.32446 Z M234.821619,1912.77751 C234.216,1909.59461 229.600479,1912.45 226.567353,1912.18501 C225.342737,1912.08907 224.471876,1914.2663 224.376723,1916 L222.227534,1916 C222.228841,1914.61449 221.599283,1913.03093 220.537312,1912.51487 C218.715928,1911.62828 217.942634,1912.18491 215.818189,1912.21715 C214.201293,1912.21715 212.651084,1911.52881 211.403837,1912.38424 C210.295295,1913.16862 211.270562,1914.3842 211.370342,1915.89455 L211.377483,1916 L208.305431,1916 C208.209071,1912.04732 208.190162,1908.27829 208.000359,1903.65079 C207.968071,1903.15873 210.125609,1902.83005 210.562749,1903.09307 C210.999889,1903.35552 211.035496,1904.04317 211.234955,1904.63479 C211.436929,1905.19378 211.067784,1906.34203 211.673302,1906.40896 C219.356249,1907.16149 226.903406,1906.47276 234.619947,1906.11251 C235.192474,1906.07782 235.12458,1905.78383 235.329068,1905.19378 C235.531042,1904.60206 235.596422,1903.87981 236.070476,1903.616 C236.506309,1903.38815 238.393978,1904.20771 238.427473,1904.70055 C238.587604,1908.8699 238.98451,1912.39178 239,1915.9998 L235.272137,1915.9998 C235.200923,1914.83538 234.997642,1913.70467 234.821619,1912.77751 Z M107,1872.90574 C97.5436568,1877.56749 96.4144493,1878.36376 86.2722814,1882.944 C85.0083728,1883.49523 83.6174371,1883.69582 82.2542696,1884 C78.9603522,1877.89176 75.3467467,1873.28325 73.4243776,1870.96356 C72.1243198,1869.40029 70.9626992,1868.39873 70,1867.70036 C75.5601076,1858.11953 81.4221316,1848.11314 84.769869,1842 C94.0242614,1850.77957 101.546522,1861.29952 107,1872.90574 Z M79,1894 L66.7607101,1892.39535 L68.8813153,1892.30744 C68.9146044,1892.43955 56.9598213,1891.41081 59.304853,1886.99409 C61.2800059,1883.31997 64.0923844,1878.36955 67.1846712,1873 C72.270105,1879.22762 76.3078821,1886.31877 79,1894 Z M46.1515834,1889.30283 L46.2277733,1889.2719 C46.2277733,1889.2719 40.3698417,1888.00014 40.0053948,1886.02299 C39.6414419,1884.04455 57.8138863,1864.93664 57.8138863,1864.93664 L54.4478904,1868.34396 C60.6327175,1861.89658 66.818434,1855.45059 73,1849 C72.5796211,1849.64624 72.1909633,1850.29048 71.8504307,1850.92501 C65.493855,1862.79018 58.676582,1876.96933 53.3460511,1887.22721 C52.8396002,1888.20578 52.0901518,1889.16313 51.3177772,1890 L46.1515834,1889.30283 Z M88.6488302,1886.63709 C99.2291907,1882.39601 99.7657625,1882.02683 109.629984,1878 C112.516339,1885.032 114.662018,1892.41052 116,1900 C105.26755,1898.59031 98.0939946,1896.57354 87.3281863,1895.16135 C86.6488531,1893.03565 85.856264,1890.99633 85,1889.06223 C85.5403233,1888.92153 86.1102534,1888.68724 86.3725572,1888.58412 C87.2884402,1888.21383 87.697054,1886.97331 88.6488302,1886.63709 Z M29.1058084,1840.24167 C27.4784257,1831.84755 25.7422243,1822.9273 24,1814 C31.508908,1814.8691 37.3744066,1816.08988 43.8106427,1818.28865 C44.0084765,1818.75597 44.0611506,1819.22082 43.9216052,1819.66345 C40.5358694,1830.45936 40.4682915,1831.58959 36.7401745,1842.25488 C36.6525886,1842.50937 36.5500988,1842.75731 36.4364822,1843 C34.0699277,1841.85777 31.6318141,1840.90804 29.1058084,1840.24167 Z M49.1239868,1820.03513 C54.8840503,1822.42396 61.0780165,1825.29073 66.9344029,1828.57978 C67.0581321,1829.16113 67.0136216,1829.69713 66.7426575,1830.13985 C60.8479621,1839.77952 60.5124827,1840.87692 54.3147155,1850.31841 C53.6391556,1851.32035 52.72814,1852.14196 51.8529328,1853 C48.1112471,1850.15675 44.2269276,1847.22626 40.1264569,1844.76002 C40.0943493,1844.06127 39.8721967,1843.30991 40.1051519,1842.63706 C44.3273514,1831.83478 44.2586351,1831.53458 48.4492271,1820.69826 C48.5497509,1820.42872 48.7719035,1820.20007 49.0385666,1820 L49.1239868,1820.03513 Z M57.8245294,1851.81888 C64.6901101,1842.4968 64.7239052,1842.16834 71.5560968,1832.78237 C71.8664434,1832.3609 72.5113919,1832.15691 73.1025524,1832 C76.3222205,1834.03182 79.3381032,1836.19626 82,1838.48045 C73.4670929,1844.34065 64.8998833,1850.17097 56.3331811,1856 L56,1855.75963 C56.3906226,1855.35694 56.75973,1854.84237 56.9407825,1854.61596 C57.5175318,1853.82769 57.2105343,1852.5747 57.8245294,1851.81888 Z M35.2931945,1872 C34.123663,1865.65915 32.6483224,1857.76174 31,1849 C37.9413304,1851.02537 44.4289914,1854.02382 50.3154192,1857.84698 C50.8643326,1858.83517 51.1482839,1859.87236 50.9215976,1861.0425 C45.7270972,1864.69408 40.5264649,1868.34842 35.2931945,1872 Z M163.382786,1899.20748 C162.532868,1896.35115 162.976149,1895.32431 165.958251,1894.39264 C169.384849,1893.30235 165.01004,1894.20018 168.400803,1893.87984 C168.976997,1893.81563 173.113817,1892.59517 174.774882,1893.1394 C175.590179,1893.39858 180.336599,1899.81901 172.810231,1899.97946 C167.553011,1900.10723 169.62142,1899.59453 165.892452,1899.65923 C165.347132,1899.65923 163.517825,1899.72268 163.382786,1899.20748 Z M161.747326,1876.31921 C165.03839,1874.73357 160.511667,1875.45638 163.872647,1874.66413 C164.421636,1874.52432 168.433049,1872.69785 170.181356,1873.04342 C171.039899,1873.21831 176.660709,1879.41877 169.1189,1880.59115 C163.87275,1881.41889 166.100948,1881.41889 162.396531,1881.93625 C157.77082,1882.58993 158.182945,1878.04074 161.747326,1876.31921 Z M153.229554,1857.23118 C156.220942,1855.20515 153.600306,1856.67332 156.757608,1855.45071 C157.296782,1855.24133 160.924746,1852.86639 162.672172,1853.00591 C163.51228,1853.07588 169.760881,1858.56026 162.605766,1860.72654 C157.633127,1862.22537 158.13679,1861.73873 154.574129,1862.7871 C150.172563,1864.04193 149.971138,1859.43345 153.229554,1857.23118 Z M145.32867,1845.84641 C143.481621,1843.38823 143.481621,1842.20886 145.82596,1840.22102 C148.498377,1837.89928 145.793143,1839.61394 148.732437,1838.06558 C149.228052,1837.79703 152.495423,1835.10288 154.209822,1835.00073 C155.037654,1834.93417 161.769894,1839.44895 155.037654,1842.41075 C150.350256,1844.43076 151.107919,1843.92593 147.773138,1845.37335 C147.280775,1845.57655 145.662858,1846.31645 145.32867,1845.84641 Z M130.269222,1818.71304 C132.589986,1816.08693 129.583844,1819.7823 132.316793,1817.8369 C132.759979,1817.51296 135.666287,1814.39865 137.373055,1814.00847 C138.227917,1813.81401 145.845095,1816.99407 139.4916,1820.88757 C135.051068,1823.61334 136.314241,1821.37344 133.136881,1823.28726 C129.209491,1825.65597 127.704941,1821.60102 130.269222,1818.71304 Z M114.775038,1801.80994 C116.598858,1798.8229 114.377129,1800.98876 116.699598,1798.6274 C117.097506,1798.23444 119.353013,1794.68961 120.947816,1794.03387 C121.741948,1793.70663 129.538453,1795.74017 124.065606,1800.59659 C120.250362,1804.00675 121.011806,1803.58098 118.258047,1805.94352 C114.875679,1808.89578 112.783515,1805.05839 114.775038,1801.80994 Z M99.5093579,1791.73553 C100.956073,1788.40144 99.9702164,1790.08609 101.976798,1787.33465 C102.306235,1786.89001 104.147508,1782.93417 105.628994,1782.07466 C106.354168,1781.66379 114.283156,1782.83105 109.444534,1788.53823 C106.091915,1792.48935 105.828287,1792.79976 103.392376,1795.62005 C100.364284,1799.09226 97.896844,1795.34381 99.5093579,1791.73553 Z M85.4065227,1779.26202 C86.41921,1775.83826 83.9474014,1780.75004 85.5662813,1777.80524 C85.8178441,1777.32881 87.1511841,1773.19809 88.4816847,1772.18063 C89.1453261,1771.67296 96.8521597,1771.84354 92.8565881,1778.04153 C90.098861,1782.3421 91.6195008,1779.53087 89.5913817,1782.58103 C85.7563257,1788.37165 84.487722,1782.3421 85.4065227,1779.26202 Z M56.1423672,1768.54581 C56.5205303,1765.00251 55.3838803,1768.81447 56.5205303,1765.63794 C56.6928903,1765.10401 57.2798405,1760.85662 58.4867722,1759.58497 C59.0724875,1758.95084 67.3457684,1757.48089 64.3474244,1764.29972 C62.27612,1769.07984 62.7941262,1767.50839 61.2771522,1770.88662 C59.381192,1775.06525 55.7277771,1772.38981 56.1423672,1768.54581 Z M31.8064136,1765.00271 C31.5991552,1761.43013 30.5925449,1763.79099 31.1837074,1760.45269 C31.2875435,1759.91323 31.1125528,1755.56942 32.1179219,1754.12132 C32.6031798,1753.41175 40.5369191,1750.61402 38.7339564,1757.89347 C37.4890609,1762.94613 38.250043,1762.91304 37.2800442,1766.4831 C36.102787,1770.93253 32.0486289,1768.87716 31.8064136,1765.00271 Z M7,1711 C7.68326999,1711.22128 8.4222247,1711.34345 8.69954689,1711.68751 C8.9438254,1712.01329 9.23142785,1712.78225 8.69954689,1712.8425 C8.13609086,1712.90548 7.5690857,1712.95848 7,1713 L7,1711 Z"/><path fill="#FFF" d="M333.505044,1 L334.758199,4.16420052 C352.437657,48.7905662 386.559505,88.8213241 426.239818,115.460146 C464.793071,141.343157 509.449934,154.484454 559.733806,154.484454 C610.017277,154.484454 653.158804,141.995776 691.710758,116.114064 C731.39217,89.4747427 765.03162,48.7905662 782.711079,4.16420052 L783.965433,1 L1118,1 L1118,1918.00063 L1,1916.00181 L1,1 L6.00003078,1 L333.505044,1 Z M326.744241,11 L11,11 L11,1906.00248 L1108,1908 L1108,11 L790.725534,11 C772.103155,56.1299957 737.68604,97.2532734 697.257635,124.393646 C657.089114,151.3596 612.034165,164.484701 559.734055,164.484701 C507.433545,164.484701 460.86236,150.707381 420.694638,123.741427 C380.266233,96.5997555 345.366521,56.1299957 326.744241,11 Z"/><path fill="#878B8D" d="M336.021612,0 L337.650254,4.1140101 C346.396261,26.1884919 358.448711,46.6379681 373.204707,64.8643625 C388.105183,83.271868 405.769154,99.426223 425.572741,112.72106 C445.050599,125.797824 466.623111,136.117863 489.69927,143.105177 C511.983188,149.850643 535.672935,153.484354 560.233755,153.484354 C584.794076,153.484354 608.483922,149.850643 630.768241,143.105177 C653.843999,136.117863 675.41761,125.797824 694.89427,112.72106 C714.699056,99.426223 732.362128,83.2717681 747.262303,64.8643625 C762.019498,46.6379681 774.070749,26.1884919 782.816757,4.1140101 L784.453792,0 L1120,0 L1120,1920 L0,1920 L0,0 L6.49998006,0 L336.021612,0 Z M56,10 L106,10 L106,3 L56,3 L56,10 Z M6.50004995,11.4535107 L6.50004995,3 L3,3 L3,24 L10,24 L10,11.4535107 L6.50004995,11.4535107 Z M254,3 L254,10 L304,10 L304,3 L254,3 Z M154,3 L154,10 L204,10 L204,3 L154,3 Z M3,124 L10,124 L10,74 L3,74 L3,124 Z M3,226 L10,226 L10,174 L3,174 L3,226 Z M3,326 L10,326 L10,276 L3,276 L3,326 Z M3,426 L10,426 L10,376 L3,376 L3,426 Z M3,526 L10,526 L10,476 L3,476 L3,526 Z M3,626 L10,626 L10,576 L3,576 L3,626 Z M3,726 L10,726 L10,676 L3,676 L3,726 Z M3,826 L10,826 L10,776 L3,776 L3,826 Z M3,926 L10,926 L10,876 L3,876 L3,926 Z M3,1026 L10,1026 L10,976 L3,976 L3,1026 Z M3,1126 L10,1126 L10,1076 L3,1076 L3,1126 Z M3,1225 L10,1225 L10,1175 L3,1175 L3,1225 Z M3,1325 L10,1325 L10,1275 L3,1275 L3,1325 Z M3,1425 L10,1425 L10,1375 L3,1375 L3,1425 Z M3,1525 L10,1525 L10,1475 L3,1475 L3,1525 Z M3,1625 L10,1625 L10,1575 L3,1575 L3,1625 Z M3,1723 L10,1723 L10,1673 L3,1673 L3,1723 Z M3,1823 L10,1823 L10,1773 L3,1773 L3,1823 Z M3,1917 L14,1917 L14,1909.97885 L9.91029561,1909.97504 L9.91029561,1871 L3,1871 L3,1917 Z M114,1917 L114,1910.03345 L64,1910 L64,1917 L114,1917 Z M212,1917 L212,1910.02747 L162,1910 L162,1917 L212,1917 Z M312,1917 L312,1910.02032 L262,1910 L262,1917 L312,1917 Z M412,1917 L412,1910.01191 L362,1910 L362,1917 L412,1917 Z M512,1917 L512,1910.00463 L462,1910 L462,1917 L512,1917 Z M612,1917 L612,1910 L562,1910.00268 L562,1917 L612,1917 Z M712,1917 L712,1910 L662,1910.00987 L662,1917 L712,1917 Z M812,1917 L812,1910 L762,1910.01699 L762,1917 L812,1917 Z M912,1917 L912,1910 L862,1910.02411 L862,1917 L912,1917 Z M1011.00169,1917 L1012,1910 L962,1910.03118 L962,1917 L1011.00169,1917 Z M1111,1917 L1111,1916.09976 L1108.39986,1913.49965 L1108.39986,1910 L1061,1910.03536 L1061,1917 L1111,1917 Z M1117,1817 L1110,1817 L1110,1865 L1117,1865 L1117,1817 Z M1117,1717 L1110,1717 L1110,1767 L1117,1767 L1117,1717 Z M1117,1619 L1110,1619 L1110,1669 L1117,1667.00209 L1117,1619 Z M1117,1519 L1110,1519 L1110,1569 L1117,1569 L1117,1519 Z M1117,1420 L1110,1420 L1110,1470 L1117,1470 L1117,1420 Z M1117,1320 L1110,1320 L1110,1370 L1117,1370 L1117,1320 Z M1117,1220 L1110,1220 L1110,1270 L1117,1270 L1117,1220 Z M1117,1120.99961 L1110,1120 L1110,1170 L1117,1170 L1117,1120.99961 Z M1117,1021 L1110,1021 L1110,1071 L1117,1071 L1117,1021 Z M1117,921 L1110,921 L1110,971 L1117,971 L1117,921 Z M1117,821 L1110,821 L1110,871 L1117,871 L1117,821 Z M1117,721 L1110,721 L1110,771 L1117,771 L1117,721 Z M1117,621 L1110,621 L1110,671 L1117,671 L1117,621 Z M1117,521 L1110,521 L1110,571 L1117,571 L1117,521 Z M1117,421 L1110,421 L1110,471 L1117,471 L1117,421 Z M1117,321 L1110,321 L1110,371 L1117,371 L1117,321 Z M1117,221 L1110,221 L1110,271 L1117,271 L1117,221 Z M1117,119 L1110,119 L1110,169 L1117,169 L1117,119 Z M1117,19 L1110,19 L1110,69 L1117,69 L1117,19 Z M1026,3 L1026,10 L1076,10 L1076,3 L1026,3 Z M927,3 L927,10 L977,10 L977,3 L927,3 Z M827,3 L827,10 L877,10 L877,3 L827,3 Z M756,58.780644 L761.549309,63 C771.472161,49.3095159 780.023336,34.555945 787,18.9456091 L780.698197,16 C773.929708,31.1563271 765.63032,45.4807084 756,58.780644 Z M696.356882,115.483807 C692.005617,118.442834 687.551049,121.262991 683,123.935867 L686.444278,130 C691.130757,127.245824 695.718481,124.342666 700.199443,121.29513 C709.624004,114.885574 718.578117,107.837836 727,100.220999 L722.40417,95 C714.220625,102.404876 705.517798,109.254172 696.356882,115.483807 Z M631.258956,146.12043 C617.962247,150.219854 604.172186,153.198629 590,154.949258 L590.827426,162 C605.40462,160.197903 619.586357,157.130984 633.257731,152.912413 C635.518551,152.213742 637.767334,151.483866 640,150.722683 L637.795588,144 C635.630175,144.73707 633.45143,145.443339 631.258956,146.12043 Z M492.919584,147 L491,153.870051 C506.868914,158.540751 523.406544,161.643286 540.435201,163 L541,155.870817 C524.440754,154.553718 508.358751,151.539194 492.919584,147 Z M423.812751,115.344667 C417.478608,111.170995 411.358984,106.717288 405.474582,102 L401,107.354084 C407.062359,112.210547 413.365395,116.79887 419.888099,121.098136 C427.536923,126.138382 435.488436,130.78291 443.711227,135 L447,128.872324 C438.996777,124.769627 431.256248,120.250694 423.812751,115.344667 Z M370.851883,67.3960477 C360.616374,54.5959653 351.670289,40.7308729 344.211748,26 L338,29.2129766 C345.714234,44.447569 354.972789,58.7780676 365.570572,72 L371,67.5796492 L370.851883,67.3960477 Z M327.249116,13 L13,13 L13,1907 L1107,1907 L1107,13 L793.219693,13 C783.929935,35.2513666 771.422858,55.8835239 756.270485,74.3329602 C740.780094,93.1919689 722.521111,109.776353 702.104026,123.48414 C681.554851,137.279336 658.8164,148.163371 634.510356,155.530679 C611.015336,162.648647 586.069125,166.484642 560.233955,166.484642 C534.399684,166.484642 509.453374,162.648647 485.958454,155.530679 C461.65161,148.163371 438.913059,137.279336 418.364784,123.48414 C397.947699,109.776353 379.687416,93.1920688 364.197425,74.3329602 C349.045951,55.8835239 336.538874,35.2513666 327.249116,13 Z"/></g></svg>