<svg xmlns="http://www.w3.org/2000/svg" width="1125" height="274" viewBox="0 0 1125 274"><g fill="#777878" fill-rule="evenodd"><path d="M225.3,237.877886 L189.9,237.877886 L186.6,237.877886 L186.6,240.177886 L189.9,240.177886 L221.6,240.177886 C222.9,240.177886 224.9,240.177886 225.8,239.777886 C225.8,241.077886 225.8,242.477886 226.2,243.777886 L213.2,243.777886 C203,243.777886 168.1,243.777886 150.5,244.177886 C136.6,244.177886 134.7,244.577886 133.3,244.577886 C126.3,244.977886 211.4,245.877886 213.2,245.877886 L226.7,245.877886 C227.1,247.177886 227.6,248.577886 228.6,249.877886 L204.9,249.877886 L199.7,249.877886 L199.7,252.177886 C203,252.177886 204.9,252.177886 204.9,252.177886 L230,252.177886 C231.3,254.477886 233.3,256.177886 235.2,258.477886 L209.6,258.477886 C194.8,258.477886 144.9,258.477886 119.9,258.877886 C99.9,258.877886 97.6,259.277886 94.8,259.277886 C85,259.677886 206.8,260.577886 209.2,260.577886 L236.6,260.577886 L237,260.577886 C238.9,262.377886 240.7,263.677886 242.6,264.977886 L218.9,264.977886 L216.1,264.977886 L216.1,267.277886 L218.9,267.277886 L245.8,267.277886 C248.2,268.577886 250.4,269.977886 252.8,270.877886 L4.7,270.877886 L42.3,239.177886 L4.6,207.477886 L225.2,207.477886 L225.2,210.177886 L213.1,210.177886 C199.6,210.177886 154.5,210.177886 132.2,210.577886 C114.1,210.577886 111.8,210.977886 109.9,210.977886 C101,211.377886 211.3,212.277886 213.6,212.277886 L225.7,212.277886 L225.7,217.277886 L171.4,217.277886 L166.2,217.277886 L166.2,219.577886 C169.5,219.577886 171.4,219.577886 171.4,219.577886 L225.3,219.577886 L225.3,223.977886 L203.9,223.977886 C189.1,223.977886 139.2,223.977886 114.2,224.377886 C94.2,224.377886 91.9,224.777886 89.1,224.777886 C79.3,225.177886 201.1,226.077886 203.5,226.077886 L224.8,226.077886 L224.8,231.477886 L210.9,231.477886 C200.2,231.477886 163,231.477886 144.4,231.877886 C129.6,231.877886 127.7,232.277886 125.8,232.277886 C118.4,232.677886 210,233.577886 211.8,233.577886 L225.7,233.577886 L225.3,237.877886 L225.3,237.877886 L225.3,237.877886 Z M1123.2,204.777886 L902.7,204.777886 L902.7,139.077886 L902.7,138.177886 C843.4,46.4778861 673.9,-2.22211392 567.1,0.0778860837 C446.6,2.37788608 300.3,40.2778861 225.8,138.277886 L225.3,139.177886 L225.3,204.877886 L0.9,204.877886 L0,207.077886 L38.2,238.777886 L0,270.877886 L0.9,273.177886 L256.9,273.177886 L256.9,204.777886 L255.6,204.777886 L255.6,204.377886 C253.7,203.977886 249.5,200.777886 244.9,195.377886 C264.9,168.477886 301.6,143.077886 345.4,121.677886 C409.5,89.9778861 494.7,67.3778861 567.2,67.3778861 C676,67.3778861 815.1,102.977886 876.9,196.277886 C873.2,200.677886 870.4,202.977886 870.8,202.977886 L870.8,204.777886 L869.9,204.777886 L869.9,265.077886 C869.9,265.477886 867.5,265.477886 869.9,266.377886 L869.9,266.377886 L869.9,273.477886 L1123.8,273.477886 L1124.7,271.177886 L1086.5,239.477886 L1124.7,207.777886 L1123.2,204.777886 L1123.2,204.777886 Z M902.7,207.477886 L1119.4,207.477886 L1081.7,239.177886 L1119.4,270.877886 L872.1,270.877886 L872.1,267.277886 C872.6,267.277886 873,267.277886 874,267.277886 L898.1,267.277886 L900.5,267.277886 L900.5,264.977886 L898.1,264.977886 L876.8,264.977886 C879.6,263.677886 882,262.277886 884.7,260.577886 L907,260.577886 C909.4,260.577886 1016.8,259.677886 1007.9,259.277886 C1005.5,259.277886 1003.7,258.877886 986,258.877886 C964.1,258.477886 920.4,258.477886 907,258.477886 L887.5,258.477886 C889.9,256.677886 892.1,254.477886 894,252.177886 L911.2,252.177886 C911.6,252.177886 913.1,252.177886 915.8,252.177886 L915.8,249.877886 L911.2,249.877886 L895.4,249.877886 C896.3,248.577886 897.3,247.177886 898.2,245.877886 L903.4,245.877886 C904.7,245.877886 980.1,244.977886 973.6,244.577886 C972.3,244.577886 970.3,244.177886 958.2,244.177886 C942.8,243.777886 912.2,243.777886 903.3,243.777886 L899.1,243.777886 C899.6,242.877886 900,241.977886 900,240.677886 L903.3,240.677886 L903.3,240.277886 L923.7,240.277886 L926.5,240.277886 L926.5,237.977886 L923.7,237.977886 L903.4,237.977886 L903.4,233.577886 L905.3,233.577886 C907.2,233.577886 987.6,232.677886 981.1,232.277886 C979.2,232.277886 977.8,231.877886 964.8,231.877886 C948.5,231.477886 915.5,231.477886 905.8,231.477886 L903.9,231.477886 L903.9,225.577886 L912.3,225.577886 C914.7,225.577886 1022.1,224.677886 1013.2,224.277886 C1010.8,224.277886 1009,223.877886 991.3,223.877886 C969.4,223.477886 925.3,223.477886 912.3,223.477886 L903.9,223.477886 L903.9,219.077886 L940.6,219.077886 C941.1,219.077886 942.5,219.077886 945.2,219.077886 L945.2,216.777886 L940.6,216.777886 L903.9,216.777886 L903.9,211.777886 C905.8,211.777886 1002.9,210.877886 995,210.477886 C993.1,210.477886 990.8,210.077886 975,210.077886 C955,209.677886 915.5,209.677886 903.8,209.677886 L902.7,207.477886 Z M879.5,192.677886 C880.4,191.777886 880.8,190.877886 881.9,189.577886 C861,161.377886 831.7,134.077886 805.2,119.877886 L805.2,118.977886 C833,133.777886 863.3,158.777886 883.8,186.377886 C884.7,184.577886 886.2,183.277886 887.1,180.977886 C864.3,151.477886 825.7,123.777886 796.9,107.677886 L799.7,108.577886 C829,124.677886 866.2,149.677886 888.5,178.677886 C888.9,177.777886 889.4,176.377886 890.4,175.577886 C884.3,167.077886 877.4,158.677886 870.4,151.977886 L870.4,149.677886 C877.4,156.377886 884.8,165.277886 891.3,174.277886 C891.8,172.977886 892.6,171.577886 893.2,170.277886 C874.1,143.377886 842,117.077886 814.6,100.177886 L814.6,97.8778861 C842.4,114.777886 875,140.277886 894.1,167.577886 C894.6,166.277886 895,165.277886 895.4,163.977886 C883.7,146.577886 866.1,128.277886 848.9,114.777886 L849.4,113.877886 C868.9,127.277886 885.2,143.877886 896.3,161.277886 C896.7,159.977886 897.2,158.577886 897.2,157.277886 C878.1,128.277886 843.8,98.6778861 814.5,80.4778861 L814.5,79.5778861 C844.2,98.3778861 878.7,124.277886 898.2,153.777886 C898.6,152.477886 898.6,151.077886 898.6,150.177886 C878.6,119.777886 842.8,91.1778861 812.6,71.4778861 L813,70.5778861 C840.8,87.0778861 878.1,117.077886 899,147.377886 C899.5,144.677886 899.5,141.977886 899.5,139.277886 C839.7,49.2778861 672.7,1.77788608 566.6,3.27788608 C448.9,4.77788608 300.7,43.7778861 228.1,139.577886 L228.1,147.677886 C248.5,117.277886 284.3,90.8778861 312.3,73.9778861 L312.7,74.8778861 C282.1,94.4778861 247.6,119.977886 228.1,150.877886 L228.1,153.977886 C228.1,154.377886 228.1,154.877886 228.1,155.277886 C247.2,125.277886 280.6,102.077886 310.8,82.8778861 L310.8,83.7778861 C280.6,102.977886 247.6,129.877886 228.5,159.277886 C228.9,160.577886 228.9,162.377886 229.4,163.677886 C240.5,145.777886 255.4,131.977886 275.9,117.177886 L276.3,118.077886 C258.2,132.277886 241.4,148.977886 229.8,166.877886 C230.2,168.177886 230.2,169.177886 230.7,170.477886 C249.3,142.777886 281.3,119.577886 310.2,101.677886 L310.2,103.977886 C281.4,121.877886 249.7,145.977886 231.6,173.677886 C232,174.977886 232.5,176.377886 232.9,177.677886 C239,169.177886 245.9,161.177886 253.8,153.477886 L253.8,155.777886 C246.4,163.377886 239.4,171.377886 233.4,179.377886 C233.8,180.277886 234.3,181.677886 234.7,182.477886 C257.5,152.477886 294.6,128.877886 325.4,112.377886 L328.2,111.477886 C298,127.977886 258.9,154.377886 237.1,184.777886 C237.5,186.077886 238.4,187.077886 239,188.377886 C261.3,159.377886 298.9,134.277886 328.2,118.277886 L328.2,119.177886 C299.4,134.377886 263.1,161.577886 240.3,191.177886 C240.7,192.077886 241.2,192.477886 241.6,193.477886 C262,166.577886 298.8,140.677886 342.5,119.277886 C406.7,87.5778861 493.7,64.2778861 566.1,64.2778861 C675.8,64.2778861 814.4,100.177886 879.5,192.677886 L879.5,192.677886 Z M906.4,266.877886 C932,266.877886 1005.9,265.977886 998.4,265.577886 C996,265.577886 994.2,265.177886 976.5,265.177886 C957.9,264.777886 924.4,264.777886 906.3,264.777886 L906.4,266.877886 L906.4,266.877886 Z M941.8,251.677886 C973.5,251.277886 1016.7,250.777886 1011.1,250.777886 C1008.7,250.777886 1006.9,250.377886 989.2,250.377886 C977.1,250.377886 958.6,249.977886 941.8,249.977886 L941.8,251.677886 L941.8,251.677886 Z M933.5,239.977886 C963.2,239.977886 1048.8,239.077886 1039.9,238.677886 C1037.5,238.677886 1034.7,238.277886 1014.8,238.277886 C993.5,237.877886 954.4,237.877886 933.4,237.877886 L933.5,239.977886 L933.5,239.977886 Z M957.1,218.577886 C988.8,218.177886 1021.3,217.677886 1015.2,217.677886 C1012.8,217.677886 1011,217.277886 993.3,217.277886 C981.2,217.277886 973.3,216.877886 957,216.877886 L957,218.577886 L957.1,218.577886 Z M209,266.877886 C179.7,266.877886 96.1,265.977886 104.4,265.577886 C106.8,265.577886 109.6,265.177886 129.5,265.177886 C150.4,264.777886 188.5,264.777886 209.4,264.777886 L209.4,267.077886 L209,266.877886 L209,266.877886 Z M168.6,251.677886 C132.8,251.277886 83.5,250.777886 90,250.777886 C92.4,250.777886 95.2,250.377886 115.1,250.377886 C128.6,250.377886 150,249.977886 168.5,249.977886 C168.6,249.877886 168.6,251.677886 168.6,251.677886 Z M178.4,239.977886 C145,239.977886 47.7,239.077886 57.5,238.677886 C60.3,238.677886 63.1,238.277886 86.3,238.277886 C110.4,237.877886 154.7,237.877886 178.8,237.877886 L178.8,240.177886 L178.4,239.977886 L178.4,239.977886 Z M151.4,218.577886 C115.6,218.177886 78.9,217.677886 85.4,217.677886 C87.8,217.677886 90.6,217.277886 110.5,217.277886 C124,217.277886 132.8,216.877886 151.9,216.877886 L151.4,218.577886 L151.4,218.577886 Z M830.6,99.2778861 L830.6,101.077886 C825,97.4778861 819.5,92.9778861 813.9,89.8778861 L813.5,88.9778861 C818.6,92.0778861 825.1,95.6778861 830.6,99.2778861 L830.6,99.2778861 Z M864.6,144.377886 L864.6,146.677886 C854.4,136.877886 842.7,128.377886 831.2,120.377886 L831.2,119.077886 C842.3,126.077886 853.9,134.977886 864.6,144.377886 L864.6,144.377886 Z M295.1,102.477886 L295.1,104.277886 C300.7,100.677886 306.2,96.1778861 311.8,93.0778861 L312.2,92.1778861 C307.1,95.1778861 300.1,98.7778861 295.1,102.477886 Z M261.1,147.577886 L261.1,149.877886 C271.3,140.077886 283,131.577886 294.6,123.577886 L294.6,122.177886 C283,129.177886 271.3,138.177886 261.1,147.577886 L261.1,147.577886 Z"/><path fill-rule="nonzero" d="M407.3 77.9778861 390.7 85.0778861 390.1 83.6778861C392 82.8778861 393.2 82.1778861 393.7 81.4778861 394.4 80.5778861 394.4 79.1778861 393.6 77.4778861L383.1 52.9778861C382.4 51.2778861 381.4 50.3778861 380.2 50.2778861 379.3 50.1778861 378 50.5778861 376.1 51.3778861 373.2 52.5778861 371.4 53.5778861 370.4 54.3778861 368.6 55.9778861 368.1 57.7778861 369 59.9778861L377.5 79.7778861C378.8 82.7778861 379.4 85.0778861 379.4 86.8778861 379.3 89.4778861 378 91.2778861 375.4 92.4778861 373.8 93.1778861 372.4 93.3778861 371 93.0778861 369.5 92.7778861 368.5 91.8778861 367.8 90.2778861 367.5 89.5778861 367.4 88.7778861 367.6 87.9778861 367.8 87.1778861 368.3 86.6778861 369 86.2778861 369.8 85.9778861 370.6 85.9778861 371.4 86.3778861 372.2 86.7778861 372.8 87.4778861 373.3 88.4778861 374.1 90.2778861 374.9 90.9778861 375.9 90.5778861 376.2 90.4778861 376.5 90.1778861 376.8 89.6778861 378.1 87.7778861 378.1 85.1778861 376.7 81.9778861L367.5 60.6778861C366.7 58.7778861 365.4 57.7778861 363.5 57.7778861 362.3 57.7778861 360.6 58.1778861 358.3 59.1778861L357.7 57.7778861 392.2 42.9778861 392.8 44.3778861C391 45.1778861 389.9 45.8778861 389.4 46.4778861 388.6 47.4778861 388.5 48.7778861 389.2 50.2778861L399.9 75.1778861C400.6 76.7778861 401.6 77.6778861 402.8 77.6778861 403.6 77.7778861 404.9 77.3778861 406.7 76.6778861L407.3 77.9778861ZM396.1 76.7778861 385.4 51.8778861C384.8 50.5778861 384.3 49.7778861 383.9 49.3778861 383.2 48.7778861 382.3 48.7778861 381.1 49.2778861L380.4 49.5778861C381.8 49.6778861 383 50.6778861 383.8 52.6778861L394.4 77.2778861C394.9 78.3778861 395.1 79.1778861 395.1 79.6778861 395.1 80.3778861 394.9 81.1778861 394.2 81.8778861L395 81.5778861C396.9 80.8778861 397.2 79.2778861 396.1 76.7778861ZM368.3 54.7778861 363.4 56.8778861C365 56.8778861 366.3 57.3778861 367.1 58.3778861 366.9 57.1778861 367.4 55.9778861 368.3 54.7778861ZM373.7 92.0778861C371.8 91.3778861 370.7 90.5778861 370.3 89.6778861 370 88.8778861 370.2 88.3778861 370.9 88.0778861 371.2 87.9778861 371.6 87.8778861 372 87.9778861 371.1 87.0778861 370.4 86.7778861 369.6 87.0778861 369.1 87.2778861 368.7 87.6778861 368.6 88.2778861 368.4 88.8778861 368.5 89.3778861 368.7 89.9778861 369.4 91.6778861 371.1 92.3778861 373.7 92.1778861L373.7 92.0778861ZM435.2 57.4778861C436.2 60.8778861 436 63.9778861 434.5 66.9778861 433 69.9778861 430.6 71.9778861 427.2 72.9778861 423.8 73.9778861 420.6 73.7778861 417.7 72.1778861 414.8 70.6778861 412.9 68.1778861 411.8 64.6778861 410.8 61.3778861 411.1 58.1778861 412.6 55.1778861 414.2 52.1778861 416.6 50.1778861 420 49.1778861 423.3 48.1778861 426.4 48.4778861 429.3 50.0778861 432.2 51.6778861 434.2 54.1778861 435.2 57.4778861ZM431.5 59.2778861C429.8 53.7778861 427 50.6778861 422.9 49.9778861L422.9 50.0778861C424.9 50.9778861 426.5 52.4778861 427.6 54.4778861 428.4 55.7778861 429.2 57.8778861 430 60.5778861 431 63.9778861 431.1 66.9778861 430.2 69.4778861 432.5 67.1778861 432.9 63.7778861 431.5 59.2778861ZM429.2 60.4778861C428.4 57.7778861 427.4 55.4778861 426.2 53.7778861 424.4 51.0778861 422.5 50.0778861 420.4 50.7778861 416.9 51.8778861 416.1 55.3778861 417.9 61.3778861 418.7 64.1778861 419.8 66.4778861 421.1 68.2778861 423 70.9778861 425.1 72.0778861 427.2 71.3778861 428.5 70.9778861 429.4 69.8778861 429.9 67.9778861 430.3 66.0778861 430.1 63.5778861 429.2 60.4778861ZM423.6 72.4778861 423.6 72.3778861C421.4 71.9778861 419.5 70.9778861 417.8 69.3778861 416.1 67.8778861 415 65.9778861 414.3 63.7778861 413.6 61.3778861 413.5 59.2778861 414 57.4778861 414.4 56.0778861 415.4 54.1778861 417 51.7778861L417 51.6778861C414.9 53.0778861 413.5 54.9778861 412.8 57.3778861 412.1 59.7778861 412.1 62.1778861 412.9 64.6778861 413.6 67.0778861 415 69.0778861 416.9 70.5778861 418.9 72.1778861 421.2 72.8778861 423.6 72.4778861ZM478 66.2778861 476.3 66.6778861C473.9 63.2778861 471 61.9778861 467.5 62.6778861L447.4 66.8778861 447.1 65.3778861C449.1 64.8778861 449.9 63.7778861 449.5 61.9778861L446.4 47.3778861C446 45.4778861 444.8 44.7778861 442.8 45.1778861L442.5 43.6778861 454.9 41.0778861 455.2 42.5778861C454 42.8778861 453.2 43.1778861 452.8 43.5778861 452.3 44.0778861 452.2 44.9778861 452.5 46.2778861L455.5 60.4778861C455.8 61.7778861 456.2 62.5778861 456.9 62.7778861 457.4 62.9778861 458.3 62.9778861 459.5 62.6778861L462.7 61.9778861C464.7 61.5778861 465.5 60.3778861 465.1 58.5778861L462 43.9778861C461.6 42.0778861 460.4 41.3778861 458.4 41.7778861L458.1 40.2778861 470.5 37.6778861 470.8 39.1778861C469.5 39.4778861 468.7 39.7778861 468.4 40.1778861 467.9 40.6778861 467.8 41.5778861 468.1 42.8778861L471.1 57.1778861C471.4 58.4778861 471.9 59.2778861 472.6 59.4778861 473.1 59.6778861 474 59.5778861 475.4 59.2778861L478 66.2778861ZM467.7 58.1778861 464.6 43.5778861C464.2 41.6778861 463.1 40.9778861 461.2 41.3778861 462 41.7778861 462.5 42.4778861 462.8 43.4778861L466.1 58.9778861C466.3 60.0778861 466.1 60.8778861 465.5 61.5778861 467.3 61.1778861 468.1 59.9778861 467.7 58.1778861ZM475.8 64.5778861 474.3 61.2778861 471.4 61.8778861 471.4 61.9778861C472.9 62.1778861 474.4 63.0778861 475.8 64.5778861L475.8 64.5778861ZM452.1 61.3778861 449 46.7778861C448.6 44.8778861 447.5 44.1778861 445.6 44.5778861 446.4 44.8778861 446.9 45.5778861 447.2 46.6778861L450.5 62.1778861C450.7 63.2778861 450.5 64.0778861 449.9 64.7778861 451.8 64.3778861 452.5 63.2778861 452.1 61.3778861ZM513 55.7778861 500.4 57.3778861 500.2 55.8778861C502.2 55.5778861 503.1 54.5778861 502.8 52.6778861L501.2 39.9778861 492.6 53.7778861C492.8 55.0778861 493.1 55.8778861 493.7 56.1778861 494.1 56.3778861 495 56.4778861 496.4 56.3778861L496.6 57.8778861 484 59.4778861 483.8 57.9778861C485.8 57.6778861 486.7 56.5778861 486.4 54.7778861L484.5 39.9778861C484.3 38.1778861 483.1 37.3778861 481.1 37.4778861L480.9 35.9778861 493.5 34.3778861 493.7 35.8778861C492.3 36.0778861 491.5 36.3778861 491.1 36.6778861 490.6 37.1778861 490.5 37.9778861 490.6 39.2778861L492.2 51.7778861 500.7 37.8778861C500.6 36.7778861 500.2 36.0778861 499.7 35.7778861 499.2 35.4778861 498.4 35.3778861 497.3 35.4778861L497.1 33.9778861 509.7 32.3778861 509.9 33.8778861C508.5 34.0778861 507.7 34.3778861 507.3 34.6778861 506.8 35.1778861 506.6 35.9778861 506.8 37.2778861L508.6 51.6778861C508.8 52.9778861 509.1 53.7778861 509.7 54.0778861 510.1 54.2778861 511 54.3778861 512.4 54.2778861L513 55.7778861ZM505.5 52.2778861 503.6 37.4778861C503.4 35.5778861 502.3 34.7778861 500.4 34.9778861 501.2 35.3778861 501.6 36.1778861 501.8 37.1778861L503.8 52.8778861C503.9 53.9778861 503.7 54.7778861 503 55.3778861 504.9 55.2778861 505.8 54.1778861 505.5 52.2778861ZM489.2 54.3778861 487.4 39.5778861C487.2 37.6778861 486.1 36.8778861 484.2 37.0778861 485 37.4778861 485.4 38.2778861 485.6 39.2778861L487.6 54.9778861C487.7 56.0778861 487.5 56.8778861 486.8 57.4778861 488.6 57.2778861 489.5 56.2778861 489.2 54.3778861ZM546.3 53.3778861 533 54.0778861 532.9 52.5778861C535.3 52.4778861 536.4 51.4778861 536.3 49.4778861L535.9 42.1778861 534.4 42.2778861 531.3 49.3778861C530.5 51.1778861 529.8 52.3778861 529.1 53.0778861 528.2 53.9778861 526.8 54.4778861 525.1 54.5778861L520.7 54.7778861 520.6 53.2778861C521.4 53.2778861 522.2 52.8778861 522.9 52.0778861 523.6 51.2778861 524.5 49.7778861 525.6 47.4778861 526.3 45.7778861 527.1 44.0778861 527.8 42.3778861 524.1 41.8778861 522.2 40.1778861 522 37.1778861 521.8 33.0778861 524.8 30.8778861 531.1 30.5778861L544.8 29.8778861 544.9 31.3778861C543.6 31.4778861 542.8 31.6778861 542.3 31.9778861 541.7 32.3778861 541.5 33.2778861 541.6 34.5778861L542.4 49.2778861C542.5 51.1778861 543.7 52.0778861 546.1 51.9778861L546.3 53.3778861ZM535.9 41.0778861 535.4 31.7778861 531.9 31.9778861C530.4 32.0778861 529.4 32.5778861 528.9 33.3778861 528.4 34.0778861 528.2 35.1778861 528.3 36.7778861 528.5 39.8778861 529.9 41.3778861 532.6 41.2778861L535.9 41.0778861ZM538.8 49.3778861 538 34.5778861C537.9 32.6778861 537.3 31.6778861 536.2 31.7778861L537.1 49.4778861C537.2 50.8778861 536.6 51.8778861 535.5 52.4778861L536 52.4778861C537.1 52.3778861 537.8 52.1778861 538.2 51.7778861 538.7 51.1778861 538.8 50.4778861 538.8 49.3778861ZM527 41.2778861 527 41.1778861C525.6 40.0778861 524.9 38.6778861 524.8 36.8778861 524.7 34.7778861 525.3 33.2778861 526.6 32.2778861L526.6 32.1778861C525.6 32.2778861 524.7 32.7778861 524 33.8778861 523.3 34.8778861 523 35.9778861 523 36.9778861 523.1 39.3778861 524.4 40.7778861 527 41.2778861ZM530.7 42.3778861 528.8 42.3778861 525 50.3778861C524.5 51.4778861 523.7 52.4778861 522.8 53.1778861L523.3 53.1778861C525 53.0778861 526.1 52.2778861 526.9 50.6778861L530.7 42.3778861ZM639 38.3778861C638.5 44.0778861 636 48.4778861 631.6 51.5778861 627.4 54.5778861 622.4 55.7778861 616.6 55.1778861L595.2 53.2778861 595.3 51.7778861C597.3 51.9778861 598.7 51.8778861 599.4 51.4778861 600.4 50.9778861 601 49.7778861 601.2 47.9778861L603.7 20.7778861C603.8 19.3778861 603.3 18.3778861 602.1 17.6778861 601.4 17.2778861 600.2 16.8778861 598.5 16.6778861L598.6 15.1778861 620.9 17.1778861C626.6 17.6778861 631.1 19.8778861 634.6 23.8778861 638.1 27.8778861 639.6 32.6778861 639 38.3778861ZM633.9 38.1778861C634.3 34.1778861 633.9 30.7778861 632.9 27.7778861 631.7 24.0778861 629.5 21.5778861 626.3 20.1778861 625.6 19.8778861 624.6 19.5778861 623.4 19.1778861 630 22.4778861 632.9 28.7778861 632.1 38.0778861 631.3 46.4778861 627.4 51.7778861 620.3 53.9778861 624.4 54.0778861 627.7 52.3778861 630.2 48.9778861 632.3 46.2778861 633.5 42.5778861 633.9 38.1778861ZM631.3 37.8778861C631.7 33.4778861 631.1 29.6778861 629.6 26.4778861 627.8 22.8778861 625 20.4778861 621 19.2778861 619.6 18.7778861 617.9 18.4778861 615.9 18.2778861 613.8 18.0778861 612.3 18.4778861 611.6 19.4778861 611 20.1778861 610.6 21.5778861 610.4 23.6778861L608.2 47.3778861C608 49.7778861 608.2 51.3778861 608.8 52.0778861 609.4 52.7778861 611 53.1778861 613.5 53.3778861 617.4 53.7778861 620.7 53.1778861 623.4 51.5778861 626 50.0778861 627.9 48.0778861 629.2 45.7778861 630.3 43.7778861 631 41.0778861 631.3 37.8778861ZM603.9 48.3778861 606.2 23.2778861C606.4 21.2778861 606.3 19.7778861 606 18.8778861 605.7 17.9778861 604.7 17.4778861 603.1 17.2778861 604.3 17.9778861 604.8 19.3778861 604.6 21.3778861L602.2 48.1778861C602 50.3778861 601.2 51.7778861 599.9 52.2778861 601.3 52.3778861 602.3 52.1778861 603 51.4778861 603.5 50.7778861 603.8 49.7778861 603.9 48.3778861ZM692.9 49.2778861C691.8 54.8778861 688.9 59.0778861 684.2 61.6778861 679.7 64.1778861 674.6 64.8778861 668.9 63.6778861L647.9 59.4778861 648.2 57.9778861C650.2 58.3778861 651.6 58.3778861 652.3 58.0778861 653.4 57.6778861 654.1 56.5778861 654.4 54.7778861L659.7 27.9778861C660 26.5778861 659.6 25.4778861 658.5 24.7778861 657.8 24.2778861 656.7 23.7778861 655 23.3778861L655.3 21.8778861 677.2 26.1778861C682.8 27.2778861 687.1 29.9778861 690.1 34.2778861 693 38.7778861 694 43.6778861 692.9 49.2778861ZM687.8 48.5778861C688.6 44.6778861 688.6 41.1778861 687.9 38.1778861 687.1 34.3778861 685.1 31.6778861 682.1 29.8778861 681.4 29.4778861 680.5 29.0778861 679.3 28.5778861 685.5 32.5778861 687.8 39.1778861 685.9 48.3778861 684.3 56.5778861 679.8 61.4778861 672.5 62.9778861 676.6 63.4778861 680.1 62.1778861 682.9 59.0778861 685.3 56.3778861 687 52.8778861 687.8 48.5778861ZM685.2 47.9778861C686.1 43.6778861 685.9 39.7778861 684.6 36.4778861 683.2 32.6778861 680.6 29.9778861 676.8 28.3778861 675.4 27.7778861 673.8 27.2778861 671.8 26.8778861 669.7 26.4778861 668.2 26.6778861 667.3 27.5778861 666.7 28.1778861 666.1 29.5778861 665.7 31.6778861L661.1 54.9778861C660.6 57.3778861 660.7 58.9778861 661.2 59.6778861 661.8 60.3778861 663.3 60.9778861 665.7 61.4778861 669.5 62.2778861 672.9 61.9778861 675.7 60.6778861 678.4 59.4778861 680.6 57.6778861 682.1 55.4778861 683.6 53.6778861 684.5 51.1778861 685.2 47.9778861ZM656.9 55.5778861 661.8 30.7778861C662.2 28.7778861 662.3 27.2778861 662 26.3778861 661.8 25.4778861 660.8 24.8778861 659.2 24.4778861 660.3 25.3778861 660.7 26.6778861 660.3 28.6778861L655.1 55.0778861C654.7 57.2778861 653.8 58.4778861 652.4 58.8778861 653.8 59.1778861 654.8 58.9778861 655.5 58.3778861 656.2 57.9778861 656.6 56.9778861 656.9 55.5778861ZM745.6 65.1778861C743.9 70.6778861 740.6 74.4778861 735.6 76.5778861 730.9 78.5778861 725.7 78.7778861 720.2 76.9778861L699.7 70.6778861 700.1 69.2778861C702 69.8778861 703.4 70.0778861 704.2 69.8778861 705.3 69.5778861 706.1 68.5778861 706.7 66.7778861L714.8 40.6778861C715.2 39.3778861 714.9 38.1778861 713.9 37.3778861 713.3 36.7778861 712.2 36.2778861 710.6 35.6778861L711 34.2778861 732.4 40.8778861C737.8 42.5778861 741.8 45.6778861 744.4 50.2778861 746.9 54.6778861 747.3 59.6778861 745.6 65.1778861ZM740.7 63.8778861C741.9 60.0778861 742.3 56.6778861 741.9 53.5778861 741.5 49.7778861 739.8 46.7778861 737 44.7778861 736.3 44.2778861 735.5 43.7778861 734.4 43.2778861 740.2 47.8778861 741.7 54.6778861 738.9 63.5778861 736.4 71.5778861 731.5 75.9778861 724 76.6778861 728 77.5778861 731.6 76.6778861 734.7 73.8778861 737.4 71.3778861 739.4 68.0778861 740.7 63.8778861ZM738.1 62.9778861C739.4 58.7778861 739.6 54.9778861 738.8 51.4778861 737.8 47.5778861 735.5 44.6778861 731.9 42.6778861 730.6 41.9778861 729 41.2778861 727.1 40.6778861 725.1 40.0778861 723.6 40.1778861 722.6 40.9778861 721.9 41.5778861 721.2 42.8778861 720.6 44.8778861L713.6 67.5778861C712.9 69.8778861 712.8 71.4778861 713.2 72.2778861 713.7 73.0778861 715.1 73.7778861 717.5 74.5778861 721.2 75.6778861 724.6 75.7778861 727.6 74.8778861 730.5 73.9778861 732.8 72.4778861 734.5 70.3778861 735.9 68.5778861 737.2 66.0778861 738.1 62.9778861ZM709.2 67.6778861 716.6 43.5778861C717.2 41.5778861 717.4 40.1778861 717.3 39.2778861 717.1 38.3778861 716.3 37.6778861 714.8 37.1778861 715.8 38.1778861 716 39.5778861 715.5 41.4778861L707.6 67.1778861C706.9 69.2778861 705.9 70.4778861 704.5 70.6778861 705.8 71.0778861 706.9 71.0778861 707.7 70.4778861 708.3 69.9778861 708.8 68.9778861 709.2 67.6778861ZM770.7 59.8778861C770.3 60.8778861 769.6 61.5778861 768.6 61.9778861 767.6 62.3778861 766.6 62.3778861 765.7 61.9778861 764.7 61.5778861 764.1 60.8778861 763.7 59.8778861 763.3 58.8778861 763.3 57.8778861 763.7 56.9778861 764.1 55.9778861 764.8 55.3778861 765.7 54.9778861 766.6 54.5778861 767.6 54.5778861 768.6 54.9778861 769.6 55.3778861 770.3 56.0778861 770.7 56.9778861 771.1 57.9778861 771.1 58.9778861 770.7 59.8778861ZM760.7 92.0778861 749 87.2778861 749.6 85.8778861C750.6 86.2778861 751.4 86.3778861 752 86.1778861 752.6 85.9778861 753.1 85.3778861 753.5 84.3778861L758.2 72.8778861C758.9 71.2778861 758.4 69.6778861 756.8 68.2778861L757.1 67.4778861 765.7 67.9778861C765.7 67.9778861 766 68.0778861 766.7 68.3778861L759.2 86.5778861C758.7 87.7778861 758.6 88.6778861 759 89.1778861 759.3 89.5778861 760 90.0778861 761.3 90.6778861L760.7 92.0778861ZM766.5 61.3778861C765.8 59.9778861 765.7 58.8778861 766 57.9778861 766.4 56.8778861 767.3 56.2778861 768.7 55.9778861 766.6 55.0778861 765.2 55.5778861 764.5 57.3778861 763.8 59.0778861 764.5 60.4778861 766.5 61.3778861ZM755.9 85.3778861 760.7 73.5778861C761.6 71.3778861 761.1 69.8778861 759.1 69.0778861 758.8 68.9778861 758.5 68.8778861 758.3 68.7778861 759.4 70.0778861 759.6 71.5778861 758.9 73.2778861L754 85.1778861C753.6 86.1778861 752.9 86.7778861 752.1 86.9778861 753.9 87.6778861 755.2 87.0778861 755.9 85.3778861Z"/></g></svg>