<svg xmlns="http://www.w3.org/2000/svg" viewBox="0 0 32 32"><path fill="#4275CA" fill-rule="evenodd" d="M10.63,8.95 L13.95,11.3 L17.07,9.15 L15.37,8.72 L14.07,10.34 L12.27,8.67 L10.63,8.95 Z M7.31,4.76 L5.58,0 L0,2.26 L1.47,5.89 L5.98,4.22 L6.34,5.13 L7.31,4.76 Z M16.18,6.4 C16.18,5.1 15.1,4.02 13.77,4.02 C12.47,4.02 11.39,5.1 11.39,6.4 C11.39,7.96 12.58,8.72 13.77,8.72 C14.99,8.73 16.18,7.93 16.18,6.4 Z M20.18,16.66 L21.91,21.39 L27.49,19.15 L26.02,15.52 L21.51,17.16 L21.14,16.28 L20.18,16.66 Z M17.06,9.55 L14,11.65 L10.66,9.21 C8.73,8.9 8.17,7.17 7.46,5.18 L5.44,6.03 C5.87,9.23 8.22,11.36 10.29,11.67 L10.29,27.2 L13.15,27.09 L13.15,20.29 L14.62,20.38 L14.62,27.18 L17.45,27.18 L17.45,12.3 C18.95,12.84 19.46,14.43 20.09,16.18 L21.99,15.27 C21.65,12.61 19.72,10.03 17.06,9.55 Z" transform="translate(2 2)"/></svg>