<svg xmlns="http://www.w3.org/2000/svg" viewBox="0 0 32 32"><path fill="#4275CA" fill-rule="evenodd" d="M4.62,6.44 L20.27,1.85 L20.27,14.12 L4.62,9.16 L4.62,6.44 Z M3.6,6.44 L0,5.39 L0,10.32 L3.6,9.16 L3.6,6.44 Z M22.53,0 L22.81,0 C23.52,0 24.09,0.6 24.09,1.33 L24.09,14.62 C24.09,15.36 23.52,15.95 22.81,15.95 L22.53,15.95 C21.82,15.95 21.25,15.35 21.25,14.62 L21.25,1.34 C21.26,0.6 21.82,0 22.53,0 Z M15.7,13.3 L15.22,14.75 C15.05,15.29 14.65,15.71 14.2,15.94 L14.17,15.94 C13.72,16.17 13.15,16.22 12.61,16.05 L7.37,14.32 C6.83,14.12 6.43,13.75 6.18,13.27 C5.95,12.82 5.9,12.25 6.07,11.71 L6.55,10.26 L8.45,10.88 L7.97,12.33 C7.97,12.36 7.97,12.39 7.97,12.39 L7.97,12.39 C7.97,12.42 8,12.42 8,12.42 L13.24,14.18 C13.27,14.18 13.3,14.18 13.3,14.18 L13.3,14.18 C13.33,14.15 13.33,14.15 13.33,14.12 L13.81,12.67 L15.7,13.3 Z" transform="translate(4 8)"/></svg>