<svg xmlns="http://www.w3.org/2000/svg" viewBox="0 0 32 32"><path fill="#4275CA" fill-rule="evenodd" d="M0.03,20.64 C1.08,20.64 2.16,20.5 3.12,20.16 C3.97,19.88 4.74,19.48 5.3,18.91 L5.92,18.31 L6.6,18.79 C8.41,19.98 10.37,20.55 12.24,20.52 C14.17,20.49 16.07,19.87 17.71,18.62 L18.33,18.17 L18.93,18.62 C19.87,19.3 20.72,19.84 21.59,20.18 C22.44,20.52 23.35,20.69 24.37,20.66 L24.43,22.73 C23.1,22.76 21.94,22.56 20.83,22.11 C19.98,21.77 19.16,21.32 18.31,20.75 C16.47,21.94 14.4,22.56 12.27,22.59 C10.2,22.62 8.1,22.08 6.12,20.92 C5.41,21.46 4.62,21.86 3.77,22.14 C2.58,22.54 1.28,22.71 0,22.71 L0.03,20.64 Z M19.39,14.72 L17.92,17.58 C17.07,18.12 16.05,18.66 14.92,19.03 L17.41,14.01 L16.39,13.27 L13.36,19.36 C13.05,19.42 12.74,19.45 12.42,19.45 C12.31,19.45 12.19,19.45 12.08,19.45 L15.96,11.65 L12.19,9.78 L7.88,18.45 C7.09,18.05 6.58,17.63 6.26,17.34 L10.12,9.91 C12.16,5.94 14.46,8.97 16.84,3.99 C16.47,3.79 16.33,3.31 16.53,2.94 L17.18,1.66 C17.38,1.26 17.83,1.12 18.23,1.32 L21.72,3.13 C22.09,3.33 22.23,3.78 22.06,4.15 L21.38,5.45 C21.18,5.82 20.73,5.96 20.33,5.76 C17.89,11.06 21.44,10.75 19.39,14.72 Z M18.91,0.91 L21.63,2.24 L22.17,1.36 L19.42,0 L18.91,0.91 Z" transform="translate(4 4)"/></svg>