<?xml version="1.0" encoding="utf-8"?>
<!-- Generator: Adobe Illustrator 25.1.0, SVG Export Plug-In . SVG Version: 6.00 Build 0)  -->
<svg xmlns:xlink="http://www.w3.org/1999/xlink" version="1.1" id="Layer_1" xmlns="http://www.w3.org/2000/svg" x="0px" y="0px"
	 viewBox="0 0 133.23 90.71" style="enable-background:new 0 0 133.23 90.71;" xml:space="preserve">
<style type="text/css">
	.st0{fill-rule:evenodd;clip-rule:evenodd;fill:#0E3899;}
</style>
<g id="Слой_x0020_1">
	<g id="_1981229083248">
		<path class="st0" d="M39.2,66.44l22.93-0.23c0,0,1.64,1.22,4.08,1.16c2.41-0.06,4.28-1.42,4.28-1.42l31.58-0.14l1.39-1.39
			l-3.37-11.51c-0.54-0.45-1.22-0.82-2.04-1.05l2.49,6.12l0.34,5.58l-31.35,0.06c0,0,0-2.64-3.43-2.75
			c-3.46-0.11-3.71,2.78-3.71,2.78L35.4,63.61l0.14-3.32c-0.91-0.06-1.47-0.11-1.47-0.11l6.46-28.43h-1.05l-6.58,28.91l0.99,0.43
			c0,0-0.51,3.03-0.4,3.54c0.14,0.51,5.1,0.54,5.1,0.54l0.71,0.28L39.2,66.44z M40,65.48h20.95v-0.82L39.51,65L40,65.48z
			 M62.11,64.71c0,0,1.33,1.67,3.88,1.53c2.55-0.17,3.4-0.99,3.49-1.42c0.11-0.4,0.17-0.99-0.2-0.85c-0.34,0.14-0.94,1.59-3.17,1.73
			c-2.24,0.14-3.12-0.62-3.51-0.82C62.16,64.69,62.11,64.71,62.11,64.71z M75.06,64.18l0.17,0.4l2.72,0.03l0.09-0.23L75.06,64.18z
			 M75.37,64.89l0.2,0.99l3.46-0.06l-0.17-0.85L75.37,64.89z M95.92,65.25c0.82,0,4.34,0.17,5.67-0.23
			c1.33-0.43,1.11-1.36,1.11-1.36s0.28,0.88-0.48,1.53c-0.74,0.62-2.32,0.45-3.43,0.51c-1.11,0.06-2.86,0.06-2.86,0.06V65.25z"/>
		<path class="st0" d="M102.81,59.61l-1.67,0.71c0,0,0.51,3.03,0.4,3.54c-0.14,0.51-5.1,0.54-5.1,0.54l-0.71,0.28l0.2,1.76
			c0,0,4.45,0,5.87-0.06c1.39-0.03,2.3-0.96,1.64-3.49C103.18,60.49,102.81,59.61,102.81,59.61z M95.92,65.25
			c0.82,0,4.34,0.17,5.67-0.23c1.33-0.43,1.11-1.36,1.11-1.36s0.28,0.88-0.48,1.53c-0.74,0.62-2.32,0.45-3.43,0.51
			c-1.11,0.06-2.86,0.06-2.86,0.06V65.25z"/>
		<path class="st0" d="M102.64,59.24l-1.39-0.17l-0.51,1.33c0,0,0.48,2.95,0.37,3.37c-0.03,0.2-4.65,0.2-4.65,0.2l-1.19-0.03
			c-0.06,0.68,0.09,0.71,0.03,1.39c0.03,0.31,0.26,1.13,0.68,1.3c0,0,4.39-0.03,5.78-0.06c0.26,0,0.51-0.06,0.74-0.11
			c0.45-0.14,0.71-0.17,0.99-0.57c0.26-0.4,0.4-0.94,0.4-1.59c-0.06-1.36-0.54-3.54-0.99-4.9L102.64,59.24z M101.57,59.84l0.96,0.34
			c0.14,0.45,0.34,1.33,0.48,2.78l0.03,0.06c0.11,0.54,0.2,0.99,0.2,1.39c0,0.45-0.11,0.82-0.28,1.05
			c-0.14,0.23-0.37,0.37-0.65,0.45c-0.14,0.03-0.31,0.06-0.51,0.06c-1.13,0.06-4.11,0.14-5.33,0.14l-0.06-0.34
			c-0.28,0-0.48,0-0.48,0v-0.51c0.09,0,0.2,0,0.34,0l-0.17-0.68c1.19-0.03,5.67,0.09,5.84-0.62
			C102.05,63.47,101.71,60.66,101.57,59.84z"/>
		<path class="st0" d="M32.4,60.01l1.39-0.17l0.54,1.33c0,0-0.51,2.95-0.4,3.37c0.06,0.2,4.65,0.2,4.65,0.2l1.19-0.03
			c0.06,0.68-0.09,0.71-0.03,1.39c0,0.31-0.26,1.13-0.65,1.3c-0.03,0-4.42-0.03-5.81-0.06c-0.26-0.03-0.51-0.06-0.74-0.11
			c-0.45-0.14-0.71-0.17-0.99-0.57c-0.26-0.4-0.4-0.94-0.4-1.59c0.06-1.36,0.54-3.54,0.99-4.9L32.4,60.01z M33.48,60.6l-0.96,0.34
			c-0.14,0.45-0.34,1.33-0.48,2.78v0.06c-0.14,0.54-0.2,0.99-0.2,1.39c0,0.45,0.09,0.82,0.26,1.05c0.14,0.23,0.37,0.37,0.65,0.45
			c0.14,0.03,0.34,0.06,0.51,0.06c1.13,0.06,4.11,0.14,5.33,0.14l0.37-1.53c-1.19-0.03-5.67,0.09-5.84-0.62
			C33,64.23,33.34,61.43,33.48,60.6z"/>
		<path class="st0" d="M39.6,35.77l-1.08-0.99l1.02-3.8c-0.03,0.03-0.17-0.57,1.28-0.51l-0.17,0.68c-0.71-0.17-0.51-0.23-0.51-0.23
			v0.23L39.4,34.1l0.57,0.11L39.6,35.77z"/>
		<path class="st0" d="M35.97,60.32l-0.11,2.86l26.19,0.06c0.17-0.77,0.88-2.52,3.29-2.75c0.09,0.06,0.14,0.14,0.23,0.23v-0.26
			c0.17,0,0.34,0,0.54,0c2.95,0.09,3.66,1.9,3.8,2.75l30.53-0.06l-0.31-5.07l-2.58-6.35c0.37,0.09,0.71,0.2,1.05,0.31l2.35,5.81
			l0.03,0.14l0.37,6.01c-10.74,0-21.49,0.03-32.23,0.06v-0.43c0-0.03,0-2.24-3-2.32c-3.06-0.11-3.29,2.41-3.29,2.41l-0.06,0.37
			l-27.78-0.06l0.14-3.77C35.35,60.26,35.63,60.29,35.97,60.32z M66.56,31.35l-0.06,0.03c-0.09-0.14-0.23-0.37-0.43-0.62
			c0.06,0,0.11,0.03,0.14,0.03c0.14,0,0.26-0.06,0.37-0.11L66.56,31.35z"/>
		<path class="st0" d="M104.12,55.19l4.48-0.06c0,0,0.65,0,0.26-0.14c-0.37-0.11-0.37-0.26-1.08-0.26c-0.71,0-3.8,0-3.8,0
			L104.12,55.19z M109.25,36.88h2.69c0,0,0.51,0,0.23,0.09c-0.31,0.09-0.45,0.11-0.99,0.11c-0.57,0-1.81,0.03-1.81,0.03
			L109.25,36.88z M98.33,36.88h8.87c0,0,1.7,0,0.71,0.09s-0.99,0.2-2.81,0.2c-1.84,0-6.58,0.2-6.58,0.2L98.33,36.88z M118.32,51.65
			h2.66c0,0,0.51,0,0.23,0.11c-0.31,0.09-0.31,0.17-0.85,0.17c-0.57,0-2.01,0.09-2.01,0.09L118.32,51.65z M102.81,51.7l13.69-0.06
			c0,0,1.22-0.06,0.74,0.06c-0.37,0.06,0.57,0.17,0.23,0.23c-0.14,0-1.73,0-1.98,0c-0.91,0-12.39,0.26-12.39,0.26L102.81,51.7z
			 M102.16,48.44l9.33,0.11c0,0,0.51,0,0.2,0.09c-0.31,0.11-0.31,0.2-0.85,0.2c-0.57,0-8.5,0.06-8.5,0.06L102.16,48.44z
			 M99.61,42.69l20.58-0.03c0,0,0.88,0,0.37,0.09c-0.54,0.11-0.54,0.2-1.47,0.2c-0.96,0-19.33,0.28-19.33,0.28L99.61,42.69z
			 M98.99,39.83h12.64c0,0,0.51,0,0.2,0.09c-0.28,0.09-0.28,0.2-0.85,0.2c-0.54,0-11.82,0.2-11.82,0.2L98.99,39.83z M100.43,45.24
			l15.48,0.17c0,0,1.08,0,0.45,0.11c-0.62,0.09-0.62,0.17-1.76,0.17c-1.16,0-14,0.03-14,0.03L100.43,45.24z M97.57,34.41
			c0,0,19.45-0.11,23.33-0.17c3.88-0.06,4.56,0.09,5.36-0.11c0.82-0.17,1.19-0.26,0.2-0.26c-1.02,0-26.65,0.11-29.06,0.14
			c-0.03,0.11-0.03,0.2-0.06,0.31C97.46,34.38,97.57,34.41,97.57,34.41z"/>
		<path class="st0" d="M29.71,54.17l-3.4-0.09c0,0-0.65,0-0.26-0.11c0.37-0.11,0.37-0.2,1.08-0.2c0.71,0.03,2.38-0.17,2.38-0.17
			L29.71,54.17z M30.73,51.59l-15.51-0.2c0,0-1.05,0-0.43-0.11s0.62-0.2,1.76-0.2c1.16,0,13.83-0.03,13.83-0.03L30.73,51.59z
			 M23.05,48.02l-15.48-0.2c0,0-1.08,0-0.45-0.11c0.62-0.11,0.62-0.23,1.79-0.23c1.13,0,13.8,0,13.8,0L23.05,48.02z M32.2,34.64
			h2.69c0,0,0.51,0,0.2-0.11c-0.28-0.11,0-0.26-0.54-0.26c-0.57,0-2.15,0.06-2.15,0.06L32.2,34.64z M21.26,34.64h8.9
			c0,0,2.38-0.26,1.39-0.37c-0.99-0.11-1.67,0.03-3.51,0.03s-5.98,0-5.98,0L21.26,34.64z M6.94,37.59l23.64,0.03
			c0.88,0,2.86-0.03,3.66-0.11c1.02-0.11,0.2-0.4-0.34-0.43c-1.22-0.09-5.47,0.23-8.93,0.23c-4.88,0-17.35,0.03-17.35,0.03
			L6.94,37.59z M18.26,40.31H7.43c0,0-2.07,0-0.88-0.11c1.22-0.09,1.22-0.2,3.46-0.2s7.68-0.09,7.68-0.09L18.26,40.31z M19.62,40.31
			l12.08,0.03c0.54,0,1.5-0.11,1.84-0.06c0.09,0.03,0.71-0.51,0.31-0.51c-2.24,0-13.55,0-13.55,0L19.62,40.31z M32.66,42.8
			l-11.28-0.06c0,0-0.71-0.03-0.28-0.11c0.4-0.11,0.4-0.2,1.16-0.17c0.77,0.03,10.4-0.23,10.4-0.23V42.8z M32.2,45.35l-3.43-0.06
			c0,0-0.62-0.03-0.26-0.11c0.37-0.11,0.37-0.23,1.08-0.2c0.71,0,2.47-0.17,2.47-0.17L32.2,45.35z M27.24,48.13l-2.69-0.06
			c0,0-0.51-0.03-0.2-0.11c0.28-0.11,0.28-0.23,0.85-0.2c0.54,0,1.87,0.14,1.87,0.14L27.24,48.13z M30.93,48.33l-2.69-0.09
			c0,0-0.51,0-0.2-0.11c0.28-0.09,0.28-0.2,0.85-0.2c0.54,0.03,1.87-0.17,1.87-0.17L30.93,48.33z"/>
		<path class="st0" d="M41.84,27.01l-7.85,33.19c10.12,0.82,25.06-5.98,31.18-0.45l1.08-28.23c-0.4-0.68-2.89-4.37-6.77-4.48
			c-2.49-0.09-4.73,0.43-6.83,0.88C48.95,28.74,45.47,29.48,41.84,27.01z M33.68,60.07l7.88-34.27l0.51,0.4
			c3.51,2.66,6.92,2.07,10.57,1.25c2.15-0.48,4.31-1.05,6.92-0.96c2.95,0.09,5.07,1.96,6.29,3.34c0.77,0.88,1.13,1.59,1.13,1.59
			l0.06,0.23l-1.08,30.1L65.25,61c-5.44-5.81-21.34,0.34-31.21-0.4l-0.48-0.06L33.68,60.07z"/>
		<path class="st0" d="M68.34,58.51c2.95-0.79,12.78-4.31,29.79-3.83l-0.14-0.48c-7.26-0.43-20.52,1.33-20.52,1.33
			c5.22-0.82,14.31-1.84,20.44-1.64l-0.09-0.31c-6.66-0.06-13.75,0.48-13.75,0.48c3.49-0.34,8.76-0.71,13.66-0.71
			c-0.14-0.6-0.34-1.22-0.45-1.67c-7.48-1.59-23.05,3.51-29.17,6.8L68.34,58.51z"/>
		<path class="st0" d="M99.01,52.24c0.6,1.93,1.22,3.86,1.87,5.78l0.31,0.85l-0.85-0.31c-5.05-2.01-14.8-1.9-22.68-0.99
			c-1.62,0.2-11.08,1.53-11.68,2.98v0.09l-0.85,0.03c0-0.09,0-0.2,0-0.28c0.2-4.82,0.37-10.01,0.54-15.19
			c0.17-5.27,0.28-9.58,0.45-14.43l0.06-0.2c0.14-0.23,0.28-0.45,0.43-0.68c-0.34,9.72-0.68,21-1.05,30.73
			c-0.06-0.37,0.6-0.96,1.7-1.64c2.69-0.74,8.39-1.76,9.55-1.9c7.6-0.88,17.91-1.02,23.27,0.74c-0.65-1.96-1.3-3.91-1.9-5.9
			C98.48,52.02,98.76,52.1,99.01,52.24z"/>
		<path class="st0" d="M91.05,19.98c1.53,5.87,3.26,11.71,5.07,17.72c1.64,5.44,3.2,11.03,5.1,16.36l-0.57,0.17
			c-1.19-2.38-5.3-2.78-10.26-2.18c-3.49,0.43-7.4,1.36-11.06,2.47c-3.66,1.13-7.03,2.44-9.52,3.6c-2.24,1.05-3.69,1.93-3.83,2.35
			v0.17l-0.85,0.03c0-0.06,0-0.11,0-0.17c0.2-4.88,0.37-10.12,0.54-15.39c0.17-5.13,0.23-9.64,0.57-14.74
			c2.24-3.91,5.95-7.11,9.89-8.7c5.92-2.41,12.25-2.49,14.6-1.79l0.17-0.11L91.05,19.98z M95.61,38.55
			c-1.81-5.95-3.54-12.7-5.05-18.51c-2.41-0.6-8.53-0.14-14.09,2.13c-3.74,1.53-7.48,4.65-9.58,8.31c-0.2,4.9-0.2,9.47-0.37,14.68
			c-0.17,4.85-0.34,9.67-0.48,14.17c0.74-0.6,1.9-1.28,3.4-1.98c2.49-1.19,5.95-2.52,9.64-3.66c3.69-1.11,7.63-2.07,11.17-2.49
			c4.08-0.48,7.65-0.28,9.69,1.08C98.33,47.57,97.06,43.37,95.61,38.55z"/>
		<path class="st0" d="M100.37,58.65c-7.17-1.3-11.54-1.13-18.77-0.74c15.14-0.2,18.77,1.3,18.77,1.3
			C100.37,58.93,100.37,58.96,100.37,58.65z"/>
		<path class="st0" d="M100.49,59.44c-4.9-0.88-12.47-1.36-18.11-0.85c10.54-0.03,16.41,0.88,18.2,1.5
			C100.46,59.61,100.49,59.75,100.49,59.44z"/>
		<path class="st0" d="M65.88,60.38c1.98-1.13,9.86-2.07,10.29-2.07c-3.54,0.71-6.72,1.19-9.47,2.24
			C66.47,60.38,66.1,60.55,65.88,60.38z"/>
		<path class="st0" d="M67.01,60.75c0.79-0.11,7.91-0.91,6.09-0.57l-5.39,1.02L67.01,60.75z"/>
		<path class="st0" d="M45.33,36.88c0.09-0.06,0.31,0,0.43,0c0.11,0,0.11-0.11,0.17-0.11c0.09,0,0.26,0,0.45,0.03
			c0.17,0.03-0.03-0.09,0.03,0.06c0.06,0.14-0.03,0.31-0.03,0.43c-0.03,0.09,0.06,0.17-0.2,0.11c-0.26-0.03-0.11,0-0.17,0
			c-0.06,0-0.09-0.03-0.23-0.03c-0.17-0.03-0.43,0.23-0.51-0.03c-0.09-0.26,0.14-0.14,0.14-0.26
			C45.38,36.99,45.24,36.94,45.33,36.88z"/>
		<path class="st0" d="M43.97,36.99c0-0.11,0.6-0.06,0.91-0.03c0.31,0,0.2-0.17,0.26,0s-0.06,0.34-0.11,0.48
			c-0.09,0.17,0.03,0-0.23,0c-0.28,0-0.79,0.14-0.79,0.03C43.99,37.36,43.97,37.08,43.97,36.99z"/>
		<path class="st0" d="M46.94,33.53c0.09-0.03,0.23-0.06,0.28,0.03c0.06,0.09-0.03,0.23-0.09,0.31c-0.06,0.03-0.17,0.03-0.17-0.03
			c-0.06-0.34-0.06-0.17-0.06-0.23C46.91,33.56,46.89,33.53,46.94,33.53z M45.35,33.45c0-0.03,0.03,0,0.06,0
			c0.26,0,0.54,0,0.82,0.03c0.14,0,0.28-0.03,0.43,0.03c0.03,0,0,0.06,0,0.09c0,0.23,0.17,0.17,0.03,0.37
			c-0.06,0.11-0.26-0.03-0.37-0.03c-0.28,0-0.57-0.03-0.85-0.03c-0.11,0-0.31,0.06-0.31-0.03c0.06-0.28,0.14-0.14,0.17-0.28
			C45.35,33.42,45.33,33.48,45.35,33.45z M44.48,33.48c0.17-0.09,0.4-0.09,0.43,0c0.09,0.23,0.17,0.26,0.06,0.51
			c-0.03,0.09-0.2,0.06-0.28,0.03c-0.06-0.03-0.17,0.03-0.23-0.09C44.36,33.82,44.36,33.56,44.48,33.48z"/>
		<path class="st0" d="M60.52,35.26c0.06-0.06,0.14,0,0.26,0.03c0.11,0.03,0.26-0.03,0.31,0.06c0.09,0.17,0,0.4,0,0.57
			c0,0-0.09,0-0.45-0.06c-0.11-0.03-0.17,0-0.17-0.03c0-0.34,0.03-0.37,0.03-0.45C60.49,35.32,60.49,35.26,60.52,35.26z"/>
		<path class="st0" d="M58.93,35.23c0.06-0.03,0.17,0,0.26,0c0.31,0,0.62,0.03,0.94,0.03c0.06,0,0.09-0.03,0.11,0s0,0.06,0,0.09
			c0.03,0.26,0.03,0.26-0.03,0.48c0,0.03-0.06,0-0.09,0c-0.31,0-0.62-0.03-0.94-0.03c-0.23,0-0.54,0.14-0.54,0
			c0.03-0.34,0.23-0.31,0.26-0.45C58.93,35.18,58.9,35.23,58.93,35.23z"/>
		<path class="st0" d="M58.28,35.26c0,0,0.14-0.14,0.2-0.03c0.11,0.23,0,0.34-0.03,0.6c0,0.03-0.06,0.03-0.06,0
			C58.34,35.66,58.31,35.46,58.28,35.26z"/>
		<path class="st0" d="M60.8,32.14c0.37,0,0.77,0.14,0.77,0.17c-0.03,0.2-0.03,0.43-0.06,0.65c-0.03,0.06-0.2-0.34-0.57-0.14
			c-0.14,0.09-0.06-0.28-0.11-0.6C60.83,32.2,60.77,32.14,60.8,32.14z"/>
		<path class="st0" d="M58.9,32.12c0.17-0.11,0.28-0.14,0.4-0.09c0.09,0.03,0.17,0.06,0.51,0.09c0,0,0.03-0.03,0.03,0
			c0.03,0.28,0.03,0.17,0,0.37c0,0.2,0.23,0.03,0.23-0.06c0-0.09-0.11-0.2,0.03-0.31c0.14-0.11,0.37,0,0.54,0.03
			c0.03,0,0.06-0.03,0.06,0c-0.03,0.06-0.06,0.11-0.11,0.14c-0.06,0.06,0.11,0.2-0.03,0.34c-0.2,0.17-0.48,0-0.74-0.03
			c-0.45,0-0.62,0.11-0.79,0.03c-0.06,0-0.2,0.09-0.23-0.03C58.73,32.46,58.76,32.2,58.9,32.12z"/>
		<path class="st0" d="M59.56,39.17c0.14-0.06,0.31,0.03,0.45,0.03c0.37,0,0.99,0.2,0.99,0.2c-0.03,0.2-0.06,0.4-0.09,0.6
			c0,0-0.54-0.31-0.85-0.34c-0.17,0-0.45,0.14-0.54,0c-0.14-0.26,0-0.17,0-0.23C59.53,39.34,59.47,39.23,59.56,39.17z"/>
		<path class="st0" d="M58.2,39.15c0.17-0.09,0.37-0.09,0.48-0.06c0.09,0.03,0.2,0.06,0.51,0.09c0.03,0,0.06-0.03,0.09,0
			c0,0.06-0.03,0.09,0,0.23c0,0.14,0.03,0.03,0,0.23c0,0.03,0,0.03,0,0.06c-0.45,0.34-0.65-0.11-0.82-0.2
			c-0.06-0.03-0.17,0.17-0.26,0.06C58.14,39.46,58.08,39.2,58.2,39.15z"/>
		<path class="st0" d="M58.88,47c0.34-0.03,0.91,0.06,0.91,0.09c0,0.17-0.03,0.37-0.03,0.54c0,0-0.62-0.09-0.94-0.09
			c-0.06,0-0.2,0.06-0.17,0c0.09-0.34,0.17-0.28,0.2-0.43C58.88,46.97,58.82,47,58.88,47z"/>
		<path class="st0" d="M57.03,47.03c0.17-0.09,0.28-0.06,0.4-0.03c0.09,0.06,0.2-0.06,0.51-0.03c0.17,0,0.4-0.14,0.48,0
			c0.11,0.2,0.14,0.34,0,0.54c-0.06,0.14-0.28,0-0.43,0c-0.45-0.03-0.65,0.06-0.82,0c-0.06-0.03-0.17,0.03-0.23-0.09
			C56.89,47.31,56.89,47.08,57.03,47.03z"/>
		<path class="st0" d="M53.23,47.57c0.03,0,0.06,0,0.09,0.03c0.14,0,0.23,0,0.31-0.03c0.4-0.11,0.88-0.17,0.88-0.17
			c0,0.2,0,0.43,0,0.62c0,0-0.31,0.03-0.6,0.11c-0.03,0.03-0.06,0.06-0.06,0.03c-0.06-0.09-0.03-0.17-0.06-0.26
			c-0.09-0.43-0.17,0.03-0.23,0.09c-0.09,0.03,0,0.11-0.09,0.2c-0.03,0.06-0.11,0-0.2,0c-0.06,0-0.2,0.09-0.26,0
			c-0.09-0.17,0.06-0.28,0.06-0.4C53.12,47.71,53.18,47.62,53.23,47.57z"/>
		<path class="st0" d="M50.91,47.85c0.23-0.11,0.43-0.09,0.57-0.14c0.28-0.06,0.51-0.11,1.05-0.14c0.09,0,0.26-0.09,0.28,0
			c0.09,0.2,0.09,0.34,0,0.6c0,0.09-0.14,0-0.26,0.03c-0.4,0-0.62,0.06-0.82,0.11c-0.23,0.06-0.45,0.06-0.82,0.17
			c-0.09,0-0.09,0.31-0.09,0.23c0-0.28,0.06-0.77,0.06-0.82C50.88,47.79,50.83,47.88,50.91,47.85z"/>
		<path class="st0" d="M49.32,48.1c0.43-0.03,0.85-0.26,1.28-0.23c0.06,0,0,0.06,0,0.2c0.03,0.14,0.17,0.31,0,0.43
			c-0.28,0.11-0.4,0.03-0.71,0.11c-0.23,0.06-0.54,0.26-0.71,0.09c-0.26-0.23,0.09-0.31,0.11-0.45
			C49.32,48.08,49.29,48.13,49.32,48.1z"/>
		<path class="st0" d="M48.56,48.1c0.06-0.09,0.28-0.09,0.31,0.03c0.09,0.23,0.06,0.43-0.06,0.65c-0.03,0.09-0.23,0.09-0.26,0
			C48.47,48.59,48.47,48.3,48.56,48.1z"/>
		<path class="st0" d="M52.78,43.31c0.23-0.17,0.45-0.03,0.6,0c0.14,0,0.23,0,0.31-0.03c0.4-0.11,0.88-0.17,0.88-0.17
			c0,0.2,0.03,0.4,0.03,0.57c0,0-0.31,0.06-0.6,0.14c-0.26,0.06-0.4,0.06-0.62,0.03c-0.14,0-0.37,0-0.74,0h-0.03
			c0-0.06,0.03-0.11,0.06-0.14C52.72,43.51,52.58,43.46,52.78,43.31z"/>
		<path class="st0" d="M50.68,43.71c0.06-0.03,0.11-0.03,0.2-0.03c0.31-0.03,0.48-0.2,0.65-0.23c0.23-0.09,0.51-0.28,0.88-0.11
			c0.2,0.09,0.03,0.28,0.06,0.51l0,0c-0.31,0.03-0.57,0.11-0.74,0.17c-0.14,0.03-0.23,0.09-0.4,0.09c-0.03,0-0.03-0.03-0.03-0.03
			c-0.26-0.37-0.23-0.11-0.31-0.06c-0.06,0.06-0.03,0.14-0.06,0.28l0,0c-0.17,0.03-0.31,0.03-0.45,0.03l0,0
			c0-0.11,0.11-0.43,0.14-0.51C50.63,43.74,50.63,43.71,50.68,43.71z"/>
		<path class="st0" d="M48.61,43.94c0.26-0.14,0.48,0,0.74-0.06c0.34-0.06,0.68-0.26,0.96-0.14c0.26,0.09,0.14,0.54-0.06,0.62
			c-0.26,0.14-0.57-0.03-0.85,0c-0.28,0-0.57,0.26-0.79,0.14c-0.11-0.03-0.03-0.2-0.03-0.28C48.59,44.14,48.56,43.99,48.61,43.94z"
			/>
		<path class="st0" d="M54.48,39.12c0.14-0.09,0.31-0.03,0.48-0.03c0.28,0,0.48-0.03,0.48-0.03c0.03,0.14,0.03,0.37,0.06,0.51
			c0.03,0-0.2,0.11-0.54,0.06c-0.06,0-0.03-0.11-0.03-0.17c-0.09-0.43-0.09,0.03-0.14,0.06c-0.06,0.06-0.11,0.09-0.14,0.11
			c-0.03,0.03-0.09-0.03-0.11,0c-0.09,0-0.31,0.17-0.37,0.09c-0.09-0.17,0.09-0.06,0.11-0.17C54.28,39.43,54.43,39.17,54.48,39.12z"
			/>
		<path class="st0" d="M52.13,39.34c0.11-0.11,0.31-0.03,0.54-0.03c0.74,0.03,0.37-0.06,1.02-0.09c0.14-0.03,0.28-0.11,0.34-0.03
			c0.11,0.2,0.06,0.26-0.03,0.51c0,0.09-0.17,0.03-0.26,0.03c-0.71,0.03-0.28,0.14-1.11,0.11c-0.28-0.03-0.51,0.14-0.6,0.03
			c-0.11-0.14,0.06,0.03,0.06-0.09C52.1,39.71,52.07,39.37,52.13,39.34z"/>
		<path class="st0" d="M50.49,39.66c0.23-0.03,0.43-0.06,0.57-0.11c0.11,0,0.23,0,0.31-0.03c0.26-0.06,0.45-0.31,0.68-0.17
			c0.17,0.11-0.23,0.17-0.23,0.45c0.03,0.28,0-0.11-0.03,0.06c-0.03,0.03-0.09,0.03-0.14,0.03c-0.11,0.03-0.23,0.03-0.34,0.06
			c-0.31,0.09-0.94,0.54-1.16,0.17s0.28-0.11,0.34-0.43V39.66z"/>
		<path class="st0" d="M49.07,39.74c0,0,0.51-0.26,0.99-0.03c0.26,0.11,0.11,0.34-0.06,0.43c-0.48,0.2-0.99,0.03-0.99,0.03
			C49.01,40.03,49.04,39.88,49.07,39.74z"/>
		<path class="st0" d="M54.68,35.8c0-0.03,0.06,0,0.09-0.03c0.4-0.11,0.88-0.14,0.88-0.14c0,0.14,0.06,0.31,0.03,0.48
			c0,0.06-0.11,0.06-0.14,0.03c-0.06-0.14-0.06,0.06-0.11-0.26c-0.06-0.28-0.17,0.03-0.26,0.09s0,0.03-0.03,0.26
			c0,0.03-0.03,0-0.06,0c-0.23,0.09-0.37,0.17-0.54,0.06c-0.09-0.06,0.14-0.17,0.14-0.26C54.68,35.97,54.62,36,54.68,35.8z"/>
		<path class="st0" d="M52.47,35.86c0-0.03,0.06,0.03,0.11,0.03c0.26-0.06,0.57-0.11,1.08-0.14c0.37,0,0.74-0.14,0.82,0
			c0.14,0.28-0.03,0.37-0.03,0.51v0.03c-0.14,0-0.37,0-0.71,0c-0.57-0.03-0.71-0.06-0.85,0.03c-0.11,0.09-0.34,0.26-0.4,0.11
			C52.36,36.06,52.44,36,52.47,35.86z"/>
		<path class="st0" d="M49.72,36.26c0.17-0.17,0.62-0.23,0.71,0c0.23,0.43-0.06,0.82,0.11,0.48c0.14-0.31,0.11-0.4,0.28-0.51
			c0.31-0.14,0.74-0.23,1.11-0.26c0.11-0.03,0.26-0.14,0.28-0.06c0.09,0.28,0.06,0.4,0,0.65c0,0.03-0.09,0-0.11,0
			c-0.82,0.09-1.67,0.4-2.44,0.34c-0.06,0-0.06-0.09-0.09-0.14c-0.03,0,0-0.03,0-0.03C49.63,36.57,49.52,36.4,49.72,36.26z"/>
		<path class="st0" d="M56.1,32.57c0.11,0.06,0.03,0.26-0.03,0.31c-0.06,0.06-0.09-0.14-0.14-0.14c-0.06,0.03,0.03,0.11,0.03,0.17
			C55.98,33.02,56.01,32.54,56.1,32.57z"/>
		<path class="st0" d="M51.34,32.8c0.03-0.06,0.14,0,0.2,0c0.14,0,0.11,0.14,0.48,0.03c0.2-0.06,0.31-0.2,0.37-0.23
			c0.17-0.06,0.17-0.06,0.43-0.06c0.11,0,0.17,0.03,0.2,0.03c0.09,0,0.14-0.03,0.23-0.06c0.14-0.03,0.14-0.03,0.14-0.03
			c0.09-0.06,0.17,0,0.45-0.03c0.06,0,0.09-0.03,0.14-0.03c0.11-0.03,0.28-0.06,0.57-0.09c0.14-0.03,0.31,0.54,0.43,0.54
			c0.28,0-0.06-0.51,0.03-0.51c0.31-0.03,0.65-0.34,0.88-0.11s0,0.45-0.03,0.51c-0.03,0.09-0.14,0.09-0.23,0.11
			c-0.03,0.03-0.09,0.03-0.11,0.03c0,0-0.54-0.03-0.96,0c-0.26,0.03-0.31,0.06-0.4,0.06C54.06,33,53.97,33,53.89,33.02
			c-0.06,0,0-0.06-0.03-0.03c-0.06,0.03-0.11-0.03-0.43,0.03c-0.06,0.03-0.31,0.09-0.37,0.09c-0.06,0-0.09,0.06-0.14,0.06
			c-0.06,0-0.17,0.03-0.26,0.03c-0.06,0.03-0.34-0.4-0.6-0.31c-0.48,0.11-0.31,0.6-0.6,0.57c-0.09,0-0.17,0-0.26,0
			c0,0-0.03,0-0.06,0c-0.03-0.03,0-0.03,0-0.06C51.25,33.19,51.25,33.02,51.34,32.8z"/>
		<path class="st0" d="M49.86,33.11c0.09-0.06,0.17-0.26,0.4-0.23s0.48,0.43,0.71-0.09c0-0.03-0.03,0-0.03,0
			c0.06,0.2,0.17,0.43,0.03,0.65c-0.09,0.17-0.37,0.11-0.57,0.09c-0.14-0.03,0-0.48-0.54-0.03c-0.06,0.03,0,0.11,0,0.17
			c0,0.09-0.06-0.34-0.06-0.37C49.8,33.25,49.78,33.14,49.86,33.11z"/>
		<path class="st0" d="M70.04,46.8c0,0,0,0.2,0.94,1.39c1.08,1.36,1.02,3.17,1.02,3.17l-0.26-0.57c0,0-0.2-0.99-1.13-2.18
			c-1.05-1.33-0.82-1.67-0.82-1.67L70.04,46.8z"/>
		<path class="st0" d="M68.49,31.72c0,0,1.47,1.02,1.5,1.5c0.06,1.11,0.23,2.98,0.57,3.43c0.34,0.4,0.23,0.71,0.03,0.96
			c0.06-0.06,0.14-0.09,0.2-0.14c0.34-0.23,0.62-0.43,1.33,0.2c0.31,0.28,0.6,0.34,0.79,0.4c0.48,0.09,0.71,0.14,0.62,1.08
			c-0.03,0.54-0.09,0.79-0.11,0.94c-0.03,0.2-0.06,0.23,0,0.57l0.06,0.34c0.03,0,0.14,0.03,0.34,0.06c0.17,0.03,0.43,0.06,0.77,0.11
			c0.45,0.11,0.54-0.09,0.6-0.2c0.03-0.09,0.06-0.17,0.14-0.23c0.23-0.14,0.43-0.03,0.99,0.68c0.82,1.11,0.31,1.47-0.17,1.84
			c-0.2,0.14-0.4,0.28-0.37,0.51c0.03,0.17,0.06,0.34,0.06,0.48c0.03,0.43,0.03,0.65,0.74,0.68c1.13,0.03-0.57-0.03,2.55-0.26
			c1.22-0.09,1.87-0.31,2.38-0.51c0.85-0.28,1.33-0.45,2.89,0.26l3,1.3l0.11,0.09l2.35,2.44h-0.57l-2.1-2.1l-2.98-1.3
			c-1.42-0.6-1.81-0.45-2.55-0.2c-0.51,0.17-1.22,0.43-2.49,0.51c-3.17,0.23-1.5,0.28-2.61,0.26c-1.16-0.03-1.16-0.4-1.22-1.16
			c0-0.11-0.03-0.26-0.03-0.43c-0.09-0.51,0.23-0.74,0.54-0.96c0.28-0.23,0.6-0.43,0.06-1.16c-0.31-0.4-0.23-0.62-0.31-0.57
			c0,0,0.03,0,0,0.03c-0.11,0.26-0.28,0.65-1.11,0.48c-0.31-0.06-0.57-0.09-0.74-0.11c-0.23-0.06-0.37-0.06-0.51-0.14
			c-0.2-0.11-0.23-0.23-0.28-0.57v-0.09c-0.09-0.45-0.09-0.51-0.03-0.77c0.03-0.14,0.09-0.37,0.11-0.88
			c0.06-0.51-0.03-0.51-0.23-0.57c-0.17-0.03-0.43-0.09-0.68-0.26c0.43,0.48,0.77,1.22-0.03,1.98c-0.54,0.54-0.74,0.62-0.88,0.71
			c-0.14,0.06-0.2,0.09-0.65,0.68c-0.37,0.48-0.6,0.65-0.74,0.77c-0.11,0.09-0.11,0.09-0.11,0.88v2.69c0,0.31,0.11,0.51,0.2,0.68
			c0.17,0.34,0.34,0.62,0.11,1.3c-0.34,1.05-1.76,2.83-1.76,2.83l0.54-0.96c0,0,0.45-1.08,0.77-2.04c0.17-0.48,0.06-0.68-0.09-0.91
			c-0.11-0.23-0.26-0.48-0.26-0.94v-2.69c0-1.02,0-1.02,0.31-1.25c0.11-0.09,0.31-0.23,0.62-0.65c0.51-0.71,0.62-0.77,0.82-0.85
			c0.11-0.06,0.28-0.11,0.77-0.6c0.91-0.88-0.51-1.76-0.51-1.76l0.23-0.37c-0.2-0.06-0.31,0-0.43,0.09
			c-0.2,0.14-0.43,0.28-0.79,0.28c-0.34-0.03-0.48-0.14-0.48-0.34c0-0.14,0.11-0.23,0.23-0.34c0.14-0.11,0.34-0.34,0.17-0.54
			c-0.4-0.51-0.62-2.38-0.74-3.57c-0.06-0.57-0.88-0.74-0.88-0.74L68.49,31.72z"/>
		<path class="st0" d="M72.94,38.38c0.28,0,1.9-0.48,2.98-0.74c0.57-0.14,0.4,0.03,0.4,0.03l-2.98,1.08L72.94,38.38z"/>
		<path class="st0" d="M68.66,30.16l-0.03,5.3c1.59-1.25,3.57-2.38,5.67-3.32l-0.48-5.5C72.14,27.55,70.41,28.71,68.66,30.16z
			 M68.63,35.91l-0.06,8.5c1.81-1.42,4.08-2.69,6.49-3.77l-0.74-8.14C72.2,33.48,70.21,34.61,68.63,35.91z M68.57,44.87l-0.06,9.95
			c0.85-0.48,3.57-2.01,7.51-3.49l-0.91-10.32C72.65,42.09,70.38,43.4,68.57,44.87z M68.17,55.13l0.06-10.35l-0.06-0.03l0.06-0.06
			l0.09-14.71l0.06-0.06c10.83-8.9,20.38-6.86,20.41-6.86l0.09,0.03c2.44,8.56,4.76,17.15,7.14,25.71l-0.34-0.14
			c0,0-2.83-1.3-11.79,0.68c-2.78,0.6-5.3,1.39-7.48,2.21v0.03l-0.11,0.03c-4.79,1.79-7.82,3.66-7.85,3.66l-0.26,0.17V55.13z
			 M76.37,51.19c2.18-0.79,4.71-1.59,7.46-2.18c0.68-0.17,1.36-0.31,1.98-0.43l-1.79-10.57c-1.39,0.34-2.83,0.74-4.31,1.22
			c-1.45,0.48-2.89,1.02-4.28,1.64L76.37,51.19z M86.14,48.53c5.78-1.02,8.48-0.51,9.35-0.28l-3.09-11.11l0,0
			c-1.76-0.26-4.71,0.06-8.05,0.82L86.14,48.53z M92.3,36.77l-2.18-7.91c-1.56-0.23-4.17,0.09-7.14,0.77l1.33,7.99
			C87.59,36.85,90.51,36.54,92.3,36.77z M90.03,28.54l-1.42-5.16c-0.54-0.09-3.12-0.45-6.75,0.26l1.05,5.64
			C85.83,28.63,88.41,28.35,90.03,28.54z M81.61,23.7c-2.18,0.45-4.79,1.3-7.57,2.81h0.11l0.48,5.47c1.28-0.57,2.61-1.05,3.94-1.5
			c1.36-0.43,2.69-0.82,4-1.11L81.61,23.7z M78.69,30.81c-1.36,0.45-2.72,0.96-4.03,1.53l0.74,8.16c1.36-0.6,2.78-1.13,4.2-1.59
			c1.47-0.48,2.95-0.91,4.37-1.25l-1.33-7.97C81.35,29.99,80.02,30.39,78.69,30.81z"/>
		<path class="st0" d="M77.58,25.88c0,0,0.2-0.11,0.6-0.28v0.03c0,0.17,0.03,0.4,0.06,0.57c-0.37,0.14-0.57,0.23-0.57,0.23
			L77.58,25.88z M78.52,25.46c0.14-0.06,0.28-0.11,0.45-0.17c0.03,0.2,0.09,0.43,0.17,0.6c-0.23,0.09-0.43,0.14-0.6,0.2l-0.03-0.45
			V25.46z M79.29,25.17c0.11-0.03,0.23-0.09,0.34-0.11c0.06,0.17,0.09,0.43,0.14,0.65l-0.31,0.09
			C79.37,25.57,79.29,25.31,79.29,25.17z M79.97,24.94c0.77-0.23,1.73-0.45,2.81-0.62c0,0.2,0.03,0.45,0.06,0.65
			c-0.99,0.17-1.93,0.4-2.72,0.62C80.05,25.37,79.99,25.11,79.97,24.94z M83.08,24.29c0.14-0.03,0.31-0.06,0.45-0.06l0.14-0.03
			c0.06,0.2,0.09,0.43,0.11,0.62c-0.2,0.03-0.4,0.06-0.62,0.09C83.14,24.69,83.11,24.43,83.08,24.29z M84.05,24.18l0.51-0.06
			l0.06,0.62c-0.14,0-0.28,0.03-0.45,0.06L84.05,24.18z M84.93,24.09c0.82-0.09,1.39-0.09,1.79-0.09c0.03,0.17,0.09,0.4,0.14,0.62
			c-0.45,0-1.11,0-1.9,0.09C84.95,24.49,84.95,24.26,84.93,24.09z M87.05,24.01c0.45,0.03,0.54,0.11,0.54,0.11l0.06,0.54
			c0,0-0.17,0-0.45-0.03C87.17,24.43,87.11,24.21,87.05,24.01z"/>
		<path class="st0" d="M79.65,26.14c0,0,2.3-0.6,3.51-0.82c1.22-0.2,2.44-0.31,2.64-0.31c0.23,0,0.26-0.03,0.26,0.03
			c0,0.06,0.09,0.57,0.09,0.57s-1.81,0-3.32,0.34c-1.5,0.34-3.06,0.74-3.06,0.74L79.65,26.14z"/>
		<path class="st0" d="M71.69,37.98c0.06,0,1.28-0.71,2.41-0.96c0.54-0.14,0.4,0.03,0.4,0.03l-2.3,1.02L71.69,37.98z"/>
		<path class="st0" d="M69.9,37.56c0.26,0,4.56-1.93,5.64-2.18c0.54-0.14,0.4,0.03,0.4,0.03l-5.3,2.41L69.9,37.56z"/>
		<path class="st0" d="M70.36,36.82c0.03,0,2.52-1.13,3.63-1.39c0.57-0.14,0.31-0.11,0.31-0.11l-3.88,1.87L70.36,36.82z"/>
		<path class="st0" d="M70.04,35.57c0.03,0,0.99-0.62,2.13-0.99c0.54-0.17,0.23,0,0.23,0l-2.15,1.28L70.04,35.57z"/>
		<path class="st0" d="M69.76,34.58c0.06,0,1.56-0.71,2.69-1.11c0.54-0.17,0.06,0,0.06,0l-2.55,1.47L69.76,34.58z"/>
		<path class="st0" d="M70.19,36.2c0.06,0,0.14-0.11,1.28-0.48c0.54-0.17,0.11,0,0.11,0l-1.19,0.74L70.19,36.2z"/>
		<path class="st0" d="M69.76,33.76c0.06,0,0.28-0.28,1.42-0.65c0.54-0.17,0.03,0.09,0.03,0.09l-1.22,0.74L69.76,33.76z"/>
		<path class="st0" d="M69.25,32.74c0.28,0,3.94-1.76,5.02-2.04c0.57-0.14,0.37-0.03,0.37-0.03l-4.88,2.21L69.25,32.74z"/>
		<path class="st0" d="M68.57,32.14c0.28,0.03,1.33-0.74,2.41-0.99c0.57-0.14,0.37-0.06,0.37-0.06l-2.47,1.22L68.57,32.14z"/>
		<path class="st0" d="M68.43,31.24c0.28,0,1.5-0.79,2.55-1.05c0.57-0.14,0.37-0.09,0.37-0.09l-2.75,1.33L68.43,31.24z"/>
		<path class="st0" d="M75.63,41.1c0.28,0,2.64-0.85,3.71-1.13c0.57-0.11,0.4,0.06,0.4,0.06l-3.49,1.47L75.63,41.1z"/>
		<path class="st0" d="M73.11,39.46c0.28,0,1.79-0.43,2.86-0.71c0.54-0.14,0.34,0.06,0.34,0.06l-3.03,1.3L73.11,39.46z"/>
		<path class="st0" d="M73.3,40.48c0.26,0.03,0.71-0.23,1.76-0.51c0.57-0.11,0.37,0.06,0.37,0.06l-1.96,1.11L73.3,40.48z"/>
		<path class="st0" d="M75.37,43.63c0.26,0.03,6.04-2.15,7.11-2.44c0.57-0.11,0.4,0.06,0.4,0.06l-7.34,2.81L75.37,43.63z"/>
		<path class="st0" d="M76.11,41.98c0.28,0.03,0.99-0.28,2.07-0.54c0.54-0.14,0.4,0.03,0.4,0.03l-2.01,0.94L76.11,41.98z"/>
		<path class="st0" d="M75.63,44.42c0.28,0.03,6.07-2.15,7.14-2.41c0.57-0.14,0.4,0.03,0.4,0.03l-7.34,2.81L75.63,44.42z"/>
		<path class="st0" d="M77.1,44.84c0.26,0.03,9.1-2.38,10.18-2.66c0.57-0.14,0.4,0.06,0.4,0.06l-10.4,3.03L77.1,44.84z"/>
		<path class="st0" d="M85.92,45.33c0.28,0.03,2.64-0.57,3.71-0.71c0.54-0.09,0.4,0.06,0.4,0.06l-3.51,1.13L85.92,45.33z"/>
		<path class="st0" d="M87.76,46.83c0.26,0,2.24-0.28,3.32-0.57c0.57-0.14,0.4,0.06,0.4,0.06l-3.12,0.94L87.76,46.83z"/>
		<path class="st0" d="M86.83,25.17l0.03,0.09c0.03,0.09,0.06,0.17,0.06,0.26c0.11,0.51-0.09,1.02-0.48,1.5
			c-0.37,0.43-0.96,0.82-1.67,1.08c-0.31,0.11-0.65,0.2-1.02,0.28c-1.08,0.2-2.13,0.11-2.98-0.14c-0.88-0.28-1.56-0.79-1.79-1.45
			c-0.03-0.06-0.06-0.11-0.06-0.14l0.34-0.09c0,0.03,0.03,0.09,0.03,0.11c0.2,0.54,0.79,0.96,1.56,1.22
			c0.82,0.26,1.81,0.31,2.83,0.14c0.34-0.09,0.65-0.17,0.96-0.28c0.65-0.23,1.19-0.6,1.53-0.96c0.34-0.4,0.48-0.82,0.4-1.22
			c0-0.06-0.03-0.14-0.06-0.2c0-0.06-0.03-0.11-0.06-0.14C86.57,25.2,86.71,25.2,86.83,25.17z"/>
		<path class="st0" d="M79.11,33.34c0,0,0.17-0.06,0.45-0.14c-0.03-0.2-0.06-0.4-0.09-0.6c-0.37,0.14-0.6,0.26-0.6,0.26L79.11,33.34
			z M79.88,33.11l0.79-0.23c-0.09-0.17-0.17-0.4-0.23-0.6c-0.23,0.06-0.45,0.14-0.62,0.2C79.82,32.68,79.85,32.91,79.88,33.11z
			 M80.99,32.8l0.4-0.09l-0.14-0.62c-0.17,0.03-0.34,0.06-0.51,0.11L80.99,32.8z M81.72,32.63c0.37-0.11,0.79-0.2,1.22-0.31
			c-0.03-0.17-0.06-0.37-0.09-0.57c-0.4,0.09-0.77,0.17-1.08,0.23L81.58,32L81.72,32.63z M83.25,32.26l0.28-0.09l-0.11-0.54
			l-0.23,0.06C83.23,31.86,83.23,32.06,83.25,32.26z M83.88,32.12l1.56-0.34l-0.03-0.54c-0.51,0.11-1.08,0.23-1.64,0.34L83.88,32.12
			z M85.8,31.69l1.76-0.4l-0.14-0.51c0,0-0.71,0.17-1.64,0.37L85.8,31.69z"/>
		<path class="st0" d="M72.2,48.64c0,0,0.17-0.06,0.45-0.14c-0.03-0.17-0.06-0.37-0.09-0.57c-0.37,0.14-0.6,0.26-0.6,0.26
			L72.2,48.64z M72.96,48.42l0.79-0.2c-0.09-0.2-0.17-0.4-0.23-0.62c-0.23,0.09-0.45,0.14-0.62,0.23
			C72.91,48.02,72.94,48.25,72.96,48.42z M74.07,48.13l0.4-0.11l-0.14-0.62c-0.17,0.03-0.34,0.09-0.51,0.14L74.07,48.13z
			 M74.81,47.93c0.37-0.09,0.79-0.2,1.22-0.28c-0.03-0.2-0.06-0.4-0.09-0.57c-0.4,0.09-0.77,0.14-1.08,0.2l-0.2,0.03L74.81,47.93z
			 M76.34,47.57l0.28-0.06l-0.11-0.54l-0.23,0.06C76.31,47.2,76.31,47.37,76.34,47.57z M76.96,47.42l1.56-0.34l-0.03-0.54
			c-0.51,0.11-1.08,0.23-1.64,0.34L76.96,47.42z"/>
		<path class="st0" d="M83.68,42.66c0,0,0.17-0.06,0.45-0.14c-0.03-0.17-0.06-0.37-0.09-0.57c-0.37,0.14-0.6,0.26-0.6,0.26
			L83.68,42.66z M84.44,42.43l0.79-0.2c-0.09-0.2-0.17-0.4-0.23-0.62c-0.23,0.09-0.45,0.14-0.62,0.23
			C84.39,42.04,84.42,42.26,84.44,42.43z M85.55,42.15l0.4-0.11l-0.14-0.62c-0.17,0.03-0.34,0.09-0.51,0.14L85.55,42.15z
			 M86.29,41.95c0.37-0.09,0.79-0.2,1.22-0.28c-0.03-0.2-0.06-0.4-0.09-0.57c-0.4,0.09-0.77,0.14-1.08,0.2l-0.2,0.03L86.29,41.95z
			 M87.82,41.58v-0.03l0.17-0.57l-0.51,0.09C87.51,41.24,87.79,41.39,87.82,41.58z M88.16,41.5l1.56-0.34l-0.03-0.54
			c-0.51,0.11-1.08,0.23-1.64,0.34L88.16,41.5z"/>
		<path class="st0" d="M77.05,48.9c0,0,0.17-0.06,0.45-0.14c-0.06-0.17-0.09-0.4-0.09-0.57c-0.4,0.14-0.62,0.23-0.62,0.23
			L77.05,48.9z M77.81,48.67l0.77-0.2c-0.06-0.2-0.14-0.4-0.2-0.62c-0.23,0.09-0.45,0.14-0.65,0.2
			C77.75,48.27,77.78,48.47,77.81,48.67z M78.92,48.39l0.37-0.11l-0.11-0.62c-0.2,0.03-0.37,0.09-0.51,0.11L78.92,48.39z
			 M79.63,48.19c0.4-0.11,0.82-0.2,1.22-0.31c0-0.17-0.03-0.37-0.06-0.54c-0.43,0.09-0.79,0.14-1.08,0.2l-0.2,0.03L79.63,48.19z
			 M81.16,47.82l0.03-0.03l0.17-0.57l-0.54,0.09C80.84,47.48,81.16,47.62,81.16,47.82z M81.52,47.74l1.56-0.34l-0.03-0.57
			c-0.51,0.11-1.11,0.26-1.64,0.37L81.52,47.74z"/>
		<path class="st0" d="M65.34,60.94c2.01-1.13,9.89-2.07,10.32-2.07c-3.54,0.71-6.72,1.19-9.47,2.24
			C65.93,60.94,65.59,61.11,65.34,60.94z"/>
		<path class="st0" d="M68.37,61.34c0.43-0.06,3.97-0.91,7.71-1.25c3.12-0.26,6.94,0.03,9.33-0.17c-0.6,0.09,0.17,0.17-0.6,0.23
			c-5.67,0.26-12.67,0.99-15.65,1.84C68.91,61.85,68.6,61.48,68.37,61.34z"/>
		<path class="st0" d="M68.43,62.05c0.79-0.11,5.61-0.37,10.89-0.77c-4.14,0.45-6.66,0.57-10.15,1.19
			C68.91,62.33,68.66,62.19,68.43,62.05z"/>
		<path class="st0" d="M68.88,62.82c1.13-0.09,7.97-0.23,15.45-0.45c-5.9,0.34-9.47,0.37-14.43,0.91
			C69.56,63.13,69.22,62.99,68.88,62.82z"/>
		<path class="st0" d="M100.63,60.6c-3.8-0.62-9.98-0.79-14.31-0.62c8.11,0.23,13.01,0.57,14.4,0.99
			C100.63,60.69,100.63,60.77,100.63,60.6z"/>
		<path class="st0" d="M101,62.02c-3.77-0.51-9.95-0.48-14.29-0.17c8.11-0.03,13.01,0.17,14.4,0.54
			C101.03,62.11,101,62.19,101,62.02z"/>
		<path class="st0" d="M48.61,31.8l-0.62,3.2c1.02-0.14,2.04-0.34,3.09-0.51c1.96-0.31,3.91-0.65,5.73-0.79l0.34-3.06
			c-0.77,0.06-1.62,0.17-2.61,0.31C51.9,31.38,50,31.63,48.61,31.8z M47.93,35.35l-0.57,3.12c1.02-0.14,2.07-0.31,3.15-0.48
			c2.01-0.34,4.05-0.68,5.92-0.82l0.34-3.09c-1.79,0.14-3.71,0.45-5.64,0.77C50.06,35.04,48.98,35.21,47.93,35.35z M47.28,38.83
			l-0.65,3.51c0.77-0.11,1.56-0.26,2.38-0.4c2.35-0.4,4.79-0.82,7.03-0.96l0.37-3.46c-1.84,0.14-3.86,0.45-5.84,0.79
			C49.46,38.49,48.36,38.66,47.28,38.83z M46.54,42.72l-0.71,3.83c0.77-0.11,1.56-0.26,2.38-0.4c2.47-0.43,5.05-0.85,7.37-1.02
			l0.43-3.8c-2.21,0.17-4.62,0.57-6.94,0.96C48.22,42.43,47.37,42.6,46.54,42.72z M45.78,46.91l-0.74,3.94
			c1.02-0.17,2.24-0.37,3.63-0.62c2.92-0.54,4.99-0.85,6.49-1.02l0.4-3.71c-2.3,0.14-4.85,0.6-7.29,0.99
			C47.42,46.63,46.57,46.77,45.78,46.91z M44.96,51.22l-0.68,3.63c1.67-0.26,3.51-0.6,5.19-1.02c4.31-1.11,7.34-0.94,8.62-0.88
			l0.45,0.03c0.62,0,1.98,0.43,2.49,0.6l0.51-7.31c-1.3-0.77-3.32-0.94-5.64-0.79l-0.4,3.71l0.88-0.09
			c1.56-0.11,2.38-0.06,3.09,0.03c1.47,0.17,1.98,0.4,1.98,0.4l-0.14,0.28c0,0-0.48-0.17-1.87-0.31c-0.71-0.09-1.5-0.17-3.03-0.06
			l-0.94,0.09l-0.37,3.34l-0.34-0.03l0.34-3.26c-1.47,0.17-3.51,0.48-6.38,0.99C47.28,50.85,46.03,51.05,44.96,51.22z M44.14,54.88
			l-0.2-0.03l0.65-3.57c-3.49,0.51-4.99,0.54-5.39,0.54l-0.79,3.8C39.12,55.53,41.44,55.3,44.14,54.88z M44.67,50.91l0.74-3.94
			c-2.04,0.31-3.83,0.51-5.16,0.4l0.03-0.34c1.3,0.11,3.15-0.11,5.19-0.43l0.71-3.83c-1.96,0.31-3.71,0.48-5.05,0.37l0.03-0.34
			c1.3,0.11,3.12-0.09,5.1-0.4l0.65-3.54c-1.9,0.26-3.66,0.4-5.1,0.2c-0.82,4.08-1.84,8.96-2.55,12.39
			C39.74,51.48,41.24,51.42,44.67,50.91z M47,38.52l0.57-3.12c-1.87,0.26-3.6,0.37-5.05,0.2l-0.62,3.12
			C43.31,38.89,45.07,38.78,47,38.52z M47.65,35.04l0.6-3.2l-0.88,0.09c-1.5,0.14-2.27,0.11-2.92,0c-0.57-0.09-0.94-0.2-1.13-0.28
			c-0.09,0.51-0.37,1.84-0.71,3.63C44.02,35.43,45.75,35.29,47.65,35.04z M57.49,30.61l-0.31,3.06c2.01-0.14,3.83-0.03,5.19,0.6
			l0.2-2.89C62.36,31.18,61.26,30.39,57.49,30.61z M57.15,34.04l-0.34,3.09c2.1-0.14,3.94,0,5.33,0.62l0.2-3.12
			C61.03,33.99,59.19,33.9,57.15,34.04z M56.75,37.5l-0.37,3.46c2.18-0.14,4.11,0,5.47,0.65l0.26-3.46
			C60.77,37.47,58.9,37.36,56.75,37.5z M56.35,41.3l-0.4,3.83c2.24-0.14,4.25,0.03,5.61,0.74l0.26-3.88
			C60.49,41.3,58.56,41.16,56.35,41.3z M38.01,55.79C38.04,55.7,43,31.78,43,31.41h0.34c0,0,0.03-0.03,1.16,0.17
			c0.62,0.11,1.36,0.14,2.83,0c1.47-0.11,3.66-0.43,7.14-0.96c7.11-1.11,8.39,0.6,8.39,0.6l0.06,0.14l-0.23,3.09l0.14,0.06
			l-0.17,0.26l-0.2,3.17l0.03,0.03l-0.06,0.09l-0.26,3.74l0.11,0.06l-0.11,0.2l-0.85,12.02L61.14,54c-0.03,0-1.9-0.68-2.61-0.68
			l-0.48-0.03c-1.25-0.06-4.25-0.2-8.5,0.88c-4.99,1.25-11.34,1.81-11.34,1.81l-0.26,0.03L38.01,55.79z"/>
		<path class="st0" d="M72.17,27.86c-0.03-0.14-0.06-0.26-0.09-0.43l-0.45,0.06c0.03,0.17,0.06,0.31,0.09,0.48L72.17,27.86z
			 M93.57,40.34v0.09V40.34v0.03V40.34v0.03V40.34L93.57,40.34L93.57,40.34L93.57,40.34l-0.03-0.03L93.57,40.34l-0.03-0.03l0,0
			v-0.03c-0.03-0.06-0.09-0.2-0.11-0.23l-0.4,0.2l0.11,0.26l0,0l0,0l0,0v0.03v-0.03L93.57,40.34z M93.23,39.63
			c-0.06-0.14-0.14-0.28-0.23-0.4l-0.4,0.23c0.09,0.11,0.14,0.26,0.23,0.4L93.23,39.63z M92.75,38.83l-0.26-0.4l-0.37,0.26
			l0.26,0.37L92.75,38.83z M92.24,38.04l-0.31-0.34l-0.34,0.28l0.28,0.34L92.24,38.04z M91.64,37.33c-0.11-0.11-0.23-0.23-0.34-0.34
			l-0.31,0.31c0.09,0.11,0.2,0.23,0.28,0.34L91.64,37.33z M90.96,36.65l-0.34-0.31l-0.28,0.37l0.31,0.28L90.96,36.65z M90.2,36.06
			c-0.14-0.06-0.28-0.11-0.45-0.2l-0.14,0.45c0.14,0.06,0.26,0.09,0.4,0.17L90.2,36.06z M89.29,35.72l-0.45-0.09l-0.09,0.43
			l0.43,0.11L89.29,35.72z M88.38,35.55l-0.48-0.09l-0.06,0.45L88.3,36L88.38,35.55z M87.45,35.43L87,35.38l-0.03,0.45l0.43,0.06
			L87.45,35.43z M86.54,35.35l-0.48-0.03l-0.03,0.45l0.48,0.03L86.54,35.35z M85.61,35.29h-0.45l-0.03,0.45h0.45L85.61,35.29z
			 M84.7,35.26h-0.48v0.45h0.45L84.7,35.26z M83.76,35.23h-0.45v0.45h0.45V35.23z M82.86,35.21H82.4l-0.03,0.45h0.45L82.86,35.21z
			 M81.95,35.18l-0.45-0.03l-0.03,0.48h0.45L81.95,35.18z M81.01,35.15c-0.14-0.03-0.28-0.03-0.45-0.03l-0.03,0.45l0.48,0.03V35.15z
			 M80.11,35.09l-0.45-0.06l-0.03,0.45c0.14,0.03,0.31,0.03,0.45,0.06L80.11,35.09z M79.2,34.98l-0.43-0.06l-0.09,0.45l0.48,0.06
			L79.2,34.98z M78.32,34.87c-0.14-0.03-0.31-0.06-0.43-0.11l-0.11,0.45c0.14,0.06,0.31,0.09,0.45,0.11L78.32,34.87z M77.44,34.64
			c-0.14-0.03-0.28-0.09-0.4-0.11l-0.17,0.43c0.14,0.06,0.28,0.11,0.45,0.14L77.44,34.64z M76.65,34.33
			c-0.14-0.06-0.26-0.14-0.4-0.2l-0.23,0.37c0.11,0.09,0.26,0.17,0.4,0.26L76.65,34.33z M75.88,33.87
			c-0.11-0.09-0.23-0.17-0.34-0.28l-0.28,0.37c0.11,0.09,0.23,0.2,0.37,0.28L75.88,33.87z M75.2,33.31L74.89,33l-0.34,0.28
			l0.34,0.34L75.2,33.31z M74.61,32.66l-0.28-0.37l-0.37,0.28l0.28,0.37L74.61,32.66z M74.07,31.95l-0.26-0.4l-0.4,0.26l0.26,0.4
			L74.07,31.95z M73.56,31.18l-0.2-0.4l-0.43,0.23l0.26,0.4L73.56,31.18z M73.13,30.39l-0.2-0.4l-0.4,0.17l0.2,0.43L73.13,30.39z
			 M72.77,29.57l-0.17-0.43l-0.43,0.17l0.17,0.43L72.77,29.57z M72.43,28.71c-0.03-0.11-0.09-0.28-0.14-0.43l-0.43,0.14L72,28.89
			L72.43,28.71z"/>
		<path class="st0" d="M65.25,60.58c-1.3-1.02-6.43-1.59-6.69-1.56c2.3,0.54,4.37,0.88,6.15,1.79
			C64.89,60.6,65.11,60.77,65.25,60.58z"/>
		<path class="st0" d="M64.52,61.03c-0.51-0.09-5.16-0.51-3.97-0.28l3.49,0.74L64.52,61.03z"/>
		<path class="st0" d="M65.59,61.14c-1.3-1.05-6.43-1.59-6.69-1.59c2.3,0.57,4.37,0.88,6.15,1.81
			C65.2,61.17,65.42,61.34,65.59,61.14z"/>
		<path class="st0" d="M63.64,61.68c-0.51-0.09-4-0.4-7.4-0.54c2.66,0.26,4.65,0.54,6.92,0.99C63.33,61.99,63.47,61.82,63.64,61.68z
			"/>
		<path class="st0" d="M63.58,62.39c-0.51-0.09-3.63-0.11-7.06-0.23c2.69,0.23,4.34,0.23,6.6,0.71
			C63.27,62.7,63.44,62.56,63.58,62.39z"/>
		<path class="st0" d="M63.3,63.18c-0.74-0.03-5.19,0.17-10.03,0.31c3.83,0.03,6.15-0.09,9.35,0.2
			C62.84,63.52,63.07,63.35,63.3,63.18z"/>
		<path class="st0" d="M35.66,62.14c3.77,0.03,9.98-0.77,14.29-1.62c-8.08,1.05-13.01,1.3-14.37,1.11
			C35.66,61.91,35.66,61.97,35.66,62.14z"/>
		<path class="st0" d="M35.29,61.48c4.08,0.03,10.8-0.85,15.51-1.76C42.01,60.86,36.57,61.2,35.06,61
			C35.18,61.29,35.29,61.29,35.29,61.48z"/>
		<path class="st0" d="M35.66,62.36c0,0,1.25,0.37,5.61-0.09c4.34-0.45,10.2-0.99,11.71-0.96c-1.56,0.06-16.41,1.96-17.8,1.62
			S35.49,62.36,35.66,62.36z"/>
		<polygon class="st0" points="38.86,66.44 33.93,66.22 34.02,66.13 39,65.96 		"/>
		<path class="st0" d="M73.33,60.38c0,0,1.19,4,1.5,6.04c0.31,2.07,0.09,4.82,0.09,4.82l2.18-1.64l3.23,1.08
			c0,0-0.23-3.29-0.94-5.81c-0.71-2.52-1.02-4.73-1.02-4.73L73.33,60.38z M75.06,64.18l0.17,0.4l2.72,0.03l0.09-0.23L75.06,64.18z
			 M75.37,64.89l0.2,0.99l3.46-0.06l-0.17-0.85L75.37,64.89z M75.6,66.39l0.17,0.4l2.72-0.2l0.06-0.26L75.6,66.39z"/>
		<path class="st0" d="M62.5,57.03c-0.57-0.23-1.36-0.48-1.81-0.65c-0.11-0.03,0,0-0.09-0.03c0.51,0.03,1.19,0.14,1.9,0.34V57.03z
			 M65.37,58.93c-0.4-0.6-1.3-1.19-2.18-1.59l0.03-0.45c0.94,0.28,1.81,0.71,2.27,1.22C65.42,58.31,65.45,58.71,65.37,58.93z
			 M66.44,32.63c-0.85-1.36-2.58-2.81-3.97-3.51c1.36,0.45,3.17,1.73,4.08,2.98C66.5,32.29,66.5,32.43,66.44,32.63z M66.39,33.87
			c-0.85-1.36-2.47-2.41-3.88-3.12c1.36,0.43,3.15,1.45,4.05,2.69C66.5,33.65,66.44,33.68,66.39,33.87z M66.33,35.12
			c-0.54-0.88-1.36-1.5-2.27-2.04v-0.11v0.11c-0.48-0.31-1.02-0.57-1.5-0.79c1.36,0.4,3.06,1.02,3.97,2.24
			C66.47,34.72,66.39,34.92,66.33,35.12z M63.98,34.38c-0.85-0.54-1.08-0.88-1.73-1.19c0.62,0.17,0.88,0.4,1.76,0.82L63.98,34.38z
			 M66.27,36.37c-0.43-0.71-1.3-1.39-2.27-1.98l0.03-0.34c0.99,0.48,1.9,1.19,2.38,1.84C66.36,36.06,66.36,36.17,66.27,36.37z
			 M63.92,35.43c-0.17-0.09-0.37-0.17-0.57-0.26c0.2,0.06,0.4,0.09,0.57,0.14V35.43z M66.22,37.59c-0.71-1.11-1.25-1.59-2.24-2.13
			v-0.11c0.99,0.31,1.67,0.65,2.44,1.67C66.36,37.22,66.3,37.42,66.22,37.59z M66.16,38.83c-0.43-0.68-1.3-1.33-2.24-1.9l0.03-0.34
			c0.99,0.45,1.93,1.05,2.41,1.67C66.3,38.47,66.25,38.64,66.16,38.83z M66.13,40.08c-0.45-0.68-1.33-1.3-2.24-1.87v-0.37
			c0.99,0.45,1.93,1.05,2.41,1.67C66.25,39.69,66.19,39.88,66.13,40.08z M63.64,39.37c-0.79-0.45-1.64-0.85-2.27-1.13
			c0.6,0.17,1.45,0.43,2.3,0.79L63.64,39.37z M66.08,41.33c-0.45-0.68-1.3-1.3-2.24-1.84v-0.37c0.99,0.45,1.93,1.02,2.41,1.62
			C66.19,40.93,66.13,41.13,66.08,41.33z M63.55,40.62c-0.79-0.45-0.96-0.51-1.56-0.77c0.6,0.14,0.77,0.09,1.59,0.45L63.55,40.62z
			 M66.02,42.58c-0.45-0.68-1.3-1.3-2.24-1.81l0.03-0.37c0.96,0.43,1.9,0.99,2.38,1.59C66.13,42.18,66.08,42.38,66.02,42.58z
			 M65.96,43.82c-0.45-0.65-1.3-1.28-2.21-1.79v-0.37c0.99,0.43,1.9,0.96,2.38,1.56C66.08,43.43,66.02,43.63,65.96,43.82z
			 M65.91,45.04c-0.45-0.62-1.3-1.25-2.21-1.76l0.03-0.34c0.96,0.4,1.87,0.94,2.35,1.53C66.02,44.67,65.96,44.84,65.91,45.04z
			 M63.33,44.39c-0.79-0.4-3.12-1.16-3.71-1.39c0.6,0.11,2.92,0.77,3.71,1.08V44.39z M65.85,46.29c-0.28-0.4-0.71-0.79-1.25-1.13
			l0.03-0.51c0.6,0.31,1.08,0.68,1.39,1.05C65.96,45.89,65.91,46.09,65.85,46.29z M64.4,45.01c-0.26-0.17-0.48-0.31-0.77-0.45
			l0.03-0.37c0.26,0.11,0.51,0.23,0.77,0.37L64.4,45.01z M63.24,45.64c-0.77-0.37-1.56-0.71-2.15-0.94
			c0.57,0.11,1.36,0.34,2.15,0.62V45.64z M65.79,47.54c-0.28-0.4-0.71-0.79-1.25-1.13l0.03-0.57c0.6,0.23,1.13,0.43,1.45,0.82
			C65.96,46.86,65.85,47.34,65.79,47.54z M64.32,46.26c-0.23-0.17-0.48-0.28-0.71-0.43v-0.37c0.26,0.11,0.51,0.2,0.74,0.28
			L64.32,46.26z M63.16,46.91c-0.77-0.4-1.53-0.68-2.13-0.91c0.57,0.11,1.36,0.31,2.15,0.6L63.16,46.91z M65.74,48.78
			c-0.28-0.4-0.71-0.77-1.25-1.13l0.03-0.57c0.6,0.2,1.11,0.4,1.42,0.77C65.88,48.05,65.79,48.59,65.74,48.78z M64.23,47.48
			c-0.23-0.11-0.45-0.26-0.68-0.37l0.03-0.37c0.23,0.09,0.45,0.17,0.68,0.23L64.23,47.48z M63.07,48.16
			c-0.77-0.37-1.5-0.65-2.1-0.85c0.57,0.09,1.33,0.28,2.13,0.54L63.07,48.16z M65.68,50.03c-0.28-0.4-0.71-0.77-1.25-1.11l0.03-0.6
			c0.6,0.2,1.13,0.4,1.45,0.79C65.85,49.32,65.74,49.83,65.68,50.03z M64.15,48.73c-0.2-0.11-0.43-0.23-0.62-0.34v-0.37
			c0.23,0.09,0.45,0.14,0.65,0.23L64.15,48.73z M65.62,51.28c-0.2-0.28-0.68-0.68-1.25-1.05l0.03-0.57c0.6,0.28,1.11,0.62,1.39,0.99
			C65.74,50.85,65.68,51.08,65.62,51.28z M64.06,50.03c-0.6-0.37-1.22-0.71-1.64-0.94l1.05,0.17c0.23,0.09,0.43,0.17,0.62,0.26
			L64.06,50.03z M62.9,50.68c-0.57-0.26-1.13-0.48-1.5-0.65c-0.11-0.03,0.06-0.09-0.06-0.14c0.54,0.09,0.82,0.23,1.59,0.48
			L62.9,50.68z M65.62,52.67c-0.26-0.37-0.77-0.77-1.3-1.13l0.03-0.62c0.6,0.23,1.13,0.48,1.42,0.82
			C65.68,51.93,65.68,52.47,65.62,52.67z M63.98,51.34c-0.26-0.17-0.51-0.31-0.77-0.43l-0.03-0.4c0.26,0.09,0.54,0.2,0.82,0.28
			L63.98,51.34z M62.82,51.93c-0.71-0.31-1.05-0.48-1.62-0.65c0.54,0.06,0.88,0.11,1.64,0.34L62.82,51.93z M65.51,53.74
			c-0.28-0.4-0.71-0.74-1.25-1.08l0.03-0.54c0.62,0.23,1.16,0.48,1.47,0.85C65.71,53.18,65.57,53.55,65.51,53.74z M63.89,52.47
			c-0.17-0.11-0.34-0.2-0.51-0.28v-0.37l0.54,0.2L63.89,52.47z M62.73,53.18c-0.71-0.28-1.02-0.43-1.59-0.62
			c0.54,0.09,0.88,0.11,1.62,0.34L62.73,53.18z M65.45,54.99c-0.28-0.4-0.71-0.74-1.25-1.05l0.03-0.54c0.6,0.23,1.13,0.48,1.45,0.85
			C65.62,54.45,65.51,54.79,65.45,54.99z M63.81,53.72c-0.14-0.09-0.31-0.17-0.48-0.26l0.03-0.37l0.48,0.17L63.81,53.72z
			 M62.65,54.45c-0.71-0.28-1.39-0.54-1.96-0.71c0.54,0.09,1.25,0.2,1.98,0.43L62.65,54.45z M65.48,56.21
			c-0.26-0.37-0.77-0.71-1.33-0.99l0.03-0.57c0.6,0.23,1.13,0.48,1.45,0.85C65.57,55.7,65.57,56.01,65.48,56.21z M63.72,54.99
			c-0.2-0.09-0.37-0.17-0.57-0.26l0.14-0.4l0.45,0.17L63.72,54.99z M62.56,55.7c-0.68-0.28-1.39-0.48-1.9-0.65
			c0.51,0.06,1.22,0.17,1.93,0.37L62.56,55.7z M65.34,57.49c-0.28-0.4-0.71-0.74-1.25-1.05l0.03-0.51c0.6,0.28,1.11,0.6,1.42,0.94
			C65.48,57.06,65.4,57.29,65.34,57.49z M63.64,56.18c-0.11-0.06-0.26-0.11-0.4-0.2v-0.37c0.14,0.06,0.28,0.09,0.43,0.14
			L63.64,56.18z"/>
		<path class="st0" d="M43.82,40.37c0-0.03,0.03,0,0.03,0c0.28-0.03,0.57-0.06,0.85-0.09c0.11-0.03,0.28-0.06,0.43-0.03
			c0.03,0,0,0.06,0,0.09c0,0.26,0.17,0.17,0.03,0.37c-0.09,0.14-0.28,0.03-0.4,0.03c-0.28,0.03-0.57,0.06-0.82,0.09
			c-0.14,0-0.34,0.09-0.31,0c0.06-0.31,0.11-0.17,0.14-0.31C43.8,40.34,43.8,40.39,43.82,40.37z"/>
		<path class="st0" d="M44.7,44.22c0.09-0.03,0.51-0.17,0.57-0.09c0.06,0.09,0.06,0.28,0,0.37c-0.06,0.03-0.54,0.09-0.54,0.03
			c-0.03-0.34-0.03-0.17-0.03-0.23S44.67,44.22,44.7,44.22z M43.11,44.31c0.03,0,0.03,0,0.06,0c0.28-0.03,0.57-0.06,0.85-0.06
			c0.11-0.03,0.26-0.06,0.4-0.03c0.03,0,0,0.06,0,0.09c0.03,0.26,0.2,0.17,0.06,0.37c-0.09,0.11-0.28,0-0.4,0.03
			c-0.28,0.03-0.57,0.03-0.85,0.06c-0.11,0.03-0.31,0.11-0.28,0.03c0.03-0.31,0.11-0.17,0.14-0.34
			C43.11,44.31,43.11,44.36,43.11,44.31z M42.26,44.48c0.14-0.11,0.37-0.14,0.43-0.06c0.09,0.2,0.14,0.2,0.03,0.48
			c-0.03,0.09-0.2,0.09-0.28,0.06c-0.06,0-0.17,0.06-0.23-0.03C42.12,44.79,42.12,44.56,42.26,44.48z"/>
		<path class="st0" d="M43.43,49.21c0,0.03-0.03,0-0.03,0c-0.28,0.03-1.62,0.23-1.9,0.26c-0.45,0.03-0.48-0.14-0.28-0.28
			c0.09-0.06,0-0.17,0.23-0.17c0.28-0.03,1.59-0.23,1.87-0.26c0.11,0,0.31-0.09,0.31,0c-0.06,0.31-0.14,0.17-0.17,0.31
			C43.43,49.24,43.46,49.18,43.43,49.21z M44.31,49.07c-0.17,0.11-0.74,0.17-0.79,0.09c-0.09-0.2,0.06-0.17,0.17-0.43
			c0.06-0.11,0.37-0.09,0.43-0.09c0.06,0.03,0.2-0.11,0.26-0.03C44.42,48.73,44.45,48.98,44.31,49.07z"/>
		<path class="st0" d="M51.82,51.11c0.23-0.17,0.45-0.03,0.6-0.03s0.23,0,0.31-0.03c0.4-0.11,0.88-0.2,0.88-0.2
			c0,0.2,0.03,0.4,0.03,0.57c0,0-0.31,0.06-0.6,0.14c-0.26,0.09-0.4,0.09-0.62,0.06c-0.14,0-0.37,0-0.74,0.03h-0.03
			c0-0.06,0.03-0.11,0.06-0.17C51.76,51.31,51.62,51.25,51.82,51.11z"/>
		<path class="st0" d="M49.72,51.53c0.06-0.03,0.11-0.03,0.2-0.03c0.31-0.06,0.48-0.2,0.65-0.26c0.23-0.06,0.51-0.28,0.88-0.14
			c0.2,0.11,0.03,0.28,0.06,0.54l0,0c-0.31,0.03-0.57,0.14-0.74,0.17c-0.14,0.06-0.23,0.09-0.4,0.11c-0.03,0-0.03-0.03-0.03-0.06
			c-0.26-0.37-0.23-0.09-0.31-0.03c-0.06,0.06-0.03,0.14-0.06,0.28c0,0,0,0-0.03,0c-0.14,0.03-0.28,0.06-0.43,0.06v-0.03
			c0-0.11,0.11-0.4,0.11-0.51C49.66,51.56,49.66,51.56,49.72,51.53z"/>
		<path class="st0" d="M47.65,51.82c0.26-0.14,0.48-0.03,0.74-0.09c0.34-0.06,0.68-0.28,0.96-0.17c0.26,0.09,0.14,0.54-0.06,0.65
			c-0.26,0.11-0.57-0.03-0.85,0c-0.28,0.03-0.57,0.26-0.79,0.17c-0.11-0.03-0.03-0.2-0.03-0.28C47.62,52.02,47.59,51.87,47.65,51.82
			z"/>
		<path class="st0" d="M43.03,52.55c0.09-0.03,0.51-0.17,0.57-0.09c0.06,0.09,0.06,0.28-0.03,0.37c-0.03,0.06-0.51,0.09-0.51,0.03
			C43.03,52.55,43,52.72,43,52.64C43,52.58,42.97,52.58,43.03,52.55z M41.44,52.67c0-0.03,0.03,0,0.06,0
			c0.26-0.03,0.54-0.06,0.82-0.09c0.14,0,0.28-0.06,0.43-0.03c0.03,0.03,0,0.09,0,0.11c0,0.23,0.54,0.06,0.4,0.28
			c-0.09,0.11-0.62,0.09-0.74,0.09c-0.28,0.03-0.57,0.03-0.85,0.09c-0.37,0.06-0.57,0.11-0.43,0c0.26-0.2-0.26-0.09-0.23-0.23
			C40.93,52.72,41.41,52.7,41.44,52.67z M40.56,52.81c0.17-0.11,0.4-0.14,0.43-0.06c0.09,0.2,0.17,0.23,0.06,0.48
			c-0.03,0.11-0.2,0.09-0.28,0.09c-0.06-0.03-0.17,0.03-0.23-0.06C40.45,53.15,40.45,52.89,40.56,52.81z"/>
		<path class="st0" d="M59.13,50.74c0.37-0.03,0.34,0.06,0.34,0.06c0,0.17,0,0.37-0.03,0.54c0,0-0.03-0.06-0.34-0.06
			c-0.06,0-0.2,0.06-0.2,0c0.09-0.34,0.17-0.26,0.2-0.43C59.13,50.71,59.1,50.74,59.13,50.74z M56.72,50.74
			c0.17-0.09,0.28-0.06,0.4-0.03c0.09,0.06,0.2-0.06,0.51-0.03c0.17,0,0.96-0.14,1.05-0.03c0.14,0.23,0.17,0.34,0.03,0.57
			c-0.09,0.11-0.88,0-1.02,0c-0.45,0-0.62,0.06-0.79,0c-0.09-0.03-0.2,0.03-0.26-0.09C56.58,51.02,56.61,50.8,56.72,50.74z"/>
		<path class="st0" d="M58.25,42.83c0.14-0.11,0.28-0.14,0.4-0.09c0.09,0.03,0.17,0.06,0.48,0.09c0.03,0,0.06-0.03,0.06,0
			c0,0.28,0,0.17,0,0.37s0.2,0.03,0.2-0.06s-0.09-0.2,0.06-0.31c0.11-0.11,0.37,0,0.54,0.03c0,0,0.03-0.03,0.03,0
			c0,0.06-0.03,0.11-0.09,0.14c-0.06,0.06,0.11,0.2-0.06,0.34c-0.17,0.17-0.48,0-0.71-0.03c-0.45,0-0.62,0.11-0.79,0.03
			c-0.06,0-0.2,0.09-0.26-0.03C58.05,43.17,58.08,42.92,58.25,42.83z"/>
	</g>
</g>
</svg>
