<!--
  - Copyright 2022, TeamDev. All rights reserved.
  -
  - Licensed under the Apache License, Version 2.0 (the "License");
  - you may not use this file except in compliance with the License.
  - You may obtain a copy of the License at
  -
  - http://www.apache.org/licenses/LICENSE-2.0
  -
  - Redistribution and use in source and/or binary forms, with or without
  - modification, must retain the above copyright notice and the following
  - disclaimer.
  -
  - THIS SOFTWARE IS PROVIDED BY THE COPYRIGHT HOLDERS AND CONTRIBUTORS
  - "AS IS" AND ANY EXPRESS OR IMPLIED WARRANTIES, INCLUDING, BUT NOT
  - LIMITED TO, THE IMPLIED WARRANTIES OF MERCHANTABILITY AND FITNESS FOR
  - A PARTICULAR PURPOSE ARE DISCLAIMED. IN NO EVENT SHALL THE COPYRIGHT
  - OWNER OR CONTRIBUTORS BE LIABLE FOR ANY DIRECT, INDIRECT, INCIDENTAL,
  - SPECIAL, EXEMPLARY, OR CONSEQUENTIAL DAMAGES (INCLUDING, BUT NOT
  - LIMITED TO, PROCUREMENT OF SUBSTITUTE GOODS OR SERVICES; LOSS OF USE,
  - DATA, OR PROFITS; OR BUSINESS INTERRUPTION) HOWEVER CAUSED AND ON ANY
  - THEORY OF LIABILITY, WHETHER IN CONTRACT, STRICT LIABILITY, OR TORT
  - (INCLUDING NEGLIGENCE OR OTHERWISE) ARISING IN ANY WAY OUT OF THE USE
  - OF THIS SOFTWARE, EVEN IF ADVISED OF THE POSSIBILITY OF SUCH DAMAGE.
  -->

<svg xmlns="http://www.w3.org/2000/svg" viewBox="0 0 280 130"><g fill="#0E3899" fill-rule="evenodd" transform="translate(25 16)"><path d="M62.8285487,88.9088498 L106.459924,88.4732322 C106.459924,88.4732322 109.580528,90.7838995 114.223378,90.6702601 C118.809144,90.5566208 122.367394,87.9807949 122.367394,87.9807949 L182.458054,87.7156363 L185.102956,85.0829907 L178.690495,63.2831701 C177.662979,62.4308747 176.36907,61.7300986 174.808768,61.294481 L179.546758,72.8856975 L180.193713,83.4541596 L120.540699,83.567799 C120.540699,83.567799 120.540699,78.5676664 114.014069,78.3593275 C107.430355,78.1509887 106.954654,83.6246187 106.954654,83.6246187 L55.5978803,83.5488591 L55.8642734,77.2608135 C54.1327186,77.1471742 53.0671464,77.0524747 53.0671464,77.0524747 L65.3592826,23.2063495 L63.3613348,23.2063495 L50.8408617,77.9615897 L52.7246411,78.7760053 C52.7246411,78.7760053 51.7542093,84.5147938 51.9635181,85.4807285 C52.2299111,86.4466633 61.6678361,86.5034829 61.6678361,86.5034829 L63.0188294,87.0338 L62.8285487,88.9088498 Z M64.3507946,87.0906197 L104.214611,87.0906197 L104.214611,85.5375482 L63.418419,86.1815047 L64.3507946,87.0906197 Z M106.421868,85.6322477 C106.421868,85.6322477 108.952601,88.7952104 113.80476,88.5300518 C118.656919,88.2080736 120.274306,86.6550021 120.445559,85.8405866 C120.654867,85.0829907 120.769036,83.9655368 120.064997,84.2306954 C119.418042,84.4958539 118.276358,87.2421389 114.033097,87.5072974 C109.770809,87.772456 108.096338,86.3330239 107.354243,85.954226 C106.517008,85.5943679 106.421868,85.6322477 106.421868,85.6322477 Z M131.063224,84.6284332 L131.386701,85.3860291 L136.562338,85.4428488 L136.73359,85.0072311 L131.063224,84.6284332 Z M131.653094,85.9731658 L132.033656,87.8482156 L138.61737,87.7345762 L138.293892,86.124685 L131.653094,85.9731658 Z M170.755788,86.6550021 C172.31609,86.6550021 179.013972,86.9769804 181.544706,86.2193845 C184.07544,85.404969 183.656822,83.6435586 183.656822,83.6435586 C183.656822,83.6435586 184.189608,85.3102695 182.743475,86.5413627 C181.335397,87.7156363 178.328961,87.3936581 176.216845,87.5072974 C174.104729,87.6209368 170.774816,87.6209368 170.774816,87.6209368 L170.774816,86.6550021 L170.755788,86.6550021 Z"/><path d="M183.866131,75.9729006 L180.688443,77.3176332 C180.688443,77.3176332 181.658874,83.0564218 181.449566,84.0223565 C181.183173,84.9882912 171.745248,85.0451109 171.745248,85.0451109 L170.394254,85.575428 L170.774816,88.9088498 C170.774816,88.9088498 179.242309,88.9088498 181.944296,88.7952104 C184.589198,88.7383907 186.320753,86.9769804 185.0649,82.1851866 C184.57017,77.6396115 183.866131,75.9729006 183.866131,75.9729006 Z M170.755788,86.6550021 C172.31609,86.6550021 179.013972,86.9769804 181.544706,86.2193845 C184.07544,85.404969 183.656822,83.6435586 183.656822,83.6435586 C183.656822,83.6435586 184.189608,85.3102695 182.743475,86.5413627 C181.335397,87.7156363 178.328961,87.3936581 176.216845,87.5072974 C174.104729,87.6209368 170.774816,87.6209368 170.774816,87.6209368 L170.774816,86.6550021 L170.755788,86.6550021 Z"/><path d="M183.542654 75.2721244 180.897751 74.9501462 179.92732 77.4691524C179.92732 77.4691524 180.840667 83.0564218 180.631358 83.8518975 180.574274 84.2306954 171.783304 84.2306954 171.783304 84.2306954L169.518963 84.1738757C169.404794 85.4617886 169.690216 85.5186083 169.576047 86.8065213 169.633131 87.3936581 170.070777 88.9467296 170.869956 89.2687078 170.869956 89.2687078 179.223281 89.2118881 181.868183 89.1550684 182.362913 89.1550684 182.838615 89.041429 183.276261 88.9467296 184.132524 88.681571 184.627254 88.6247513 185.16004 87.8671555 185.65477 87.1095596 185.921163 86.0868052 185.921163 84.855712 185.806995 82.2798861 184.893647 78.1509887 184.037384 75.5751628L183.542654 75.2721244ZM181.50665 76.4085182 183.333345 77.0524747C183.599738 77.90477 183.9803 79.5714809 184.246693 82.3177659L184.303777 82.4314052C184.513086 83.4541596 184.684338 84.306455 184.684338 85.0640508 184.684338 85.9163462 184.475029 86.6171223 184.151552 87.0527399 183.885159 87.4883576 183.447513 87.7535161 182.914727 87.9050353 182.648334 87.961855 182.324857 88.0186746 181.944296 88.0186746 179.794123 88.132314 174.123757 88.2838332 171.802332 88.2838332L171.688163 87.6398767C171.155377 87.6398767 170.774816 87.6398767 170.774816 87.6398767L170.774816 86.673942C170.946068 86.673942 171.155377 86.673942 171.42177 86.673942L171.098293 85.3860291C173.362634 85.3292094 181.887211 85.5564881 182.210689 84.2117555 182.419997 83.2837006 181.773043 77.9615897 181.50665 76.4085182ZM49.889458 76.7304965 52.5343603 76.4085182 53.5618764 78.9275244C53.5618764 78.9275244 52.5914446 84.5147938 52.8007534 85.3102695 52.9149218 85.6890674 61.6488081 85.6890674 61.6488081 85.6890674L63.9131489 85.6322477C64.0273174 86.9201607 63.7418963 86.9769804 63.8560647 88.2648933 63.8560647 88.8520301 63.3613348 90.4051016 62.6192399 90.7270798 62.5621556 90.7270798 54.2088309 90.6702601 51.5639285 90.6134404 51.0691986 90.5566208 50.5934967 90.4998011 50.155851 90.4051016 49.2995877 90.139943 48.8048577 90.0831233 48.2720716 89.3255275 47.7773417 88.5679316 47.5109486 87.5451772 47.5109486 86.314084 47.6251171 83.7382581 48.5384647 79.6093607 49.394728 77.0335348L49.889458 76.7304965ZM51.94449 77.8479503 50.1177949 78.4919068C49.8514018 79.3442021 49.4708403 81.010913 49.2044473 83.757198L49.2044473 83.8708374C48.9380542 84.8935918 48.8238858 85.7458871 48.8238858 86.5034829 48.8238858 87.3557783 48.9951385 88.0565544 49.3186157 88.4921721 49.5850088 88.9277897 50.0226545 89.1929482 50.5554406 89.3444674 50.8218336 89.4012871 51.2023951 89.4581068 51.5258724 89.4581068 53.6760448 89.5717461 59.346411 89.7232653 61.6678361 89.7232653L62.3718749 86.8254612C60.107534 86.7686415 51.5829566 86.9959202 51.2594793 85.6511876 51.0311424 84.7231327 51.678097 79.4199617 51.94449 77.8479503ZM63.5896717 30.8201878 61.5346396 28.9451381 63.4755032 21.7479775C63.418419 21.8047972 63.1520259 20.6684034 65.9110968 20.7820428L65.5876195 22.0699557C64.2366262 21.7479775 64.6171877 21.6343381 64.6171877 21.6343381L64.6171877 22.0699557 63.2091102 27.6572251 64.2937104 27.865564 63.5896717 30.8201878Z"/><path d="M56.6824806 77.3176332 56.4731718 82.7344436 106.307699 82.848083C106.631176 81.3897109 107.98217 78.0752291 112.567936 77.6396115 112.739188 77.7532509 112.834329 77.90477 113.005581 78.0752291L113.005581 77.5827918C113.329059 77.5827918 113.652536 77.5827918 114.033097 77.5827918 119.646379 77.7532509 120.997373 81.1813721 121.263766 82.7912633L179.356477 82.6776239 178.766607 73.0750965 173.857364 61.0482623C174.561403 61.2187214 175.208357 61.4270602 175.855312 61.6353991L180.326909 72.6394789 180.383993 72.9046374 181.088032 84.2875151C160.65188 84.2875151 140.1967 84.3443348 119.760548 84.4011545L119.760548 83.5867389C119.760548 83.5299192 119.760548 79.3442021 114.052125 79.192683 108.229535 78.9843441 107.791889 83.757198 107.791889 83.757198L107.67772 84.4579741 54.8177293 84.3443348 55.0841223 77.2039939C55.50274 77.2039939 56.0355261 77.2608135 56.6824806 77.3176332ZM114.889361 22.4487537 114.775192 22.5055733C114.60394 22.2404148 114.337547 21.8047972 113.956985 21.3312998 114.071154 21.3312998 114.166294 21.3881195 114.223378 21.3881195 114.489771 21.3881195 114.718108 21.2744801 114.927417 21.1797806L114.889361 22.4487537ZM186.358809 67.6014664 194.883386 67.4878271C194.883386 67.4878271 196.120211 67.4878271 195.378116 67.2226685 194.674077 67.0143297 194.674077 66.7302312 193.323084 66.7302312 191.972091 66.7302312 186.092416 66.7302312 186.092416 66.7302312L186.358809 67.6014664ZM196.120211 32.9225163 201.238763 32.9225163C201.238763 32.9225163 202.209195 32.9225163 201.676409 33.0929754 201.086539 33.2634344 200.820146 33.3013142 199.792629 33.3013142 198.708029 33.3013142 196.348548 33.3581339 196.348548 33.3581339L196.120211 32.9225163ZM175.341554 32.9225163 192.219456 32.9225163C192.219456 32.9225163 195.454228 32.9225163 193.570449 33.0929754 191.68667 33.2634344 191.68667 33.4717733 188.22356 33.4717733 184.722394 33.4717733 175.703087 33.8505712 175.703087 33.8505712L175.341554 32.9225163ZM213.378675 60.8967431 218.440143 60.8967431C218.440143 60.8967431 219.410574 60.8967431 218.877788 61.105082 218.287918 61.2755411 218.287918 61.4270602 217.260402 61.4270602 216.175802 61.4270602 213.435759 61.5975193 213.435759 61.5975193L213.378675 60.8967431ZM183.866131 60.9914426 209.915565 60.8778032C209.915565 60.8778032 212.23699 60.7641639 211.323643 60.9914426 210.619604 61.105082 212.408243 61.3134209 211.761288 61.4270602 211.494895 61.4270602 208.469432 61.4270602 207.99373 61.4270602 206.262175 61.4270602 184.417945 61.9194975 184.417945 61.9194975L183.866131 60.9914426ZM182.629306 54.8170364 200.3825 55.0253753C200.3825 55.0253753 201.352932 55.0253753 200.763061 55.1958344 200.173191 55.4041732 200.173191 55.5746323 199.145675 55.5746323 198.061075 55.5746323 182.971812 55.6882717 182.971812 55.6882717L182.629306 54.8170364ZM177.777147 43.9265961 216.936925 43.8697764C216.936925 43.8697764 218.611395 43.8697764 217.640963 44.0402354 216.613447 44.2485743 216.613447 44.4190334 214.843836 44.4190334 213.017141 44.4190334 178.062568 44.9493505 178.062568 44.9493505L177.777147 43.9265961ZM176.597407 38.5097857 200.648893 38.5097857C200.648893 38.5097857 201.619325 38.5097857 201.029454 38.6802448 200.496668 38.8507038 200.496668 39.0590427 199.412068 39.0590427 198.384552 39.0590427 176.920884 39.4378406 176.920884 39.4378406L176.597407 38.5097857ZM179.337449 48.7562696 208.792909 49.0782479C208.792909 49.0782479 210.847941 49.0782479 209.649172 49.2865867 208.469432 49.4570458 208.469432 49.6085649 206.300231 49.6085649 204.092974 49.6085649 179.660927 49.6653846 179.660927 49.6653846L179.337449 48.7562696ZM173.89542 28.2443619C173.89542 28.2443619 210.905025 28.0360231 218.287918 27.9223837 225.670811 27.8087443 226.96472 28.0928428 228.486966 27.7140448 230.047268 27.3920666 230.751307 27.2216075 228.867527 27.2216075 226.926664 27.2216075 178.157709 27.4299464 173.571943 27.4867661 173.514859 27.6951049 173.514859 27.865564 173.457774 28.0739029 173.686111 28.1875422 173.89542 28.2443619 173.89542 28.2443619ZM44.7709059 65.669597 38.3013605 65.4991379C38.3013605 65.4991379 37.0645357 65.4991379 37.8066306 65.2907991 38.5106694 65.0824602 38.5106694 64.9120012 39.8616627 64.9120012 41.212656 64.9688208 44.3903444 64.5900229 44.3903444 64.5900229L44.7709059 65.669597ZM46.7117695 60.7831038 17.1992258 60.4043058C17.1992258 60.4043058 15.201278 60.4043058 16.3810186 60.195967 17.5607593 59.9876281 17.5607593 59.8171691 19.7299598 59.8171691 21.9372164 59.8171691 46.0457869 59.7603494 46.0457869 59.7603494L46.7117695 60.7831038ZM32.0982082 54.0215608 2.64274878 53.6427629C2.64274878 53.6427629.587716727 53.6427629 1.78648543 53.434424 2.96622605 53.2260851 2.96622605 52.9988064 5.19251078 52.9988064 7.3426832 52.9988064 31.4512537 52.9988064 31.4512537 52.9988064L32.0982082 54.0215608ZM49.5088965 28.6799795 54.6274485 28.6799795C54.6274485 28.6799795 55.5978803 28.6799795 55.00801 28.4716407 54.4752239 28.2633018 55.00801 27.9792034 53.980494 27.9792034 52.8958937 27.9792034 49.889458 28.0928428 49.889458 28.0928428L49.5088965 28.6799795ZM28.6921829 28.6799795 45.6271693 28.6799795C45.6271693 28.6799795 50.155851 28.1875422 48.2720716 27.9792034 46.3882922 27.7708645 45.0943832 28.0360231 41.5932174 28.0360231 38.0920517 28.0360231 30.2144288 28.0360231 30.2144288 28.0360231L28.6921829 28.6799795ZM1.44398008 34.2672489 46.4263484 34.3240686C48.100819 34.3240686 51.8683777 34.2672489 53.3906237 34.1157298 55.3314873 33.9073909 53.7711852 33.3581339 52.7436691 33.3013142 50.4222441 33.1308552 42.3353124 33.7369318 35.7515986 33.7369318 26.4658982 33.7369318 2.73788915 33.7937515 2.73788915 33.7937515L1.44398008 34.2672489ZM22.9837605 39.4189007 2.37635574 39.4189007C2.37635574 39.4189007-1.5624557 39.4189007.701885175 39.2105619 3.02331027 39.0401028 3.02331027 38.831764 7.28559898 38.831764 11.5478877 38.831764 21.8991603 38.6613049 21.8991603 38.6613049L22.9837605 39.4189007ZM25.5715787 39.4189007 48.5574927 39.4757204C49.5850088 39.4757204 51.4117039 39.2673816 52.0586585 39.3620811 52.2299111 39.4189007 53.4096518 38.3961463 52.6485288 38.3961463 48.3862401 38.3961463 26.8654877 38.3961463 26.8654877 38.3961463L25.5715787 39.4189007ZM50.3841879 44.1349349 28.9205198 44.0212955C28.9205198 44.0212955 27.5695265 43.9644759 28.3877337 43.8129567 29.1488567 43.6046178 29.1488567 43.4341588 30.5949903 43.4909784 32.0601521 43.5477981 50.3841879 43.0553608 50.3841879 43.0553608L50.3841879 44.1349349ZM49.5088965 48.9646085 42.9822669 48.8509691C42.9822669 48.8509691 41.8025263 48.7941494 42.487537 48.6426302 43.1915757 48.4342914 43.1915757 48.2070126 44.542569 48.2638323 45.8935623 48.2638323 49.2425034 47.9418541 49.2425034 47.9418541L49.5088965 48.9646085ZM40.0709715 54.2298996 34.9524194 54.1162603C34.9524194 54.1162603 33.9819876 54.0594406 34.5718579 53.9079214 35.104644 53.6995826 35.104644 53.4723038 36.1892443 53.5291235 37.2167603 53.5291235 39.7474942 53.794282 39.7474942 53.794282L40.0709715 54.2298996ZM47.092331 54.6086976 41.9737789 54.4382385C41.9737789 54.4382385 41.0033471 54.4382385 41.5932174 54.2298996 42.1260035 54.0594406 42.1260035 53.8511017 43.2106038 53.8511017 44.2381198 53.9079214 46.7688537 53.5291235 46.7688537 53.5291235L47.092331 54.6086976Z"/><path d="M67.8519604 14.2288387 52.9149218 77.0903545C72.1713333 78.643426 100.599277 65.7642965 112.244458 76.2380591L114.29949 22.7707319C113.538367 21.4828189 108.800377 14.4939972 101.417484 14.2856583 96.6794934 14.1151993 92.4172046 15.1000739 88.421309 15.9523692 81.3809214 17.5054407 74.7591514 18.906993 67.8519604 14.2288387ZM52.3250515 76.8441358 67.3191743 11.9371112 68.2896061 12.6947071C74.9684603 17.7327195 81.4570337 16.6152656 88.4022809 15.0621941 92.4933169 14.1530791 96.6033811 13.073505 101.569709 13.2439641 107.182991 13.4144231 111.216942 16.9561837 113.538367 19.5698894 115.003529 21.2366003 115.68854 22.5813329 115.68854 22.5813329L115.802708 23.0169505 113.747676 80.0260384 112.396683 78.6055462C102.04541 67.6014664 71.7907718 79.2495027 53.0100622 77.8479503L52.0967146 77.734311 52.3250515 76.8441358ZM118.276358 73.889512C123.88964 72.3932602 142.594237 65.7264167 174.960992 66.6355317L174.694599 65.7264167C160.880217 64.9120012 135.64899 68.2454229 135.64899 68.2454229 145.581645 66.6923514 162.878165 64.760482 174.542375 65.1392799L174.371122 64.5521431C161.698424 64.4385038 148.207519 65.4612582 148.207519 65.4612582 154.848317 64.8173017 164.876113 64.1165255 174.199869 64.1165255 173.933476 62.9801317 173.552915 61.8058582 173.343606 60.9535628 159.110606 57.9421193 129.483894 67.6014664 117.838712 73.8326923L118.276358 73.889512Z"/><path d="M176.635463,62.014197 C177.777147,65.669597 178.956888,69.324997 180.193713,72.9614571 L180.783583,74.5713483 L179.166197,73.9842115 C169.557019,70.1772923 151.004646,70.3856312 136.010524,72.1091618 C132.927975,72.4879597 114.927417,75.0069659 113.785732,77.7532509 L113.785732,77.9237099 L112.168346,77.9805296 C112.168346,77.8100705 112.168346,77.6017317 112.168346,77.4502125 C112.548908,68.3211825 112.872385,58.4913763 113.195862,48.68051 C113.519339,38.6991847 113.728648,30.5360894 114.052125,21.3502397 L114.166294,20.9714417 C114.432687,20.5358241 114.69908,20.1191464 114.984501,19.6835288 C114.337547,38.093108 113.690592,59.457311 112.986553,77.8858301 C112.872385,77.185054 114.128238,76.0676001 116.221326,74.7796871 C121.339878,73.3781348 132.185881,71.4462654 134.393137,71.1811068 C148.854474,69.514396 168.472419,69.2492374 178.671467,72.5826592 C177.434642,68.8704395 176.197817,65.1771597 175.056133,61.4081203 C175.626975,61.5975193 176.159761,61.7490385 176.635463,62.014197 Z"/><path d="M161.489115.914091558C164.400411 12.0318107 167.692268 23.0927101 171.136349 34.4755878 174.256953 44.7788914 177.225333 55.3662934 180.840667 65.4612582L179.756067 65.7832364C177.491726 61.2755411 169.671187 60.5179452 160.233262 61.654339 153.592464 62.4687545 146.152487 64.2301649 139.188212 66.3324934 132.223937 68.4727017 125.811476 70.9538281 121.073485 73.1508561 116.811196 75.1395452 114.052125 76.806256 113.785732 77.6017317L113.785732 77.9237099 112.168346 77.9805296C112.168346 77.8668902 112.168346 77.7721907 112.168346 77.6585514 112.548908 68.415882 112.872385 58.4913763 113.195862 48.510051 113.519339 38.7938842 113.633508 30.2519909 114.280462 20.5926438 118.542751 13.1871444 125.602167 7.12637754 133.099228 4.11493403 144.363848-.449580976 156.408619-.601100146 160.880217.724692595L161.203694.516353735 161.489115.914091558ZM170.165917 36.085479C166.721836 24.8162407 163.429979 12.0318107 160.55674 1.02773094 155.970974-.108662843 144.325792.762572387 133.746183 5.06192885 126.629683 7.95973298 119.513183 13.8689806 115.517287 20.8009827 115.136726 30.0815319 115.136726 38.7370645 114.813248 48.6047504 114.489771 57.7906002 114.166294 66.9196302 113.899901 75.4425835 115.307978 74.3061897 117.515235 73.0182768 120.369446 71.692484 125.107437 69.4386364 131.691151 66.9196302 138.71251 64.760482 145.73387 62.6581535 153.230931 60.8399235 159.966869 60.0444478 167.730324 59.1353328 174.523346 59.5141307 178.405074 62.0899566 175.341554 53.1692655 172.924988 45.214509 170.165917 36.085479ZM179.223281 74.1546706C165.580151 71.692484 157.264883 72.0144623 143.507585 72.7531182 172.31609 72.3743203 179.223281 75.2153047 179.223281 75.2153047 179.223281 74.6849877 179.223281 74.7418073 179.223281 74.1546706Z"/><path d="M179.451618 75.6509224C170.127861 73.9842115 155.723609 73.0750965 144.991775 74.0410312 165.047365 73.9842115 176.216845 75.7077421 179.62287 76.8820156 179.394534 75.9729006 179.451618 76.2380591 179.451618 75.6509224ZM113.595452 77.4312726C117.36301 75.2910643 132.357133 73.5107141 133.17534 73.5107141 126.439402 74.8554467 120.388474 75.7645617 115.155754 77.7532509 114.718108 77.4312726 114.014069 77.7532509 113.595452 77.4312726ZM115.745624 78.1320488C117.248842 77.9237099 130.796831 76.4085182 127.333722 77.0524747L117.077589 78.9843441 115.745624 78.1320488ZM74.4927584 32.9225163C74.6640111 32.8088769 75.0826287 32.9225163 75.3109656 32.9225163 75.5202744 32.9225163 75.5202744 32.7141774 75.6344429 32.7141774 75.8056955 32.7141774 76.1291728 32.7141774 76.4907062 32.7709971 76.8141835 32.8278168 76.433622 32.6005381 76.5477904 32.8846365 76.6619589 33.1497951 76.4907062 33.4717733 76.4907062 33.6990521 76.433622 33.8695111 76.6048747 34.0210303 76.1101447 33.9073909 75.6154148 33.8505712 75.9008359 33.9073909 75.7866675 33.9073909 75.672499 33.9073909 75.6154148 33.8505712 75.3490217 33.8505712 75.0255445 33.7937515 74.5308145 34.2861888 74.3785899 33.7937515 74.2073373 33.3013142 74.644983 33.528593 74.644983 33.3013142 74.5878988 33.1308552 74.3215057 33.0361557 74.4927584 32.9225163ZM71.9049403 33.1308552C71.9049403 32.9225163 73.0466247 33.0172158 73.636495 33.0740355 74.2263653 33.0740355 74.0170565 32.7520572 74.131225 33.0740355 74.2453934 33.3960137 74.0170565 33.717992 73.9219162 33.9831505 73.7506635 34.3051287 73.9790004 33.9831505 73.4842704 33.9831505 72.9514844 33.9831505 71.9810525 34.248309 71.9810525 34.0399702 71.9429964 33.8316313 71.9049403 33.3013142 71.9049403 33.1308552ZM77.5562784 26.577651C77.7275311 26.5208314 77.9939241 26.4640117 78.0890645 26.6344707 78.2032329 26.8049298 78.0319803 27.0700884 77.9178118 27.2216075 77.8036434 27.2784272 77.5943346 27.2784272 77.5943346 27.1647878 77.4801661 26.5208314 77.4801661 26.8428096 77.4801661 26.7291702 77.4991942 26.6344707 77.461138 26.577651 77.5562784 26.577651ZM74.5308145 26.4261319C74.5308145 26.3693122 74.5878988 26.4261319 74.644983 26.4261319 75.1397129 26.4261319 75.672499 26.4261319 76.2052851 26.4829516 76.4716781 26.4829516 76.7380712 26.4261319 77.0234923 26.5397713 77.0805765 26.5397713 77.0234923 26.6534106 77.0234923 26.7102303 77.0234923 27.1458479 77.3469696 27.0322086 77.0805765 27.4110065 76.9664081 27.6193453 76.5858466 27.3541868 76.3765378 27.3541868 75.8437517 27.3541868 75.2919375 27.2973671 74.7591514 27.2973671 74.5498426 27.2973671 74.1692811 27.4110065 74.1692811 27.2405474 74.2834496 26.7102303 74.4356742 26.9753889 74.4927584 26.7102303 74.5308145 26.3693122 74.4927584 26.4829516 74.5308145 26.4261319ZM72.8753721 26.4829516C73.1988493 26.3124925 73.636495 26.3124925 73.6935793 26.4829516 73.8648319 26.9185692 74.0170565 26.9753889 73.8077477 27.4488863 73.7506635 27.6193453 73.4271862 27.5625257 73.2749616 27.505706 73.1607932 27.4488863 72.9514844 27.5625257 72.8373159 27.3352469 72.6470352 27.126908 72.6470352 26.6344707 72.8753721 26.4829516ZM103.396404 29.8542531C103.510572 29.7406137 103.662797 29.8542531 103.891134 29.9110728 104.100442 29.9678925 104.385864 29.8542531 104.481004 30.0247122 104.652257 30.3466904 104.481004 30.782308 104.481004 31.1042863 104.481004 31.1042863 104.309751 31.1042863 103.624741 30.9906469 103.415432 30.9338272 103.301263 30.9906469 103.301263 30.9338272 103.301263 30.2898707 103.358348 30.233051 103.358348 30.0815319 103.339319 29.9678925 103.339319 29.8542531 103.396404 29.8542531ZM100.37094 29.7974334C100.485108 29.7406137 100.694417 29.7974334 100.86567 29.7974334 101.45554 29.7974334 102.04541 29.8542531 102.654309 29.8542531 102.768477 29.8542531 102.825561 29.7974334 102.863618 29.8542531 102.901674 29.9110728 102.863618 29.9678925 102.863618 30.0247122 102.920702 30.5171495 102.920702 30.5171495 102.806533 30.9338272 102.806533 30.9906469 102.692365 30.9338272 102.635281 30.9338272 102.04541 30.9338272 101.45554 30.8770075 100.846642 30.8770075 100.408996 30.8770075 99.8191257 31.1421661 99.8191257 30.8770075 99.8762099 30.233051 100.256771 30.2898707 100.313856 30.0247122 100.37094 29.7027339 100.313856 29.7974334 100.37094 29.7974334ZM99.134115 29.8542531C99.134115 29.8542531 99.400508 29.5890946 99.5146765 29.7974334 99.7239853 30.233051 99.5146765 30.4413899 99.4575922 30.9338272 99.4575922 30.9906469 99.3434238 30.9906469 99.3434238 30.9338272 99.2482834 30.611849 99.1911992 30.233051 99.134115 29.8542531ZM103.92919 23.9450055C104.633229 23.9450055 105.394352 24.210164 105.394352 24.2669837 105.337267 24.6457816 105.337267 25.0813992 105.280183 25.498077 105.223099 25.6117163 104.899622 24.8541205 104.195583 25.2329184 103.92919 25.4033775 104.081414 24.7026013 103.986274 24.0965246 103.986274 24.0586448 103.872106 23.9450055 103.92919 23.9450055ZM100.313856 23.9071257C100.637333 23.6987868 100.846642 23.6419671 101.074979 23.7366666 101.246231 23.7934863 101.398456 23.850306 102.04541 23.9071257 102.04541 23.9071257 102.102495 23.850306 102.102495 23.9071257 102.159579 24.4374428 102.159579 24.2291039 102.102495 24.6079018 102.102495 24.9866998 102.54014 24.6647215 102.54014 24.4942625 102.54014 24.3238034 102.330832 24.1154645 102.597225 23.9071257 102.863618 23.6987868 103.301263 23.9071257 103.624741 23.9639454 103.681825 23.9639454 103.738909 23.9071257 103.738909 23.9639454 103.681825 24.0775847 103.624741 24.1722842 103.5296 24.2291039 103.415432 24.3427433 103.738909 24.6079018 103.472516 24.8730604 103.091954 25.1950386 102.559168 24.8730604 102.064438 24.8162407 101.208175 24.8162407 100.884698 25.0245795 100.561221 24.8730604 100.447052 24.8730604 100.180659 25.0435194 100.123575 24.8162407 99.9903783 24.5510821 100.047463 24.0586448 100.313856 23.9071257ZM101.569709 37.2597526C101.836102 37.1461132 102.159579 37.3165722 102.425972 37.3165722 103.130011 37.3165722 104.309751 37.6953702 104.309751 37.6953702 104.252667 38.0741681 104.195583 38.452966 104.138499 38.831764 104.138499 38.831764 103.110983 38.2446272 102.521112 38.1878075 102.197635 38.1878075 101.664849 38.452966 101.493596 38.1878075 101.227203 37.6953702 101.493596 37.8658292 101.493596 37.7521899 101.512624 37.5817308 101.398456 37.3733919 101.569709 37.2597526ZM98.9818904 37.2218728C99.3053676 37.0514137 99.6859291 37.0514137 99.895238 37.1082334 100.066491 37.1650531 100.275799 37.2218728 100.86567 37.2786925 100.922754 37.2786925 100.979838 37.2218728 101.036922 37.2786925 101.036922 37.3923318 100.979838 37.4491515 101.036922 37.7143101 101.036922 37.9794686 101.094007 37.7711298 101.036922 38.1499277 101.036922 38.2067474 101.036922 38.2067474 101.036922 38.2635671 100.180659 38.9075235 99.8000976 38.0552282 99.4766203 37.8847691 99.3624519 37.8279494 99.153143 38.2067474 98.9818904 37.9984085 98.8677219 37.8090096 98.7535535 37.3165722 98.9818904 37.2218728ZM100.275799 52.0896914C100.922754 52.0328717 102.007354 52.2033307 102.007354 52.2601504 102.007354 52.5821287 101.95027 52.9609266 101.95027 53.2829048 101.95027 53.2829048 100.770529 53.1124458 100.161631 53.1124458 100.047463 53.1124458 99.7810695 53.2260851 99.8381537 53.1124458 100.009406 52.4684893 100.161631 52.5821287 100.218715 52.2980302 100.275799 52.0328717 100.161631 52.0896914 100.275799 52.0896914ZM96.7556057 52.1465111C97.0790829 51.976052 97.2883917 52.0328717 97.5167286 52.0896914 97.6879813 52.2033307 97.8972901 51.976052 98.4871604 52.0328717 98.8106377 52.0328717 99.2482834 51.7677131 99.400508 52.0328717 99.6098168 52.4116696 99.6669011 52.6768282 99.400508 53.0556261 99.2863396 53.3207846 98.8677219 53.0556261 98.5823008 53.0556261 97.7260375 52.9988064 97.345476 53.1692655 97.0219987 53.0556261 96.9078302 52.9988064 96.6985214 53.1124458 96.584353 52.885167 96.4892126 52.6768282 96.4892126 52.2412105 96.7556057 52.1465111ZM89.5249373 53.1692655C89.5820215 53.1692655 89.6391058 53.1692655 89.69619 53.2260851 89.962583 53.2260851 90.1338357 53.2260851 90.2860603 53.1692655 91.0471833 52.9609266 91.9605309 52.8472872 91.9605309 52.8472872 91.9605309 53.2260851 91.9605309 53.6617028 91.9605309 54.0215608 91.9605309 54.0215608 91.3706605 54.0783805 90.8188464 54.2298996 90.7617622 54.2867193 90.7046779 54.343539 90.7046779 54.2867193 90.5905095 54.1162603 90.6475937 53.9647411 90.5905095 53.794282 90.4192568 52.9798665 90.2670322 53.8511017 90.1528638 53.9647411 89.9816111 54.0215608 90.1528638 54.17308 89.9816111 54.343539 89.9245269 54.4571784 89.7723023 54.343539 89.6010496 54.343539 89.4868812 54.343539 89.2204881 54.5139981 89.1063197 54.343539 88.935067 54.0215608 89.2204881 53.8132219 89.2204881 53.5859432 89.3156285 53.434424 89.4297969 53.2639649 89.5249373 53.1692655ZM85.110424 53.6995826C85.5480697 53.4912437 85.9286312 53.5291235 86.1950243 53.434424 86.7278103 53.3207846 87.1654561 53.2260851 88.1929721 53.1692655 88.3642248 53.1692655 88.687702 52.9988064 88.7257582 53.1692655 88.8970109 53.5480634 88.8970109 53.8132219 88.7257582 54.3056592 88.7257582 54.4761183 88.4593651 54.3056592 88.2310282 54.3624789 87.4699053 54.3624789 87.0512876 54.4761183 86.6707261 54.5708178 86.2330804 54.6844572 85.8144628 54.6844572 85.110424 54.892796 84.9391713 54.892796 84.9391713 55.4799328 84.9391713 55.3284136 84.9391713 54.7980965 85.0533398 53.8700416 85.0533398 53.7753421 85.0533398 53.5859432 84.9581994 53.7564022 85.110424 53.6995826ZM82.0849602 54.17308C82.9031674 54.1162603 83.7023465 53.6806427 84.5205537 53.7374623 84.6347221 53.7374623 84.5205537 53.8511017 84.5205537 54.1162603 84.5776379 54.3814188 84.844031 54.7033971 84.5205537 54.9306758 83.9877676 55.1390147 83.7594307 54.9874955 83.1695604 55.1390147 82.7319147 55.252654 82.1420444 55.631452 81.8185671 55.3094737 81.3238372 54.8738561 81.9898198 54.722337 82.0278759 54.4571784 82.0849602 54.1352002 82.0278759 54.2298996 82.0849602 54.17308ZM80.6388265 54.17308C80.7529949 54.0026209 81.1716126 54.0026209 81.2286968 54.2298996 81.3999495 54.6655173 81.3428652 55.0443152 81.1145283 55.4609929 81.0574441 55.631452 80.6768826 55.631452 80.6197984 55.4609929 80.4675738 55.1011349 80.4675738 54.5518779 80.6388265 54.17308ZM88.668674 45.1008696C89.1063197 44.7788914 89.5249373 45.0440499 89.8103584 45.1008696 90.0767515 45.1008696 90.2480041 45.1008696 90.4002287 45.0440499 91.1613517 44.8357111 92.0746993 44.7220717 92.0746993 44.7220717 92.0746993 45.1008696 92.1317835 45.4796676 92.1317835 45.8016458 92.1317835 45.8016458 91.5419132 45.9152852 90.9900991 46.0668043 90.4953691 46.1804437 90.2289761 46.1804437 89.8103584 46.123624 89.5439654 46.123624 89.1063197 46.123624 88.4022809 46.123624L88.3451967 46.123624C88.3451967 46.0099847 88.4022809 45.9152852 88.4593651 45.8584655 88.5545055 45.4796676 88.2881125 45.3849681 88.668674 45.1008696ZM84.6727783 45.8584655C84.7869467 45.8016458 84.8820871 45.8016458 85.0533398 45.8016458 85.6432101 45.7448261 85.9666874 45.4228479 86.2901646 45.3660282 86.7278103 45.1955691 87.2605964 44.8357111 87.9646352 45.1576893 88.3451967 45.3281484 88.0217194 45.6880064 88.0788036 46.123624L88.0788036 46.123624C87.4889333 46.1804437 86.9942034 46.3319629 86.6707261 46.4456023 86.4043331 46.502422 86.2330804 46.6160613 85.9096031 46.6160613 85.8525189 46.6160613 85.8525189 46.5592416 85.8525189 46.5592416 85.357789 45.8584655 85.4148732 46.3509028 85.2626486 46.4456023 85.1484802 46.5592416 85.2055644 46.7107608 85.1484802 46.9759194L85.1484802 46.9759194C84.8250029 47.0327391 84.5586098 47.0327391 84.2922168 47.0327391L84.2922168 47.0327391C84.2922168 46.8244002 84.5015256 46.2183235 84.5586098 46.0668043 84.5776379 45.9152852 84.5776379 45.8584655 84.6727783 45.8584655ZM80.7339669 46.2940831C81.2286968 46.0289245 81.6473144 46.2940831 82.1420444 46.1804437 82.7889989 46.0668043 83.4359534 45.6880064 83.9687395 45.9152852 84.4634695 46.0857442 84.2351326 46.9380396 83.8545711 47.0895587 83.3598411 47.3547173 82.7699708 47.0327391 82.2371847 47.0895587 81.7043987 47.0895587 81.1525845 47.581996 80.7339669 47.3547173 80.524658 47.2978976 80.6768826 46.9759194 80.6768826 46.8244002 80.6959107 46.672881 80.6388265 46.3887826 80.7339669 46.2940831ZM91.9034466 37.1650531C92.1698397 36.994594 92.4933169 37.1082334 92.8167942 37.1082334 93.3495803 37.1082334 93.7301418 37.0514137 93.7301418 37.0514137 93.787226 37.3165722 93.787226 37.7521899 93.8443102 38.0173484 93.9013945 38.0173484 93.4637487 38.2256873 92.8167942 38.1309878 92.7026258 38.1309878 92.75971 37.9226489 92.75971 37.8090096 92.5884573 36.994594 92.5884573 37.8658292 92.4933169 37.9226489 92.3791485 38.0362883 92.2840081 38.093108 92.2269239 38.1309878 92.1698397 38.1878075 92.0556712 38.0741681 92.0176151 38.1309878 91.8463624 38.1309878 91.4277448 38.452966 91.3135763 38.3014469 91.1423237 37.9794686 91.484829 38.1878075 91.5228851 37.9794686 91.5228851 37.7521899 91.8083063 37.2597526 91.9034466 37.1650531ZM87.4318491 37.5817308C87.6411579 37.3733919 88.0217194 37.5249111 88.4593651 37.5249111 89.8674427 37.5817308 89.1634039 37.4112717 90.4002287 37.354452 90.6666218 37.2976324 90.9330148 37.1461132 91.0471833 37.2976324 91.2564921 37.6764303 91.1613517 37.7900697 90.9900991 38.2635671 90.9900991 38.4340261 90.6666218 38.3203868 90.4953691 38.3203868 89.1443758 38.3772064 89.962583 38.5855453 88.3832528 38.5287256 87.8504667 38.4719059 87.412821 38.7938842 87.2415684 38.5855453 87.0322595 38.3203868 87.3557368 38.642365 87.3557368 38.4150862 87.3747649 38.282507 87.3176807 37.6385505 87.4318491 37.5817308Z"/><path d="M84.3112449,38.1878075 C84.7488906,38.1309878 85.1294521,38.0741681 85.3958451,37.9794686 C85.6051539,37.9794686 85.8334908,37.9794686 85.9857154,37.9226489 C86.4804454,37.8090096 86.8419788,37.3355121 87.2796245,37.6006707 C87.6031018,37.8090096 86.8419788,37.9226489 86.8419788,38.452966 C86.899063,38.9832831 86.8419788,38.2446272 86.7848946,38.5666054 C86.7278103,38.6234251 86.6136419,38.6234251 86.5185015,38.6234251 C86.3091927,38.6802448 86.0808558,38.6802448 85.871547,38.7370645 C85.2816767,38.9075235 84.082908,39.7598189 83.6642903,39.0590427 C83.2456727,38.3582665 84.1970764,38.8507038 84.3112449,38.2446272 L84.3112449,38.1878075 L84.3112449,38.1878075 Z"/><path d="M81.6092583 38.3393266C81.6092583 38.3393266 82.5796901 37.8468893 83.4930377 38.282507 83.9877676 38.4908458 83.7023465 38.9264634 83.3788692 39.0969225 82.4655216 39.4757204 81.4950898 39.1537422 81.4950898 39.1537422 81.4950898 38.8885836 81.5521741 38.6044852 81.6092583 38.3393266ZM92.2840081 30.8770075C92.2840081 30.8201878 92.3981766 30.8770075 92.4552608 30.8201878 93.2163838 30.611849 94.1297314 30.5550293 94.1297314 30.5550293 94.1297314 30.8201878 94.2438998 31.1421661 94.1868156 31.4641443 94.1868156 31.5777837 93.9775068 31.5777837 93.9204225 31.520964 93.8062541 31.2558054 93.8062541 31.6346034 93.7111137 31.0285267 93.5969453 30.4982096 93.3876365 31.0853464 93.2163838 31.1989857 93.0451311 31.3126251 93.2163838 31.2558054 93.1592996 31.691423 93.1592996 31.7482427 93.1022153 31.691423 93.0451311 31.691423 92.6074854 31.8618821 92.3410923 32.0134013 92.0176151 31.8050624 91.8463624 31.691423 92.2840081 31.4830842 92.2840081 31.3126251 92.2840081 31.1989857 92.1698397 31.2558054 92.2840081 30.8770075ZM88.0788036 30.9906469C88.0788036 30.9338272 88.1929721 31.0474666 88.2881125 31.0474666 88.7828424 30.9338272 89.3727127 30.8391277 90.3431445 30.782308 91.0471833 30.782308 91.751222 30.5171495 91.9034466 30.782308 92.1698397 31.3126251 91.8463624 31.4830842 91.8463624 31.7482427L91.8463624 31.8050624C91.5799694 31.8050624 91.1423237 31.8050624 90.4953691 31.8050624 89.4107689 31.7482427 89.1443758 31.691423 88.8779828 31.8618821 88.668674 32.0323412 88.2310282 32.3543194 88.1168598 32.070221 87.8694948 31.3694448 88.0217194 31.2558054 88.0788036 30.9906469ZM82.8460831 31.7482427C83.1695604 31.4262645 84.0258238 31.3126251 84.1970764 31.7482427 84.6347221 32.5626583 84.082908 33.3013142 84.4063852 32.6573578 84.6727783 32.070221 84.6156941 31.8997619 84.9391713 31.691423 85.5290416 31.4262645 86.3472489 31.2558054 87.0512876 31.1989857 87.2605964 31.1421661 87.5460176 30.9338272 87.5840737 31.0853464 87.7553264 31.6156635 87.6982422 31.8429422 87.5840737 32.3164396 87.5840737 32.3732593 87.412821 32.3164396 87.3747649 32.3164396 85.8144628 32.4868987 84.1970764 33.0740355 82.7319147 32.9603961 82.6177462 32.9603961 82.6177462 32.789937 82.560662 32.6952376 82.5035778 32.6952376 82.560662 32.6384179 82.560662 32.6384179 82.6748305 32.3353795 82.4655216 32.0134013 82.8460831 31.7482427ZM94.9859947 24.759421C95.1953035 24.8730604 95.0430789 25.2518583 94.9289105 25.3465578 94.814742 25.4601972 94.7576578 25.0813992 94.6625174 25.0813992 94.548349 25.1382189 94.7196017 25.2897381 94.7196017 25.4033775 94.7576578 25.6117163 94.814742 24.7026013 94.9859947 24.759421ZM85.9286312 25.1950386C85.9857154 25.0813992 86.1950243 25.1950386 86.3091927 25.1950386 86.5755858 25.1950386 86.5185015 25.4601972 87.2225403 25.2518583 87.6031018 25.1382189 87.8124106 24.8730604 87.926579 24.8162407 88.2500563 24.7026013 88.2500563 24.7026013 88.7447863 24.7026013 88.9540951 24.7026013 89.0682635 24.759421 89.1253477 24.759421 89.2966004 24.759421 89.3917408 24.7026013 89.5629935 24.6457816 89.8293865 24.5889619 89.8293865 24.5889619 89.8293865 24.5889619 90.0006392 24.4753226 90.1528638 24.5889619 90.6856499 24.5321422 90.7998183 24.5321422 90.8569025 24.4753226 90.9520429 24.4753226 91.1613517 24.4185029 91.484829 24.3616832 92.0366432 24.3048635 92.3030362 24.2480438 92.6265135 25.3276179 92.8548504 25.3276179 93.3876365 25.3276179 92.7406819 24.3616832 92.9119346 24.3616832 93.5018049 24.3048635 94.1487594 23.7177267 94.5864051 24.1533443 95.0240509 24.5889619 94.5864051 25.0056397 94.5293209 25.119279 94.4722367 25.2897381 94.2629279 25.2897381 94.0916752 25.3276179 94.034591 25.3844376 93.9204225 25.3844376 93.8823664 25.3844376 93.8823664 25.3844376 92.8548504 25.3276179 92.0556712 25.3844376 91.5609413 25.4412573 91.4658009 25.498077 91.2945482 25.498077 91.1042675 25.5738365 90.9330148 25.5738365 90.7807902 25.6117163 90.6666218 25.6117163 90.7807902 25.498077 90.723706 25.5548966 90.6095376 25.6117163 90.5143972 25.498077 89.9054988 25.6117163 89.7913304 25.668536 89.3156285 25.7821754 89.20146 25.7821754 89.0872916 25.7821754 89.0302074 25.8958148 88.935067 25.8958148 88.8208986 25.8958148 88.6115897 25.9526345 88.4403371 25.9526345 88.3261686 26.0094542 87.7933825 25.1950386 87.2986526 25.3654977 86.385305 25.5738365 86.7087823 26.5018915 86.1569681 26.4450718 85.9857154 26.4450718 85.8334908 26.4450718 85.6622382 26.4450718 85.6622382 26.4450718 85.6051539 26.4450718 85.5480697 26.4450718 85.4909855 26.3882521 85.5480697 26.3882521 85.5480697 26.3314324 85.7573785 25.9336946 85.7573785 25.6117163 85.9286312 25.1950386ZM83.1124762 25.7821754C83.2837288 25.668536 83.4359534 25.2897381 83.8735992 25.3465578 84.3112449 25.4033775 84.7869467 26.1609733 85.2245925 25.1760987 85.2245925 25.119279 85.1675082 25.1760987 85.1675082 25.1760987 85.2816767 25.5548966 85.4909855 25.9905143 85.2245925 26.407192 85.0533398 26.7291702 84.5205537 26.6155308 84.1399922 26.577651 83.8735992 26.5208314 84.1399922 25.668536 83.1124762 26.5208314 82.9983077 26.577651 83.1124762 26.7291702 83.1124762 26.8428096 83.1124762 27.0132687 82.9983077 26.1988531 82.9983077 26.1420334 82.9983077 26.0473339 82.9602516 25.8389951 83.1124762 25.7821754ZM121.511131 51.7108934C121.511131 51.7108934 121.511131 52.0896914 123.29977 54.343539 125.354802 56.9193649 125.240633 60.3474862 125.240633 60.3474862L124.745903 59.2679121C124.745903 59.2679121 124.365342 57.3928623 122.595731 55.1390147 120.597783 52.6200085 121.035429 51.976052 121.035429 51.976052L121.511131 51.7108934Z"/><path d="M118.561779,23.1495298 C118.561779,23.1495298 121.358906,25.0813992 121.41599,25.9905143 C121.530159,28.0928428 121.853636,31.6346034 122.500591,32.4868987 C123.147545,33.2444945 122.938236,33.8316313 122.557675,34.3051287 C122.671843,34.1914894 122.824068,34.1346697 122.938236,34.0399702 C123.585191,33.6043526 124.117977,33.2255546 125.46897,34.4187681 C126.058841,34.9490852 126.610655,35.0627246 126.972188,35.176364 C127.885536,35.346823 128.323181,35.4415225 128.151929,37.2218728 C128.094844,38.2446272 127.980676,38.7181246 127.94262,39.002223 C127.885536,39.3810209 127.828451,39.4378406 127.94262,40.0817971 L128.056788,40.7257536 C128.113873,40.7257536 128.323181,40.7825733 128.703743,40.839393 C129.02722,40.8962127 129.52195,40.9530323 130.168905,41.0477318 C131.025168,41.2560707 131.196421,40.8772728 131.310589,40.6689339 C131.367673,40.4984748 131.424758,40.3469557 131.576982,40.2333163 C132.014628,39.9681577 132.395189,40.1764966 133.460762,41.5212292 C135.021064,43.6235577 134.050632,44.305394 133.137284,45.0061701 C132.756723,45.2713287 132.376161,45.5364872 132.433245,45.9721049 C132.49033,46.2940831 132.547414,46.6160613 132.547414,46.8812199 C132.604498,47.6956354 132.604498,48.1123131 133.955491,48.1691328 C136.105664,48.2259525 132.870891,48.1123131 138.80765,47.6766955 C141.129076,47.5062365 142.3659,47.0895587 143.336332,46.7107608 C144.953719,46.1804437 145.867066,45.8584655 148.835446,47.2031981 L154.543868,49.6653846 L154.753177,49.8358437 L159.224774,54.4571784 L158.140174,54.4571784 L154.144279,50.4798002 L148.473912,48.0176137 C145.771926,46.8812199 145.029831,47.1653183 143.621753,47.6388157 C142.651322,47.960794 141.300328,48.4532313 138.883763,48.6047504 C132.851863,49.0403681 136.029552,49.1350675 133.917435,49.0971877 C131.710179,49.0403681 131.710179,48.3395919 131.59601,46.9001598 C131.59601,46.6918209 131.538926,46.4077225 131.538926,46.0857442 C131.367673,45.1198095 131.976572,44.6841919 132.566442,44.2675142 C133.099228,43.8318966 133.708126,43.4530987 132.68061,42.0704862 C132.09074,41.3128904 132.242965,40.8962127 132.09074,40.9909121 C132.09074,40.9909121 132.147824,40.9909121 132.09074,41.0477318 C131.881431,41.5401691 131.557954,42.2788251 129.978624,41.9568468 C129.388754,41.8432075 128.894024,41.7863878 128.570546,41.748508 C128.132901,41.6348686 127.866508,41.6348686 127.600115,41.4833494 C127.219553,41.2750106 127.162469,41.0477318 127.067328,40.4037753 L127.067328,40.2333163 C126.896076,39.3810209 126.896076,39.2673816 127.010244,38.7749443 C127.067328,38.5097857 127.181497,38.0741681 127.219553,37.1082334 C127.333722,36.1422987 127.162469,36.1422987 126.781907,36.0286593 C126.45843,35.9718396 125.9637,35.8582002 125.487998,35.536222 C126.306205,36.445337 126.95316,37.8468893 125.430914,39.2863215 C124.403398,40.3090759 124.022837,40.460595 123.756443,40.6310541 C123.49005,40.7446935 123.375882,40.8015132 122.519619,41.9189671 C121.81558,42.8280821 121.377934,43.1500603 121.111541,43.3773391 C120.902232,43.5477981 120.902232,43.5477981 120.902232,45.0440499 L120.902232,50.138882 C120.902232,50.7260188 121.111541,51.1048168 121.282794,51.426795 C121.606271,52.0707515 121.929748,52.6010686 121.492103,53.8889815 C120.845148,55.8776706 118.143161,59.2489722 118.143161,59.2489722 L119.170678,57.4307421 C119.170678,57.4307421 120.026941,55.3852333 120.635839,53.5670033 C120.959317,52.6578883 120.750008,52.2790903 120.464587,51.8434727 C120.255278,51.4078551 119.969857,50.9343577 119.969857,50.0631225 L119.969857,44.9682904 C119.969857,43.0364209 119.969857,43.0364209 120.559727,42.6008033 C120.769036,42.4303443 121.149597,42.1651857 121.739468,41.3697101 C122.709899,40.0249774 122.919208,39.911338 123.29977,39.7598189 C123.509079,39.6461795 123.832556,39.55148 124.764931,38.6234251 C126.496486,36.9567142 123.7945,35.2900033 123.7945,35.2900033 L124.232145,34.5892272 C123.851584,34.4755878 123.642275,34.5892272 123.413938,34.7596862 C123.033377,35.0248448 122.595731,35.2900033 121.91072,35.2900033 C121.263766,35.2331837 120.997373,35.0248448 120.997373,34.6460469 C120.997373,34.3808883 121.206681,34.2104293 121.435018,34.0020904 C121.701411,33.7937515 122.081973,33.3581339 121.758496,32.979336 C120.997373,32.0134013 120.578755,28.4716407 120.350418,26.217793 C120.23625,25.1382189 118.675948,24.8162407 118.675948,24.8162407 L118.561779,23.1495298 Z"/><path d="M127.029272,35.7635008 C127.562058,35.7635008 130.644606,34.8543857 132.699639,34.3619484 C133.784239,34.0967899 133.460762,34.4187681 133.460762,34.4187681 L127.790395,36.4642769 L127.029272,35.7635008 Z"/><path d="M118.885256,20.194906 L118.828172,30.233051 C121.853636,27.865564 125.621195,25.7253557 129.61709,23.9450055 L128.703743,13.5280625 C125.507026,15.2515931 122.215169,17.448621 118.885256,20.194906 Z M118.828172,31.0853464 L118.714004,47.1842582 C122.158085,44.4947929 126.477458,42.0894261 131.063224,40.0439173 L129.655147,24.6268417 C125.621195,26.4829516 121.834608,28.6231598 118.828172,31.0853464 Z M118.714004,48.0554935 L118.599835,66.9006903 C120.217222,65.9915753 125.392858,63.0937711 132.889919,60.2906665 L131.158364,40.7446935 C126.477458,42.7902023 122.158085,45.2713287 118.714004,48.0554935 Z M117.952881,67.4878271 L118.067049,47.8850344 L117.952881,47.8282147 L118.067049,47.7145753 L118.238302,19.8539879 L118.35247,19.7403485 C138.959875,2.88384077 157.131686,6.74757962 157.188771,6.74757962 L157.360023,6.80439931 C162.002873,23.0169505 166.417387,39.2863215 170.946068,55.4988727 L170.299114,55.2337142 C170.299114,55.2337142 164.914169,52.7715276 147.865014,56.5216271 C142.575209,57.6580209 137.780134,59.1542727 133.632014,60.7073442 L133.632014,60.7641639 L133.422705,60.8209836 C124.308258,64.211225 118.542751,67.7529856 118.485667,67.7529856 L117.990937,68.0749638 L117.990937,67.4878271 L117.952881,67.4878271 Z M133.555902,60.0255079 C137.704022,58.5292561 142.518125,57.0140644 147.750846,55.8966105 C149.044755,55.5746323 150.338664,55.3094737 151.518404,55.082195 L148.112379,35.0627246 C145.467477,35.7066811 142.727434,36.4642769 139.911279,37.3733919 C137.152208,38.282507 134.412165,39.3052614 131.767263,40.4795349 L133.555902,60.0255079 Z M152.146331,54.9874955 C163.144558,53.0556261 168.282138,54.0215608 169.93758,54.4571784 L164.057905,33.4149536 L164.057905,33.4149536 C160.708964,32.9225163 155.095682,33.528593 148.740305,34.9680251 L152.146331,54.9874955 Z M163.867625,32.7141774 L159.719504,17.7327195 C156.751125,17.2971019 151.784797,17.9031785 146.133459,19.1910915 L148.664193,34.3240686 C154.905402,32.8656966 160.461599,32.2785598 163.867625,32.7141774 Z M159.548252,17.1266428 L156.846265,7.3536563 C155.818749,7.18319723 150.909506,6.50136097 144.002315,7.8460936 L146.000263,18.5281951 C151.55646,17.2971019 156.465704,16.7667848 159.548252,17.1266428 Z M143.526613,7.95973298 C139.378493,8.81202832 134.412165,10.4219195 129.122361,13.2818438 L129.331669,13.2818438 L130.245017,23.6419671 C132.68061,22.562393 135.211344,21.653278 137.742078,20.8009827 C140.329896,19.9865671 142.86063,19.2479112 145.353308,18.6986542 L143.526613,7.95973298 Z M137.970415,21.4259993 C135.382597,22.2782946 132.794779,23.2442293 130.302101,24.3238034 L131.710179,39.7787588 C134.297997,38.642365 136.999983,37.6385505 139.70197,36.7673153 C142.499097,35.8582002 145.315252,35.0437847 148.017239,34.3998282 L145.486505,19.3047309 C143.031883,19.8729278 140.501149,20.6305236 137.970415,21.4259993 Z"/><path d="M135.858299 12.0886304C135.858299 12.0886304 136.23886 11.8802915 136.999983 11.5583133L136.999983 11.615133C136.999983 11.9371112 137.057068 12.3727288 137.114152 12.6947071 136.410113 12.9598656 136.029552 13.1303247 136.029552 13.1303247L135.858299 12.0886304ZM137.646938 11.2931547C137.913331 11.1795154 138.179724 11.0848159 138.503201 10.9711765 138.560286 11.3499744 138.674454 11.785592 138.826679 12.1075703 138.389033 12.2780293 138.008471 12.3727288 137.684994 12.4863682L137.62791 11.6340729 137.62791 11.2931547 137.646938 11.2931547ZM139.1121 10.7438977C139.321408 10.687078 139.549745 10.5734387 139.759054 10.5355589 139.873223 10.8575371 139.930307 11.3499744 140.025447 11.7666521L139.435577 11.9371112C139.264324 11.5014936 139.1121 11.0090563 139.1121 10.7438977ZM140.406009 10.3082801C141.87117 9.87266251 143.697866 9.45598479 145.752898 9.13400655 145.752898 9.51280448 145.809982 9.98630189 145.867066 10.3650998 143.983287 10.687078 142.194648 11.1226957 140.69143 11.5393734 140.558233 11.1226957 140.444065 10.6302584 140.406009 10.3082801ZM146.32374 9.07718686C146.590133 9.02036717 146.91361 8.96354749 147.180003 8.96354749L147.446396 8.9067278C147.560565 9.28552572 147.617649 9.72114334 147.655705 10.0810014 147.275144 10.1378211 146.894582 10.1946407 146.475965 10.2514604 146.437908 9.83478272 146.380824 9.34234541 146.32374 9.07718686ZM148.169463 8.868848 149.139895 8.75520863 149.254063 9.9294822C148.98767 9.9294822 148.721277 9.98630189 148.3978 10.0431216L148.169463 8.868848ZM149.843934 8.69838894C151.404236 8.52792987 152.488836 8.52792987 153.249959 8.52792987 153.307043 8.84990811 153.421212 9.28552572 153.516352 9.70220344 152.660089 9.70220344 151.404236 9.70220344 149.901018 9.87266251 149.88199 9.45598479 149.88199 9.02036717 149.843934 8.69838894ZM153.877886 8.54686977C154.734149 8.60368946 154.905402 8.75520863 154.905402 8.75520863L155.01957 9.77796303C155.01957 9.77796303 154.696093 9.77796303 154.163307 9.72114334 154.106222 9.34234541 153.992054 8.92566769 153.877886 8.54686977ZM139.79711 12.5810677C139.79711 12.5810677 144.173568 11.4446739 146.475965 11.0279962 148.79739 10.6491983 151.118815 10.4408594 151.499376 10.4408594 151.937022 10.4408594 151.994106 10.3840397 151.994106 10.4976791 151.994106 10.6113185 152.165359 11.5772532 152.165359 11.5772532 152.165359 11.5772532 148.721277 11.5772532 145.848038 12.2212096 142.993827 12.8651661 140.025447 13.622762 140.025447 13.622762L139.79711 12.5810677ZM124.650763 35.0059049C124.764931 35.0059049 127.086357 33.6611723 129.236529 33.1876749 130.264045 32.9225163 129.997652 33.2444945 129.997652 33.2444945L125.621195 35.176364 124.650763 35.0059049ZM121.244738 34.2104293C121.739468 34.2104293 129.92154 30.5550293 131.976572 30.0815319 133.004088 29.8163733 132.737695 30.1383516 132.737695 30.1383516L122.652815 34.7028666 121.244738 34.2104293ZM122.120029 32.8088769C122.177113 32.8088769 126.915104 30.6686686 129.02722 30.1762313 130.11182 29.9110728 129.61709 29.9678925 129.61709 29.9678925L122.234198 33.5096531 122.120029 32.8088769ZM121.511131 30.4413899C121.568215 30.4413899 123.39491 29.2671163 125.564111 28.5663402 126.591627 28.2443619 126.001756 28.5663402 126.001756 28.5663402L121.91072 30.9906469 121.511131 30.4413899ZM120.978345 28.5663402C121.092513 28.5663402 123.946724 27.2216075 126.096897 26.4640117 127.124413 26.1420334 126.211065 26.4640117 126.211065 26.4640117L121.358906 29.2481764 120.978345 28.5663402ZM121.796552 31.6346034C121.91072 31.6346034 122.062945 31.4262645 124.232145 30.7254883 125.259661 30.4035101 124.441454 30.7254883 124.441454 30.7254883L122.177113 32.1270407 121.796552 31.6346034ZM120.978345 27.0132687C121.092513 27.0132687 121.511131 26.4829516 123.680331 25.7821754 124.707847 25.4601972 123.737415 25.9526345 123.737415 25.9526345L121.41599 27.3541868 120.978345 27.0132687ZM120.007913 25.0813992C120.540699 25.0813992 127.504974 21.7479775 129.560006 21.2176604 130.644606 20.9525018 130.264045 21.1608407 130.264045 21.1608407L120.978345 25.3465578 120.007913 25.0813992ZM118.714004 23.9450055C119.24679 24.0018251 121.244738 22.5434531 123.29977 22.0699557 124.38437 21.8047972 124.003808 21.9563163 124.003808 21.9563163L119.303874 24.2669837 118.714004 23.9450055ZM118.447611 22.2404148C118.980397 22.2404148 121.301822 20.744163 123.29977 20.2517257 124.38437 19.9865671 124.003808 20.0812666 124.003808 20.0812666L118.771088 22.6002728 118.447611 22.2404148ZM132.147824 40.9151525C132.68061 40.9151525 137.171236 39.3052614 139.20724 38.7749443 140.29184 38.5666054 139.968363 38.8885836 139.968363 38.8885836L133.327565 41.6727484 132.147824 40.9151525ZM127.35275 37.8090096C127.885536 37.8090096 130.758775 36.994594 132.794779 36.4642769 133.822295 36.1991184 133.441733 36.5779163 133.441733 36.5779163L127.676227 39.0401028 127.35275 37.8090096ZM127.714283 39.740879C128.209013 39.7976987 129.065276 39.3052614 131.063224 38.7749443 132.147824 38.5666054 131.767263 38.8885836 131.767263 38.8885836L128.03776 40.9909121 127.714283 39.740879ZM131.653094 45.7069463C132.147824 45.763766 143.146051 41.6348686 145.182055 41.0856116 146.266656 40.8772728 145.943178 41.199251 145.943178 41.199251L131.976572 46.5213619 131.653094 45.7069463ZM133.061172 42.5818634C133.593958 42.6386831 134.944951 42.0515463 136.999983 41.559109 138.027499 41.2939505 137.761106 41.6159287 137.761106 41.6159287L133.936463 43.396279 133.061172 42.5818634ZM132.147824 47.2031981C132.68061 47.2600178 143.697866 43.1311204 145.73387 42.6386831 146.81847 42.3735246 146.494993 42.6955028 146.494993 42.6955028L132.528386 48.0176137 132.147824 47.2031981ZM134.944951 47.9986738C135.439681 48.0554935 152.260499 43.4909784 154.315531 42.9606613 155.400132 42.6955028 155.076654 43.0743007 155.076654 43.0743007L135.287457 48.8130893 134.944951 47.9986738ZM151.727713 48.9267287C152.260499 48.9835484 156.751125 47.8471546 158.787129 47.581996 159.814645 47.411537 159.548252 47.6956354 159.548252 47.6956354L152.869398 49.8358437 151.727713 48.9267287ZM155.228879 51.7677131C155.723609 51.7677131 159.491168 51.237396 161.5462 50.688139 162.6308 50.4229805 162.307323 50.8017784 162.307323 50.8017784L156.370563 52.5821287 155.228879 51.7677131Z"/><path d="M153.459268 10.7438977 153.516352 10.9143568C153.573436 11.0848159 153.630521 11.236335 153.630521 11.4067941 153.839829 12.3727288 153.459268 13.3386635 152.717173 14.2477786 152.013134 15.0621941 150.890478 15.8008501 149.539485 16.2932874 148.949614 16.5016262 148.30266 16.6720853 147.598621 16.8236045 145.543589 17.2024024 143.545641 17.0319433 141.928255 16.5584459 140.253784 16.0281288 138.959875 15.0621941 138.522229 13.8121609 138.465145 13.6985216 138.408061 13.6038221 138.408061 13.5470024L139.055015 13.3765433C139.055015 13.433363 139.1121 13.5470024 139.1121 13.5848822 139.492661 14.6076366 140.615318 15.4031122 142.080479 15.8955495 143.640781 16.3879868 145.524561 16.4826863 147.465424 16.1607081 148.112379 15.990249 148.702249 15.8387298 149.29212 15.630391 150.528944 15.1947734 151.55646 14.4939972 152.203415 13.8121609 152.85037 13.0545651 153.116763 12.2590894 152.964538 11.5014936 152.964538 11.3878542 152.907454 11.236335 152.85037 11.1226957 152.85037 11.0090563 152.793285 10.9143568 152.736201 10.8575371 152.964538 10.8007174 153.230931 10.8007174 153.459268 10.7438977ZM138.769594 26.217793C138.769594 26.217793 139.093072 26.1041536 139.625858 25.9526345 139.568773 25.5738365 139.511689 25.1950386 139.454605 24.8162407 138.750566 25.0813992 138.312921 25.308678 138.312921 25.308678L138.769594 26.217793ZM140.234756 25.7821754 141.737974 25.3465578C141.566721 25.0245795 141.414497 24.5889619 141.300328 24.210164 140.862683 24.3238034 140.444065 24.4753226 140.120588 24.5889619 140.120588 24.9677599 140.177672 25.4033775 140.234756 25.7821754ZM142.346872 25.1950386 143.107995 25.0245795 142.841602 23.850306C142.518125 23.9071257 142.194648 23.9639454 141.87117 24.0586448L142.346872 25.1950386ZM143.735922 24.8730604C144.439961 24.6647215 145.23914 24.4942625 146.057347 24.2859236 146.000263 23.9639454 145.943178 23.5851474 145.886094 23.2063495 145.124971 23.3768086 144.420932 23.5283277 143.831062 23.6419671L143.469529 23.6798469 143.735922 24.8730604ZM146.647217 24.1722842 147.180003 24.0018251 146.970694 22.9790707 146.533049 23.0927101C146.609161 23.4146884 146.609161 23.7934863 146.647217 24.1722842ZM147.845986 23.9071257 150.814366 23.2631692 150.757281 22.2404148C149.78685 22.4487537 148.702249 22.6760324 147.636677 22.8843713L147.845986 23.9071257ZM151.499376 23.0927101 154.848317 22.3351143 154.581924 21.3691796C154.581924 21.3691796 153.230931 21.6911578 151.46132 22.0699557L151.499376 23.0927101ZM125.621195 55.1958344C125.621195 55.1958344 125.944672 55.082195 126.477458 54.9306758 126.420374 54.6086976 126.36329 54.2298996 126.306205 53.8511017 125.602167 54.1162603 125.164521 54.343539 125.164521 54.343539L125.621195 55.1958344ZM127.067328 54.7791566 128.570546 54.4003587C128.399294 54.0215608 128.247069 53.6427629 128.132901 53.2260851 127.695255 53.3965442 127.276637 53.4912437 126.95316 53.6617028 126.972188 54.0215608 127.029272 54.4571784 127.067328 54.7791566ZM129.179445 54.2298996 129.940568 54.0215608 129.674175 52.8472872C129.350697 52.9041069 129.02722 53.0177463 128.703743 53.1124458L129.179445 54.2298996ZM130.587522 53.8511017C131.291561 53.6806427 132.09074 53.4723038 132.908947 53.3207846 132.851863 52.9419867 132.794779 52.5631888 132.737695 52.2412105 131.976572 52.4116696 131.272533 52.5063691 130.682663 52.6200085L130.302101 52.6768282 130.587522 53.8511017ZM133.498818 53.1692655 134.031604 53.0556261 133.822295 52.0328717 133.384649 52.1465111C133.441733 52.4684893 133.441733 52.7904675 133.498818 53.1692655ZM134.678558 52.885167 137.646938 52.2412105 137.589854 51.2184561C136.619422 51.426795 135.534822 51.6540737 134.469249 51.8624126L134.678558 52.885167ZM147.465424 43.8697764C147.465424 43.8697764 147.788902 43.756137 148.321688 43.6046178 148.264604 43.2826396 148.207519 42.9038417 148.150435 42.5250437 147.446396 42.7902023 147.008751 43.017481 147.008751 43.017481L147.465424 43.8697764ZM148.911558 43.4341588 150.414776 43.0553608C150.243523 42.6765629 150.091299 42.297765 149.97713 41.8810873 149.539485 42.0515463 149.120867 42.1462458 148.79739 42.3167049 148.816418 42.6955028 148.873502 43.1121805 148.911558 43.4341588ZM151.023674 42.9038417 151.784797 42.6955028 151.518404 41.5212292C151.194927 41.5780489 150.87145 41.6916883 150.547972 41.7863878L151.023674 42.9038417ZM152.431752 42.5250437C153.135791 42.3545847 153.93497 42.1462458 154.753177 41.9947266 154.696093 41.6159287 154.639009 41.2371308 154.581924 40.9151525 153.820801 41.0856116 153.116763 41.1803111 152.526892 41.2939505L152.146331 41.3507702 152.431752 42.5250437ZM155.343047 41.8242676 155.343047 41.7674479 155.666525 40.6878738 154.696093 40.8583329C154.753177 41.1803111 155.285963 41.4644095 155.343047 41.8242676ZM155.990002 41.6727484 158.958381 41.0287919 158.901297 40.0060375C157.930865 40.2143764 156.846265 40.4416551 155.780693 40.649994L155.990002 41.6727484ZM134.849811 55.6882717C134.849811 55.6882717 135.173288 55.5746323 135.706074 55.4231131 135.591906 55.1011349 135.534822 54.6655173 135.534822 54.343539 134.773699 54.6086976 134.355081 54.7791566 134.355081 54.7791566L134.849811 55.6882717ZM136.295945 55.252654 137.761106 54.8738561C137.646938 54.4950582 137.494713 54.1162603 137.380545 53.6995826 136.942899 53.8700416 136.524282 53.9647411 136.14372 54.0783805 136.181776 54.4950582 136.23886 54.8738561 136.295945 55.252654ZM138.408061 54.722337 139.1121 54.5139981 138.902791 53.3397245C138.522229 53.3965442 138.198752 53.5101836 137.932359 53.5480634L138.408061 54.722337ZM139.759054 54.343539C140.520177 54.1352002 141.319356 53.9647411 142.080479 53.7564022 142.080479 53.434424 142.023395 53.0556261 141.966311 52.7336478 141.148104 52.9041069 140.463093 52.9988064 139.911279 53.1124458L139.530717 53.1692655 139.759054 54.343539ZM142.67035 53.6427629 142.727434 53.5859432 143.050911 52.5063691 142.023395 52.6768282C142.061451 52.9988064 142.67035 53.2639649 142.67035 53.6427629ZM143.35536 53.4912437 146.32374 52.8472872 146.266656 51.7677131C145.296224 51.976052 144.154539 52.2601504 143.146051 52.4684893L143.35536 53.4912437ZM112.567936 78.4919068C116.392579 76.3516985 131.386701 74.5713483 132.204909 74.5713483 125.46897 75.9160809 119.418042 76.8251959 114.185322 78.813885 113.690592 78.4919068 113.043637 78.813885 112.567936 78.4919068ZM118.333442 79.2495027C119.151649 79.1358633 125.887588 77.5259721 133.004088 76.8820156 138.940847 76.3895783 146.209571 76.9388353 150.757281 76.5600374 149.615597 76.7304965 151.080759 76.8820156 149.615597 76.995655 138.826679 77.4880923 125.507026 78.8707047 119.83666 80.4805959 119.360958 80.2154374 118.771088 79.5146612 118.333442 79.2495027Z"/><path d="M118.447611 80.5942353C119.950829 80.3858964 129.122361 79.8934591 139.169184 79.1358633 131.291561 79.9881586 126.496486 80.2154374 119.855688 81.3897109 119.360958 81.1245524 118.885256 80.8593938 118.447611 80.5942353ZM119.303874 82.0526073C121.454046 81.8821482 134.469249 81.6169897 148.702249 81.200312 137.475685 81.8442685 130.682663 81.9010881 121.244738 82.9238425 120.597783 82.6397441 119.950829 82.3745856 119.303874 82.0526073ZM179.718011 77.8479503C172.487342 76.6736768 160.727992 76.3516985 152.488836 76.6736768 167.920605 77.1092944 177.244361 77.7532509 179.889263 78.5487265 179.718011 78.0184094 179.718011 78.1699286 179.718011 77.8479503ZM180.42205 80.5374156C173.248465 79.5714809 161.489115 79.6283006 153.230931 80.2154374 168.662699 80.1586177 177.986456 80.5374156 180.631358 81.2381918 180.479134 80.7078747 180.42205 80.8593938 180.42205 80.5374156ZM80.7339669 23.301049 79.5542262 29.3618158C81.4950898 29.0966573 83.4359534 28.7178593 85.4339013 28.3958811 89.1634039 27.8087443 92.8738784 27.1647878 96.336988 26.8996293L96.9839425 21.104021C95.5187808 21.2176604 93.9013945 21.4259993 92.0176151 21.6911578 86.9942034 22.5055733 83.3788692 22.9790707 80.7339669 23.301049ZM79.4400578 30.0247122 78.3554575 35.9339598C80.2963211 35.6688013 82.294269 35.346823 84.349301 35.0248448 88.173944 34.3808883 92.0556712 33.7369318 95.6139212 33.4717733L96.2608757 27.6193453C92.8548504 27.8845039 89.20146 28.4716407 85.5290416 29.0777174 83.4930377 29.4375754 81.4380056 29.7595536 79.4400578 30.0247122ZM78.2032329 36.6157961 76.9664081 43.2636997C78.4315698 43.0553608 79.9347877 42.7712624 81.4950898 42.5061038 85.9666874 41.748508 90.6095376 40.9530323 94.8718263 40.6878738L95.575865 34.1346697C92.0746993 34.3998282 88.2310282 34.986965 84.4634695 35.6309215 82.3513532 35.9718396 80.258265 36.2938178 78.2032329 36.6157961ZM76.7951554 43.9834157 75.4441621 51.237396C76.9093239 51.0290572 78.4125418 50.7449587 79.9728439 50.4798002 84.6727783 49.6653846 89.5820215 48.869909 93.9965348 48.5479308L94.814742 41.3507702C90.6095376 41.6727484 86.0237716 42.4303443 81.6092583 43.1690002 79.9918719 43.4341588 78.3744856 43.756137 76.7951554 43.9834157ZM75.3490217 51.9192323 73.9409442 59.3815514C75.8818078 59.0595732 78.2032329 58.6807753 80.8481353 58.2072779 86.4043331 57.1845235 90.3431445 56.5973867 93.1973557 56.2754084L93.9584787 49.2487069C89.5820215 49.5138655 84.7298625 50.3851007 80.0870123 51.1237567 78.469626 51.3889152 76.8522396 51.6540737 75.3490217 51.9192323ZM73.7887196 60.0823276 72.4948106 66.95751C75.672499 66.4650727 79.1736647 65.8211162 82.3703813 65.0256405 90.5714814 62.923312 96.336988 63.2452903 98.7725816 63.3589297L99.6288449 63.4157494C100.808586 63.4157494 103.396404 64.2301649 104.366835 64.5521431L105.337267 50.7070789C102.863618 49.2487069 99.0199465 48.9267287 94.6054332 49.2108271L93.8443102 56.2375287 95.5187808 56.0670696C98.4871604 55.8587307 100.047463 55.9534302 101.398456 56.1238893 104.195583 56.4458675 105.166015 56.8814851 105.166015 56.8814851L104.899622 57.4118022C104.899622 57.4118022 103.986274 57.089824 101.341372 56.8246654 99.9903783 56.6542064 98.4871604 56.5026872 95.575865 56.7110261L93.787226 56.8814851 93.0831873 63.2074105 92.4362327 63.1505908 93.0831873 56.9761846C90.2860603 57.2981628 86.4043331 57.8852996 80.9432757 58.8512343 78.2032329 59.3815514 75.8247236 59.7603494 73.7887196 60.0823276ZM72.2284175 67.0143297 71.847856 66.95751 73.0846809 60.195967C66.4438828 61.1619017 63.5896717 61.2187214 62.8285487 61.2187214L61.3253308 68.415882C62.6763241 68.2454229 67.0908374 67.8098053 72.2284175 67.0143297ZM73.2369055 59.4951908 74.644983 52.0328717C70.7632558 52.6200085 67.3572304 52.9988064 64.8264965 52.7904675L64.8835807 52.1465111C67.3572304 52.3548499 70.8774242 51.9381722 74.7591514 51.3320955L76.1101447 44.0781152C72.3806421 44.665252 69.0507291 44.9872303 66.5009671 44.7788914L66.5580513 44.1349349C69.031701 44.3432738 72.4948106 43.9644759 76.2623693 43.3773391L77.4991942 36.6726158C73.88386 37.1650531 70.5349189 37.4302116 67.7948761 37.0514137 66.234574 44.7788914 64.2937104 54.0215608 62.9427171 60.5179452 63.8560647 60.5747649 66.7102759 60.4611255 73.2369055 59.4951908ZM77.6704468 36.0286593 78.7550471 30.1194117C75.1967972 30.611849 71.9049403 30.8201878 69.1458694 30.4982096L67.9661288 36.4074572C70.6490873 36.7294355 73.9980285 36.5210966 77.6704468 36.0286593ZM78.9072717 29.4375754 80.0489562 23.3768086 78.3744856 23.5472676C75.5202744 23.8124262 74.0551127 23.7556065 72.8182878 23.5472676 71.7336876 23.3768086 71.0296488 23.1684697 70.6681154 23.0169505 70.4968627 23.9828853 69.9640766 26.5018915 69.3171221 29.8921329 72.0000806 30.1762313 75.2919375 29.9110728 78.9072717 29.4375754ZM97.6308971 21.0472013 97.0410268 26.8428096C100.86567 26.577651 104.328779 26.7859899 106.916597 27.9792034L107.297159 22.5055733C106.897569 22.1267754 104.804481 20.6305236 97.6308971 21.0472013ZM96.9839425 27.5435858 96.336988 33.3960137C100.332884 33.1308552 103.834049 33.3960137 106.478952 34.5702873L106.859513 28.6610396C104.366835 27.4488863 100.86567 27.2784272 96.9839425 27.5435858ZM96.2228196 34.0967899 95.5187808 40.649994C99.6669011 40.3848355 103.339319 40.649994 105.927138 41.8810873L106.421868 35.3278831C103.872106 34.0399702 100.313856 33.8316313 96.2228196 34.0967899ZM95.4616966 41.2939505 94.7005736 48.5479308C98.9628623 48.2827722 102.787505 48.6047504 105.375323 49.9494831L105.870053 42.6008033C103.339319 41.2939505 99.6669011 41.0287919 95.4616966 41.2939505ZM60.5642078 68.7378602C60.621292 68.5674011 70.059217 23.2631692 70.059217 22.562393L70.7061716 22.562393C70.7061716 22.562393 70.7632558 22.5055733 72.9134282 22.8843713 74.0931688 23.0927101 75.5012463 23.1495298 78.2983733 22.8843713 81.0955003 22.6760324 85.2626486 22.0699557 91.8844186 21.0661412 105.41338 18.9638127 107.848973 22.202535 107.848973 22.202535L107.963142 22.4676935 107.525496 28.3201215 107.791889 28.4337609 107.468412 28.9261982 107.08785 34.9301453 107.144934 34.986965 107.030766 35.1574241 106.536036 42.2409453 106.745345 42.3545847 106.536036 42.7333826 104.91865 65.4991379 104.576144 65.3476188C104.51906 65.3476188 100.96081 64.0597058 99.6098168 64.0597058L98.6964693 64.0028861C96.3179599 63.8892468 90.6095376 63.6240882 82.5226059 65.669597 73.0275967 68.0370841 60.9447693 69.0977182 60.9447693 69.0977182L60.4500394 69.1545379 60.5642078 68.7378602ZM125.564111 15.8387298C125.507026 15.5735713 125.449942 15.3462925 125.392858 15.0243143L124.536595 15.1379537C124.593679 15.4599319 124.650763 15.7250905 124.707847 16.0470687L125.564111 15.8387298ZM166.28419 39.4757204 166.28419 39.6461795 166.28419 39.4757204 166.28419 39.5325401 166.28419 39.4757204 166.28419 39.5325401 166.28419 39.4757204 166.28419 39.4757204 166.28419 39.4757204 166.28419 39.4757204 166.227106 39.4189007 166.28419 39.4757204 166.227106 39.4189007 166.227106 39.4189007 166.227106 39.3620811C166.170022 39.2484417 166.055853 38.9832831 166.017797 38.9264634L165.256674 39.3052614 165.465983 39.7976987 165.465983 39.7976987 165.465983 39.7976987 165.465983 39.7976987 165.465983 39.8545184 165.465983 39.7976987 166.28419 39.4757204ZM165.637236 38.1309878C165.523067 37.8658292 165.370843 37.6006707 165.19959 37.3733919L164.438467 37.8090096C164.60972 38.0173484 164.70486 38.3014469 164.876113 38.5666054L165.637236 38.1309878ZM164.723888 36.6157961 164.229158 35.8582002 163.525119 36.3506375 164.019849 37.0514137 164.723888 36.6157961ZM163.753456 35.1195443 163.163586 34.4755878 162.516631 35.0059049 163.049417 35.6498614 163.753456 35.1195443ZM162.611772 33.7748116C162.402463 33.5664728 162.174126 33.339194 161.964817 33.1308552L161.374947 33.717992C161.5462 33.9263308 161.755508 34.1536096 161.907733 34.3619484L162.611772 33.7748116ZM161.317863 32.4868987 160.670908 31.8997619 160.138122 32.6005381 160.727992 33.1308552 161.317863 32.4868987ZM159.871729 31.3694448C159.605336 31.2558054 159.338943 31.161106 159.015466 30.9906469L158.749073 31.8429422C159.015466 31.9565816 159.243803 32.0134013 159.510196 32.1649205L159.871729 31.3694448ZM158.140174 30.7254883 157.283911 30.5550293 157.112658 31.3694448 157.930865 31.5777837 158.140174 30.7254883ZM156.408619 30.4035101 155.495272 30.233051 155.381103 31.0853464 156.256395 31.2558054 156.408619 30.4035101ZM154.639009 30.1762313 153.782745 30.0815319 153.725661 30.9338272 154.543868 31.0474666 154.639009 30.1762313ZM152.907454 30.0247122 151.994106 29.9678925 151.937022 30.8201878 152.85037 30.8770075 152.907454 30.0247122ZM151.137843 29.9110728 150.281579 29.9110728 150.224495 30.7633681 151.080759 30.7633681 151.137843 29.9110728ZM149.406288 29.8542531 148.49294 29.8542531 148.49294 30.7065484 149.349204 30.7065484 149.406288 29.8542531ZM147.617649 29.7974334 146.761386 29.7974334 146.761386 30.6497288 147.617649 30.6497288 147.617649 29.7974334ZM145.905122 29.7595536 145.029831 29.7595536 144.972747 30.611849 145.82901 30.611849 145.905122 29.7595536ZM144.173568 29.7027339 143.317304 29.6459142 143.26022 30.5550293 144.116483 30.5550293 144.173568 29.7027339ZM142.384928 29.6459142C142.118535 29.5890946 141.852142 29.5890946 141.528665 29.5890946L141.471581 30.4413899 142.384928 30.4982096 142.384928 29.6459142ZM140.672402 29.5322749 139.816138 29.4186355 139.759054 30.2709308C140.025447 30.3277505 140.348925 30.3277505 140.615318 30.3845702L140.672402 29.5322749ZM138.940847 29.323936 138.12264 29.2102966 137.951387 30.062592 138.864735 30.1762313 138.940847 29.323936ZM137.266376 29.1155972C136.999983 29.0587775 136.676506 29.0019578 136.448169 28.9072583L136.23886 29.7595536C136.505253 29.873193 136.828731 29.9300127 137.095124 29.9678925L137.266376 29.1155972ZM135.591906 28.6799795C135.325513 28.6231598 135.05912 28.5095205 134.830783 28.4716407L134.507306 29.2860562C134.773699 29.3996956 135.040092 29.4943951 135.363569 29.5512148L135.591906 28.6799795ZM134.088688 28.0928428C133.822295 27.9792034 133.593958 27.8276842 133.327565 27.7140448L132.889919 28.414821C133.099228 28.5852801 133.384649 28.7367992 133.651042 28.9072583L134.088688 28.0928428ZM132.623526 27.2216075C132.414217 27.0511485 132.185881 26.8996293 131.976572 26.6912904L131.443786 27.3920666C131.653094 27.5625257 131.881431 27.7708645 132.147824 27.9223837L132.623526 27.2216075ZM131.329617 26.1609733 130.739747 25.5738365 130.092792 26.1041536 130.739747 26.7481101 131.329617 26.1609733ZM130.206961 24.9298801 129.674175 24.2291039 128.970136 24.759421 129.502922 25.4601972 130.206961 24.9298801ZM129.179445 23.5851474 128.684715 22.8275516 127.923592 23.3199889 128.418322 24.0775847 129.179445 23.5851474ZM128.209013 22.1267754 127.828451 21.3691796 127.010244 21.8047972 127.504974 22.562393 128.209013 22.1267754ZM127.390806 20.6305236 127.010244 19.8729278 126.249121 20.194906 126.629683 21.0093215 127.390806 20.6305236ZM126.705795 19.0774521 126.382318 18.2630366 125.564111 18.5850148 125.887588 19.3994303 126.705795 19.0774521ZM126.058841 17.448621C126.001756 17.2402822 125.887588 16.9183039 125.792447 16.6342055L124.97424 16.899364 125.240633 17.7895392 126.058841 17.448621ZM112.396683 77.8100705C109.923033 75.8782011 100.161631 74.798627 99.6669011 74.8554467 104.043358 75.8782011 107.98217 76.5221576 111.369167 78.2456882 111.711672 77.8479503 112.13029 78.1699286 112.396683 77.8100705ZM111.007634 78.6623659C110.037202 78.4919068 101.189147 77.6964312 103.453488 78.1320488L110.094286 79.5336011 111.007634 78.6623659Z"/><path d="M113.043637 78.8707047C110.569988 76.8820156 100.808586 75.8592612 100.313856 75.8592612 104.690313 76.9388353 108.629124 77.5259721 112.016121 79.2873825 112.301543 78.9275244 112.72016 79.2495027 113.043637 78.8707047ZM109.333163 79.8934591C108.362731 79.7230001 101.721933 79.1358633 95.2523878 78.8707047 100.313856 79.363142 104.100442 79.8934591 108.419815 80.7457545 108.743293 80.4805959 109.009686 80.1586177 109.333163 79.8934591ZM109.218995 81.2381918C108.248563 81.0677327 102.311803 81.0298529 95.7851738 80.8025742 100.903726 81.2381918 104.043358 81.2381918 108.343703 82.1473068 108.629124 81.8253286 108.952601 81.56017 109.218995 81.2381918ZM108.686208 82.7344436C107.278131 82.6776239 98.8106377 83.0564218 89.6010496 83.3215804 96.8888022 83.3784001 101.303315 83.1511213 107.392299 83.7003783 107.810917 83.3784001 108.248563 83.0564218 108.686208 82.7344436ZM56.0926103 80.7646944C63.2661944 80.8215141 75.0826287 79.3063224 83.2837288 77.6964312 67.9090446 79.6851203 58.5282038 80.1586177 55.9403857 79.7987597 56.0926103 80.3290768 56.0926103 80.4427161 56.0926103 80.7646944Z"/><path d="M55.3885715 79.5146612C63.1520259 79.5714809 75.9388921 77.90477 84.9011152 76.1812395 68.1754376 78.3403876 57.8241651 78.9843441 54.9509258 78.6055462 55.1792627 79.1548032 55.3885715 79.1548032 55.3885715 79.5146612ZM56.0926103 81.1813721C56.0926103 81.1813721 58.4711196 81.8821482 66.7673601 81.010913 75.0255445 80.1586177 86.1759962 79.1358633 89.0492354 79.192683 86.0808558 79.3063224 57.8241651 82.9049026 55.1792627 82.2609462 52.5343603 81.6169897 55.769133 81.1813721 56.0926103 81.1813721Z"/><polygon points="62.182 88.909 52.801 88.492 52.972 88.322 62.448 88"/><path d="M127.771367 77.4312726C127.771367 77.4312726 130.035708 85.0072311 130.625578 88.87097 131.215449 92.7915285 130.796831 98 130.796831 98L134.944951 94.893857 141.091019 96.9393658C141.091019 96.9393658 140.653374 90.7081399 139.30238 85.9352861 137.951387 81.1624322 137.361517 76.9767151 137.361517 76.9767151L127.771367 77.4312726ZM131.063224 84.6284332 131.386701 85.3860291 136.562338 85.4428488 136.73359 85.0072311 131.063224 84.6284332ZM131.653094 85.9731658 132.033656 87.8482156 138.61737 87.7345762 138.293892 86.124685 131.653094 85.9731658ZM132.09074 88.8141503 132.414217 89.5717461 137.589854 89.1929482 137.704022 88.7005109 132.09074 88.8141503ZM107.163962 71.0864074C106.079362 70.6507897 104.576144 70.1772923 103.719881 69.8553141 103.510572 69.7984944 103.719881 69.8553141 103.548628 69.7984944 104.51906 69.8553141 105.812969 70.063653 107.163962 70.4424509L107.163962 71.0864074 107.163962 71.0864074ZM112.62502 74.6849877C111.863897 73.5485939 110.15137 72.43114 108.4769 71.6735441L108.533984 70.8212488C110.322623 71.3515659 111.978065 72.1659814 112.853357 73.1319162 112.72016 73.5107141 112.777244 74.2683099 112.62502 74.6849877ZM114.661024 24.8730604C113.043637 22.2972345 109.751781 19.5509495 107.106878 18.2251568 109.694696 19.0774521 113.138778 21.5017588 114.870333 23.8692459 114.775192 24.2291039 114.775192 24.4942625 114.661024 24.8730604ZM114.565883 27.2216075C112.948497 24.6457816 109.865949 22.6570925 107.182991 21.3123599 109.770809 22.1267754 113.176834 24.0586448 114.889361 26.407192 114.775192 26.8049298 114.661024 26.8617495 114.565883 27.2216075ZM114.451715 29.5890946C113.424199 27.9223837 111.863897 26.7481101 110.132342 25.7253557L110.132342 25.5170169 110.132342 25.7253557C109.218995 25.1382189 108.191478 24.6457816 107.278131 24.2291039 109.865949 24.9866998 113.100722 26.1609733 114.832277 28.4716407 114.718108 28.8314987 114.565883 29.2102966 114.451715 29.5890946ZM109.980117 28.1875422C108.362731 27.1647878 107.925085 26.5208314 106.688261 25.9336946 107.868001 26.2556728 108.362731 26.6912904 110.037202 27.4867661L109.980117 28.1875422ZM114.337547 31.9565816C113.519339 30.611849 111.863897 29.323936 110.018174 28.2064821L110.075258 27.5625257C111.959037 28.4716407 113.690592 29.8163733 114.60394 31.0474666 114.508799 31.3694448 114.508799 31.5777837 114.337547 31.9565816ZM109.865949 30.1762313C109.542472 30.0057723 109.16191 29.8542531 108.781349 29.683794 109.16191 29.7974334 109.542472 29.8542531 109.865949 29.9489526L109.865949 30.1762313ZM114.242406 34.2672489C112.891413 32.1649205 111.863897 31.2558054 109.980117 30.233051L109.980117 30.0247122C111.863897 30.611849 113.157806 31.2558054 114.622968 33.1876749 114.508799 33.5664728 114.394631 33.9452707 114.242406 34.2672489ZM114.128238 36.6157961C113.310031 35.3278831 111.654588 34.0967899 109.865949 33.0172158L109.923033 32.3732593C111.806813 33.2255546 113.595452 34.3619484 114.508799 35.536222 114.394631 35.9339598 114.29949 36.2559381 114.128238 36.6157961ZM114.071154 38.9832831C113.21489 37.6953702 111.54042 36.5210966 109.808865 35.4415225L109.808865 34.7407464C111.692644 35.5930417 113.481283 36.7294355 114.394631 37.903709 114.29949 38.2446272 114.185322 38.6044852 114.071154 38.9832831ZM109.333163 37.6385505C107.829945 36.7862552 106.212559 36.0286593 105.01379 35.4983422 106.155474 35.8203204 107.772861 36.3127577 109.390247 36.994594L109.333163 37.6385505ZM113.976013 41.3507702C113.11975 40.0628572 111.502363 38.8885836 109.713724 37.8658292L109.713724 37.1650531C111.597504 38.0173484 113.386143 39.0969225 114.29949 40.2333163 114.185322 40.5931743 114.071154 40.9719722 113.976013 41.3507702ZM109.16191 40.0060375C107.658692 39.1537422 107.335215 39.0401028 106.193531 38.5476655 107.335215 38.8128241 107.658692 38.7181246 109.218995 39.3999608L109.16191 40.0060375ZM113.861845 43.7182572C113.005581 42.4303443 111.388195 41.2560707 109.599556 40.290136L109.65664 39.5893598C111.483335 40.4037753 113.271974 41.4644095 114.185322 42.6008033 114.071154 42.9606613 113.976013 43.3394593 113.861845 43.7182572ZM113.747676 46.0668043C112.891413 44.8357111 111.274027 43.6424976 109.542472 42.6765629L109.542472 41.9757867C111.426251 42.7902023 113.157806 43.7940168 114.071154 44.9304106 113.976013 45.3281484 113.861845 45.7069463 113.747676 46.0668043ZM113.652536 48.3774717C112.796273 47.2031981 111.178886 46.0099847 109.447331 45.0440499L109.504416 44.4000935C111.331111 45.1576893 113.062666 46.1804437 113.976013 47.2978976 113.861845 47.6766955 113.747676 47.9986738 113.652536 48.3774717ZM108.743293 47.1463784C107.240075 46.3887826 102.806533 44.9493505 101.683877 44.5137328 102.825561 44.7220717 107.240075 45.9721049 108.743293 46.5592416L108.743293 47.1463784ZM113.538367 50.7449587C113.005581 49.9873629 112.187374 49.2487069 111.159858 48.6047504L111.216942 47.6388157C112.358627 48.2259525 113.271974 48.9267287 113.861845 49.6275048 113.747676 49.9873629 113.652536 50.3661608 113.538367 50.7449587ZM110.779297 48.320652C110.284567 47.9986738 109.865949 47.7335152 109.314135 47.4683567L109.371219 46.7675805C109.865949 46.9759194 110.341651 47.2031981 110.836381 47.4683567L110.779297 48.320652ZM108.57204 49.5138655C107.106878 48.8130893 105.60366 48.1691328 104.481004 47.7335152 105.565604 47.9418541 107.068822 48.3774717 108.57204 48.9077888L108.57204 49.5138655ZM113.424199 53.1124458C112.891413 52.3548499 112.073206 51.616194 111.04569 50.9722375L111.102774 49.8926634C112.244458 50.328281 113.252946 50.7070789 113.861845 51.4457349 113.747676 51.8245328 113.538367 52.7336478 113.424199 53.1124458ZM110.627072 50.688139C110.189426 50.3661608 109.713724 50.1578219 109.276079 49.8737235L109.276079 49.1729473C109.770809 49.3812862 110.246511 49.5517453 110.684156 49.7032644L110.627072 50.688139ZM108.419815 51.9192323C106.954654 51.1616364 105.50852 50.6313193 104.366835 50.1957017 105.451436 50.4040406 106.954654 50.7828385 108.457872 51.3320955L108.419815 51.9192323ZM113.329059 55.4609929C112.796273 54.7033971 111.978065 54.0026209 110.950549 53.3207846L111.007634 52.2412105C112.149318 52.6200085 113.11975 52.9988064 113.70962 53.6995826 113.595452 54.0783805 113.424199 55.1011349 113.329059 55.4609929ZM110.455819 52.9988064C110.018174 52.7904675 109.599556 52.5063691 109.16191 52.2980302L109.218995 51.5972541C109.65664 51.7677131 110.075258 51.9192323 110.512904 52.0328717L110.455819 52.9988064ZM108.248563 54.2867193C106.783401 53.5859432 105.394352 53.0556261 104.252667 52.6768282 105.337267 52.8472872 106.783401 53.2071452 108.305647 53.6995826L108.248563 54.2867193ZM113.21489 57.8284799C112.682104 57.0708841 111.863897 56.3701079 110.836381 55.7261515L110.893465 54.5897577C112.03515 54.9685556 113.043637 55.3473535 113.652536 56.0860095 113.538367 56.4837473 113.329059 57.449682 113.21489 57.8284799ZM110.303595 55.3662934C109.923033 55.1579546 109.485388 54.9306758 109.123854 54.722337L109.123854 54.0215608C109.5615 54.1920199 109.980117 54.2867193 110.360679 54.4571784L110.303595 55.3662934ZM113.100722 60.195967C112.72016 59.6656499 111.806813 58.908054 110.722212 58.2072779L110.779297 57.1277038C111.920981 57.6580209 112.891413 58.3019774 113.424199 59.0027535 113.329059 59.3815514 113.21489 59.8171691 113.100722 60.195967ZM110.132342 57.8284799C108.990658 57.1277038 107.810917 56.4837473 107.011738 56.0481297L109.009686 56.3701079C109.447331 56.540567 109.827893 56.6920862 110.189426 56.8625452L110.132342 57.8284799ZM107.925085 59.0595732C106.840485 58.5671359 105.774913 58.1504582 105.070874 57.8284799 104.861565 57.7716603 105.185043 57.6580209 104.956706 57.5633214 105.984222 57.7337805 106.517008 57.998939 107.98217 58.4724364L107.925085 59.0595732ZM113.100722 62.8286126C112.605992 62.1278364 111.63556 61.3702406 110.627072 60.6884043L110.684156 59.5141307C111.825841 59.9497483 112.834329 60.4232457 113.386143 61.0672022 113.21489 61.4270602 113.21489 62.4498146 113.100722 62.8286126ZM109.980117 60.3096064C109.485388 59.9876281 109.009686 59.7224696 108.514956 59.4951908L108.457872 58.737595C108.952601 58.908054 109.485388 59.1163929 110.018174 59.2679121L109.980117 60.3096064ZM107.772861 61.4270602C106.421868 60.8399235 105.774913 60.5179452 104.690313 60.195967 105.717829 60.3096064 106.364783 60.4043058 107.810917 60.8399235L107.772861 61.4270602ZM112.891413 64.8551815C112.358627 64.0975856 111.54042 63.4536291 110.512904 62.8096727L110.569988 61.7869183C111.749728 62.2225359 112.777244 62.6960333 113.367115 63.3968095 113.271974 63.7945473 113.005581 64.4953234 112.891413 64.8551815ZM109.808865 62.4498146C109.485388 62.2414758 109.16191 62.0710167 108.838433 61.9194975L108.838433 61.2187214 109.865949 61.5975193 109.808865 62.4498146ZM107.601608 63.7945473C106.250615 63.2642302 105.660745 62.9801317 104.576144 62.6202737 105.60366 62.7907328 106.250615 62.8286126 107.658692 63.2642302L107.601608 63.7945473ZM112.777244 67.2226685C112.244458 66.4650727 111.426251 65.8211162 110.398735 65.2339794L110.455819 64.211225C111.597504 64.6468426 112.605992 65.12034 113.21489 65.8211162 113.100722 66.1999141 112.891413 66.8438706 112.777244 67.2226685ZM109.65664 64.8173017C109.390247 64.6468426 109.06677 64.4953234 108.743293 64.3248644L108.800377 63.6240882 109.713724 63.9460664 109.65664 64.8173017ZM107.449384 66.1999141C106.09839 65.669597 104.804481 65.1771597 103.719881 64.8551815 104.747397 65.0256405 106.09839 65.2339794 107.48744 65.669597L107.449384 66.1999141ZM112.834329 69.5333359C112.339599 68.8325597 111.369167 68.1886032 110.303595 67.6582861L110.360679 66.578712C111.502363 67.0143297 112.510851 67.4878271 113.11975 68.1886032 113.005581 68.5674011 113.005581 69.1545379 112.834329 69.5333359ZM109.485388 67.2226685C109.104826 67.0522094 108.781349 66.9006903 108.400787 66.7302312L108.66718 65.9726354 109.523444 66.2946136 109.485388 67.2226685ZM107.278131 68.5674011C105.984222 68.0370841 104.633229 67.6582861 103.662797 67.3363079 104.633229 67.4499473 105.984222 67.6582861 107.335215 68.0370841L107.278131 68.5674011ZM112.567936 71.9576426C112.03515 71.2000467 111.216942 70.5560903 110.189426 69.9689535L110.246511 69.0030188C111.388195 69.5333359 112.358627 70.1394125 112.948497 70.783369 112.834329 71.143227 112.682104 71.5788447 112.567936 71.9576426ZM109.333163 69.4765162C109.123854 69.3628768 108.838433 69.2681773 108.57204 69.0977182L108.57204 68.3969421C108.838433 68.5105815 109.104826 68.5674011 109.390247 68.6621006L109.333163 69.4765162ZM71.6195191 39.5325401C71.6195191 39.4757204 71.6766034 39.5325401 71.6766034 39.5325401 72.2093894 39.4757204 72.7612036 39.4189007 73.2939897 39.3620811 73.5032985 39.3052614 73.8267758 39.2484417 74.1121969 39.3052614 74.1692811 39.3052614 74.1121969 39.4189007 74.1121969 39.4757204 74.1121969 39.9681577 74.4356742 39.7976987 74.1692811 40.1764966 73.9980285 40.4416551 73.636495 40.2333163 73.4081581 40.2333163 72.8753721 40.290136 72.3235579 40.3469557 71.847856 40.4037753 71.581463 40.4037753 71.2009015 40.5742344 71.2579857 40.4037753 71.3721542 39.8166386 71.4672945 40.0817971 71.5243788 39.8166386 71.581463 39.4757204 71.581463 39.5704199 71.6195191 39.5325401ZM73.2939897 46.8244002C73.4652424 46.7675805 74.2644215 46.502422 74.3785899 46.6539411 74.4927584 46.8244002 74.4927584 47.1842582 74.3785899 47.3547173 74.2644215 47.411537 73.3510739 47.5251764 73.3510739 47.411537 73.2939897 46.7675805 73.2939897 47.0895587 73.2939897 46.9759194 73.2939897 46.86228 73.2369055 46.8244002 73.2939897 46.8244002ZM70.2685258 46.9948593C70.3256101 46.9948593 70.3256101 46.9948593 70.3826943 46.9948593 70.9154804 46.9380396 71.4672945 46.8812199 72.0000806 46.8812199 72.2093894 46.8244002 72.4948106 46.7675805 72.7612036 46.8244002 72.8182878 46.8244002 72.7612036 46.9380396 72.7612036 46.9948593 72.8182878 47.4872966 73.1417651 47.3168375 72.8753721 47.6956354 72.7041194 47.9039743 72.342586 47.6956354 72.1142491 47.7524551 71.581463 47.8092748 71.0296488 47.8092748 70.4968627 47.8660945 70.2875539 47.9229142 69.9069924 48.0744333 69.9640766 47.9229142 70.0211609 47.3357774 70.1733855 47.6009359 70.2304697 47.2789577 70.2685258 46.9948593 70.2685258 47.0895587 70.2685258 46.9948593ZM68.6511395 47.3168375C68.9175325 47.1084986 69.3551783 47.0516789 69.4693467 47.2031981 69.6405994 47.581996 69.7357397 47.581996 69.5264309 48.1123131 69.4693467 48.2827722 69.1458694 48.2827722 68.9936448 48.2259525 68.8794764 48.2259525 68.6701676 48.3395919 68.5559991 48.1691328 68.3847465 47.9039743 68.3847465 47.4683567 68.6511395 47.3168375ZM70.8774242 56.2754084C70.8774242 56.3322281 70.82034 56.2754084 70.82034 56.2754084 70.2875539 56.3322281 67.7377919 56.7110261 67.2050058 56.7678458 66.3487425 56.8246654 66.2916582 56.5026872 66.6722197 56.2375287 66.8434724 56.1238893 66.6722197 55.9155504 67.1098655 55.9155504 67.6426515 55.8587307 70.1353293 55.4799328 70.6681154 55.4231131 70.8774242 55.4231131 71.2579857 55.252654 71.2579857 55.4231131 71.1438173 56.0102499 70.9915927 55.7450914 70.9345084 56.0102499 70.8774242 56.3322281 70.9345084 56.2185888 70.8774242 56.2754084ZM72.5518948 56.0102499C72.2284175 56.2185888 71.1438173 56.3322281 71.0486769 56.180709 70.8774242 55.801911 71.1628453 55.8587307 71.3721542 55.3662934 71.4863226 55.1579546 72.0761929 55.1958344 72.1903614 55.1958344 72.3045298 55.252654 72.5709229 54.9874955 72.6850913 55.1390147 72.7612036 55.3662934 72.8182878 55.8397908 72.5518948 56.0102499ZM86.8419788 59.8739887C87.2796245 59.5520105 87.6982422 59.8171691 87.9836633 59.8171691 88.2690844 59.8171691 88.421309 59.8171691 88.5735336 59.7603494 89.3346566 59.5520105 90.2480041 59.3815514 90.2480041 59.3815514 90.2480041 59.7603494 90.3050884 60.1391473 90.3050884 60.4611255 90.3050884 60.4611255 89.7152181 60.5747649 89.1634039 60.7262841 88.668674 60.8967431 88.4022809 60.8967431 87.9836633 60.8399235 87.7172702 60.8399235 87.2796245 60.8399235 86.5755858 60.8967431L86.5185015 60.8967431C86.5185015 60.7831038 86.5755858 60.6884043 86.63267 60.5747649 86.7278103 60.2527867 86.4614173 60.1391473 86.8419788 59.8739887ZM82.8460831 60.6694644C82.9602516 60.6126447 83.055392 60.6126447 83.2266446 60.6126447 83.8165149 60.4990053 84.1399922 60.2338468 84.4634695 60.1202074 84.9011152 60.006568 85.4339013 59.5898903 86.13794 59.8550488 86.5185015 60.0633877 86.1950243 60.3853659 86.2521085 60.8778032L86.2521085 60.8778032C85.6622382 60.9346229 85.1675082 61.1429618 84.844031 61.1997815 84.5776379 61.3134209 84.4063852 61.3702406 84.082908 61.4081203 84.0258238 61.4081203 84.0258238 61.3513007 84.0258238 61.294481 83.5310938 60.5937048 83.588178 61.1240219 83.4359534 61.2376613 83.321785 61.3513007 83.3788692 61.5028198 83.321785 61.7679784 83.321785 61.7679784 83.321785 61.7679784 83.2647008 61.7679784 82.9983077 61.8247981 82.7319147 61.8816178 82.4464936 61.8816178L82.4464936 61.8247981C82.4464936 61.6164592 82.6558024 61.0672022 82.6558024 60.8588634 82.7319147 60.7262841 82.7319147 60.7262841 82.8460831 60.6694644ZM78.9072717 61.2187214C79.4020016 60.9535628 79.8206193 61.1619017 80.3153492 61.0482623 80.9623038 60.9346229 81.6092583 60.5179452 82.1420444 60.7262841 82.6367743 60.8967431 82.4084374 61.7490385 82.0278759 61.9573773 81.533146 62.1657162 80.9432757 61.9005576 80.4104896 61.9573773 79.8777035 62.014197 79.3258893 62.4498146 78.9072717 62.2793556 78.6979629 62.2225359 78.8501875 61.9005576 78.8501875 61.7490385 78.8501875 61.5975193 78.7931032 61.3134209 78.9072717 61.2187214ZM70.1163012 62.6013338C70.2875539 62.5445141 71.086733 62.2793556 71.2009015 62.4308747 71.3150699 62.6013338 71.3150699 62.9611918 71.1438173 63.1316509 71.086733 63.2452903 70.1733855 63.30211 70.1733855 63.1884706 70.1163012 62.6013338 70.059217 62.923312 70.059217 62.7717929 70.059217 62.6581535 70.0021328 62.6581535 70.1163012 62.6013338ZM67.0908374 62.8286126C67.0908374 62.7717929 67.1479216 62.8286126 67.2050058 62.8286126 67.6997358 62.7717929 68.2325219 62.7149732 68.7653079 62.6581535 69.031701 62.6581535 69.298094 62.5445141 69.5835152 62.6013338 69.6405994 62.6581535 69.5835152 62.7717929 69.5835152 62.8096727 69.5835152 63.2452903 70.6110312 62.923312 70.3446381 63.3399898 70.1733855 63.5483286 69.1648975 63.5104488 68.9365606 63.5104488 68.4037745 63.5672685 67.8519604 63.5672685 67.3191743 63.6809079 66.6151355 63.7945473 66.234574 63.8892468 66.5009671 63.6809079 66.995697 63.30211 66.0062371 63.5104488 66.0633214 63.2452903 66.1204056 62.923312 67.0337532 62.8854323 67.0908374 62.8286126ZM65.4163668 63.0937711C65.7398441 62.8854323 66.1774898 62.8286126 66.234574 62.9801317 66.4058267 63.3589297 66.5580513 63.4157494 66.3487425 63.8892468 66.2916582 64.0975856 65.968181 64.0597058 65.8159564 64.0597058 65.7017879 64.0028861 65.4924791 64.1165255 65.3783107 63.9460664 65.207058 63.7377276 65.207058 63.2452903 65.4163668 63.0937711ZM100.751501 59.1732126C101.45554 59.1163929 101.398456 59.286852 101.398456 59.286852 101.398456 59.6088302 101.398456 59.9876281 101.341372 60.3096064 101.341372 60.3096064 101.284287 60.195967 100.694417 60.195967 100.580249 60.195967 100.313856 60.3096064 100.313856 60.195967 100.485108 59.5520105 100.637333 59.7035297 100.694417 59.3815514 100.751501 59.1163929 100.694417 59.1732126 100.751501 59.1732126ZM96.1657353 59.1732126C96.4892126 59.0027535 96.6985214 59.0595732 96.9268583 59.1163929 97.098111 59.2300323 97.3074198 59.0027535 97.8972901 59.0595732 98.2207674 59.0595732 99.7239853 58.7944147 99.895238 59.0027535 100.161631 59.4383711 100.218715 59.64671 99.9523222 60.0823276 99.7810695 60.2906665 98.2778516 60.0823276 98.0114586 60.0823276 97.1551952 60.0823276 96.8317179 60.195967 96.5082407 60.0823276 96.336988 60.0255079 96.1276792 60.1391473 96.0135107 59.9118685 95.8993423 59.7035297 95.9564265 59.286852 96.1657353 59.1732126Z"/><path d="M99.0770308,44.1917546 C99.3434238,43.9834157 99.6098168,43.9265961 99.8381537,44.0212955 C100.009406,44.0781152 100.161631,44.1349349 100.751501,44.1917546 C100.808586,44.1917546 100.86567,44.1349349 100.86567,44.1917546 C100.86567,44.7220717 100.86567,44.5137328 100.86567,44.8925308 C100.86567,45.2713287 101.246231,44.9493505 101.246231,44.7788914 C101.246231,44.6084323 101.074979,44.4000935 101.3604,44.1917546 C101.569709,43.9834157 102.064438,44.1917546 102.387916,44.2485743 C102.387916,44.2485743 102.445,44.1917546 102.445,44.2485743 C102.445,44.3622137 102.387916,44.4569132 102.273747,44.5137328 C102.159579,44.6273722 102.483056,44.8925308 102.159579,45.1576893 C101.836102,45.4796676 101.246231,45.1576893 100.808586,45.1008696 C99.9523222,45.1008696 99.6288449,45.3092085 99.3053676,45.1576893 C99.1911992,45.1576893 98.9248062,45.3281484 98.8106377,45.1008696 C98.6964693,44.8357111 98.7535535,44.3622137 99.0770308,44.1917546 Z"/></g></svg>
