<?xml version="1.0" standalone="no"?>
<!DOCTYPE svg PUBLIC "-//W3C//DTD SVG 20010904//EN"
 "http://www.w3.org/TR/2001/REC-SVG-20010904/DTD/svg10.dtd">
<svg version="1.0" xmlns="http://www.w3.org/2000/svg"
 width="700.000000pt" height="700.000000pt" viewBox="0 0 700.000000 700.000000"
 preserveAspectRatio="xMidYMid meet">
<metadata>
Created by potrace 1.14, written by Peter Selinger 2001-2017
</metadata>
<g transform="translate(0.000000,700.000000) scale(0.100000,-0.100000)"
fill="#000000" stroke="none">
<path d="M3408 6695 c-45 -36 -98 -78 -117 -93 -61 -49 -485 -383 -520 -410
-19 -15 -57 -45 -85 -68 -298 -238 -290 -233 -342 -233 -169 2 -174 1 -211
-36 l-34 -34 3 -226 3 -227 33 -29 c32 -28 35 -29 142 -29 l110 0 0 -293 0
-293 -94 1 c-121 1 -149 -7 -175 -49 -19 -31 -21 -48 -21 -239 0 -113 4 -217
10 -231 14 -39 56 -60 123 -63 33 -1 61 -4 63 -6 2 -2 -8 -46 -22 -98 -14 -52
-27 -101 -29 -109 -3 -14 -69 -271 -116 -450 -11 -41 -47 -178 -79 -305 -74
-283 -128 -491 -174 -666 -19 -74 -57 -222 -85 -329 -28 -107 -69 -265 -91
-350 -22 -85 -70 -270 -106 -410 -36 -140 -72 -280 -80 -310 -9 -30 -17 -62
-19 -70 -3 -14 -23 -92 -130 -500 -25 -96 -48 -182 -50 -190 -2 -8 -20 -78
-40 -155 -20 -77 -39 -152 -42 -168 l-5 -27 2301 0 c1265 0 2301 3 2301 6 0 6
-84 333 -221 859 -33 127 -75 289 -94 360 -19 72 -53 202 -75 290 -23 88 -43
167 -45 175 -2 8 -12 49 -23 90 -12 41 -37 138 -57 215 -20 77 -48 183 -61
235 -14 52 -27 102 -29 110 -2 8 -8 35 -15 60 -7 25 -14 56 -17 69 -2 14 -6
28 -9 33 -3 5 -7 18 -10 31 -2 12 -22 92 -44 177 -23 85 -43 162 -45 170 -2 8
-22 87 -45 175 -23 88 -43 167 -45 175 -2 8 -12 49 -23 90 -12 41 -46 172 -76
290 -31 118 -71 274 -90 345 -52 202 -50 185 -21 185 38 0 83 26 100 60 12 23
15 71 15 236 0 192 -1 209 -21 240 -24 39 -48 47 -141 48 -38 1 -68 5 -69 11
-3 32 -4 552 -1 563 3 8 29 12 83 12 73 0 81 2 111 29 l33 29 0 232 0 232 -33
29 c-30 27 -38 29 -112 29 l-80 0 -138 102 c-75 57 -139 105 -142 108 -3 3
-75 57 -160 120 -85 63 -157 117 -160 120 -3 3 -111 84 -240 180 -129 96 -237
177 -240 180 -16 16 -80 60 -88 60 -6 0 -48 -29 -94 -65z m674 -1397 c3 -11 2
-552 -1 -568 -1 -4 -1084 -5 -1101 -1 -4 1 -5 570 -1 579 0 1 248 2 550 2 430
0 550 -3 553 -12z m92 -1159 c3 -4 85 -318 91 -349 2 -8 24 -93 49 -187 26
-95 55 -208 65 -250 11 -43 31 -121 44 -173 14 -52 50 -192 81 -310 31 -118
71 -273 90 -345 40 -150 136 -523 141 -545 2 -8 11 -42 20 -75 24 -89 86 -325
95 -365 5 -19 14 -53 20 -75 18 -66 20 -74 25 -97 2 -12 34 -135 70 -272 141
-541 166 -636 170 -653 3 -10 9 -35 14 -55 l9 -38 -1629 0 c-896 0 -1629 1
-1629 3 0 1 30 115 66 252 36 138 67 258 69 268 2 10 13 51 24 91 11 40 22 83
25 97 3 13 10 40 15 59 5 19 32 123 60 230 27 107 96 368 151 580 55 212 102
394 105 405 2 11 22 90 45 175 45 171 140 536 146 560 2 8 17 67 34 130 17 63
33 126 36 140 3 14 12 48 20 76 8 28 16 61 19 72 2 11 15 65 30 119 38 141
127 484 132 510 4 16 14 23 37 25 43 4 1257 1 1260 -3z"/>
<path d="M3407 2323 c-245 -42 -425 -214 -475 -456 -15 -72 -17 -149 -17 -622
l1 -540 584 0 584 0 -1 555 c0 606 -2 628 -60 746 -54 110 -157 214 -262 265
-86 41 -107 47 -196 55 -33 3 -64 7 -70 8 -5 2 -45 -3 -88 -11z"/>
<path d="M0 5281 l0 -671 32 5 c18 3 40 8 48 10 8 2 26 6 40 9 14 2 108 22
210 44 102 23 196 43 210 46 14 2 144 30 290 61 146 31 333 70 415 87 83 17
151 32 152 33 3 2 74 205 179 509 31 87 54 160 52 161 -3 3 -497 119 -548 129
-14 2 -73 16 -133 30 -59 14 -118 28 -130 30 -47 10 -732 167 -789 181 l-28 7
0 -671z"/>
<path d="M6979 5946 c-3 -3 -18 -7 -34 -10 -17 -3 -39 -8 -50 -10 -11 -3 -49
-11 -85 -19 -36 -8 -117 -27 -180 -42 -63 -14 -124 -28 -135 -31 -11 -2 -189
-42 -395 -90 -206 -47 -382 -87 -390 -89 -89 -19 -334 -76 -336 -78 -2 -2 0
-17 5 -33 12 -39 170 -495 178 -514 3 -8 7 -17 8 -20 30 -101 34 -106 85 -115
31 -5 123 -25 405 -85 132 -29 377 -81 400 -86 11 -2 34 -7 50 -10 17 -2 46
-9 65 -14 19 -5 46 -11 60 -14 14 -2 45 -9 70 -15 25 -5 59 -12 75 -15 17 -3
71 -15 120 -26 50 -11 93 -20 98 -20 4 0 7 302 7 670 0 369 -4 670 -8 670 -5
0 -11 -2 -13 -4z"/>
</g>
</svg>
