<svg xmlns="http://www.w3.org/2000/svg" width="1120" height="1920" viewBox="0 0 1120 1920"><g fill="none" fill-rule="evenodd"><path fill="#FFF" d="M719.139599,0 C702.810147,66.4716779 637.604314,116.40614 559.955074,116.40614 C482.329578,116.40614 417.087188,66.4540898 400.763926,0 L719.139599,0 Z"/><g fill="#777878" opacity=".4" transform="translate(11 10)"><path d="M20,1831.10595 L779.112156,-2.27373675e-13 L781,-2.27373675e-13 L21.5897637,1832 L20,1831.10595 Z M43,1855.00701 L1043.51659,850 L1046,850 L44.3907101,1856 C43.9933644,1855.7021 43.4966822,1855.30491 43,1855.00701 Z M1043,850 L1099,795 L1099,797.477477 L1045.48668,850 L1043,850 Z M63,1879.41069 L1105,1450 L1105,1451.8873 L63.5961098,1881 C63.2980549,1880.50334 63.1987033,1880.00668 63,1879.41069 Z"/><path d="M0,199 L1105,199 L1105,201 L0,201 L0,199 Z M0,629 L1105,629 L1105,631 L0,631 L0,629 Z M1,1060 L1105,1060 L1105,1062 L1,1062 L1,1060 Z M0,1490 L1105,1490 L1105,1492 L0,1492 L0,1490 Z"/><path d="M361,-4.54747351e-13 L361,1908 L359,1908 L359,-4.54747351e-13 L361,-4.54747351e-13 Z M734,-4.54747351e-13 L734,1908 L732,1908 L732,-4.54747351e-13 L734,-4.54747351e-13 Z"/></g><path fill="#777878" d="M254,1908.90075 L254,1906.71718 C254,1898.47919 253.601633,1890.34046 252.804898,1882.20172 C250.115918,1855.60195 245.534694,1838.13344 235.077551,1813.51873 C231.990204,1806.37252 228.604082,1799.32557 224.919184,1792.57637 C221.234286,1785.82718 217.15102,1779.17723 212.868571,1772.82505 C169.048163,1708.50918 113.077551,1676.4505 38.3836735,1668.90728 C30.0179592,1668.11326 20.2579592,1667.8155 10,1668.11326 L10,1671.68636 L10,1675.16022 L10,1676.64901 C17.4693878,1676.74826 28.1257143,1676.94677 28.1257143,1678.23705 C28.1257143,1680.02361 27.1297959,1710.39499 26.6318367,1712.18154 C26.1338776,1713.96809 26.7314286,1714.96062 25.3371429,1715.55614 C25.237551,1715.55614 25.0383673,1715.65539 24.8391837,1715.65539 C21.3534694,1715.45688 17.7681633,1715.35763 14.0832653,1715.35763 C13.4857143,1715.35763 12.8881633,1715.35763 12.3902041,1715.35763 L10.0995918,1715.25838 L10.0995918,1715.45688 L10.0995918,1719.82401 L10.0995918,1722.60309 C11.3942857,1722.60309 12.7885714,1722.60309 14.0832653,1722.60309 C147.436735,1722.60309 187.572245,1838.33195 187.572245,1838.33195 C187.572245,1838.33195 178.808163,1807.06729 152.217143,1776.00114 C152.61551,1775.30637 152.814694,1774.4131 153.412245,1773.91683 C159.885714,1768.55718 168.251429,1760.7162 175.820408,1753.967 C208.187755,1789.10252 228.106122,1836.04913 232.587755,1886.56885 C229.301224,1886.6681 225.915102,1886.76735 222.52898,1886.86661 C222.429388,1886.37034 222.329796,1885.77483 222.130612,1884.9808 C221.035102,1878.23161 219.740408,1871.0854 218.346122,1872.9712 C217.848163,1873.66597 217.350204,1878.52937 217.947755,1884.48454 C218.047347,1885.47707 218.146939,1886.27109 218.146939,1886.86661 C216.653061,1886.86661 215.258776,1886.86661 213.86449,1886.96586 C213.764898,1884.38529 212.470204,1879.42264 211.972245,1875.55178 C211.075918,1868.70333 210.577959,1862.35115 209.482449,1864.23695 C209.084082,1864.93172 208.685714,1869.79511 209.183673,1875.75029 C209.582041,1880.11741 209.980408,1884.68304 209.382857,1886.96586 C208.287347,1886.96586 207.191837,1886.96586 206.195918,1886.96586 C205.100408,1886.96586 204.004898,1886.6681 202.909388,1886.37034 C202.112653,1880.21666 201.216327,1873.96373 200.120816,1869.49735 C197.431837,1857.68626 196.037551,1860.46534 196.037551,1860.46534 C196.037551,1860.46534 196.037551,1860.46534 198.328163,1872.27643 C199.722449,1879.52189 200.419592,1890.93598 200.817959,1898.6777 C200.718367,1901.45678 200.718367,1905.12914 200.618776,1909 L206.992653,1909 C206.693878,1904.23586 206.494694,1899.47172 206.195918,1898.77695 C205.598367,1897.28816 206.494694,1897.08965 206.494694,1897.08965 L205.797551,1894.11207 C206.992653,1894.11207 239.260408,1893.21879 241.152653,1893.51655 C243.14449,1893.81431 244.040816,1893.71506 244.040816,1895.89862 C244.040816,1896.9904 244.140408,1903.14408 244.040816,1909 L245.733878,1909 L249.418776,1909 L254,1909 L254,1908.90075 L254,1908.90075 Z M12.6842386,1729.29869 C61.0772098,1729.29869 108.773163,1746.52339 142.92705,1780.6741 C151.191693,1788.93798 156.767838,1799.69097 163.339723,1809.34875 C169.911608,1819.00653 175.487753,1829.36126 180.068158,1840.21382 C184.648562,1851.06638 188.233227,1862.51632 190.623003,1874.26496 C192.913206,1885.41621 194.207668,1896.96572 194.307242,1908.81393 C195.00426,1908.81393 195.601704,1908.91349 196,1909.01306 L194.307242,1909.01306 L191.220447,1909.01306 L191.120873,1910.3074 C190.423855,1910.10827 189.726837,1909.61045 189.029819,1909.01306 L190.722577,1909.01306 L188.731097,1912 L191.519169,1912 L191.320021,1911.40261 L187.834931,1912 L13.5804047,1912 L13.5804047,1911.90044 L13.5804047,1911.90044 L13.4808307,1912 L13.4808307,1911.90044 L12.0867945,1911.90044 L12.0867945,1912 L11.9872204,1911.90044 L9,1911.90044 L9,1904.73177 L9.09957401,1904.73177 L9.09957401,1730.29434 C9.49787007,1732.58433 9.79659212,1739.65343 10.2944622,1750.10773 C10.9914803,1766.03808 11.5889244,1788.93798 11.9872204,1812.53482 C12.7838126,1816.91567 14.0782748,1824.78128 14.8748669,1827.76823 C15.970181,1832.04951 15.372737,1883.12622 15.372737,1885.31665 C15.372737,1887.50707 19.2561235,1899.45484 21.1480298,1899.35528 C21.9446219,1899.25571 24.7326944,1896.86616 27.5207668,1894.27748 C29.213525,1891.88792 31.0058573,1889.59793 32.6986155,1887.40751 C34.2917998,1884.12187 36.1837061,1879.04407 35.884984,1874.66322 L35.884984,1874.1654 C35.486688,1872.1741 35.1879659,1870.18281 34.7896699,1868.19151 L21.0484558,1790.73014 L17.6629393,1772.70892 C14.4765708,1756.18118 11.9872204,1742.54081 10.7923323,1736.56692 L10.5931842,1736.56692 L10.0953142,1739.05604 L10.0953142,1736.66649 L10.0953142,1729.49782 L10.0953142,1729 L10.2944622,1729 C10.2944622,1729 10.7923323,1729 11.2902023,1729.49782 L12.6842386,1729.29869 L12.6842386,1729.29869 Z M184,1906 C183.701397,1895.9535 182.506985,1886.20541 180.615832,1876.65627 C178.326542,1865.31666 174.942375,1854.27546 170.562864,1843.83108 C166.183353,1833.3867 160.908033,1823.3402 154.736903,1814.08946 C122.78638,1766.04532 69.9336438,1737.19894 13,1737 C14.0948778,1743.06769 16.6827707,1756.3967 19.7683353,1772.61036 L25.5413271,1803.14773 C45.0500582,1805.53502 69.4359721,1815.28311 87.9493597,1830.60153 C96.4097788,1837.66392 103.576251,1848.30724 108.552969,1856.4638 C109.249709,1857.55798 109.946449,1858.75162 110.543655,1859.94526 C109.647846,1856.4638 112.434808,1862.23308 114.126892,1867.10712 C118.108265,1875.76104 121.293364,1885.50912 122.78638,1893.9641 C143.19092,1896.64979 165.188009,1904.30901 183.004657,1905.80106 C183.30326,1905.80106 183.601863,1905.90053 184,1906 Z M37.0996364,1677 L41.4836364,1677.39574 C90.9032727,1682.34247 137.333818,1704.10807 174,1736.16286 C173.701091,1737.15221 173.202909,1737.94368 172.605091,1738.43836 C171.409455,1739.52664 170.213818,1740.71385 169.018182,1742 C159.951273,1733.29376 150.186909,1725.379 139.725091,1718.25571 C138.330182,1717.06849 136.337455,1715.48554 133.547636,1713.30898 C128.665455,1709.54947 119.498909,1703.51446 109.435636,1698.96347 C96.3832727,1693.0274 81.7367273,1687.68493 72.9687273,1685.70624 C59.0196364,1682.63927 40.6865455,1679.5723 37,1678.87976 L37.0996364,1677 Z M184.680352,1747 C196.545455,1758.72463 208.01173,1774.52307 218.480938,1793.60043 C222.070381,1800.15827 225.360704,1807.01419 228.351906,1813.87012 C231.343109,1820.82541 233.935484,1827.97942 236.228739,1835.23279 C246,1866.43222 242.211144,1847.35486 245.601173,1880.64088 C245.800587,1882.72747 246,1884.91341 246,1887 C245.601173,1887 245.102639,1886.90064 244.703812,1886.90064 C242.211144,1886.90064 239.519062,1887 236.727273,1887 C231.941349,1835.82896 210.703812,1787.73811 178,1752.06742 C179.994135,1750.37828 181.788856,1748.68914 183.583578,1747.29808 C183.882698,1747.09936 184.281525,1747 184.680352,1747 Z M144.334342,1767 C120.869894,1743.1357 86.1225416,1721.35086 35.698941,1716.39976 C35.4992436,1715.60758 35,1714.91443 35,1714.22127 C35.4992436,1706.20049 36.0983359,1695.60513 36.6974281,1686 C87.02118,1691.24817 132.352496,1711.84474 167,1744.81907 C160.110439,1751.84963 152.521936,1760.06846 146.03177,1765.91076 C145.532526,1766.30685 144.933434,1766.70293 144.334342,1767 Z M213.101603,1848.54545 C213.101603,1848.54545 215.022543,1861.64342 215.310684,1864.57581 C215.598825,1867.50819 218,1868.09467 218,1864.57581 C218,1861.05695 215.11859,1849.03418 214.350214,1847.27475 C213.485791,1845.31983 212.717415,1845.51532 213.101603,1848.54545 Z M17.2859108,1682.29843 C20.0805068,1681.90052 22.9749097,1681.90052 25.7695056,1682.29843 C26.1687336,1682.3979 25.9691196,1683.1937 25.7695056,1683.59161 C25.4700846,1684.08898 24.8712426,1684.18846 24.3722076,1684.48689 C23.8731727,1684.78531 22.9749097,1684.58636 22.8751027,1685.08374 C22.4758747,1692.24597 24.3722076,1701.19875 23.4739447,1708.36098 C23.3741377,1709.35574 21.1783837,1709.05731 20.5795417,1708.36098 C14.3915079,1701.19875 13.0940169,1697.61764 10,1691.54964 L10,1682.7958 L10,1682.7958 C14.4913149,1686.47639 15.1899639,1691.64911 18.3837878,1696.52341 C18.9826298,1697.41869 19.3818578,1698.51292 19.9806998,1699.50767 L20.0805068,1699.50767 C20.0805068,1698.51292 19.8808928,1697.51816 19.8808928,1696.62288 C19.8808928,1692.84282 19.9806998,1688.96328 19.4816648,1685.18321 C19.3818578,1684.58636 19.1822438,1684.78531 18.6832088,1684.48689 C18.1841738,1684.18846 17.5853318,1684.08898 17.2859108,1683.69108 C17.0862968,1683.1937 16.7868758,1682.29843 17.2859108,1682.29843 Z M237.364821,1909 C237.263844,1907.82376 237.061889,1906.74555 236.960912,1905.76535 C236.355049,1902.62872 231.710098,1905.47129 228.680782,1905.17723 C227.469055,1905.07921 226.560261,1907.23565 226.459283,1909 L224.338762,1909 C224.338762,1907.62772 223.732899,1906.05941 222.62215,1905.47129 C220.80456,1904.58912 219.996743,1905.17723 217.876221,1905.17723 C216.260586,1905.17723 214.745928,1904.4911 213.433225,1905.37327 C212.322476,1906.15743 213.332248,1907.33367 213.433225,1908.90198 L213.433225,1909 L210.302932,1909 C210.201954,1905.07921 210.201954,1901.25645 210,1896.64952 C210,1896.15943 212.120521,1895.86537 212.52443,1896.06141 C212.928339,1896.35546 213.029316,1897.0416 213.23127,1897.62972 C213.433225,1898.21784 213.029316,1899.29605 213.635179,1899.39407 C221.309446,1900.17823 228.882736,1899.49209 236.65798,1899.10001 C237.263844,1899.10001 237.162866,1898.80596 237.364821,1898.21784 C237.566775,1897.62972 237.667752,1896.94358 238.071661,1896.64952 C238.47557,1896.45348 240.394137,1897.23764 240.394137,1897.72774 C240.596091,1901.94258 241,1905.37327 241,1909 L237.364821,1909 L237.364821,1909 Z M87.3606557,1836 C84.1147541,1842.1 78.4098361,1852.1 73,1861.7 C73.9836066,1862.4 75.0655738,1863.4 76.3442623,1865 C78.2131148,1867.3 81.7540984,1871.9 84.9016393,1878 C86.1803279,1877.7 87.557377,1877.5 88.8360656,1876.9 C98.6721311,1872.3 99.852459,1871.5 109,1866.9 C103.688525,1855.3 96.4098361,1844.8 87.3606557,1836 Z M70.1971039,1866 C67.0963431,1871.34906 64.2956558,1876.30189 62.295165,1879.96698 C59.9946005,1884.42453 71.8975211,1885.41509 71.8975211,1885.31604 L69.7970057,1885.41509 L82,1887 C79.2993373,1879.37264 75.2983556,1872.24057 70.1971039,1866 Z M53.3664393,1884 C54.1567063,1883.19804 54.84819,1882.1956 55.3421069,1881.19315 C60.6764096,1870.96822 67.4924629,1856.7335 73.8145994,1844.90465 C74.1109496,1844.30318 74.5060831,1843.60147 75,1843 C68.8754303,1849.41565 62.6520772,1855.93154 56.4287241,1862.34719 L59.7873591,1858.93888 C59.7873591,1858.93888 41.6112167,1878.08557 42.0063503,1880.09046 C42.4014838,1882.09535 48.2297034,1883.29829 48.2297034,1883.29829 L48.13092,1883.29829 L53.3664393,1884 Z M88.372549,1881.54795 C88.0784314,1881.6484 87.5882353,1881.84932 87,1882.05023 C87.7843137,1883.9589 88.5686275,1886.06849 89.254902,1888.17808 C99.6470588,1889.58447 106.607843,1891.59361 117,1893 C115.72549,1885.3653 113.666667,1878.03196 110.823529,1871 C101.313725,1875.01826 100.823529,1875.42009 90.5294118,1879.63927 C89.6470588,1879.94064 89.254902,1881.14612 88.372549,1881.54795 Z M38.8472721,1836 C38.9443809,1835.80205 39.0414897,1835.50512 39.1385985,1835.20819 C42.6345149,1824.61775 42.7316237,1823.43003 45.9362137,1812.64164 C46.0333225,1812.24573 46.0333225,1811.75085 45.8391049,1811.25597 C39.7212512,1809.0785 34.1860503,1807.89078 27,1807 C28.6508494,1815.90785 30.3016988,1824.8157 31.8554394,1833.12969 C34.2831591,1833.82253 36.5166612,1834.81229 38.8472721,1836 Z M52.0060015,1814 C51.7054303,1814.1988 51.5050496,1814.39759 51.4048592,1814.69578 C47.1968635,1825.53012 47.2970538,1825.82831 43.0890581,1836.66265 C42.8886774,1837.35843 43.0890581,1838.05422 43.0890581,1838.75 C47.1968635,1841.23494 51.1042881,1844.11747 54.8113319,1847 C55.7130453,1846.10542 56.6147587,1845.31024 57.3160913,1844.31627 C63.5278945,1834.87349 63.8284657,1833.78012 69.7396978,1824.13855 C70.0402689,1823.74096 70.0402689,1823.14458 69.9400785,1822.54819 C64.0288464,1819.26807 57.8170432,1816.48494 52.0060015,1814 L52.0060015,1814 Z M59.8789062,1848.62295 C59.6835937,1848.81967 59.390625,1849.40984 59,1849.80328 L59.2929688,1850 C67.4960938,1844.19672 75.796875,1838.29508 84,1832.4918 C81.4609375,1830.22951 78.53125,1828.06557 75.40625,1826 C74.8203125,1826.19672 74.234375,1826.39344 73.9414062,1826.78689 C67.3984375,1836.13115 67.3007812,1836.52459 60.7578125,1845.77049 C60.0742187,1846.55738 60.3671875,1847.83607 59.8789062,1848.62295 Z M52.9378591,1853.94421 C53.1362458,1852.75966 52.8386658,1851.77253 52.3426992,1850.78541 C46.4902927,1846.93562 39.943533,1843.97425 33,1842 C34.6862866,1850.78541 36.1741865,1858.58369 37.2653131,1865 C42.5225596,1861.24893 47.779806,1857.59657 52.9378591,1853.94421 Z M167.909743,1892.69686 C167.401322,1892.69686 165.571006,1892.79362 165.367637,1892.21308 C164.554163,1889.31039 164.9609,1888.34283 167.909743,1887.37527 C171.367006,1886.31095 166.994585,1887.18175 170.350164,1886.89149 C170.96027,1886.79473 175.129323,1885.63365 176.75627,1886.11743 C177.569744,1886.4077 182.348903,1892.89038 174.82427,1892.98713 C169.53669,1893.08389 171.570375,1892.60011 167.909743,1892.69686 L167.909743,1892.69686 Z M165.363175,1874.94287 C160.777679,1875.55724 161.185279,1871.05185 164.751775,1869.31114 C168.012572,1867.77521 163.528977,1868.49197 166.891673,1867.67281 C167.401173,1867.57042 171.477168,1865.7273 173.209467,1866.03449 C174.024666,1866.23928 179.62916,1872.38299 172.190468,1873.50934 C166.789773,1874.4309 169.031571,1874.4309 165.363175,1874.94287 L165.363175,1874.94287 Z M157.569971,1855.80718 C153.163806,1856.94209 152.963526,1852.78076 156.268149,1850.79467 C159.272353,1848.99773 156.66871,1850.32179 159.773054,1849.18688 C160.273754,1848.99773 163.878798,1846.82249 165.68132,1847.01164 C166.482441,1847.10622 172.791269,1852.02415 165.58118,1854.01024 C160.574174,1855.23973 161.074875,1854.86142 157.569971,1855.80718 L157.569971,1855.80718 Z M149.811922,1839.36848 C149.319166,1839.57175 147.742348,1840.2832 147.348143,1839.87666 C145.475671,1837.43741 145.475671,1836.21778 147.840899,1834.18507 C150.50178,1831.84746 147.840899,1833.57526 150.698882,1832.05073 C151.191638,1831.74582 154.443825,1829.1033 156.217746,1829.00167 C157.006155,1828.90003 163.806184,1833.47362 157.006155,1836.52269 C152.374251,1838.35212 153.16266,1837.84395 149.811922,1839.36848 L149.811922,1839.36848 Z M135.103972,1817.29388 C131.23397,1819.63967 129.706337,1815.63227 132.252391,1812.70003 C134.594761,1810.06101 131.539496,1813.77519 134.289234,1811.82036 C134.696603,1811.52713 137.650025,1808.39941 139.381342,1808.00844 C140.196079,1807.81296 147.834241,1811.03843 141.520027,1814.94808 C137.038972,1817.5871 138.261078,1815.33905 135.103972,1817.29388 L135.103972,1817.29388 Z M120.25337,1799.94299 C116.873312,1802.89694 114.785629,1799.0568 116.773898,1795.80745 C118.563341,1792.8535 116.376244,1795.01973 118.662754,1792.65657 C119.060408,1792.26271 121.346918,1788.71796 122.937533,1788.02871 C123.732841,1787.73331 131.586505,1789.70262 126.019351,1794.62587 C122.241639,1797.97368 123.036947,1797.48136 120.25337,1799.94299 L120.25337,1799.94299 Z M106.367284,1789.60284 C108.82046,1786.83596 109.016714,1786.52852 112.451159,1782.53191 C117.259382,1776.79319 109.409222,1775.66595 108.624206,1776.07585 C107.1523,1776.89567 105.287887,1780.89228 104.993506,1781.30219 C103.030966,1784.06907 104.012236,1782.32696 102.540331,1785.70871 C100.872172,1789.39788 103.325347,1793.08706 106.367284,1789.60284 L106.367284,1789.60284 Z M92.5438598,1776.58734 C88.6582553,1782.34877 87.4262344,1776.38519 88.3739428,1773.25178 C89.416422,1769.81514 86.9523802,1774.76794 88.5634845,1771.83669 C88.847797,1771.3313 90.1745888,1767.18712 91.5013805,1766.17634 C92.1647764,1765.67095 99.8412145,1765.87311 95.8608392,1772.03885 C93.017714,1776.28411 94.6288183,1773.45393 92.5438598,1776.58734 L92.5438598,1776.58734 Z M64.2592896,1764.8751 C62.4049911,1769.07703 58.6963941,1766.37579 59.1084605,1762.57404 C59.5205268,1759.07243 58.3873444,1762.87418 59.5205268,1759.6727 C59.72656,1759.17247 60.2416429,1754.8705 61.4778419,1753.5699 C62.0959413,1752.96962 70.3372679,1751.46893 67.349787,1758.27206 C65.1864388,1763.07427 65.7015217,1761.47353 64.2592896,1764.8751 L64.2592896,1764.8751 Z M40.296542,1760.49121 C39.1591122,1764.91376 35.0230035,1762.90351 34.8161981,1758.98352 C34.6093926,1755.46558 33.5753655,1757.77737 34.1957818,1754.46045 C34.2991845,1753.95789 34.092379,1749.63585 35.1264062,1748.12816 C35.6434198,1747.42458 43.5020262,1744.61023 41.7441801,1751.84713 C40.5033475,1756.97327 41.3305692,1756.87276 40.296542,1760.49121 L40.296542,1760.49121 Z M10,1706 C10.735772,1706.26087 11.4715439,1706.34783 11.7168012,1706.69565 C11.9620586,1707.04348 12.2073159,1707.73913 11.7168012,1707.82609 C11.1036579,1707.91304 10.6131433,1707.91304 10,1708 L10,1706 Z"/><g fill="#777878"><path d="M5.63837573,0 L407.428533,0 L408.819498,3.57578893 C414.780777,18.7728919 423.027212,32.8773927 433.06203,45.4919814 C443.196203,58.2058976 455.218114,69.3305742 468.730345,78.4687015 C481.944512,87.5075013 496.648999,94.5597517 512.247677,99.4267977 C527.349582,104.095189 543.445033,106.578376 560.037258,106.578376 C576.728837,106.578376 592.724934,104.095189 607.826839,99.4267977 C623.425517,94.6590792 638.130004,87.5075013 651.344171,78.4687015 C664.856401,69.3305742 676.878313,58.2058976 687.012486,45.4919814 C697.047304,32.8773927 705.293739,18.8722193 711.255018,3.57578893 L712.645983,0 L1120,0 L1120,1920 L0.0745159788,1920 L0.0745159788,1918.80807 C-0.0248386596,1492.19659 -0.0248386596,1065.5851 0.0745159788,638.874289 C0.0745159788,452.833937 0.0745159788,266.892913 0.0745159788,1.09260217 L0.0745159788,0 L5.63837573,0 Z M405.279558,2 L2.04414181,2 L2.04414181,638.479542 C2.04414181,1064.61992 1.94482274,1490.85962 2.04414181,1917 L1117,1917 L1117,2 L713.764584,2 L712.970031,4.08551574 C706.911568,19.4786081 698.568766,33.7792875 688.338902,46.5903127 C678.009719,59.5006482 665.892793,70.7227091 652.186761,80.0578748 C638.778687,89.19442 623.880827,96.4440699 608.089095,101.310273 C592.793959,105.977856 576.505632,108.559923 559.62139,108.559923 C542.737148,108.559923 526.448821,105.977856 511.153685,101.310273 C495.262634,96.4440699 480.464093,89.19442 467.056019,80.0578748 C453.449306,70.7227091 441.233061,59.5006482 430.903878,46.5903127 C420.475376,33.7792875 412.132574,19.4786081 406.074111,3.98620547 L405.279558,2 Z M399.72181,11 L11,11 L11,1909 L1108.80127,1909 L1108.80127,928.954462 L1109,914.549333 L1109,866.565349 L1108.80127,860.008532 L1108.80127,11 L720.178824,11 C713.72,26.3985868 705.075113,40.7043706 694.740995,53.4206229 C684.108778,66.534258 671.588597,77.959016 657.677285,87.4962052 C643.56724,97.1327401 627.86733,104.683015 611.173756,109.848992 C594.977014,114.816278 577.885973,117.498613 560.099367,117.498613 C542.31276,117.498613 525.122353,114.816278 509.024977,109.848992 C492.331403,104.683015 476.631493,97.1327401 462.521448,87.4962052 C448.610136,77.959016 436.089955,66.534258 425.457738,53.4206229 C414.82552,40.7043706 406.180633,26.3985868 399.72181,11 Z M10.358456,9 L401.991379,9 L402.289576,9.69513914 C408.750526,25.1868115 417.298859,39.4868167 427.735777,52.297238 C438.272094,65.206965 450.597597,76.5278024 464.314689,85.8625281 C478.329979,95.3958649 493.736858,102.843784 510.237128,107.908369 C526.141003,112.774343 543.13827,115.455594 560.632532,115.455594 C578.226194,115.455594 595.124061,112.774343 611.027936,107.908369 C627.528207,102.843784 642.935086,95.2965593 656.950375,85.8625281 C670.766867,76.5278024 683.09237,65.206965 693.529288,52.297238 C703.966206,39.4868167 712.514539,25.1868115 718.975488,9.69513914 L719.273686,9 L1112,9 L1112,1911 L9.26506458,1911 C8.66866927,1277.0331 9.26506458,642.966898 9.26506458,9 L10.358456,9 L10.358456,9 Z"/><path d="M58,1 L58,10 L5.36173913,10 L5.36173913,6.31818182 L1,6.31818182 L1,1 L58,1 Z M1,59 L10,59 L10,112 L1,112 L1,59 Z M1,165 L10,165 L10,218 L1,218 L1,165 Z M1,270 L10,270 L10,323 L1,323 L1,270 Z M1,376 L10,376 L10,429 L1,429 L1,376 Z M1,481 L10,481 L10,534 L1,534 L1,481 Z M1,587 L10,587 L10,640 L1,640 L1,587 Z M1,693 L10,693 L10,746 L1,746 L1,693 Z M1,798 L10,798 L10,851 L1,851 L1,798 Z M1,904 L10,904 L10,957 L1,957 L1,904 Z M1,1009 L10,1009 L10,1062 L1,1062 L1,1009 Z M1,1115 L10,1115 L10,1168 L1,1168 L1,1115 Z M1,1220 L10,1220 L10,1273 L1,1273 L1,1220 Z M1,1326 L10,1326 L10,1379 L1,1379 L1,1326 Z M1,1432 L10,1432 L10,1485 L1,1485 L1,1432 Z M1,1537 L10,1537 L10,1590 L1,1590 L1,1537 Z M1,1643 L10,1643 L10,1696 L1,1696 L1,1643 Z M1,1748 L10,1748 L10,1801 L1,1801 L1,1748 Z M1,1854 L10,1854 L10,1907 L1,1907 L1,1854 Z M50,1919 L50,1910 L103,1910 L103,1919 L50,1919 Z M156,1919 L156,1910 L209,1910 L209,1919 L156,1919 Z M262,1919 L262,1910 L315,1910 L315,1919 L262,1919 Z M367,1919 L367,1910 L420,1910 L420,1919 L367,1919 Z M473,1919 L473,1910 L526,1910 L526,1919 L473,1919 Z M579,1919 L579,1910 L632,1910 L632,1919 L579,1919 Z M684,1919 L684,1910 L737,1910 L737,1919 L684,1919 Z M790,1919 L790,1910 L843,1910 L843,1919 L790,1919 Z M895,1919 L895,1910 L948,1910 L948,1919 L895,1919 Z M1001,1919 L1001,1910 L1054,1910 L1054,1919 L1001,1919 Z M1107,1919 L1107,1910.22535 L1110.31707,1910.22535 L1110.31707,1870 L1119,1870 L1119,1919 L1107,1919 L1107,1919 Z M1119,1817 L1110,1817 L1110,1764 L1119,1764 L1119,1817 Z M1119,1712 L1110,1712 L1110,1659 L1119,1659 L1119,1712 Z M1119,1606 L1110,1606 L1110,1553 L1119,1553 L1119,1606 Z M1119,1500 L1110,1500 L1110,1447 L1119,1447 L1119,1500 Z M1119,1395 L1110,1395 L1110,1342 L1119,1342 L1119,1395 Z M1119,1289 L1110,1289 L1110,1236 L1119,1236 L1119,1289 Z M1119,1184 L1110,1184 L1110,1131 L1119,1131 L1119,1184 Z M1119,1078 L1110,1078 L1110,1025 L1119,1025 L1119,1078 Z M1119,972 L1110,972 L1110,928.581921 L1110.50562,928.581921 L1110.50562,919 L1119,919 L1119,972 Z M1119,867 L1110.50562,867 L1110.50562,860.412429 L1110,860.412429 L1110,814 L1119,814 L1119,867 Z M1119,761 L1110,761 L1110,708 L1119,708 L1119,761 Z M1119,656 L1110,656 L1110,603 L1119,603 L1119,656 Z M1119,550 L1110,550 L1110,497 L1119,497 L1119,550 Z M1119,444 L1110,444 L1110,391 L1119,391 L1119,444 Z M1119,339 L1110,339 L1110,286 L1119,286 L1119,339 Z M1119,233 L1110,233 L1110,180 L1119,180 L1119,233 Z M1119,128 L1110,128 L1110,75 L1119,75 L1119,128 Z M1119,22 L1110.12165,22 L1110.12165,9.84210526 L1078,9.84210526 L1078,1 L1119,1 L1119,22 L1119,22 Z M1026,1 L1026,10 L973,10 L973,1 L1026,1 Z M920,1 L920,10 L867,10 L867,1 L920,1 Z M814,1 L814,10 L761,10 L761,1 L814,1 Z M709.066116,11 C702.22314,26.3686354 692.404959,41.6374745 681,54.01222 L687.446281,60 C699.545455,46.6272912 709.561983,31.2586558 717,14.6924644 L709.066116,11 Z M640.65019,86 C625.821293,94.6 609.806084,100.8 593,104.3 L594.779468,113 C612.376426,109.3 629.380228,102.8 645,93.7 L640.65019,86 Z M542,106.318386 C524.829588,104.443946 508.353933,100.004484 492.672285,93 L489,100.991031 C505.574906,108.390135 522.94382,113.026906 541.007491,115 L542,106.318386 Z M450,64.5974304 C437.2,53.0728051 426.3,39.8736617 417.7,25 L410,29.3340471 C419.2,44.9957173 430.5,58.7858672 444,71 L450,64.5974304 Z M375,1 L375,10 L322,10 L322,1 L375,1 Z M270,1 L270,10 L217,10 L217,1 L270,1 Z M164,1 L164,10 L111,10 L111,1 L164,1 Z"/></g></g></svg>